<?xml version="1.0" encoding="UTF-8"?>
<svg xmlns="http://www.w3.org/2000/svg" xmlns:xlink="http://www.w3.org/1999/xlink" viewBox="0 0 579.82 351.13">
    <defs>
        <style>.e,.f{fill:none;}.g{fill:#2d5261;}.f{stroke:#86b7cc;stroke-linecap:square;stroke-linejoin:bevel;}.h{clip-path:url(#d);}</style>
        <clipPath id="d">
            <polygon class="e" points=".5 203.21 346.22 .63 579.12 137.62 234.79 338.19 .5 203.21" />
        </clipPath>
    </defs>
    <g id="a" />
    <g id="b">
        <g id="c">
            <g>
                <polyline class="g" points="276.77 41.11 346.22 .43 579.12 137.42 579.32 150.57 234.79 350.69 .5 215.62 .5 202.92 276.77 41.11" />
                <line class="f" x1="234.79" y1="337.99" x2="234.79" y2="350.09" />
                <polyline class="f" points="276.77 41.11 346.22 .43 579.12 137.42 579.32 150.57 234.79 350.69 .5 215.62 .5 202.92 276.77 41.11" />
                <polygon class="f" points=".5 203.01 346.22 .43 579.12 137.42 234.79 337.99 .5 203.01" />
                <g class="h">
                    <g>
                        <line class="f" x1="583.58" y1="138.1" x2="234.21" y2="341.6" />
                        <line class="f" x1="234.21" y1="341.6" x2="-3.27" y2="204.67" />
                        <g>
                            <g>
                                <line class="f" x1="340.95" y1="35.33" x2="374.76" y2="15.76" />
                                <line class="f" x1="376.86" y1="56.17" x2="410.66" y2="36.6" />
                                <line class="f" x1="412.76" y1="77.01" x2="446.1" y2="57.87" />
                                <line class="f" x1="448.67" y1="97.85" x2="481.4" y2="79.06" />
                                <line class="f" x1="484.58" y1="118.69" x2="517.3" y2="99.9" />
                                <line class="f" x1="520.48" y1="139.53" x2="553.21" y2="120.74" />
                            </g>
                            <line class="f" x1="312.27" y1="19.56" x2="549.86" y2="156.74" />
                            <g>
                                <line class="f" x1="242.29" y1="60.33" x2="480.02" y2="197.6" />
                                <g>
                                    <line class="f" x1="277" y1="40.69" x2="514.58" y2="177.87" />
                                    <g>
                                        <line class="f" x1="271.39" y1="76.5" x2="305.04" y2="57.1" />
                                        <line class="f" x1="307.3" y1="97.34" x2="340.94" y2="77.94" />
                                        <line class="f" x1="343.2" y1="118.18" x2="377.02" y2="98.84" />
                                        <line class="f" x1="379.11" y1="139.02" x2="413.05" y2="119.45" />
                                        <line class="f" x1="415.01" y1="159.85" x2="448.95" y2="140.29" />
                                        <line class="f" x1="451.44" y1="180.39" x2="484.86" y2="161.13" />
                                    </g>
                                    <g>
                                        <line class="f" x1="322.2" y1="66.24" x2="357.11" y2="46.03" />
                                        <line class="f" x1="291.28" y1="48.34" x2="326.18" y2="28.12" />
                                        <line class="f" x1="358.26" y1="86.99" x2="393.01" y2="66.87" />
                                        <line class="f" x1="394.19" y1="107.81" x2="429.43" y2="87.58" />
                                        <line class="f" x1="430.32" y1="128.53" x2="465.39" y2="108.39" />
                                        <line class="f" x1="466.39" y1="149.5" x2="501.31" y2="129.21" />
                                        <line class="f" x1="502.06" y1="170.24" x2="537.15" y2="150.09" />
                                    </g>
                                </g>
                            </g>
                        </g>
                        <g>
                            <line class="f" x1="172.4" y1="100.94" x2="410.12" y2="238.21" />
                            <g>
                                <line class="f" x1="207.1" y1="81.3" x2="444.69" y2="218.48" />
                                <g>
                                    <line class="f" x1="201.49" y1="117.11" x2="235.14" y2="97.71" />
                                    <line class="f" x1="237.4" y1="137.95" x2="271.04" y2="118.55" />
                                    <line class="f" x1="273.3" y1="158.79" x2="307.12" y2="139.45" />
                                    <line class="f" x1="309.21" y1="179.63" x2="343.15" y2="160.06" />
                                    <line class="f" x1="345.11" y1="200.46" x2="379.06" y2="180.9" />
                                    <line class="f" x1="381.54" y1="221" x2="414.96" y2="201.74" />
                                </g>
                                <g>
                                    <line class="f" x1="252.3" y1="106.85" x2="287.21" y2="86.64" />
                                    <line class="f" x1="221.38" y1="88.95" x2="256.29" y2="68.73" />
                                    <line class="f" x1="288.36" y1="127.6" x2="323.12" y2="107.48" />
                                    <line class="f" x1="324.29" y1="148.42" x2="359.53" y2="128.19" />
                                    <line class="f" x1="360.42" y1="169.14" x2="395.5" y2="149" />
                                    <line class="f" x1="396.49" y1="190.11" x2="431.42" y2="169.82" />
                                    <line class="f" x1="432.16" y1="210.85" x2="467.26" y2="190.7" />
                                </g>
                            </g>
                        </g>
                        <g>
                            <line class="f" x1="102.55" y1="141.8" x2="340.27" y2="279.06" />
                            <g>
                                <line class="f" x1="137.26" y1="122.16" x2="374.84" y2="259.34" />
                                <g>
                                    <line class="f" x1="131.65" y1="157.97" x2="165.29" y2="138.57" />
                                    <line class="f" x1="167.55" y1="178.81" x2="201.2" y2="159.41" />
                                    <line class="f" x1="203.46" y1="199.64" x2="237.28" y2="180.31" />
                                    <line class="f" x1="239.36" y1="220.48" x2="273.31" y2="200.92" />
                                    <line class="f" x1="275.27" y1="241.32" x2="309.21" y2="221.76" />
                                    <line class="f" x1="311.69" y1="261.86" x2="345.12" y2="242.6" />
                                </g>
                                <g>
                                    <line class="f" x1="182.46" y1="147.71" x2="217.36" y2="127.5" />
                                    <line class="f" x1="151.53" y1="129.81" x2="186.44" y2="109.59" />
                                    <line class="f" x1="218.52" y1="168.46" x2="253.27" y2="148.34" />
                                    <line class="f" x1="254.45" y1="189.28" x2="289.69" y2="169.05" />
                                    <line class="f" x1="290.57" y1="209.99" x2="325.65" y2="189.85" />
                                    <line class="f" x1="326.64" y1="230.97" x2="361.57" y2="210.67" />
                                    <line class="f" x1="362.32" y1="251.71" x2="397.41" y2="231.56" />
                                </g>
                            </g>
                        </g>
                        <g>
                            <line class="f" x1="32.7" y1="182.66" x2="270.43" y2="319.92" />
                            <g>
                                <line class="f" x1="67.41" y1="163.01" x2="305" y2="300.2" />
                                <g>
                                    <line class="f" x1="61.8" y1="198.83" x2="95.45" y2="179.43" />
                                    <line class="f" x1="97.71" y1="219.66" x2="131.35" y2="200.27" />
                                    <line class="f" x1="133.61" y1="240.5" x2="167.43" y2="221.17" />
                                    <line class="f" x1="169.52" y1="261.34" x2="203.46" y2="241.78" />
                                    <line class="f" x1="205.42" y1="282.18" x2="239.37" y2="262.62" />
                                    <line class="f" x1="241.85" y1="302.72" x2="275.27" y2="283.46" />
                                </g>
                                <g>
                                    <line class="f" x1="112.61" y1="188.57" x2="147.52" y2="168.36" />
                                    <line class="f" x1="81.69" y1="170.67" x2="116.59" y2="150.45" />
                                    <line class="f" x1="148.67" y1="209.32" x2="183.42" y2="189.2" />
                                    <line class="f" x1="184.6" y1="230.14" x2="219.84" y2="209.91" />
                                    <line class="f" x1="220.73" y1="250.85" x2="255.81" y2="230.71" />
                                    <line class="f" x1="256.8" y1="271.83" x2="291.73" y2="251.53" />
                                    <line class="f" x1="292.47" y1="292.57" x2="327.57" y2="272.42" />
                                </g>
                            </g>
                        </g>
                        <g>
                            <line class="f" x1="-37.14" y1="223.52" x2="200.58" y2="360.78" />
                            <g>
                                <line class="f" x1="-2.43" y1="203.87" x2="235.15" y2="341.05" />
                                <g>
                                    <line class="f" x1="-8.04" y1="239.68" x2="25.6" y2="220.29" />
                                    <line class="f" x1="27.86" y1="260.52" x2="61.51" y2="241.13" />
                                    <line class="f" x1="63.77" y1="281.36" x2="97.59" y2="262.03" />
                                    <line class="f" x1="99.67" y1="302.2" x2="133.61" y2="282.64" />
                                    <line class="f" x1="135.58" y1="323.04" x2="169.52" y2="303.48" />
                                    <line class="f" x1="172" y1="343.58" x2="205.43" y2="324.32" />
                                </g>
                                <g>
                                    <line class="f" x1="42.77" y1="229.43" x2="77.67" y2="209.22" />
                                    <line class="f" x1="11.84" y1="211.52" x2="46.75" y2="191.31" />
                                    <line class="f" x1="78.83" y1="250.18" x2="113.58" y2="230.06" />
                                    <line class="f" x1="114.76" y1="271" x2="150" y2="250.77" />
                                    <line class="f" x1="150.88" y1="291.71" x2="185.96" y2="271.57" />
                                    <line class="f" x1="186.95" y1="312.69" x2="221.88" y2="292.39" />
                                    <line class="f" x1="222.63" y1="333.43" x2="257.72" y2="313.28" />
                                </g>
                            </g>
                        </g>
                    </g>
                </g>
            </g>
        </g>
    </g>
</svg>