<?xml version="1.0" encoding="UTF-8"?>
<svg xmlns="http://www.w3.org/2000/svg" xmlns:xlink="http://www.w3.org/1999/xlink" viewBox="0 0 579.82 351.13">
    <defs>
        <style>.e,.f,.g{fill:none;}.f,.g,.h{stroke:#ff7e2f;stroke-linecap:square;stroke-linejoin:bevel;}.g{stroke-dasharray:0 0 5 5;}.h{fill:#2d5261;}.i{clip-path:url(#d);}</style>
        <clipPath id="d">
            <polygon class="e" points=".5 202.92 234.77 337.99 579.12 135.29 346.22 .43 .5 202.92" />
        </clipPath>
    </defs>
    <g id="a" />
    <g id="b">
        <g id="c">
            <g>
                <polygon class="h" points="234.79 350.7 .5 215.62 .5 202.92 346.22 .43 579.12 135.29 579.32 148.44 234.79 350.7" />
                <g class="i">
                    <g>
                        <g>
                            <g>
                                <path class="f" d="M9.25,209.6l58.56,33.81c5.72,3.3,12.77,3.3,18.48,0l68.3-39.44c4.49-2.59,4.49-9.08,0-11.67l-58.52-33.81c-5.72-3.3-12.77-3.31-18.49,0L9.25,197.93c-4.49,2.59-4.49,9.08,0,11.67Z" />
                                <path class="f" d="M87.56,254.54l58.56,33.81c5.72,3.3,12.77,3.3,18.48,0l68.3-39.44c4.49-2.59,4.49-9.08,0-11.67l-58.52-33.81c-5.72-3.3-12.77-3.31-18.49,0l-68.34,39.44c-4.49,2.59-4.49,9.08,0,11.67Z" />
                                <path class="f" d="M165.86,299.48l58.56,33.81c5.72,3.3,12.77,3.3,18.48,0l68.3-39.44c4.49-2.59,4.49-9.08,0-11.67l-58.52-33.81c-5.72-3.3-12.77-3.31-18.49,0l-68.34,39.44c-4.49,2.59-4.49,9.08,0,11.67Z" />
                            </g>
                            <g>
                                <path class="f" d="M95.91,158.47l58.56,33.81c5.72,3.3,12.77,3.3,18.48,0l68.3-39.44c4.49-2.59,4.49-9.08,0-11.67l-58.52-33.81c-5.72-3.3-12.77-3.31-18.49,0l-68.34,39.44c-4.49,2.59-4.49,9.08,0,11.67Z" />
                                <path class="f" d="M174.21,203.4l58.56,33.81c5.72,3.3,12.77,3.3,18.48,0l68.3-39.44c4.49-2.59,4.49-9.08,0-11.67l-58.52-33.81c-5.72-3.3-12.77-3.31-18.49,0l-68.34,39.44c-4.49,2.59-4.49,9.08,0,11.67Z" />
                                <path class="f" d="M252.52,248.34l58.56,33.81c5.72,3.3,12.77,3.3,18.48,0l68.3-39.44c4.49-2.59,4.49-9.08,0-11.67l-58.52-33.81c-5.72-3.3-12.77-3.31-18.49,0l-68.34,39.44c-4.49,2.59-4.49,9.08,0,11.67Z" />
                            </g>
                            <g>
                                <path class="f" d="M182.56,107.33l58.56,33.81c5.72,3.3,12.77,3.3,18.48,0l68.3-39.44c4.49-2.59,4.49-9.08,0-11.67l-58.52-33.81c-5.72-3.3-12.77-3.31-18.49,0l-68.34,39.44c-4.49,2.59-4.49,9.08,0,11.67Z" />
                                <path class="f" d="M260.87,152.27l58.56,33.81c5.72,3.3,12.77,3.3,18.48,0l68.3-39.44c4.49-2.59,4.49-9.08,0-11.67l-58.52-33.81c-5.72-3.3-12.77-3.31-18.49,0l-68.34,39.44c-4.49,2.59-4.49,9.08,0,11.67Z" />
                                <path class="f" d="M339.17,197.21l58.56,33.81c5.72,3.3,12.77,3.3,18.48,0l68.3-39.44c4.49-2.59,4.49-9.08,0-11.67l-58.52-33.81c-5.72-3.3-12.77-3.31-18.49,0l-68.34,39.44c-4.49,2.59-4.49,9.08,0,11.67Z" />
                            </g>
                            <g>
                                <path class="f" d="M269.22,56.2l58.56,33.81c5.72,3.3,12.77,3.3,18.48,0l68.3-39.44c4.49-2.59,4.49-9.08,0-11.67L356.05,5.09c-5.72-3.3-12.77-3.31-18.49,0l-68.34,39.44c-4.49,2.59-4.49,9.08,0,11.67Z" />
                                <path class="f" d="M347.52,101.13l58.56,33.81c5.72,3.3,12.77,3.3,18.48,0l68.3-39.44c4.49-2.59,4.49-9.08,0-11.67l-58.52-33.81c-5.72-3.3-12.77-3.31-18.49,0l-68.34,39.44c-4.49,2.59-4.49,9.08,0,11.67Z" />
                                <path class="f" d="M425.83,146.07l58.56,33.81c5.72,3.3,12.77,3.3,18.48,0l68.3-39.44c4.49-2.59,4.49-9.08,0-11.67l-58.52-33.81c-5.72-3.3-12.77-3.31-18.49,0l-68.34,39.44c-4.49,2.59-4.49,9.08,0,11.67Z" />
                            </g>
                        </g>
                        <g>
                            <line class="f" x1="37.46" y1="225.41" x2="386.94" y2="23.19" />
                            <line class="f" x1="116.59" y1="270.56" x2="463.82" y2="67.67" />
                            <line class="f" x1="196.75" y1="316.75" x2="540.36" y2="111.48" />
                        </g>
                        <g>
                            <line class="g" x1="53.9" y1="234.75" x2="403.39" y2="32.53" />
                            <line class="g" x1="133.03" y1="279.9" x2="480.27" y2="77.01" />
                            <line class="g" x1="213.2" y1="326.09" x2="556.8" y2="120.82" />
                        </g>
                        <g>
                            <line class="g" x1="20.98" y1="215.83" x2="370.47" y2="13.61" />
                            <line class="g" x1="100.11" y1="260.98" x2="447.35" y2="58.09" />
                            <line class="g" x1="180.27" y1="307.17" x2="523.88" y2="101.9" />
                        </g>
                        <line class="f" x1="304.69" y1="24.46" x2="538.37" y2="159.38" />
                        <line class="f" x1="218.79" y1="75.26" x2="452.82" y2="210.39" />
                        <line class="f" x1="132.8" y1="126.02" x2="366.05" y2="260.7" />
                        <line class="f" x1="46.58" y1="176.64" x2="279.96" y2="311.89" />
                    </g>
                </g>
                <g>
                    <polyline class="f" points="578.43 135.7 234.77 337.99 .71 203.04" />
                    <line class="f" x1="234.79" y1="337.99" x2="234.79" y2="350.09" />
                    <polygon class="f" points="234.79 350.7 .5 215.62 .5 202.92 346.22 .43 579.12 135.29 579.32 148.44 234.79 350.7" />
                </g>
            </g>
        </g>
    </g>
</svg>