<?xml version="1.0" encoding="UTF-8"?><svg xmlns="http://www.w3.org/2000/svg" xmlns:xlink="http://www.w3.org/1999/xlink" viewBox="0 0 1002.94 652.34"><defs><style>.c{fill:url(#b);}.d,.e,.f,.g,.h,.i{stroke:#2d5261;}.d,.e,.f,.g,.i{stroke-linejoin:bevel;}.d,.h{fill:none;}.j,.e,.i{fill:#f8f8f4;}.k{mix-blend-mode:multiply;}.e,.f,.g{stroke-linecap:square;}.f{fill:#ff7e2f;}.g{fill:#ffb487;}.h{stroke-miterlimit:10;}.l{isolation:isolate;}</style><radialGradient id="b" cx="760.98" cy="524.98" fx="760.98" fy="524.98" r="685.54" gradientTransform="matrix(1, 0, 0, 1, 0, 0)" gradientUnits="userSpaceOnUse"><stop offset="0" stop-color="#86b7cc"/><stop offset=".1" stop-color="#89b9cd" stop-opacity=".97"/><stop offset=".25" stop-color="#94bfd1" stop-opacity=".87"/><stop offset=".43" stop-color="#a6c9d7" stop-opacity=".72"/><stop offset=".63" stop-color="#bed7df" stop-opacity=".5"/><stop offset=".84" stop-color="#dde8ea" stop-opacity=".23"/><stop offset="1" stop-color="#f8f8f4" stop-opacity="0"/></radialGradient></defs><g class="l"><g id="a"><g><g><polyline class="i" points="69.83 285.34 186.91 218.04 232.25 191.34 348.09 124.66 376.61 88.35 262.81 152.11 217.35 179.09 99.74 246.99"/><polyline class="i" points="87.27 263.25 203.98 195.95 249.82 168.75 365.91 101.98"/></g><g><line class="f" x1="147.65" y1="308.03" x2="147.65" y2="304.42"/><polygon class="g" points="455.47 124.59 392.19 88.5 83.94 268.52 83.94 272.45 83.94 272.6 147.76 308.35 455.46 128.65 455.47 124.87 455.47 124.59"/><line class="f" x1="147.65" y1="308.03" x2="147.65" y2="304.42"/><polyline class="g" points="84.16 268.79 147.76 304.42 455.32 124.67"/></g><g><polyline class="i" points="132.3 321.77 249.38 254.47 407.05 168.3 435.57 131.99 162.21 283.41"/><line class="i" x1="149.74" y1="299.67" x2="424.87" y2="145.62"/></g><g><line class="f" x1="212.22" y1="344" x2="212.22" y2="340.38"/><polygon class="g" points="520.04 160.56 456.76 131.39 148.51 304.49 148.51 308.42 148.51 308.57 212.33 344.32 520.03 164.62 520.04 160.84 520.04 160.56"/><line class="f" x1="212.22" y1="344" x2="212.22" y2="340.38"/><polyline class="g" points="148.73 304.76 212.33 340.38 519.9 160.64"/></g><g><polyline class="i" points="195.72 358.76 476.92 198.24 505.44 161.93 391.64 225.69 225.63 320.41"/><polyline class="i" points="213.16 336.67 329.87 269.37 378.65 242.33 494.74 175.56"/></g><g><line class="f" x1="274.97" y1="380.24" x2="274.97" y2="376.63"/><polygon class="g" points="582.79 196.8 519.51 163.48 211.26 340.73 211.26 344.66 211.26 344.81 275.08 380.56 582.78 200.86 582.79 197.08 582.79 196.8"/><line class="f" x1="274.97" y1="380.24" x2="274.97" y2="376.63"/><polyline class="g" points="211.48 341 275.08 376.63 582.64 196.88"/></g><g><polyline class="i" points="259.59 395.27 540.66 236.31 569.18 200.01 289.5 356.91"/><line class="i" x1="277.03" y1="373.17" x2="558.48" y2="213.63"/></g><g><line class="f" x1="341.25" y1="415.18" x2="341.25" y2="411.57"/><polygon class="g" points="649.07 231.74 585.79 201.2 277.54 375.67 277.54 379.61 277.54 379.76 341.36 415.51 649.06 235.81 649.07 232.02 649.07 231.74"/><line class="f" x1="341.25" y1="415.18" x2="341.25" y2="411.57"/><polyline class="g" points="277.76 375.95 341.36 411.57 648.93 231.83"/></g><g><polyline class="i" points="324.4 432.59 441.48 365.29 606.94 271.83 635.46 235.53 521.66 299.29 471.92 326.33 354.31 394.23"/><polyline class="i" points="341.84 410.49 458.55 343.19 508.67 315.93 624.75 249.15"/></g><g><line class="f" x1="407.53" y1="451.77" x2="407.53" y2="448.16"/><polygon class="g" points="715.36 268.33 652.07 232.24 343.82 412.26 343.82 416.2 343.82 416.35 407.65 452.1 715.34 272.4 715.36 268.61 715.36 268.33"/><line class="f" x1="407.53" y1="451.77" x2="407.53" y2="448.16"/><polyline class="g" points="344.04 412.54 407.65 448.16 715.21 268.42"/></g><g><polyline class="i" points="388.57 469.56 503.81 403.31 553.11 375.29 668.95 308.61 697.47 272.3 583.67 336.06 533.6 364.74 418.48 431.21"/><polyline class="i" points="406.01 447.46 520.86 381.23 570.68 352.7 686.77 285.93"/></g><g><line class="f" x1="475.89" y1="487.39" x2="475.89" y2="483.78"/><polygon class="g" points="783.72 303.95 720.43 270.64 412.19 447.88 412.19 451.82 412.19 451.97 476.01 487.72 783.7 308.02 783.72 304.23 783.72 303.95"/><line class="f" x1="475.89" y1="487.39" x2="475.89" y2="483.78"/><polyline class="g" points="412.4 448.16 476.01 483.78 783.57 304.04"/></g><g><polyline class="i" points="450.35 507.57 565.59 441.32 617.97 410.39 798.27 305.17 821.13 272.11 648.53 371.16 595.38 402.74 480.25 469.21"/><polyline class="i" points="467.79 485.47 582.64 419.24 635.54 387.8 812.19 284.76"/></g><g><line class="f" x1="541.48" y1="522.61" x2="541.48" y2="519"/><polygon class="g" points="849.31 339.17 786.02 303.08 477.77 483.1 477.77 487.03 477.77 487.18 541.6 522.93 849.29 343.23 849.31 339.45 849.31 339.17"/><line class="f" x1="541.48" y1="522.61" x2="541.48" y2="519"/><polyline class="g" points="477.99 483.37 541.6 519 849.16 339.25"/></g><g><polyline class="i" points="515.61 544.35 630.85 478.1 683.23 447.17 863.54 341.95 886.4 308.89 713.79 407.94 660.64 439.52 545.52 505.99"/><polyline class="i" points="533.05 522.25 647.91 456.02 700.8 424.58 877.78 321.35"/></g><g><g><g><polyline class="e" points="476.34 58.93 486.28 54.16 1002.26 352.47 993.15 357.44"/><line class="e" x1="476.34" y1="58.93" x2="993.15" y2="357.44"/><polyline class="e" points="1002.26 352.47 993.15 357.44 993.15 378.76 1002.26 373.42 1002.26 352.47"/></g><polygon class="e" points="476.34 58.93 476.34 79.23 993.15 378.76 993.15 357.44 476.34 58.93"/></g><g><polygon class="i" points="274.19 28.45 484 84.69 484 63.38 273.77 5.39 274.19 28.45"/><polygon class="i" points="484 63.38 476.43 59.02 265.61 .61 273.77 5.39 484 63.38"/></g><g><polyline class="i" points="428.23 66.29 446.22 55.9 437.61 50.84 416.32 63 444.36 70.76 460.57 61.57 446.22 55.9"/><polyline class="d" points="460.57 61.57 446.22 53.23 437.61 50.84"/></g><g><polyline class="i" points="324.97 35.44 340.19 26.65 331.77 21.7 316.32 30.62 333.13 39.84 338.59 41.2 354.23 32.2 340.19 26.65"/><polyline class="i" points="331.77 21.7 341.06 24.29 354.23 32.2"/></g><g><polygon class="i" points="340.2 66.9 550.02 123.15 550.02 101.83 339.79 43.84 340.2 66.9"/><polygon class="i" points="550.02 101.83 542.44 97.47 331.62 39.06 339.79 43.84 550.02 101.83"/></g><g><polyline class="i" points="500.14 104.81 516.54 95.34 508.69 90.73 489.29 101.8 514.84 108.88 529.62 100.51 516.54 95.34"/><polyline class="d" points="529.62 100.51 516.54 92.9 508.69 90.73"/></g><g><polyline class="i" points="386.95 71.73 401.12 63.54 393.28 58.93 378.89 67.24 394.55 75.83 399.63 77.1 414.2 68.71 401.12 63.54"/><polyline class="i" points="393.28 58.93 401.93 61.35 414.2 68.71"/></g><g><polygon class="i" points="400.86 102.18 610.67 158.43 610.67 137.12 400.44 79.13 400.86 102.18"/><polygon class="i" points="610.67 137.12 603.1 132.75 392.28 74.35 400.44 79.13 610.67 137.12"/></g><g><polyline class="i" points="558.92 139.24 575.32 129.77 567.47 125.16 548.07 136.23 573.62 143.31 588.4 134.93 575.32 129.77"/><polyline class="d" points="588.4 134.93 575.32 127.33 567.47 125.16"/></g><g><polyline class="i" points="448.88 107.11 463.06 98.93 455.21 94.32 440.82 102.62 456.48 111.21 461.56 112.48 476.13 104.09 463.06 98.93"/><polyline class="i" points="455.21 94.32 463.86 96.73 476.13 104.09"/></g><g><polygon class="i" points="464.28 138.48 674.1 194.72 674.1 173.41 463.87 115.42 464.28 138.48"/><polygon class="i" points="674.1 173.41 666.52 169.05 455.7 110.64 463.87 115.42 674.1 173.41"/></g><g><polyline class="i" points="620.22 175.34 636.62 165.88 628.77 161.27 609.37 172.34 634.92 179.42 649.7 171.04 636.62 165.88"/><polyline class="d" points="649.7 171.04 636.62 163.44 628.77 161.27"/></g><g><polyline class="i" points="512.84 143.81 527.02 135.63 519.17 131.02 504.78 139.33 520.44 147.91 525.52 149.18 540.09 140.79 527.02 135.63"/><polyline class="i" points="519.17 131.02 527.82 133.43 540.09 140.79"/></g><g><polygon class="i" points="528.7 175.54 738.51 231.79 738.51 210.47 528.28 152.48 528.7 175.54"/><polygon class="i" points="738.51 210.47 730.94 206.11 520.12 147.7 528.28 152.48 738.51 210.47"/></g><g><polyline class="i" points="685.72 213.13 702.11 203.66 694.27 199.05 674.87 210.13 700.42 217.2 715.19 208.83 702.11 203.66"/><polyline class="d" points="715.19 208.83 702.11 201.22 694.27 199.05"/></g><g><polyline class="i" points="579.98 182 594.16 173.81 586.31 169.2 571.92 177.51 587.59 186.09 592.67 187.36 607.24 178.98 594.16 173.81"/><polyline class="i" points="586.31 169.2 594.97 171.62 607.24 178.98"/></g><g><polygon class="i" points="593.65 213.21 803.47 269.46 803.47 248.14 593.24 190.16 593.65 213.21"/><polygon class="i" points="803.47 248.14 795.89 243.78 585.07 185.38 593.24 190.16 803.47 248.14"/></g><g><polyline class="i" points="754.11 251.12 770.51 241.66 762.66 237.05 743.26 248.12 768.81 255.2 783.58 246.82 770.51 241.66"/><polyline class="d" points="783.58 246.82 770.51 239.22 762.66 237.05"/></g><g><polyline class="i" points="641.45 218.43 655.63 210.24 647.79 205.63 633.4 213.94 649.06 222.52 654.14 223.79 668.71 215.41 655.63 210.24"/><polyline class="i" points="647.79 205.63 656.44 208.04 668.71 215.41"/></g><g><polygon class="i" points="656.37 249.37 866.18 305.61 866.18 284.3 655.95 226.31 656.37 249.37"/><polygon class="i" points="866.18 284.3 858.61 279.94 647.79 221.53 655.95 226.31 866.18 284.3"/></g><g><polyline class="i" points="816.76 287.5 833.16 278.03 825.31 273.42 805.91 284.49 831.46 291.57 846.23 283.2 833.16 278.03"/><polyline class="d" points="846.23 283.2 833.16 275.59 825.31 273.42"/></g><g><polyline class="i" points="705.89 254.73 720.07 246.54 712.22 241.93 697.83 250.24 713.49 258.83 718.58 260.1 733.15 251.71 720.07 246.54"/><polyline class="i" points="712.22 241.93 720.87 244.35 733.15 251.71"/></g><g><polygon class="i" points="720.18 286.02 930 342.27 930 320.96 719.77 262.97 720.18 286.02"/><polygon class="i" points="930 320.96 922.42 316.59 711.6 258.19 719.77 262.97 930 320.96"/></g><g><polyline class="i" points="878.18 323.23 894.58 313.76 886.73 309.15 867.33 320.22 892.88 327.3 907.66 318.93 894.58 313.76"/><polyline class="d" points="907.66 318.93 894.58 311.32 886.73 309.15"/></g><g><polyline class="i" points="770.16 292.25 784.34 284.06 776.5 279.45 762.66 287.44 777.77 296.34 782.85 297.61 797.42 289.23 784.34 284.06"/><polyline class="i" points="776.5 279.45 785.15 281.87 797.42 289.23"/></g><g><polygon class="i" points="783.34 322.51 993.15 378.76 993.15 357.44 782.92 299.46 783.34 322.51"/><polygon class="i" points="993.15 357.44 985.58 353.08 774.76 294.68 782.92 299.46 993.15 357.44"/></g><g><polygon class="j" points="783.38 299.44 783.37 299.15 265.88 .24 265.48 .23 258.68 3.78 258.67 4.15 258.45 4.15 258.45 27.2 258.66 27.56 777.44 326.69 777.88 326.68 783.4 322.91 783.58 322.57 783.58 299.44 783.38 299.44"/><g><polyline class="i" points="629.49 240.92 586.21 215.96 310.38 56.91 267.02 31.91"/><line class="i" x1="693.32" y1="277.72" x2="649.85" y2="252.65"/><line class="i" x1="757.14" y1="314.52" x2="713.85" y2="289.56"/><polyline class="i" points="783.16 299.46 783.16 322.58 777.65 326.34"/><polygon class="i" points="265.68 .61 258.87 4.16 777.65 303.29 783.16 299.53 265.68 .61"/></g></g><polyline class="i" points="17.88 352.4 266.93 31.86 266.93 11.92 266.93 8.73 258.74 4.01 9.69 326.51 17.88 331.41 17.88 352.4"/><line class="i" x1="17.96" y1="331.41" x2="267.01" y2="8.73"/><g><polyline class="i" points="187.2 126.77 203.95 105.19 196.04 100.62 179.35 122.25 187.18 126.77 187.2 126.77 309.25 56.52 290.89 45.93 196.13 100.65"/><line class="i" x1="203.95" y1="105.19" x2="299.01" y2="50.3"/></g><g><polygon class="j" points="100.6 246.54 99 249.62 98.24 249.95 89.24 261.78 87.92 262.53 87.55 262.75 87.87 263.34 72.91 283.22 70.87 284.41 61.07 290.43 53.17 285.87 70 264.04 100.6 246.54"/><polyline class="d" points="71.06 284.69 61.09 290.43 61.07 290.43 53.17 285.87 70 264.04 70.1 264.07 100.6 246.54"/><polyline class="d" points="61.09 290.43 77.99 268.65 70 264.04"/><line class="i" x1="77.99" y1="268.65" x2="87.73" y2="263.03"/></g><polyline class="i" points="80.48 388.84 329.54 68.29 329.54 48.35 329.54 45.17 321.34 40.45 72.29 362.95 80.48 367.85 80.48 388.84"/><line class="i" x1="80.56" y1="367.85" x2="329.61" y2="45.17"/><g><polyline class="i" points="249.48 163.93 266.38 142.15 258.4 137.54 241.56 159.37 249.47 163.93 249.48 163.93 372.63 93.04 354.11 82.36 258.5 137.57"/><line class="i" x1="266.38" y1="142.15" x2="362.31" y2="86.77"/></g><g><polygon class="j" points="167.53 148.38 174.88 152.78 216.89 177.07 219.58 173.62 228.32 178.85 228.32 183.51 232.51 186.09 290.39 219.56 304.1 200.57 176.73 127.26 164.53 141.58 167.53 148.38"/><g><line class="i" x1="295.46" y1="195.74" x2="176.13" y2="126.77"/><g><polyline class="d" points="283.86 210.55 164.53 141.58 167.53 148.38 216.25 176.53"/><polyline class="d" points="228.32 178.33 228.32 183.3 228.32 183.51 281.16 214.05"/></g></g></g><g><polyline class="i" points="207.84 462.07 456.9 141.53 456.9 121.59 456.9 118.4 448.7 113.68 199.65 436.18 207.84 441.08 207.84 462.07"/><line class="i" x1="207.92" y1="441.08" x2="456.97" y2="118.4"/></g><g><polygon class="j" points="290.65 356.26 289.05 359.33 288.29 359.67 279.3 371.49 277.98 372.24 277.6 372.46 277.93 373.05 262.96 392.93 260.93 394.12 251.12 400.14 243.22 395.58 260.06 373.75 290.65 356.26"/><polyline class="d" points="261.11 394.4 251.14 400.14 251.12 400.14 243.22 395.58 260.06 373.75 260.15 373.78 290.65 356.26"/><polyline class="d" points="251.14 400.14 268.04 378.37 260.06 373.75"/><line class="i" x1="268.04" y1="378.37" x2="277.78" y2="372.74"/></g><g><polyline class="i" points="376.62 237.61 393.52 215.84 385.53 211.23 368.7 233.05 376.6 237.61 376.62 237.61 500.3 166.42 481.77 155.74 385.63 211.25"/><line class="i" x1="393.52" y1="215.84" x2="489.44" y2="160.46"/></g><g><polyline class="i" points="143.89 425.52 392.94 104.98 392.94 85.04 392.94 81.85 384.75 77.13 135.7 399.63 143.89 404.53 143.89 425.52"/><line class="i" x1="143.96" y1="404.53" x2="393.02" y2="81.85"/></g><g><polygon class="j" points="226.78 319.72 225.18 322.8 224.42 323.14 215.43 334.96 214.11 335.71 213.73 335.93 214.06 336.52 199.09 356.4 197.06 357.59 187.25 363.61 179.35 359.05 196.19 337.22 226.78 319.72"/><polyline class="d" points="197.24 357.87 187.27 363.61 187.25 363.61 179.35 359.05 196.19 337.22 196.29 337.25 226.78 319.72"/><polyline class="d" points="187.27 363.61 204.17 341.83 196.19 337.22"/><line class="i" x1="204.17" y1="341.83" x2="213.91" y2="336.21"/></g><g><polygon class="j" points="163.36 282.78 161.76 285.85 161 286.19 152.01 298.01 150.69 298.76 150.31 298.98 150.64 299.57 135.67 319.45 133.64 320.64 123.83 326.66 115.93 322.1 132.77 300.27 163.36 282.78"/><polyline class="d" points="133.83 320.92 123.85 326.66 123.83 326.66 115.93 322.1 132.77 300.27 132.87 300.3 163.36 282.78"/><polyline class="d" points="123.85 326.66 140.75 304.89 132.77 300.27"/><line class="i" x1="140.75" y1="304.89" x2="150.49" y2="299.26"/></g><g><polyline class="i" points="272.46 499.49 521.52 178.95 521.52 159.01 521.52 155.82 513.32 151.1 264.27 473.6 272.46 478.5 272.46 499.49"/><line class="i" x1="272.54" y1="478.5" x2="521.59" y2="155.82"/></g><g><polygon class="j" points="355.08 393.79 353.48 396.86 352.73 397.2 343.73 409.02 342.41 409.77 342.03 409.99 342.36 410.58 327.4 430.46 325.36 431.65 315.56 437.67 307.66 433.11 324.49 411.28 355.08 393.79"/><polyline class="d" points="325.55 431.93 315.58 437.67 315.56 437.67 307.66 433.11 324.49 411.28 324.59 411.31 355.08 393.79"/><polyline class="d" points="315.58 437.67 332.48 415.9 324.49 411.28"/><line class="i" x1="332.48" y1="415.9" x2="342.22" y2="410.27"/></g><g><polyline class="i" points="440.17 276.31 457.34 254.19 449.23 249.5 432.12 271.68 440.15 276.31 440.17 276.31 565.3 204.28 546.48 193.43 449.33 249.53"/><line class="i" x1="457.34" y1="254.19" x2="554.8" y2="197.91"/></g><g><polyline class="i" points="336.5 536.81 585.56 216.26 585.56 196.33 585.56 193.14 577.36 188.42 328.31 510.92 336.5 515.82 336.5 536.81"/><line class="i" x1="336.58" y1="515.82" x2="585.63" y2="193.14"/></g><g><polygon class="j" points="419.35 430.72 417.75 433.8 417 434.13 408 445.95 406.68 446.7 406.3 446.93 406.63 447.51 391.67 467.4 389.63 468.58 379.83 474.61 371.93 470.04 388.76 448.22 419.35 430.72"/><polyline class="d" points="389.82 468.87 379.85 474.61 379.83 474.61 371.93 470.04 388.76 448.22 388.86 448.24 419.35 430.72"/><polyline class="d" points="379.85 474.61 396.75 452.83 388.76 448.22"/><line class="i" x1="396.75" y1="452.83" x2="406.49" y2="447.21"/></g><g><polyline class="i" points="505.07 311.37 521.97 289.6 513.99 284.99 497.15 306.81 505.05 311.37 505.07 311.37 628.22 240.49 609.7 229.81 514.09 285.01"/><line class="i" x1="521.97" y1="289.6" x2="617.89" y2="234.22"/></g><g><g><g><g><polygon class="j" points="427.39 398.57 427.39 399.29 426.55 398.8 426.55 398.57 427.39 398.57"/><polygon class="j" points="473.38 361.79 472.96 362.51 471.96 361.93 473.32 361.76 473.38 361.79"/><polygon class="j" points="482.46 430.47 482.46 431.03 482.43 431.07 482.11 430.89 481.62 430.61 481.62 430.47 482.46 430.47"/><polygon class="j" points="493.42 374.33 492.62 373.86 493.04 373.13 493.2 373.23 493.42 374.33"/><polygon class="j" points="516.43 386.68 516.43 387.04 515.59 388.13 515.59 386.68 516.43 386.68"/></g><polygon class="j" points="482.46 430.47 482.46 431.03 482.43 431.07 482.11 430.89 481.62 430.61 481.62 430.47 482.46 430.47"/><g><polygon class="j" points="427.39 398.57 427.39 399.29 426.55 398.8 426.55 398.57 427.39 398.57"/><polygon class="j" points="516.43 386.68 516.43 387.04 515.59 388.13 515.59 386.68 516.43 386.68"/></g></g><g><g><g><polygon class="j" points="473.5 400.2 473.07 400.22 472.53 399.89 472.52 399.87 472.76 399.8 473.31 399.62 473.37 399.8 473.5 400.2"/><polygon class="j" points="478.89 417.11 478.49 417.23 478.1 417.36 477.74 416.23 478.46 416.63 478.56 416.06 478.74 416.64 478.89 417.11"/></g><g><polygon class="j" points="458.13 390.33 458.13 390.57 457.72 390.57 457.93 390.21 458 390.25 458.13 390.33"/><polygon class="j" points="473.6 399.8 473.37 399.8 473.5 400.2 473.07 400.22 472.53 399.89 472.52 399.87 472.76 399.8 472.76 399.06 473.29 399.38 473.6 399.37 473.6 399.8"/><polygon class="j" points="482.46 398.47 482.46 399.69 482.38 399.77 482.22 399.93 481.54 399.96 481.62 399.49 481.62 399.11 481.86 399.1 482.46 398.47"/></g></g><g><polygon class="j" points="479.46 415.77 479.17 417.36 478.49 417.23 478.35 417.21 478.46 416.63 478.56 416.06 478.74 416.64 479.46 415.77"/><polygon class="j" points="482.45 399.6 482.43 399.72 482.42 399.77 482.38 399.77 482.22 399.93 481.54 399.96 481.62 399.49 481.63 399.45 482.45 399.6"/></g><g><polygon class="j" points="479.46 415.77 479.17 417.36 478.49 417.23 478.1 417.36 477.74 416.23 478.46 416.63 478.66 416.75 478.74 416.64 479.46 415.77"/><polygon class="j" points="494.84 381.65 494.84 381.83 494.71 381.94 494.56 381.65 494.84 381.65"/></g><polygon class="j" points="458.13 390.42 458.13 390.57 457.72 390.57 457.93 390.21 458 390.25 458.13 390.42"/><g><polygon class="j" points="473.6 399.37 473.6 399.8 472.76 399.8 472.76 399.06 473.29 399.38 473.6 399.37"/><polygon class="j" points="482.46 398.47 482.46 399.77 481.62 399.77 481.62 399.11 481.86 399.1 482.46 398.47"/></g><polygon class="j" points="494.84 381.65 494.84 381.83 494.71 381.94 494.56 381.65 494.84 381.65"/><path class="j" d="M473.32,361.76l.06,.03m19.82,11.44l-.16-.09m1.52,8.52l.15,.29,.13-.12v-.18h-.28Z"/><g><path class="j" d="M493.2,373.23h0l-19.88-11.47,.06,.03-.06-.03-12.78-7.38-34.21,44.31,.21,10.71,55.56,32.08,.32,.18,33.92-43.92,.08-.11,.21-10.85-23.44-13.54Zm-35.27,16.98l.08,.04,.13,.08v.24h-.41l.21-.36Zm15.67,9.59h-.23l.13,.4-.43,.02-.55-.33v-.02l.23-.08v-.74l.53,.32h.31v.42Zm5.57,17.56l-.68-.13-.39,.13-.36-1.13,.72,.4,.1-.57,.18,.58,.72-.87-.29,1.59Zm3.29,13.67l-.03,.04-.32-.18-.49-.28v-.13h.84v.55Zm0-31.25h-.08l-.15,.16-.69,.03,.08-.47v-.38h.23l.6-.64v1.3Zm12.25-17.83l-.15-.29h.28v.18l-.13,.12Z"/><polygon class="j" points="458.13 390.33 458.13 390.57 457.72 390.57 457.93 390.21 458 390.25 458.13 390.33"/></g></g></g><g><polygon class="h" points="473.17 362.15 460.65 354.92 426.97 398.56 482.32 430.52 516.01 386.89 492.83 373.5 473.17 362.15"/><line class="h" x1="482.04" y1="430.48" x2="482.04" y2="441.06"/><polyline class="h" points="516.01 386.68 516.01 397.26 516.01 397.47 482.32 441.11 426.97 409.15 426.97 398.56"/></g></g><g><g><polygon class="j" points="476.03 595.79 713.85 289.56 705.63 261.89 456.58 584.57 476.03 595.79"/><line class="i" x1="610.7" y1="399.67" x2="464.54" y2="589.13"/></g><polyline class="d" points="613.94 380.15 705.4 261.73 713.59 266.45 622.16 384.9"/><line class="i" x1="456.34" y1="584.23" x2="602.44" y2="394.95"/><polyline class="i" points="619.89 410.16 545.44 505.98 515.61 544.39 475.75 595.68"/><polyline class="d" points="713.59 266.45 713.59 289.57 682.08 330.13 652.01 368.83 634.14 391.82"/></g><g><polygon class="j" points="545.92 505.8 544.32 508.88 543.56 509.21 534.56 521.04 533.24 521.79 532.87 522.01 533.19 522.6 518.23 542.48 516.2 543.67 506.39 549.69 498.49 545.13 515.32 523.3 545.92 505.8"/><polyline class="d" points="516.38 543.95 506.41 549.69 506.39 549.69 498.49 545.13 515.32 523.3 515.42 523.33 545.92 505.8"/><polyline class="d" points="506.41 549.69 523.31 527.91 515.32 523.3"/><line class="i" x1="523.31" y1="527.91" x2="533.05" y2="522.29"/></g><g><polyline class="i" points="633.53 385.14 650.43 363.36 642.44 358.75 625.61 380.57 633.51 385.14 633.53 385.14 756.67 314.25 738.15 303.57 642.54 358.77"/><line class="i" x1="650.43" y1="363.36" x2="746.35" y2="307.98"/></g><g><polyline class="i" points="400.55 573.05 649.6 252.5 649.6 232.57 649.6 229.38 641.41 224.66 392.36 547.16 400.55 552.06 400.55 573.05"/><line class="i" x1="400.62" y1="552.06" x2="649.68" y2="229.38"/></g><g><polygon class="j" points="482.99 467.65 481.39 470.72 480.63 471.06 471.64 482.88 470.32 483.63 469.94 483.85 470.27 484.44 455.3 504.32 453.27 505.51 443.46 511.53 435.56 506.97 452.4 485.15 482.99 467.65"/><polyline class="d" points="453.45 505.79 443.48 511.53 443.46 511.53 435.56 506.97 452.4 485.15 452.5 485.17 482.99 467.65"/><polyline class="d" points="443.48 511.53 460.38 489.76 452.4 485.15"/><line class="i" x1="460.38" y1="489.76" x2="470.12" y2="484.13"/></g><g><polygon class="j" points="549.9 369.72 557.26 374.11 599.27 398.4 601.95 394.95 610.7 400.19 610.7 404.85 614.88 407.43 672.76 440.89 686.47 421.91 559.11 348.6 546.9 362.92 549.9 369.72"/><g><line class="i" x1="677.84" y1="417.07" x2="558.5" y2="348.11"/><g><polyline class="d" points="666.23 431.89 546.9 362.92 549.9 369.72 599.7 398.5"/><polyline class="d" points="610.7 399.67 610.7 404.63 610.7 404.85 663.53 435.38"/></g></g></g><g><polyline class="i" points="528.5 646.96 777.55 326.42 777.55 306.48 777.55 303.29 769.36 298.57 520.31 621.07 528.5 625.97 528.5 646.96"/><line class="i" x1="528.57" y1="625.97" x2="777.63" y2="303.29"/></g><g><polygon class="i" points="519.83 651.8 528.6 646.96 528.5 625.97 9.82 326.84 .5 331.56 21.68 344.15 519.45 632 519.83 651.8"/><polygon class="i" points=".5 331.56 9.82 336.94 519.45 632 520.02 651.91 .5 352.55 .5 331.56 9.82 326.66 .5 331.56"/></g><line class="i" x1="519.45" y1="632" x2="528.5" y2="625.97"/><g><polyline class="i" points="313.22 200.4 330.12 178.62 322.14 174.01 305.3 195.84 313.2 200.4 313.22 200.4 436.37 129.51 417.85 118.83 322.24 174.04"/><line class="i" x1="330.12" y1="178.62" x2="426.04" y2="123.24"/></g><g><polyline class="i" points="570.17 348.76 587.07 326.98 578.35 322.3 561.41 344.09 570.15 348.76 570.17 348.76 693.32 277.87 674.8 267.19 578.35 322.3"/><line class="i" x1="587.07" y1="326.98" x2="682.99" y2="271.6"/></g></g><g class="k"><path class="c" d="M1002.49,351.9l-.35,.19L486.5,53.83l-9.94,4.78h0L265.02,0l1.2,.69h.01l1.17,.69h.02l.47,.28c-.43-.06-.86-.1-1.3-.1-.17,0-.33,.02-.48,.03l-1.65-.97-5.97,3.11-.35-.2-.37,.19h0l-.19-.11-.04,.05h0v.4l.09,.06-.34,.44L10.15,325.88l7.64,4.57,.21,.13,.06,.1v.02l.28,.16-.17,.23v.47l-.69-.4-7.73-4.46-8.58,4.35h0l8.65-4.56-.19-.12-9.18,4.66v.4l.35,.21v20.18l518.8,299.17v.41l.36,.2,.19-.1,.34-.19v-.39l7.8-4.31v.15l.27,.09,.17-.09v-.12l.35-.45v-.57l248.32-319.1,.3,.17,.18-.24v-.21l-.1-.15,.1-.07,.2-.13,.15-.72v.62l4.92-3.35,.17,.12,.09,.12,.08-.06,.17-.06,.17,.05,.17-.32,207.19,55.44,1.83,.62,.72-.35,.69-.15,8.07-4.99v-20.16l.35-.19v-.39l-.35-.2Zm-239.61-115.21l8.41,2.49,12.51,7.35-14.67,8.35-25.65-7.22,19.4-10.97Zm-40.94,7.36h0l1.09,.66h.02l7.12,4.28h0l1.07,.64h.01l1.07,.66h0l1.2,.72-.05,.08h0l.04,.52-13.88,8-.42,.24-.27,.15-.26,.03-.84-.21-2.99-.75-2.38-.48-14.52-8.39-.09-.05v-.6l.17-.1,.08-.05,9.79-5.66,.42-.24,.42-.24,2.9-1.68h0l.42-.24,.17-.1h.26v-.03l8.74,2.45,.66,.4Zm-47.02-34.63l13.24-7.56,.35-.2,5.98-2.93,7.15,1.77,.69,.4,13.08,7.61-7.36,4.49-.35,.19-6.32,3.59-.43,.24-.15,.08-.26,.03-25.55-7.08-.03-.24-.05-.37v-.02Zm17.94,68.28v.6l-.1,.06-.56,.33-77.52,100.96-.21,.28-.03,.03h-.01l-.19,.23-43.82-25.32,7.64-10.83-7.68,4.41-6.56-3.43-2.28-.98-.06-.03-.08-.35-.03-.16,16.93-21.8h.06l.05-.08h0l.02-.02,.79-.45,29.75-17h0l39.44-51.34,.3,.17,.3,.17,.03-.05,.17-.3,.1-.17,.08-.13,43.02,24.8,.44,.26-.07,.12,.07,.04Zm-219.64,84.34l-.03,.06-.41-.24-.3-.17-.28-.17h.11l-.09-.07,.43-.55,.04-.06,43.18-55.57-10.39,5.98-.17,.05-.19-.05-7.12-4.12-.3-.17-.31-.18-.17-.1-.1-.51,16.84-21.83,.21-.04v-.02l32.68-18.87,37.75-49.15v-.3l.69-.46,43.06,24.83,.3,.18,.3,.17,.1,.06-.35,.6-.18-.1-.04,.05-111.6,145.09-1.05-.11h.26l.15-.19-43-24.03Zm184.58-153.93l4.31,2.58,1.04,.62,1.06,.64,4.73,2.83,.17,.15-12.82,7.38-.4,.23h0l-.26,.15-.13,.08-.45,.26-.25,.03-.96-.24-3.29-.83h-.01l-.72-.19-15.13-8.29v-.58l.26-.15,.67-.39,.08-.05,10.08-5.82,.41-.24,.41-.23,1.77-1.02,.21-.12h.25v-.03l8.26,2.79,.72,.43Zm-48.36-36.5l13.38-7.64,.34-.19h0l5.82-2.85h0l.35,.21,7.74,1.79,.34,.19,.35,.21,12.15,7.38,.34,.2-7.55,4.2-.35,.2-6.42,3.64h0l-.42,.24-.19,.11-.26,.03-25.55-7.08-.03-.28-.04-.36h.01Zm-19.99-2.38l5.92,1.66,5.67,3.41h.01l1.07,.65h0l1.07,.64h0l4.44,2.67-.05,.08,.04,.52-13.98,8.05h0l-.42,.24-.17,.1-.26,.03-3.83-.96,.06,.03-3.91-1.1,.09-.21-13.24-7.65v-.6l.24-.15,11.06-6.38,.42-.24,.43-.25,2.23-1.29h.26v-.02h0l2.41,.66,.41,.11Zm-40.58-33.66l18.48-10.65,.35-.2,.35,.2,7.85,2.2,.35,.2,.34,.2,12.03,7.07-13.87,8.18h0l-.43,.24-.3,.17-.26,.03-25.55-7.08-.05-.37-.03-.26,.74,.06Zm-8.38,5.11l-13.87,7.98h0l-.42,.24-.28,.16-.26,.03-.88-.22h-.01l-1.09-.28h0l-.09-.06h-.02l-2.64-.65-.41-.1-15.03-8.81v-.6l.05-.18,.08-.05,9.48-5.48h0l.42-.24,.43-.24,2.97-1.72,.31-.18h.26v-.02h0l2.49,.69,1,.28,.51,.15,.87,.24,3.33,1.18,1.02,.62,11.21,6.81,.58,.44Zm-49.53-40.38l.42-.24,11.77-6.72,.35-.2,.35,.2,1.61-1.05,3.46-1.89,8.32,2.24,12.6,7.54-11.96,7.22h0l-.42,.24-.42,.24-.56,.32-.26,.03-25.55-7.08-.08-.6v-.03l.38-.22Zm-25.96-3.85l1.11,.66h.01l8.1,4.87h.01l1.07,.65h0l1.07,.64h0l.11,.07,.05,.03-.04,.07,.03,.53-13.6,7.82h0l-.43,.25-.42,.24-.12,.07-.26,.04-1.22-.3-2.7-1.44-.35-.09-15.66-8.59v-.6l.2-.12-.2,.13,.08-.05,8.65-4.99,.42-.24,.42-.25h0l3.29-1.9h0l.42-.25h0l.19-.11h.26v-.03l8.74,2.45,.73,.44Zm-47.08-34.37l.41-.24,19.61-11.19,.41-.24h.25v-.03l8.45,2.35,.26,.15,1.14,.67,12.54,7.29-.04,.07,.03,.52-14.5,8.22-.41,.24-.83,.47-.26,.03-27.23-7.54-.05-.46-.02-.15,.25-.14Zm-37.73,3.72h0l.08-.04,10.64-6.15,.42-.24,.43-.25h0l1.25-.72h0l.32-.19h.26v-.03l5.65,1.59,.56,.15,2.53,.71,1.05,.63h.02l2.94,1.77h0l1.09,.66h0l1.07,.64h0l6.1,3.66-.05,.08,.04,.52-13.02,7.49-.42,.24-5.67-1.31-.47-.12-15.18-8.89,.35-.21Zm-7.96,26.86l.3,.17-.21,.27-.15,.19v.17h-.03l-.21,.14-77.32,100.69-43.65-24.43-.3-.17-.3-.17,.21-.28v-.02l.21-.26,7.97-10.25-8.86,5.1-.17,.04-.19-.04-7.71-4.46-.19-.11-.03-.16-.07-.35,16.84-21.82,.21-.04v-.02l.34-.2,.79-.45h0l30-17.33h0l38.83-50.54,.03-.04v-.81l.35,.19,.35,.2,42.67,24.6,.3,.18Zm-54.94-63.29l14.19-8.19,.35-.2h.26v-.03l9.38,2.63,1.11,.66h0l12.06,7.23-.04,.07,.03,.53-14.68,8.45-7.26-1.39-15.49-9.71,.08-.05Zm-36.52-17.57l.35,.2v.81l-.34-.2-.35-.21v-.4l.34,.21v-.41Zm-4.79-6.29h.01l1.17,.69-.31-.08h0l-.62-.17c-.12-.17-.25-.34-.38-.51l.13,.08Zm-79.99,94.48h.06l.16-.04v-.03l.6-.35,.78-.45,30.02-17.33,38.14-49.65,.61,.35,.04-.05-.17-.1,.35-.6,.08,.05,41.8,24.1,.3,.18,.3,.17,.45,.26c-.05,.26-.1,.53-.12,.8l-.6-.35-.5,.28h0l-77.1,100.41-.42,.55-.3-.17-.3-.18-41.93-24.23-.3-.18-.3-.17,.15-.19,.06-.08,.21-.27,8.87-11.42-9.31,5.36-.17,.05-.19-.05-7.55-4.35-.29-.17h0l-.09-.47v-.04l16.68-21.63ZM72.75,362.22l-.21,.28-.3-.17h0l.08,.44-42.91-24.76-.3-.18-.3-.17,.43-.55,39.67-51.05-7.42,4.26-.17,.05-.19-.05-7.68-4.44-.22-.12-.02-.12-.08-.39,16.84-21.82,.22-.08,.4-.23,.78-.44,28.4-16.33,73.61-94.74,.15-.19,.28-.35,.61,.35,41.99,24.26,.74,.98-.43-.25L73.06,362.4l-.3-.18Zm63.46,36.62l-.21,.28-.31-.18-.06,.08,.06,.33-43.52-25.12-.61-.35,.43-.55,39.65-51.03-7.41,4.26-.17,.05-.19-.05-7.68-4.44-.21-.12-.03-.13-.08-.38,16.84-21.82,.22-.08,.39-.22,.78-.45,28.39-16.32,.8-.46,73.1-94.09-.3-.17,.12-.16,.3-.39,.61,.35,43.4,24.87-.11,.14-.43,.55-143.47,185.78-.3-.17Zm14.21,18.71l-.21,.27-.15,.19-.39-.62,.15-.19,.3,.18,.07-.1,.3,.18-.08,.09Zm49.25,17.91l-.08,.11,.05,.27-43.79-25.27-.21,.28-.3-.18-.3-.17,.21-.28,.21-.27,39.22-50.48-7.01,4.04-.17,.04-.19-.04-7.84-4.53-.06-.03-.07-.35-.03-.16,16.84-21.82,.22-.08,.78-.45,28.39-16.32,96.65-124.4-8.56,4.93-.17,.04-.19-.04-7.82-4.52-.15-.37-.03-.19,16.83-21.82,.21-.04v-.02l.06-.04,.78-.45,30.01-17.32h0l38.82-50.53v-.93l.35,.2,.35,.19,24.65,14.22h.08l7.74,4.47,.1-.06,.1,.18,10.38,5.98,.19,.11v.05l.09,.06,.3,.17-.21,.28-.21,.28-.04,.05-.21-.12-.25,.15L199.98,435.63l-.3-.17Zm19.73,12.18l-.31-.17-.3-.17,.21-.28,.21-.28,39.5-50.83-7.19,4.14-.17,.04-.19-.04-7.76-4.49-.14-.08-.05-.25-.06-.26,16.84-21.83,.22-.08,.18-.1,1.17,.22,27.99-16.98,.39,.67,95.69-124.33-8.63,4.97-.17,.05-.19-.05-7.79-4.5-.11-.06-.06-.28-.05-.23,16.84-21.82,.21-.05v-.02l.14-.09,.78-.45,30-17.32,39.16-50.96-.44-.26c.12-.21,.24-.44,.34-.67l.24,.14,.35,.19,.35,.2,43.79,25.25,.3,.17,.3,.17-.46,.6-235.53,305.57-45.59-25.46Zm108.87,62.82l-44.19-25.5-.6-.35,.21-.28,.21-.28,39.43-50.73-7.37,4.24-.17,.04-.19-.04-7.7-4.44-.21-.12-.03-.15-.07-.36,16.84-21.83,.22-.08,.35-.2,.93,.15,28.38-16.3h0l95.03-123.08-8.78,5.05-.17,.05-.19-.05-7.73-4.47-.3-.17h0l-.09-.46h0v-.05l17.1-22.18h.07l1.55-.88,29.99-17.31,39.7-51.66,.04-.05v-.79l.71,.4,43.42,25.03,.3,.18,.3,.17-.42,.62v.12l-.28,.16-235.35,305.32-.93,.26Zm20.05,11.57l-.3-.18-.3-.17,.43-.55,39.58-50.93-7.49,4.31-.17,.05-.19-.05-7.66-4.42-.25-.14v-.08l-.1-.44,16.84-21.82,.22-.08,.48-.28,.69,.27,28.38-16.31,14.16-18.83,.05-.06,.43-.55,43.75,25.27,.3,.17,.3,.17-.42,.55-.05,.06-83.91,108.66-44.76-24.62Zm108.61,61.87l-.1,.13-.28-.21h0l-.27-.21,.05-.06-43.92-25.34-.6-.35,39.32-50.62-7.27,4.18-.17,.05-.19-.05-7.74-4.47-.17-.1-.04-.2-.06-.31,16.84-21.82,.22-.08,.26-.15,1.28,.29,28.38-16.3,73.08-95.43,.15-.19,.28-.36,.3,.18,.3,.17,43.19,24.96-142.8,186.31-.04-.02Zm64.1,36.67l-.69,.39v-.08l-44.07-25.42-.03,.03-.26-.21h-.02l-.26-.21,.19-.24,38.57-49.66-7.66,4.41-.17,.05-.19-.05-7.64-4.42-.26-.15v-.06l-.1-.45,16.89-21.21,.22-.08,.24-.11,.71-.41,29.42-16.91,73.67-95.94,.13-.17,.12-.15,.27,.21,.19,.15,.24-.3,43.25,25,.15,.08-.25,.43,.1,.06,.3,.17-143.04,185.23Zm235.47-305.92l-.17,.3-.11-.06-.03,.05,.3,.17-78.05,101.64-.3-.17-.12,.15h0l-.13,.24-.03-.02-.3-.17-43.2-24.96,.19-.25-.37-.29h-.03l-.06-.06,.19-.24,8.63-11.11-8.98,5.17-.17,.04-.19-.04-7.71-4.45-.19-.11-.1-.51,16.84-21.83,.21-.04v-.02l1.12-.66,30.14-17.4,38.62-50.27,.12-.15,.69-.04,.09-.15,24.3,14.01,7.75,4.47,.1-.06,.1,.17h0l10.56,6.09,.15,.08,.3,.17h.03l-.17,.32Zm27.79-17.73l-8.69-1.75-12.94-7.72,14.13-8,8.41,2.49,12.51,7.35-13.43,7.64Zm47.27-5.33l-25.65-7.22,19.4-10.97,8.41,2.49,12.51,7.35-14.67,8.35Z"/></g></g></g></g></svg>