<svg xmlns="http://www.w3.org/2000/svg" xmlns:xlink="http://www.w3.org/1999/xlink" viewBox="0 0 792 792"><defs><style>.cls-1{isolation:isolate;}.cls-2,.cls-6{fill:none;stroke-linejoin:bevel;}.cls-2{stroke:#ff7e2f;}.cls-3,.cls-7{fill:#86b7cc;}.cls-3,.cls-4,.cls-5{opacity:0.6;}.cls-4{fill:url(#radial-gradient);}.cls-5{fill:url(#radial-gradient-2);}.cls-6{stroke:#2d5261;}.cls-7{font-size:10.33px;font-family:AntarcticanMono-Medium, Antarctican Mono;font-weight:500;}.cls-8{fill:url(#linear-gradient);}.cls-9{mix-blend-mode:multiply;}.cls-10{fill:url(#linear-gradient-2);}.cls-11{fill:url(#linear-gradient-3);}.cls-12{fill:url(#linear-gradient-4);}.cls-13{fill:url(#linear-gradient-5);}.cls-14{fill:url(#linear-gradient-6);}.cls-15{fill:url(#linear-gradient-7);}.cls-16{fill:url(#linear-gradient-8);}.cls-17{fill:url(#linear-gradient-9);}.cls-18{fill:url(#linear-gradient-10);}.cls-19{fill:#2d5261;}</style><radialGradient id="radial-gradient" cx="377.3" cy="487.81" r="198.15" gradientUnits="userSpaceOnUse"><stop offset="0.19" stop-color="#86b7cc"/><stop offset="0.28" stop-color="#8abace" stop-opacity="0.96"/><stop offset="0.4" stop-color="#96c0d2" stop-opacity="0.86"/><stop offset="0.55" stop-color="#aaccd9" stop-opacity="0.68"/><stop offset="0.73" stop-color="#c6dbe2" stop-opacity="0.44"/><stop offset="0.92" stop-color="#e8efef" stop-opacity="0.14"/><stop offset="1" stop-color="#f8f8f4" stop-opacity="0"/></radialGradient><radialGradient id="radial-gradient-2" cx="613.35" cy="111.44" r="101.86" gradientUnits="userSpaceOnUse"><stop offset="0.19" stop-color="#86b7cc"/><stop offset="0.27" stop-color="#8abace" stop-opacity="0.96"/><stop offset="0.39" stop-color="#96c0d2" stop-opacity="0.86"/><stop offset="0.54" stop-color="#aaccd9" stop-opacity="0.68"/><stop offset="0.71" stop-color="#c6dbe2" stop-opacity="0.44"/><stop offset="0.89" stop-color="#e8efef" stop-opacity="0.14"/><stop offset="0.97" stop-color="#f8f8f4" stop-opacity="0"/></radialGradient><linearGradient id="linear-gradient" x1="378.63" y1="367.44" x2="353.66" y2="447.92" gradientUnits="userSpaceOnUse"><stop offset="0" stop-color="#ff7e2f"/><stop offset="1" stop-color="#2d5261"/></linearGradient><linearGradient id="linear-gradient-2" x1="424.94" y1="339.83" x2="399.97" y2="420.32" xlink:href="#linear-gradient"/><linearGradient id="linear-gradient-3" x1="471.53" y1="311.33" x2="446.56" y2="391.82" xlink:href="#linear-gradient"/><linearGradient id="linear-gradient-4" x1="516.3" y1="288.67" x2="491.33" y2="369.16" xlink:href="#linear-gradient"/><linearGradient id="linear-gradient-5" x1="558.56" y1="274.12" x2="533.59" y2="354.61" xlink:href="#linear-gradient"/><linearGradient id="linear-gradient-6" x1="342.47" y1="294.3" x2="317.5" y2="374.78" xlink:href="#linear-gradient"/><linearGradient id="linear-gradient-7" x1="385.4" y1="277.58" x2="360.43" y2="358.07" xlink:href="#linear-gradient"/><linearGradient id="linear-gradient-8" x1="429.87" y1="255.92" x2="404.9" y2="336.4" xlink:href="#linear-gradient"/><linearGradient id="linear-gradient-9" x1="473.31" y1="237.57" x2="448.34" y2="318.06" xlink:href="#linear-gradient"/><linearGradient id="linear-gradient-10" x1="513.88" y1="228.47" x2="488.91" y2="308.95" xlink:href="#linear-gradient"/></defs><g class="cls-1"><g id="Layer_1" data-name="Layer 1"><line class="cls-2" x1="318.29" y1="536.22" x2="318.29" y2="540.37"/><line class="cls-2" x1="356.88" y1="587.83" x2="362.18" y2="584.84"/><path class="cls-3" d="M239,358.44c-3,14.1-14.47,27.57-23,35.78,14.18,4.77,22.33,17.28,23.72,21.35l5.74,3.23V351.93Z"/><polygon class="cls-3" points="309.01 456.26 255.92 425.39 255.92 357.28 309.01 456.26"/><polygon class="cls-4" points="362.12 626.12 362.12 522.42 375.83 497.02 525.96 410.33 540.9 418.95 540.9 504.01 525.99 495.54 455.45 536.88 455.45 571.98 362.12 626.12"/><polygon class="cls-5" points="666.09 87.76 601.03 125.52 746.17 209.85 719.56 56.32 666.09 87.76"/><polyline class="cls-6" points="255.32 325.35 600.76 125.89 600.76 349.99 347.1 496.74 255.16 325.35 234.75 342.04"/><line class="cls-6" x1="600.76" y1="349.99" x2="645.48" y2="375.81"/><line class="cls-6" x1="696.75" y1="181.32" x2="600.76" y2="125.89"/><line class="cls-6" x1="749.95" y1="212.03" x2="723.35" y2="196.67"/><line class="cls-6" x1="183.28" y1="548.27" x2="183.28" y2="531.3"/><line class="cls-6" x1="238.87" y1="589.42" x2="230.27" y2="584.46"/><polyline class="cls-6" points="332.34 469.15 332.34 643.37 284.81 615.94"/><polyline class="cls-6" points="239.09 358.37 245.52 351.93 245.52 418.8 239.5 415.41"/><polygon class="cls-6" points="309.01 456.26 255.92 425.39 255.92 357.28 309.01 456.26"/><polyline class="cls-6" points="677.99 247.71 634.24 313.63 645.49 308.08"/><polyline class="cls-6" points="717.02 344.26 677.99 247.71 723.06 221.05"/><polyline class="cls-6" points="759.9 345.78 725.76 365.89 720.73 353.43"/><polyline class="cls-6" points="704.62 375.81 645.49 341.68 645.49 304.58"/><polygon class="cls-6" points="252.11 508.15 252.11 562.82 275.78 576.49 282.39 572.96 282.39 518.29 258.72 504.63 252.11 508.15"/><polyline class="cls-6" points="275.78 576.49 275.78 521.82 252.11 508.15"/><line class="cls-6" x1="282.39" y1="518.3" x2="275.78" y2="521.82"/><polyline class="cls-6" points="224.22 495.96 224.22 513.57 240.78 523.02 247.39 519.5 247.39 498.66 230.83 489.2 230.04 489.62"/><polyline class="cls-6" points="240.78 523.02 240.78 502.18 226.59 494.08"/><line class="cls-6" x1="247.39" y1="498.66" x2="240.78" y2="502.18"/><polyline class="cls-6" points="502.82 423.7 502.82 458.52 519.38 467.98 525.99 464.45 525.99 424.32 513.8 417.36"/><polyline class="cls-6" points="519.38 467.98 519.38 427.84 507.45 421.02"/><line class="cls-6" x1="519.38" y1="427.84" x2="525.99" y2="424.32"/><polygon class="cls-6" points="288.01 528.65 288.01 583.32 311.68 596.99 318.29 593.46 318.29 538.79 294.62 525.13 288.01 528.65"/><polyline class="cls-6" points="311.68 596.99 311.68 542.32 288.01 528.65"/><line class="cls-6" x1="318.29" y1="538.79" x2="311.68" y2="542.32"/><path class="cls-6" d="M455.45,572,332.34,643.37C186,727.31,48.17,634.63,48.17,634.63"/><polyline class="cls-6" points="600.76 349.99 600.76 487.85 557.07 513.16"/><line class="cls-6" x1="701.88" y1="546.38" x2="708.95" y2="550.48"/><line class="cls-6" x1="600.76" y1="487.85" x2="634.87" y2="507.6"/><line class="cls-6" x1="510.3" y1="504.75" x2="436.37" y2="462.06"/><polyline class="cls-6" points="362.12 626.12 362.12 522.42 375.83 497.02 525.96 410.33 540.9 418.95 540.9 504.01"/><line class="cls-6" x1="455.38" y1="451.09" x2="455.38" y2="472.88"/><polyline class="cls-6" points="694.84 318.17 661.13 298.7 661.13 333.19 686 347.54"/><line class="cls-6" x1="677.99" y1="308.43" x2="677.99" y2="342.78"/><line class="cls-6" x1="661.13" y1="315.94" x2="684.81" y2="329.62"/><polyline class="cls-6" points="705.57 461.82 630.1 418.24 630.1 470.37 665.87 491.05"/><line class="cls-6" x1="655.57" y1="432.95" x2="655.57" y2="485.04"/><line class="cls-6" x1="630.1" y1="444.3" x2="679.59" y2="472.88"/><polyline class="cls-6" points="661.13 90.88 600.76 125.89 658.73 142.12"/><path class="cls-6" d="M540.9,196.67l1.64.67a8.87,8.87,0,0,0,11.93-6l1.36-5.19"/><path class="cls-6" d="M570.83,196.67l1.64.67a8.87,8.87,0,0,0,11.93-6l1.36-5.19"/><path class="cls-6" d="M648.65,117.49l1.64.67a8.88,8.88,0,0,0,11.93-6l1.36-5.19"/><path class="cls-6" d="M555.83,239.51l1.64.66a8.87,8.87,0,0,0,11.93-6l1.36-5.19"/><path class="cls-6" d="M574.84,279.78l1.64.67a8.88,8.88,0,0,0,11.94-6l1.35-5.19"/><path class="cls-6" d="M567.38,238.08l1.64.66a8.87,8.87,0,0,0,11.93-6l1.36-5.19"/><path class="cls-6" d="M658.73,239.51l-1.64.66a8.88,8.88,0,0,1-11.94-6L643.79,229"/><path class="cls-6" d="M709,268l1.64.67a8.89,8.89,0,0,0,11.94-6l1.35-5.2"/><path class="cls-6" d="M717.33,268.71l1.64.67a8.89,8.89,0,0,0,11.94-6l1.36-5.2"/><path class="cls-6" d="M723.51,315.91l1.64.66a8.87,8.87,0,0,0,11.93-6l1.36-5.19"/><path class="cls-6" d="M645,170.18l-1.64.67a8.88,8.88,0,0,1-11.94-6l-1.35-5.19"/><polyline class="cls-2" points="340.06 430.61 318.29 442.94 318.29 536.22"/><polygon class="cls-2" points="311.68 596.99 311.68 542.32 288.01 528.65 288.01 583.32 311.68 596.99"/><polygon class="cls-2" points="275.78 576.49 275.78 521.82 252.11 508.15 252.11 562.82 275.78 576.49"/><polyline class="cls-2" points="311.68 596.99 318.29 593.46 332.34 601.67 356.88 587.83"/><polyline class="cls-2" points="507.45 421.02 519.38 427.84 519.38 467.98 502.82 458.52 502.82 423.7"/><polyline class="cls-2" points="525.99 495.54 525.99 464.45 519.38 467.98"/><path class="cls-6" d="M455.1,587.88l4.52-2.76a1.85,1.85,0,0,1,2.49.44,2.54,2.54,0,0,1,.43,1.07A2.41,2.41,0,0,1,461,589.2l-3.89,2.62"/><path class="cls-6" d="M455.54,587.74a2.31,2.31,0,1,0,2.27,1.93,2.23,2.23,0,0,0-1.88-1.95Z"/><path class="cls-2" d="M455.92,589.63l-1.2.67c-15,8.33-2.11,42.74-20,32.29-43.81-25.6-48.59-28.06-11.07-49.73,12.42-7.17,15.21-9.34,31.83-19.27"/><line class="cls-6" x1="376.35" y1="490.9" x2="525.99" y2="404.3"/><line class="cls-6" x1="546.1" y1="467.98" x2="546.1" y2="506.68"/><line class="cls-6" x1="337.94" y1="496.5" x2="337.94" y2="585.78"/><line class="cls-6" x1="585.76" y1="393.05" x2="550.43" y2="413.45"/><line class="cls-6" x1="578.12" y1="406.46" x2="564.2" y2="414.5"/><line class="cls-6" x1="353.97" y1="605.86" x2="340.05" y2="613.9"/><line class="cls-6" x1="615.51" y1="376.87" x2="650.84" y2="397.27"/><line class="cls-6" x1="623.15" y1="390.28" x2="671.01" y2="417.91"/><line class="cls-6" x1="220.54" y1="459.05" x2="231.48" y2="465.36"/><line class="cls-6" x1="229.07" y1="471.76" x2="251.96" y2="484.97"/><line class="cls-6" x1="245.41" y1="462.21" x2="279.33" y2="481.79"/><path class="cls-6" d="M117.53,473.17c-8,5.15-18.8,6-27.21,1.43-8.64-4.66-14-14.58-13.73-24.33,0,0-8.49,4.75-20.76-.21s-21.95-26.37-7.07-38.37c-6-18.28,11.37-18.3,11.37-18.3-8.88-7.27-11.6-25-8.8-36.11,5.79-23,29.22-27.39,36.82-24.28-.57-4.67-3.55-33.82,16.27-44.66,31.28-17.1,54,4.14,58.26,8.34,9.11,8.93,22.16,3.82,33,2.2,8.26-1.24,17,.92,22.32,7.67,6.64,8.39,5.89,20,6.42,30.06,8.6.24,14.86,9.36,14.85,18s-4.63,16.49-9.69,23.46a153.79,153.79,0,0,1-13.54,16.19s25.47,8,25.47,32.24c0,27.49-21.3,32.48-21.3,32.48a38.22,38.22,0,0,1,8.87,12.77c2.59,6,3.78,13.33.37,18.94-3.75,6.16-11.65,8.24-17,13.08-8,7.22-9.85,20.21-19.22,25.51-8.85,5-20.64.29-26.86-7.75a38.88,38.88,0,0,1-5.43-9.91"/><path class="cls-6" d="M117.53,473.17c6.42,16.57,13.63,33.35,18.9,53.46a217.52,217.52,0,0,1,7,52.09"/><path class="cls-6" d="M108.19,445.85a285.32,285.32,0,0,0,9.34,27.32"/><path class="cls-6" d="M141.8,442l-4.89,30-.48.66C127.66,454.78,124,435,121.3,415.21"/><path class="cls-6" d="M146.72,410.4c-.78,6.21-1.79,12.41-2.79,18.57"/><path class="cls-6" d="M158.32,451.58c-3.42,16.56-6.73,28.51-6.73,28.51a43.27,43.27,0,0,0,16.25-3.76"/><path class="cls-6" d="M165.46,402.23c-.54,8.64-1.63,17.65-3,26.35"/><path class="cls-6" d="M164.66,374.89a87.24,87.24,0,0,1,1,9"/><path class="cls-6" d="M191.83,483.28a74.57,74.57,0,0,1-13.37,9,39.91,39.91,0,0,0-20.21,41.93c3.23,19.1,10.18,42,25,55.43"/><path class="cls-6" d="M230.42,583.86a12.2,12.2,0,0,1-3.5,6.47c-3.66,3.43-10,3.9-13.69.54"/><path class="cls-6" d="M179.81,571.22A12.33,12.33,0,0,1,185.5,548c1.31-3.64,3-7.32,6-9.76A12.38,12.38,0,0,1,210,554.19a11.1,11.1,0,0,1,12.13,16.42A11.28,11.28,0,0,1,226.8,572a8.34,8.34,0,0,1,3.15,4.46,14.41,14.41,0,0,1,.47,7.45"/><path class="cls-6" d="M284.81,615.94a15.17,15.17,0,0,1-3,2.57c-5,3.33-12,4.4-17,1"/><path class="cls-6" d="M230.27,602.62c-1.41-2.75-1.51-10.14,5.62-12.67a18.53,18.53,0,0,1,6.31-.61c-2.54-4-1.25-10,2-13.13,5-4.77,12.78,2.3,12.46,7.92,2.23-.52,6.88-3.8,13.2,1.38,4.4,3.6,3.35,10,2.45,12.08a10,10,0,0,1,9.46,1.54,13.71,13.71,0,0,1,4.95,8.45,10.68,10.68,0,0,1-.3,5.64,8.93,8.93,0,0,1-1.65,2.72"/><path class="cls-6" d="M638.57,515c-4-1.9-4.89-8-2-11.3s8.45-3.62,12-1c-1.23-1.78.31-15.35,13.45-12.93,8.77,1.62,8.84,9.81,15.05,10.62,2.85.38,5.59-1,8.24-2.13s5.82-1.91,8.3-.45,3.39,5.12,2.6,8-2.81,5.34-4.77,7.65a18.88,18.88,0,0,1,9.93,10.32,10.8,10.8,0,0,1,.62,6.83,5.91,5.91,0,0,1-4.91,4.35,14.45,14.45,0,0,1,4.63,7.61c.52,2.19.42,4.76-1.17,6.36"/><text class="cls-7" transform="translate(232.5 638.82)">Fig B.</text><text class="cls-7" transform="translate(456.13 176.98)">Fig A.</text><text class="cls-7" transform="translate(447.13 508.15)">Fig C.</text><line class="cls-6" x1="455.45" y1="592.25" x2="455.45" y2="600.11"/><polyline class="cls-6" points="540.9 504.01 526.03 495.59 455.25 536.82 539.89 584.87 582.17 560.41"/><polyline class="cls-6" points="600.54 549.79 611.02 543.72 540.9 504.01"/><line class="cls-6" x1="619.6" y1="571.44" x2="611.02" y2="543.72"/><polyline class="cls-6" points="539.89 584.87 560.04 623.25 623.92 585.43 619.6 571.44"/><polyline class="cls-6" points="666.2 644.86 666.2 619.78 623.92 585.43"/><line class="cls-6" x1="498.05" y1="628.93" x2="539.65" y2="653.02"/><path class="cls-6" d="M541.28,649.33l1.19-.55a9.66,9.66,0,0,1,8.87.4l13.68,7.9a9.65,9.65,0,0,1,4.67,6.63l3.77,20.8,10.45-6.28-3.77-20.8a9.62,9.62,0,0,0-4.66-6.62l-13.69-7.91a9.69,9.69,0,0,0-8.87-.4l-7.8,3.62A9.65,9.65,0,0,0,540,652l-3.8,12"/><path class="cls-6" d="M658.36,613.42l-.61-3.36a9.63,9.63,0,0,0-4.66-6.63l-13.68-7.9a9.73,9.73,0,0,0-4.39-1.28"/><path class="cls-6" d="M450.36,614.75l3.8-12a9.62,9.62,0,0,1,5.13-5.83l7.8-3.61a9.61,9.61,0,0,1,8.86.4l13.69,7.9a9.64,9.64,0,0,1,4.66,6.62l3.77,20.8"/><path class="cls-6" d="M455.45,600.16l1.19-.55a9.61,9.61,0,0,1,8.86.4l13.69,7.9a9.61,9.61,0,0,1,4.66,6.62l3.77,20.8,10.45-6.28"/><path class="cls-6" d="M576.46,682.67c-1.91,7.83-6.78,13.06-13.54,14.25-10.12,1.77-20.26-7.76-22.64-21.3-2.07-11.84,2.48-22.83,10.43-26.58"/><path class="cls-6" d="M583.17,681c-.95,3.75-3.19,7.41-5.6,9l-11.66,6"/><ellipse class="cls-6" cx="557.98" cy="672.59" rx="7.92" ry="11.9" transform="translate(-103.45 101.42) rotate(-9.51)"/><path class="cls-6" d="M490.59,633.43c-1.91,7.83-6.78,13.06-13.53,14.25-10.13,1.77-20.26-7.76-22.64-21.3-2.08-11.84,2.47-22.83,10.43-26.58"/><path class="cls-6" d="M497.75,629c-.27,4.61-3,9.85-6,11.79l-11.67,6"/><ellipse class="cls-6" cx="472.11" cy="623.35" rx="7.92" ry="11.9" transform="translate(-96.49 86.56) rotate(-9.51)"/><line class="cls-6" x1="535.33" y1="642.55" x2="543.44" y2="647.12"/><polyline class="cls-6" points="507.4 618.13 507.4 626.81 527.06 637.89"/><polyline class="cls-6" points="517.05 578.19 507.4 572.91 507.4 610.01"/><polyline class="cls-6" points="554.68 636.28 554.68 626.34 536.19 588.67 526.71 583.48"/><line class="cls-6" x1="461.57" y1="547.77" x2="502.73" y2="570.25"/><polyline class="cls-6" points="502.68 597.39 461.57 575.56 461.57 556.2"/><path class="cls-6" d="M547.73,627.44l-7.47,4.48a4.85,4.85,0,0,1-7.36-4.16v-4.43a4.82,4.82,0,0,1,2.48-4.21l5-2.8a4.94,4.94,0,0,1,7.35,4.31v3.21l2.7.32"/><line class="cls-6" x1="507.4" y1="600.02" x2="538.53" y2="617.35"/><line class="cls-6" x1="502.68" y1="570.22" x2="502.68" y2="584.87"/><polyline class="cls-6" points="560.9 628.89 609.99 652.74 609.99 678.19"/><line class="cls-6" x1="609.99" y1="652.74" x2="667.05" y2="619.74"/><ellipse class="cls-6" cx="619.64" cy="660.85" rx="4.58" ry="6.33"/><ellipse class="cls-6" cx="658.09" cy="638.82" rx="4.58" ry="6.33"/><line class="cls-6" x1="629.3" y1="648.34" x2="629.3" y2="662.44"/><line class="cls-6" x1="635.51" y1="644.58" x2="635.51" y2="658.68"/><line class="cls-6" x1="641.88" y1="640.77" x2="641.88" y2="654.52"/><line class="cls-6" x1="648.31" y1="636.59" x2="648.31" y2="650.68"/><polyline class="cls-6" points="583.02 668.6 606.47 680.23 671.01 642.51"/><polyline class="cls-6" points="581.86 679.93 606.47 692.13 671.01 654.41 671.01 642.51 667.05 640.27"/><line class="cls-6" x1="606.47" y1="680.23" x2="606.47" y2="692.13"/><polyline class="cls-6" points="584.76 602.78 564.05 615.04 553.82 595.56"/><polyline class="cls-6" points="549.37 587.07 609.3 552.4 618.68 582.71"/><path class="cls-6" d="M623.37,583.84l5.34-3.08a7.45,7.45,0,0,0,3.71-6.43v-3.78a3.1,3.1,0,0,0-4.55-2.73l-3.43,1.83a7.41,7.41,0,0,0-3.83,5.28"/><line class="cls-6" x1="455.45" y1="536.88" x2="455.54" y2="587.74"/><polygon class="cls-8" points="396.06 439.48 363.97 379.04 328.93 399.38 360.91 459.55 396.06 439.48"/><polygon class="cls-6" points="328.93 399.38 361.11 459.61 396.06 439.48 364.17 379.1 328.93 399.38"/><polyline class="cls-6" points="328.93 399.38 326.85 405.13 359.03 465.36 393.98 445.23 396.06 439.48"/><line class="cls-6" x1="361.13" y1="459.55" x2="359.05" y2="465.3"/><polygon class="cls-10" points="442.27 412.21 410.18 351.77 375.14 372.11 407.12 432.28 442.27 412.21"/><polygon class="cls-6" points="375.14 372.11 407.32 432.34 442.27 412.21 410.38 351.83 375.14 372.11"/><polyline class="cls-6" points="375.14 372.11 373.05 377.86 405.23 438.09 440.19 417.96 442.27 412.21"/><line class="cls-6" x1="407.34" y1="432.28" x2="405.25" y2="438.03"/><polygon class="cls-11" points="488.48 384.94 456.38 324.49 421.35 344.84 453.33 405.01 488.48 384.94"/><polygon class="cls-6" points="421.35 344.84 453.53 405.07 488.48 384.94 456.58 324.56 421.35 344.84"/><polyline class="cls-6" points="421.35 344.84 419.26 350.58 451.44 410.82 486.39 390.69 488.48 384.94"/><line class="cls-6" x1="453.55" y1="405.01" x2="451.46" y2="410.76"/><polygon class="cls-12" points="534.69 357.66 502.59 297.22 467.55 317.56 499.53 377.73 534.69 357.66"/><polygon class="cls-6" points="467.55 317.56 499.73 377.8 534.69 357.66 502.79 297.28 467.55 317.56"/><polyline class="cls-6" points="467.55 317.56 465.47 323.31 497.65 383.54 532.6 363.41 534.69 357.66"/><line class="cls-6" x1="499.75" y1="377.73" x2="497.67" y2="383.48"/><polygon class="cls-13" points="580.89 330.39 548.8 269.95 513.76 290.29 545.74 350.46 580.89 330.39"/><polygon class="cls-6" points="513.76 290.29 545.94 350.52 580.89 330.39 549 270.01 513.76 290.29"/><polyline class="cls-6" points="513.76 290.29 511.67 296.04 543.85 356.27 578.81 336.14 580.89 330.39"/><line class="cls-6" x1="545.96" y1="350.46" x2="543.88" y2="356.21"/><polygon class="cls-14" points="359.05 369.11 326.95 308.67 291.91 329.01 323.89 389.18 359.05 369.11"/><polygon class="cls-6" points="291.91 329.01 324.09 389.24 359.05 369.11 327.15 308.73 291.91 329.01"/><polyline class="cls-6" points="291.91 329.01 289.83 334.76 322.01 394.99 356.96 374.86 359.05 369.11"/><line class="cls-6" x1="324.12" y1="389.18" x2="322.03" y2="394.93"/><polygon class="cls-15" points="405.25 341.84 373.16 281.39 338.12 301.74 370.1 361.91 405.25 341.84"/><polygon class="cls-6" points="338.12 301.74 370.3 361.97 405.25 341.84 373.36 281.45 338.12 301.74"/><polyline class="cls-6" points="338.12 301.74 336.03 307.49 368.21 367.72 403.17 347.58 405.25 341.84"/><line class="cls-6" x1="370.32" y1="361.91" x2="368.24" y2="367.65"/><polygon class="cls-16" points="451.46 314.56 419.36 254.12 384.33 274.46 416.31 334.63 451.46 314.56"/><polygon class="cls-6" points="384.33 274.46 416.51 334.69 451.46 314.56 419.56 254.18 384.33 274.46"/><polyline class="cls-6" points="384.33 274.46 382.24 280.21 414.42 340.44 449.37 320.31 451.46 314.56"/><line class="cls-6" x1="416.53" y1="334.63" x2="414.44" y2="340.38"/><polygon class="cls-17" points="497.67 287.29 465.57 226.85 430.53 247.19 462.51 307.36 497.67 287.29"/><polygon class="cls-6" points="430.53 247.19 462.71 307.42 497.67 287.29 465.77 226.91 430.53 247.19"/><polyline class="cls-6" points="430.53 247.19 428.45 252.94 460.63 313.17 495.58 293.04 497.67 287.29"/><line class="cls-6" x1="462.74" y1="307.36" x2="460.65" y2="313.11"/><polygon class="cls-18" points="543.88 260.02 511.78 199.57 476.74 219.92 508.72 280.09 543.88 260.02"/><path class="cls-19" d="M509.12,280.49l-.54-.16L476.4,220.1l.15-.52,35.23-20.28.54.15,31.9,60.38-.15.53Zm-31.85-60.42,31.81,59.54,34.27-19.74-31.53-59.69Z"/><polygon class="cls-19" points="507.03 286.24 506.49 286.08 474.31 225.85 474.29 225.53 476.37 219.78 477.11 220.05 475.08 225.63 506.99 285.36 541.47 265.5 543.51 259.88 544.24 260.15 542.16 265.9 541.98 266.1 507.03 286.24"/><rect class="cls-19" x="504.84" y="282.57" width="6.11" height="0.78" transform="translate(68.82 664.06) rotate(-70.08)"/></g></g></svg>