<?xml version="1.0" encoding="UTF-8"?><svg xmlns="http://www.w3.org/2000/svg" xmlns:xlink="http://www.w3.org/1999/xlink" viewBox="0 0 728.15 785.23"><defs><style>.f{fill:url(#e);}.g{fill:url(#d);}.h{stroke:#2d5261;}.h,.i{fill:none;stroke-linejoin:bevel;}.i{stroke:#ff7e2f;}</style><radialGradient id="d" cx="382.43" cy="354.84" fx="382.43" fy="354.84" r="124.12" gradientTransform="matrix(1, 0, 0, 1, 0, 0)" gradientUnits="userSpaceOnUse"><stop offset=".27" stop-color="#86b7cc"/><stop offset=".34" stop-color="#8ab9cd" stop-opacity=".96"/><stop offset=".46" stop-color="#96c0d1" stop-opacity=".86"/><stop offset=".6" stop-color="#aacbd8" stop-opacity=".68"/><stop offset=".75" stop-color="#c5dbe2" stop-opacity=".44"/><stop offset=".93" stop-color="#e8efee" stop-opacity=".14"/><stop offset="1" stop-color="#f8f8f4" stop-opacity="0"/></radialGradient><radialGradient id="e" cx="369.25" cy="671.08" fx="369.25" fy="671.08" r="363.99" gradientTransform="matrix(1, 0, 0, 1, 0, 0)" gradientUnits="userSpaceOnUse"><stop offset=".24" stop-color="#ff7e2f"/><stop offset=".32" stop-color="#fe8840" stop-opacity=".91"/><stop offset=".47" stop-color="#fca56e" stop-opacity=".68"/><stop offset=".68" stop-color="#fad2b6" stop-opacity=".31"/><stop offset=".86" stop-color="#f8f8f4" stop-opacity="0"/></radialGradient></defs><g id="a"/><g id="b"><g id="c"><g><g><path class="g" d="M448.13,366.78c23.28,8.1,35.98,39.07,28.61,71.64-7.78,34.36-34.96,57.48-60.71,51.65-25.75-5.83-40.31-38.41-32.53-72.77,7.78-34.36,34.96-57.48,60.71-51.65,1.34,.3,2.65,.68,3.93,1.12"/><g><path class="f" d="M510.62,188.17l-216.77,124.98v333.76l-53.96-31.45V281.69l116.69-67.38v20.26c0,5.95,8.36,10.77,18.67,10.77s18.67-4.82,18.67-10.77v-41.81l62.73-36.23,53.97,31.64Z"/><g><path class="i" d="M239.89,470.1l-16.47,9.54c-12.14,7.03-19.61,19.98-19.61,34.01v186.58"/><path class="i" d="M239.89,470.1l-38.21,22.17c-9.67,5.61-15.63,15.95-15.63,27.14v191.17"/><path class="i" d="M239.89,470.1l-59.41,34.56c-7.68,4.47-12.4,12.68-12.4,21.56v194.89"/></g><g><g><polyline class="h" points="293.85 647.45 293.85 313.68 510.62 188.71"/><polyline class="h" points="393.92 193.29 456.65 157.07 510.62 188.71 510.62 261.94 510.62 511.01 510.62 522.29 293.85 647.45 239.89 615.99 239.89 282.23 356.58 214.85"/></g><polyline class="h" points="457.35 475.35 457.35 511.23 348.48 574.18 348.48 323.54 457.35 261.91 457.35 371.53"/><ellipse class="h" cx="494.82" cy="219.05" rx="8.05" ry="5.72" transform="translate(171.88 653.26) rotate(-77.24)"/><ellipse class="h" cx="494.82" cy="508.53" rx="8.05" ry="5.72" transform="translate(-110.45 878.8) rotate(-77.24)"/><ellipse class="h" cx="309.81" cy="324.85" rx="8.05" ry="5.72" transform="translate(-75.45 555.26) rotate(-77.24)"/><ellipse class="h" cx="309.81" cy="616.85" rx="8.05" ry="5.72" transform="translate(-360.24 782.76) rotate(-77.24)"/></g><g><g><path class="i" d="M510.62,250.89l1.88-1.09c10.11-5.86,16.33-16.66,16.33-28.34V52.39"/><path class="i" d="M510.62,250.89l21.83-12.65c8.75-5.07,14.14-14.42,14.14-24.54V42.04"/><path class="i" d="M510.62,250.89l42.13-24.41c7.31-4.24,11.82-12.05,11.82-20.5V31.51"/></g><path class="i" d="M510.62,396.7l89.12-50.63c7.31-4.24,11.82-12.05,11.82-20.5V5.29"/></g><line class="h" x1="239.89" y1="282.23" x2="293.85" y2="313.68"/><path class="h" d="M393.92,235.1c0,5.95-8.36,10.78-18.67,10.78s-18.67-4.83-18.67-10.78"/><line class="h" x1="393.92" y1="235.1" x2="393.92" y2="110.08"/><line class="h" x1="356.58" y1="235.1" x2="356.58" y2="131.64"/><line class="h" x1="432.04" y1="129.79" x2="492.88" y2="94.67"/><line class="h" x1="47.91" y1="351.59" x2="321.5" y2="193.62"/><line class="h" x1="104.09" y1="235.1" x2="510.51" y2=".43"/><line class="h" x1="199.46" y1="784.79" x2="605.88" y2="550.13"/><line class="h" x1="630.24" y1="99.08" x2="696.72" y2="60.69"/><line class="h" x1=".25" y1="462.84" x2="177.21" y2="360.66"/><line class="h" x1="132.35" y1="470.1" x2="221.82" y2="418.44"/><line class="h" x1="12.53" y1="539.28" x2="77.18" y2="501.95"/><line class="h" x1="645.03" y1="257.99" x2="727.9" y2="210.15"/><line class="h" x1="645.03" y1="175.57" x2="727.9" y2="127.72"/><line class="h" x1="663.48" y1="331.07" x2="720.83" y2="297.96"/><line class="h" x1="600.91" y1="449.28" x2="696.72" y2="393.96"/><line class="h" x1="11.21" y1="686.35" x2="143.15" y2="610.17"/><line class="h" x1="47.91" y1="768.59" x2="138.13" y2="716.49"/></g><path class="h" d="M404.91,433.96l46.82-27.47,2.02-24.3c-2.72-2.37-5.77-4.19-9.11-5.36-.91-.32-1.84-.58-2.78-.79-1.85-.42-3.72-.62-5.59-.62-16.21,0-32.84,15.16-40.24,36.68l8.88,21.86Z"/><path class="h" d="M402.68,411.4c6.89-17.52,20.7-29.98,33.59-29.98,1.44,0,2.88,.16,4.26,.47,.72,.16,1.43,.37,2.13,.61,1.68,.59,4.12,1.84,5.65,2.87"/><path class="h" d="M448.13,366.78c23.28,8.1,35.98,39.07,28.61,71.64-7.78,34.36-34.96,57.48-60.71,51.65-25.75-5.83-40.31-38.41-32.53-72.77,7.78-34.36,34.96-57.48,60.71-51.65,1.34,.3,2.65,.68,3.93,1.12"/><path class="h" d="M416.03,490.07h0c-9.12-.58-18.06-2.82-26.39-6.61l-2.11-.96c-.82-.37-1.63-.76-2.4-1.21-21.58-12.46-32.08-43.58-25.03-74.72,4.01-17.72,13.02-33.26,25.37-43.77,12.86-10.94,27.8-15.19,42.06-11.98l.14,.03c1.16,.27,2.33,.6,3.51,1.02,1.99,.7,3.87,1.65,5.66,2.76l.07,.04c6.37,3.92,12.05,8.86,16.83,14.61h0"/><path class="h" d="M408,487.23l-18.57-10.86c-19.65-10.46-29.8-38.75-23.09-68.39,7.67-33.87,34.47-56.66,59.85-50.92h.04c2.01,.47,3.94,1.18,5.81,2.05l19.7,9.14"/><line class="h" x1="388.03" y1="466.15" x2="478.84" y2="413.6"/><polygon class="h" points="408.88 463.33 408.88 476.82 464.62 443.89 464.62 431.4 408.88 463.33"/><ellipse class="h" cx="428.72" cy="408.33" rx="3.83" ry="5.28"/><line class="h" x1="428.72" y1="408.33" x2="443.74" y2="380.15"/></g><line class="h" x1="425.84" y1="381.42" x2="425.84" y2="394.35"/><line class="h" x1="410.18" y1="393.52" x2="419.28" y2="400.61"/><line class="h" x1="437.13" y1="379.14" x2="434.02" y2="391.02"/><line class="h" x1="400.16" y1="411.56" x2="411.82" y2="411.56"/><line class="h" x1="441.61" y1="392.31" x2="449.63" y2="384.02"/></g></g></g></svg>