<?xml version="1.0" encoding="UTF-8"?><svg xmlns="http://www.w3.org/2000/svg" xmlns:xlink="http://www.w3.org/1999/xlink" viewBox="0 0 751.04 660.76"><defs><style>.g{fill:url(#e);}.h{fill:url(#d);}.i{fill:url(#f);}.j{stroke:#2d5261;}.j,.k{fill:none;stroke-linejoin:bevel;}.k{stroke:#ff7e2f;}</style><radialGradient id="d" cx="344.39" cy="835.48" fx="344.39" fy="835.48" r="597.52" gradientTransform="matrix(1, 0, 0, 1, 0, 0)" gradientUnits="userSpaceOnUse"><stop offset=".27" stop-color="#86b7cc"/><stop offset=".34" stop-color="#8ab9cd" stop-opacity=".96"/><stop offset=".46" stop-color="#96c0d1" stop-opacity=".86"/><stop offset=".6" stop-color="#aacbd8" stop-opacity=".68"/><stop offset=".75" stop-color="#c5dbe2" stop-opacity=".44"/><stop offset=".93" stop-color="#e8efee" stop-opacity=".14"/><stop offset="1" stop-color="#f8f8f4" stop-opacity="0"/></radialGradient><radialGradient id="e" cx="1346.82" cy="814.84" fx="1346.82" fy="814.84" r="183.54" gradientTransform="translate(1928.88 358.86) rotate(135)" xlink:href="#d"/><radialGradient id="f" cx="379.23" cy="133.83" fx="379.23" fy="133.83" r="320.21" gradientTransform="matrix(1, 0, 0, 1, 0, 0)" gradientUnits="userSpaceOnUse"><stop offset=".27" stop-color="#ff7e2f"/><stop offset=".33" stop-color="#fe8135" stop-opacity=".97"/><stop offset=".43" stop-color="#fe8c45" stop-opacity=".88"/><stop offset=".55" stop-color="#fd9d61" stop-opacity=".75"/><stop offset=".68" stop-color="#fbb487" stop-opacity=".55"/><stop offset=".83" stop-color="#fad2b7" stop-opacity=".31"/><stop offset="1" stop-color="#f8f6f2" stop-opacity="0"/><stop offset="1" stop-color="#f8f8f4" stop-opacity="0"/></radialGradient></defs><g id="a"/><g id="b"><g id="c"><g><polyline class="h" points="716.92 642.16 375.37 300.61 33.81 642.16 .35 641.85 375.37 266.84 750.69 642.16"/><circle class="g" cx="375.37" cy="578.91" r="62.14"/><g><g><g><polyline class="j" points=".35 641.85 375.37 266.84 750.69 642.16"/><polyline class="j" points="33.81 642.16 375.37 300.61 716.92 642.16"/></g><g><g><circle class="j" cx="375.37" cy="578.91" r="62.14"/><line class="j" x1="375.37" y1="516.78" x2="375.37" y2="641.05"/><line class="j" x1="437.5" y1="578.91" x2="313.23" y2="578.91"/></g><circle class="j" cx="375.37" cy="578.91" r="81.35"/></g><line class="j" x1="350.69" y1="380.18" x2="400.05" y2="380.18"/><line class="j" x1="306.36" y1="413.2" x2="444.37" y2="413.2"/><line class="j" x1="306.36" y1="479.25" x2="509.94" y2="479.25"/><line class="j" x1="487.76" y1="578.33" x2="611.74" y2="578.33"/><line class="j" x1="131.89" y1="578.33" x2="261.3" y2="578.33"/><g><line class="j" x1="70.18" y1="642.16" x2="268.93" y2="642.16"/><line class="j" x1="528.23" y1="642.16" x2="673.21" y2="642.16"/></g><line class="j" x1="481.81" y1="545.3" x2="574.65" y2="545.3"/><line class="j" x1="171.23" y1="545.3" x2="217.65" y2="545.3"/><line class="j" x1="235.93" y1="545.3" x2="268.93" y2="545.3"/><line class="j" x1="199.14" y1="512.28" x2="287.33" y2="512.28"/><line class="j" x1="456.71" y1="512.28" x2="544.9" y2="512.28"/><g><line class="j" x1="343.8" y1="446.23" x2="481.81" y2="446.23"/><line class="j" x1="268.93" y1="446.23" x2="305.72" y2="446.23"/></g><g><line class="j" x1="555.75" y1="611.35" x2="492.38" y2="611.35"/><line class="j" x1="630.62" y1="611.35" x2="593.83" y2="611.35"/></g><g><line class="j" x1="226.17" y1="611.35" x2="261.3" y2="611.35"/><line class="j" x1="161.52" y1="611.35" x2="199.14" y2="611.35"/></g></g><path class="i" d="M566.14,359.86c0-105.36-85.41-191.65-190.77-191.65s-190.77,85.37-190.77,190.73l51.33,.17s-.16,26.93,0,47.17l139.43-139.43,173.17,173.17c9.68-20.27,17.6-48.4,17.6-80.15Z"/><polyline class="j" points="235.93 406.27 235.93 359.1 131.89 359.1 131.89 510.31"/><g><line class="k" x1="375.37" x2="375.37" y2="137.15"/><line class="k" x1="96.84" y1="359.87" x2="15.5" y2="359.87"/><line class="k" x1="735.24" y1="359.87" x2="600.72" y2="359.87"/></g><g><line class="k" x1="598.09" y1="137.15" x2="532.4" y2="202.84"/><line class="k" x1="218.33" y1="202.84" x2="152.64" y2="137.15"/></g></g></g></g></g></svg>