<?xml version="1.0" encoding="utf-8"?>
<!-- Generator: Adobe Illustrator 26.1.0, SVG Export Plug-In . SVG Version: 6.00 Build 0)  -->
<svg version="1.1" id="a" xmlns="http://www.w3.org/2000/svg" xmlns:xlink="http://www.w3.org/1999/xlink" x="0px" y="0px"
	 viewBox="0 0 86.6 78.8" style="enable-background:new 0 0 86.6 78.8;" xml:space="preserve">
<style type="text/css">
	.st0{fill:#FF7E2F;}
	.st1{fill:#86B7CC;}
</style>
<g id="Group_2908_00000163050052782843736260000003357187637452707725_" transform="translate(-750.668 -5426.188)">
	<g id="Rectangle_309_00000148642870333537617360000016554129139743979440_" transform="translate(750.668 5431.26)">
		<g>
			<path class="st0" d="M81.4,69H5.2V5.8h76.2V69z M6.1,68.1h74.4V6.6H6.1V68.1z"/>
		</g>
	</g>
	<g id="Line_3981_00000157300931024712203190000015668338899489065898_">
		<rect x="755.9" y="5453.8" class="st0" width="75.5" height="0.9"/>
	</g>
	<g id="Line_3982_00000070115835185749368070000008249178466567404201_">
		<rect x="768" y="5430.9" class="st0" width="0.9" height="14.9"/>
	</g>
	<g id="Line_3983_00000108304186569729556740000008741322002679120551_">
		<rect x="816" y="5430.9" class="st0" width="0.9" height="14.9"/>
	</g>
	<g id="Rectangle_310_00000020400715644883999610000010686547821019364538_" transform="translate(757.668 5454.26)">
		<g>
			<path class="st1" d="M30.8,20.1H6.4V9.8h24.4V20.1z M7.3,19.2H30v-8.5H7.3V19.2z"/>
		</g>
	</g>
	<g id="Rectangle_313_00000123405334984350124150000002536692440753769101_" transform="translate(757.668 5469.26)">
		<g>
			<path class="st1" d="M30.8,22.8H6.4V12.5h24.4V22.8z M7.3,21.9H30v-8.5H7.3V21.9z"/>
		</g>
	</g>
	<g id="Rectangle_311_00000165203936425926665930000013070528473881382034_" transform="translate(784.668 5454.26)">
		<g>
			<path class="st1" d="M36.8,20.1H11.2V9.8h25.6V20.1z M12.1,19.2h23.8v-8.5H12.1V19.2z"/>
		</g>
	</g>
	<g id="Rectangle_312_00000020395164492851439200000006522831643534763142_" transform="translate(784.668 5469.26)">
		<g>
			<path class="st1" d="M36.8,22.8H11.2V12.5h25.6V22.8z M12.1,21.9h23.8v-8.5H12.1V21.9z"/>
		</g>
	</g>
</g>
</svg>
