<?xml version="1.0" encoding="utf-8"?>
<!-- Generator: Adobe Illustrator 26.1.0, SVG Export Plug-In . SVG Version: 6.00 Build 0)  -->
<svg version="1.1" id="Layer_1" xmlns="http://www.w3.org/2000/svg" xmlns:xlink="http://www.w3.org/1999/xlink" x="0px" y="0px"
	 viewBox="0 0 504.5 74.1" style="enable-background:new 0 0 504.5 74.1;" xml:space="preserve">
<style type="text/css">
	.st0{fill:#1F3943;}
</style>
<g id="a">
</g>
<g id="b">
	<g id="c">
		<g id="d" transform="translate(-148.893 -148.425)">
			<path id="e" class="st0" d="M219.4,151.2H182l-33.1,69.4h16.4c6.9,0,13.3-4,16.3-10.2l19.2-40.2l15.5,32.4H186
				c0,9.9,8.1,18,18,18h48.6L219.4,151.2z"/>
			<path id="f" class="st0" d="M374.8,150.4v70.2h-24.4v-46.8l-21.5,46.8h-22.6l-21.5-46.8v46.8h-24.4v-70.2h38l19.1,41.8l19.1-41.8
				H374.8L374.8,150.4z"/>
			<path id="g" class="st0" d="M458.6,150.4v18.5h-47.8v7.3h45.8v18.5h-45.8v7.3h47.8v18.5h-72.2v-70.2H458.6z"/>
			<path id="h" class="st0" d="M478.6,157.8c7.4-6.2,18-9.4,31.8-9.4c12.7,0,22.8,2.6,30.1,7.8c7.3,5.2,12,13.4,12.5,22.4h-26
				c-0.8-2.8-2.6-5.3-5.1-6.8c-3.5-2.1-7.5-3.1-11.6-2.9c-4.9-0.4-9.7,1.2-13.3,4.5c-3,3.3-4.5,7.6-4.3,11.9
				c-0.2,4.4,1.3,8.8,4.3,12.1c3.6,3.3,8.4,5,13.3,4.6c4.1,0.2,8.1-0.8,11.6-2.9c2.5-1.6,4.3-4.1,5.1-6.9H553
				c-0.6,9-5.2,17.3-12.5,22.5c-7.3,5.2-17.3,7.8-30.1,7.8c-13.7,0-24.3-3.1-31.8-9.4c-7.4-6.3-11.2-15.5-11.2-27.8
				C467.4,173.2,471.1,164,478.6,157.8L478.6,157.8z"/>
			<path id="i" class="st0" d="M582.8,218.2c-6.4-2.5-11.8-6.9-15.7-12.7c-7.2-12.4-7.2-27.8,0-40.2c3.8-5.7,9.3-10.1,15.7-12.6
				c16-5.7,33.5-5.7,49.5,0.1c6.4,2.5,11.9,6.9,15.7,12.6c3.7,6,5.6,12.9,5.4,20c0.2,7.1-1.7,14.1-5.4,20.1
				c-3.8,5.7-9.3,10.2-15.7,12.7C616.3,224,598.8,224,582.8,218.2L582.8,218.2z M628.1,185.4c0.2-4.5-1.5-8.9-4.6-12.1
				c-3.1-3-8.4-4.4-15.8-4.4c-7.5,0-12.8,1.5-15.9,4.4c-3.2,3.2-4.9,7.6-4.6,12.1c0,11.1,6.8,16.7,20.5,16.7
				S628.1,196.5,628.1,185.4L628.1,185.4z"/>
		</g>
	</g>
</g>
</svg>
