<?xml version="1.0" encoding="UTF-8"?>
<svg xmlns="http://www.w3.org/2000/svg" xmlns:xlink="http://www.w3.org/1999/xlink" viewBox="0 0 579.82 416.98">
    <defs>
        <style>.h,.i,.j,.k{fill:none;}.l,.m{fill:#2d5261;}.i{stroke:#86b7cc;}.i,.j,.k,.m{stroke-linecap:square;stroke-linejoin:bevel;}.j,.k,.m{stroke:#ff7e2f;}.n{filter:url(#e);}.k{stroke-dasharray:0 0 5 5;}.o{clip-path:url(#d);}.p{clip-path:url(#g);}</style>
        <clipPath id="d">
            <polygon class="h" points=".5 269.06 346.22 66.48 579.12 203.48 234.79 404.04 .5 269.06" />
        </clipPath>
        <filter id="e" filterUnits="userSpaceOnUse">
            <feOffset dx="0" dy="92" />
            <feGaussianBlur result="f" stdDeviation="13" />
            <feFlood flood-color="#000" flood-opacity=".3" />
            <feComposite in2="f" operator="in" />
            <feComposite in="SourceGraphic" />
        </filter>
        <clipPath id="g">
            <polygon class="h" points="76.6 149.68 249.27 249.23 503.07 99.83 331.41 .43 76.6 149.68" />
        </clipPath>
    </defs>
    <g id="a" />
    <g id="b">
        <g id="c">
            <g>
                <g>
                    <polyline class="l" points="276.77 106.96 346.22 66.28 579.12 203.28 579.32 216.43 234.79 416.55 .5 281.47 .5 268.77 276.77 106.96" />
                    <line class="i" x1="234.79" y1="403.85" x2="234.79" y2="415.94" />
                    <polyline class="i" points="276.77 106.96 346.22 66.28 579.12 203.28 579.32 216.43 234.79 416.55 .5 281.47 .5 268.77 276.77 106.96" />
                    <polygon class="i" points=".5 268.86 346.22 66.28 579.12 203.28 234.79 403.85 .5 268.86" />
                    <g class="o">
                        <g>
                            <line class="i" x1="583.58" y1="203.96" x2="234.21" y2="407.45" />
                            <line class="i" x1="234.21" y1="407.45" x2="-3.27" y2="270.53" />
                            <g>
                                <g>
                                    <line class="i" x1="340.95" y1="101.19" x2="374.76" y2="81.61" />
                                    <line class="i" x1="376.86" y1="122.02" x2="410.66" y2="102.45" />
                                    <line class="i" x1="412.76" y1="142.86" x2="446.1" y2="123.73" />
                                    <line class="i" x1="448.67" y1="163.7" x2="481.4" y2="144.91" />
                                    <line class="i" x1="484.58" y1="184.54" x2="517.3" y2="165.75" />
                                    <line class="i" x1="520.48" y1="205.38" x2="553.21" y2="186.59" />
                                </g>
                                <line class="i" x1="312.27" y1="85.41" x2="549.86" y2="222.59" />
                                <g>
                                    <line class="i" x1="242.29" y1="126.19" x2="480.02" y2="263.45" />
                                    <g>
                                        <line class="i" x1="277" y1="106.54" x2="514.58" y2="243.72" />
                                        <g>
                                            <line class="i" x1="271.39" y1="142.35" x2="305.04" y2="122.95" />
                                            <line class="i" x1="307.3" y1="163.19" x2="340.94" y2="143.79" />
                                            <line class="i" x1="343.2" y1="184.03" x2="377.02" y2="164.7" />
                                            <line class="i" x1="379.11" y1="204.87" x2="413.05" y2="185.31" />
                                            <line class="i" x1="415.01" y1="225.71" x2="448.95" y2="206.15" />
                                            <line class="i" x1="451.44" y1="246.25" x2="484.86" y2="226.98" />
                                        </g>
                                        <g>
                                            <line class="i" x1="322.2" y1="132.1" x2="357.11" y2="111.88" />
                                            <line class="i" x1="291.28" y1="114.19" x2="326.18" y2="93.98" />
                                            <line class="i" x1="358.26" y1="152.84" x2="393.01" y2="132.72" />
                                            <line class="i" x1="394.19" y1="173.67" x2="429.43" y2="153.43" />
                                            <line class="i" x1="430.32" y1="194.38" x2="465.39" y2="174.24" />
                                            <line class="i" x1="466.39" y1="215.35" x2="501.31" y2="195.06" />
                                            <line class="i" x1="502.06" y1="236.1" x2="537.15" y2="215.95" />
                                        </g>
                                    </g>
                                </g>
                            </g>
                            <g>
                                <line class="i" x1="172.4" y1="166.8" x2="410.12" y2="304.06" />
                                <g>
                                    <line class="i" x1="207.1" y1="147.15" x2="444.69" y2="284.33" />
                                    <g>
                                        <line class="i" x1="201.49" y1="182.96" x2="235.14" y2="163.56" />
                                        <line class="i" x1="237.4" y1="203.8" x2="271.04" y2="184.4" />
                                        <line class="i" x1="273.3" y1="224.64" x2="307.12" y2="205.31" />
                                        <line class="i" x1="309.21" y1="245.48" x2="343.15" y2="225.92" />
                                        <line class="i" x1="345.11" y1="266.32" x2="379.06" y2="246.76" />
                                        <line class="i" x1="381.54" y1="286.86" x2="414.96" y2="267.59" />
                                    </g>
                                    <g>
                                        <line class="i" x1="252.3" y1="172.71" x2="287.21" y2="152.49" />
                                        <line class="i" x1="221.38" y1="154.8" x2="256.29" y2="134.59" />
                                        <line class="i" x1="288.36" y1="193.45" x2="323.12" y2="173.33" />
                                        <line class="i" x1="324.29" y1="214.28" x2="359.53" y2="194.04" />
                                        <line class="i" x1="360.42" y1="234.99" x2="395.5" y2="214.85" />
                                        <line class="i" x1="396.49" y1="255.96" x2="431.42" y2="235.67" />
                                        <line class="i" x1="432.16" y1="276.71" x2="467.26" y2="256.56" />
                                    </g>
                                </g>
                            </g>
                            <g>
                                <line class="i" x1="102.55" y1="207.66" x2="340.27" y2="344.92" />
                                <g>
                                    <line class="i" x1="137.26" y1="188.01" x2="374.84" y2="325.19" />
                                    <g>
                                        <line class="i" x1="131.65" y1="223.82" x2="165.29" y2="204.42" />
                                        <line class="i" x1="167.55" y1="244.66" x2="201.2" y2="225.26" />
                                        <line class="i" x1="203.46" y1="265.5" x2="237.28" y2="246.17" />
                                        <line class="i" x1="239.36" y1="286.34" x2="273.31" y2="266.77" />
                                        <line class="i" x1="275.27" y1="307.18" x2="309.21" y2="287.61" />
                                        <line class="i" x1="311.69" y1="327.72" x2="345.12" y2="308.45" />
                                    </g>
                                    <g>
                                        <line class="i" x1="182.46" y1="213.56" x2="217.36" y2="193.35" />
                                        <line class="i" x1="151.53" y1="195.66" x2="186.44" y2="175.45" />
                                        <line class="i" x1="218.52" y1="234.31" x2="253.27" y2="214.19" />
                                        <line class="i" x1="254.45" y1="255.13" x2="289.69" y2="234.9" />
                                        <line class="i" x1="290.57" y1="275.85" x2="325.65" y2="255.71" />
                                        <line class="i" x1="326.64" y1="296.82" x2="361.57" y2="276.53" />
                                        <line class="i" x1="362.32" y1="317.56" x2="397.41" y2="297.42" />
                                    </g>
                                </g>
                            </g>
                            <g>
                                <line class="i" x1="32.7" y1="248.52" x2="270.43" y2="385.78" />
                                <g>
                                    <line class="i" x1="67.41" y1="228.87" x2="305" y2="366.05" />
                                    <g>
                                        <line class="i" x1="61.8" y1="264.68" x2="95.45" y2="245.28" />
                                        <line class="i" x1="97.71" y1="285.52" x2="131.35" y2="266.12" />
                                        <line class="i" x1="133.61" y1="306.36" x2="167.43" y2="287.03" />
                                        <line class="i" x1="169.52" y1="327.2" x2="203.46" y2="307.63" />
                                        <line class="i" x1="205.42" y1="348.04" x2="239.37" y2="328.47" />
                                        <line class="i" x1="241.85" y1="368.58" x2="275.27" y2="349.31" />
                                    </g>
                                    <g>
                                        <line class="i" x1="112.61" y1="254.42" x2="147.52" y2="234.21" />
                                        <line class="i" x1="81.69" y1="236.52" x2="116.59" y2="216.31" />
                                        <line class="i" x1="148.67" y1="275.17" x2="183.42" y2="255.05" />
                                        <line class="i" x1="184.6" y1="295.99" x2="219.84" y2="275.76" />
                                        <line class="i" x1="220.73" y1="316.71" x2="255.81" y2="296.57" />
                                        <line class="i" x1="256.8" y1="337.68" x2="291.73" y2="317.39" />
                                        <line class="i" x1="292.47" y1="358.42" x2="327.57" y2="338.27" />
                                    </g>
                                </g>
                            </g>
                            <g>
                                <line class="i" x1="-37.14" y1="289.37" x2="200.58" y2="426.64" />
                                <g>
                                    <line class="i" x1="-2.43" y1="269.73" x2="235.15" y2="406.91" />
                                    <g>
                                        <line class="i" x1="-8.04" y1="305.54" x2="25.6" y2="286.14" />
                                        <line class="i" x1="27.86" y1="326.38" x2="61.51" y2="306.98" />
                                        <line class="i" x1="63.77" y1="347.22" x2="97.59" y2="327.88" />
                                        <line class="i" x1="99.67" y1="368.06" x2="133.61" y2="348.49" />
                                        <line class="i" x1="135.58" y1="388.89" x2="169.52" y2="369.33" />
                                        <line class="i" x1="172" y1="409.43" x2="205.43" y2="390.17" />
                                    </g>
                                    <g>
                                        <line class="i" x1="42.77" y1="295.28" x2="77.67" y2="275.07" />
                                        <line class="i" x1="11.84" y1="277.38" x2="46.75" y2="257.16" />
                                        <line class="i" x1="78.83" y1="316.03" x2="113.58" y2="295.91" />
                                        <line class="i" x1="114.76" y1="336.85" x2="150" y2="316.62" />
                                        <line class="i" x1="150.88" y1="357.57" x2="185.96" y2="337.43" />
                                        <line class="i" x1="186.95" y1="378.54" x2="221.88" y2="358.25" />
                                        <line class="i" x1="222.63" y1="399.28" x2="257.72" y2="379.13" />
                                    </g>
                                </g>
                            </g>
                        </g>
                    </g>
                </g>
                <g class="n">
                    <polygon class="m" points="249.28 258.6 76.6 159.04 76.6 149.68 331.41 .43 503.07 99.83 503.22 109.52 249.28 258.6" />
                    <g class="p">
                        <g>
                            <g>
                                <g>
                                    <path class="j" d="M83.05,154.6l43.16,24.92c4.22,2.43,9.41,2.43,13.62,0l50.34-29.07c3.31-1.91,3.31-6.69,0-8.6l-43.13-24.92c-4.21-2.44-9.41-2.44-13.62,0l-50.37,29.07c-3.31,1.91-3.31,6.69,0,8.6Z" />
                                    <path class="j" d="M140.77,187.72l43.16,24.92c4.22,2.43,9.41,2.43,13.62,0l50.34-29.07c3.31-1.91,3.31-6.69,0-8.6l-43.13-24.92c-4.21-2.44-9.41-2.44-13.62,0l-50.37,29.07c-3.31,1.91-3.31,6.69,0,8.6Z" />
                                    <path class="j" d="M198.48,220.84l43.16,24.92c4.22,2.43,9.41,2.43,13.62,0l50.34-29.07c3.31-1.91,3.31-6.69,0-8.6l-43.13-24.92c-4.21-2.44-9.41-2.44-13.62,0l-50.37,29.07c-3.31,1.91-3.31,6.69,0,8.6Z" />
                                </g>
                                <g>
                                    <path class="j" d="M146.92,116.91l43.16,24.92c4.22,2.43,9.41,2.43,13.62,0l50.34-29.07c3.31-1.91,3.31-6.69,0-8.6l-43.13-24.92c-4.21-2.44-9.41-2.44-13.62,0l-50.37,29.07c-3.31,1.91-3.31,6.69,0,8.6Z" />
                                    <path class="j" d="M204.63,150.03l43.16,24.92c4.22,2.43,9.41,2.43,13.62,0l50.34-29.07c3.31-1.91,3.31-6.69,0-8.6l-43.13-24.92c-4.21-2.44-9.41-2.44-13.62,0l-50.37,29.07c-3.31,1.91-3.31,6.69,0,8.6Z" />
                                    <path class="j" d="M262.35,183.15l43.16,24.92c4.22,2.43,9.41,2.43,13.62,0l50.34-29.07c3.31-1.91,3.31-6.69,0-8.6l-43.13-24.92c-4.21-2.44-9.41-2.44-13.62,0l-50.37,29.07c-3.31,1.91-3.31,6.69,0,8.6Z" />
                                </g>
                                <g>
                                    <path class="j" d="M210.79,79.22l43.16,24.92c4.22,2.43,9.41,2.43,13.62,0l50.34-29.07c3.31-1.91,3.31-6.69,0-8.6l-43.13-24.92c-4.21-2.44-9.41-2.44-13.62,0l-50.37,29.07c-3.31,1.91-3.31,6.69,0,8.6Z" />
                                    <path class="j" d="M268.5,112.34l43.16,24.92c4.22,2.43,9.41,2.43,13.62,0l50.34-29.07c3.31-1.91,3.31-6.69,0-8.6l-43.13-24.92c-4.21-2.44-9.41-2.44-13.62,0l-50.37,29.07c-3.31,1.91-3.31,6.69,0,8.6Z" />
                                    <path class="j" d="M326.22,145.47l43.16,24.92c4.22,2.43,9.41,2.43,13.62,0l50.34-29.07c3.31-1.91,3.31-6.69,0-8.6l-43.13-24.92c-4.21-2.44-9.41-2.44-13.62,0l-50.37,29.07c-3.31,1.91-3.31,6.69,0,8.6Z" />
                                </g>
                                <g>
                                    <path class="j" d="M274.66,41.53l43.16,24.92c4.22,2.43,9.41,2.43,13.62,0l50.34-29.07c3.31-1.91,3.31-6.69,0-8.6L338.66,3.87c-4.21-2.44-9.41-2.44-13.62,0l-50.37,29.07c-3.31,1.91-3.31,6.69,0,8.6Z" />
                                    <path class="j" d="M332.37,74.66l43.16,24.92c4.22,2.43,9.41,2.43,13.62,0l50.34-29.07c3.31-1.91,3.31-6.69,0-8.6l-43.13-24.92c-4.21-2.44-9.41-2.44-13.62,0l-50.37,29.07c-3.31,1.91-3.31,6.69,0,8.6Z" />
                                    <path class="j" d="M390.09,107.78l43.16,24.92c4.22,2.43,9.41,2.43,13.62,0l50.34-29.07c3.31-1.91,3.31-6.69,0-8.6l-43.13-24.92c-4.21-2.44-9.41-2.44-13.62,0l-50.37,29.07c-3.31,1.91-3.31,6.69,0,8.6Z" />
                                </g>
                            </g>
                            <g>
                                <line class="j" x1="103.84" y1="166.25" x2="361.43" y2="17.21" />
                                <line class="j" x1="162.16" y1="199.53" x2="418.09" y2="49.99" />
                                <line class="j" x1="221.25" y1="233.58" x2="474.5" y2="82.28" />
                            </g>
                            <g>
                                <line class="k" x1="115.96" y1="173.14" x2="373.55" y2="24.09" />
                                <line class="k" x1="174.28" y1="206.42" x2="430.21" y2="56.88" />
                                <line class="k" x1="233.37" y1="240.46" x2="486.62" y2="89.16" />
                            </g>
                            <g>
                                <line class="k" x1="91.69" y1="159.19" x2="349.28" y2="10.15" />
                                <line class="k" x1="150.02" y1="192.47" x2="405.95" y2="42.93" />
                                <line class="k" x1="209.1" y1="226.51" x2="462.36" y2="75.22" />
                            </g>
                            <line class="j" x1="300.81" y1="18.14" x2="473.04" y2="117.59" />
                            <line class="j" x1="237.49" y1="55.59" x2="409.98" y2="155.18" />
                            <line class="j" x1="174.11" y1="93" x2="346.03" y2="192.27" />
                            <line class="j" x1="110.56" y1="130.31" x2="282.58" y2="229.99" />
                        </g>
                    </g>
                    <g>
                        <polyline class="j" points="502.57 100.13 249.27 249.23 76.75 149.77" />
                        <line class="j" x1="249.28" y1="249.23" x2="249.28" y2="258.15" />
                        <polygon class="j" points="249.28 258.6 76.6 159.04 76.6 149.68 331.41 .43 503.07 99.83 503.22 109.52 249.28 258.6" />
                    </g>
                </g>
            </g>
        </g>
    </g>
</svg>