<?xml version="1.0" encoding="utf-8"?>
<!-- Generator: Adobe Illustrator 26.1.0, SVG Export Plug-In . SVG Version: 6.00 Build 0)  -->
<svg version="1.1" id="Layer_1" xmlns="http://www.w3.org/2000/svg" xmlns:xlink="http://www.w3.org/1999/xlink" x="0px" y="0px"
	 viewBox="0 0 1404.3 1279.6" style="enable-background:new 0 0 1404.3 1279.6;" xml:space="preserve">
<style type="text/css">
	.st0{fill:none;stroke:#FF7E2F;stroke-width:2;stroke-linejoin:bevel;stroke-dasharray:0,0,7,10;}
	.st1{fill:#FF7E2F;}
	.st2{font-family:'AntarcticanMono-Medium';}
	.st3{font-size:20.83px;}
	.st4{fill:none;stroke:#1F3943;stroke-linejoin:bevel;}
	.st5{fill:none;stroke:#2D5261;stroke-linejoin:bevel;}
	.st6{fill:url(#SVGID_1_);}
	.st7{fill:url(#SVGID_00000047767258182399384990000013979365185622722725_);}
	.st8{fill:url(#SVGID_00000038375274438321063140000006308820402611760537_);}
	.st9{fill:url(#SVGID_00000174565264325852378690000014443429805529710733_);}
	.st10{fill:url(#SVGID_00000123413023175009116940000012945657188442595987_);}
	.st11{fill:url(#SVGID_00000183957144702400244190000010645930472234656687_);}
	.st12{fill:url(#SVGID_00000023967820187667872200000010279620461240343942_);}
	.st13{fill:url(#SVGID_00000048468007899285276820000007647577912752579203_);}
	.st14{fill:url(#SVGID_00000093898769629128349730000008607923744584676031_);}
	.st15{fill:url(#SVGID_00000149371542836524132060000008532062105996954506_);}
	.st16{fill:url(#SVGID_00000024699819166195621800000015453295657193442227_);}
	.st17{fill:url(#SVGID_00000110473189304445133520000016123181150199724688_);}
	.st18{fill:url(#SVGID_00000026843432103727396360000004842383559856426890_);}
	.st19{fill:url(#SVGID_00000070112534799008893120000005319901971868849319_);}
	.st20{fill:url(#SVGID_00000070839843890165955010000010690339818848970414_);}
	.st21{fill:url(#SVGID_00000097480643475918158270000011699112929568039318_);}
	.st22{fill:url(#SVGID_00000141426918175055879110000006978104054595739321_);}
	.st23{fill:url(#SVGID_00000129194891816840805180000008376693464517291917_);}
</style>
<g id="a">
</g>
<g id="b">
	<g id="c">
		<g>
			<polyline class="st0" points="92.1,371.1 92.1,98.6 162.3,98.6 			"/>
			<polyline class="st0" points="162.3,661.6 92.1,661.6 92.1,414.1 			"/>
			<text transform="matrix(1 0 0 1 51.78 400.31)" class="st1 st2 st3">Stories</text>
			<text transform="matrix(1 0 0 1 826.58 343.97)" class="st1 st2 st3">Sq. Footage</text>
			<g>
				<g>
					<path class="st4" d="M918.5,654.3c-2.7,4.7-0.4,11.1,5.2,14.3s12.3,2,15-2.7"/>
					<path class="st4" d="M898.1,642.6c-2.7,4.7-0.4,11.1,5.2,14.3s12.3,2,15-2.7"/>
					<path class="st4" d="M878,630.8c-2.7,4.7-0.4,11.1,5.2,14.3s12.3,2,15-2.7"/>
					<path class="st4" d="M857.8,619.1c-2.7,4.7-0.4,11.1,5.2,14.3s12.3,2,15-2.7"/>
				</g>
				<g>
					<path class="st4" d="M1029.7,717.5c-2.7,4.7-0.4,11.1,5.2,14.3s12.3,2,15-2.7"/>
					<path class="st4" d="M989.1,694c-2.7,4.7-0.4,11.1,5.2,14.3s12.3,2,15-2.7"/>
					<path class="st4" d="M968.9,682.2c-2.7,4.7-0.4,11.1,5.2,14.3s12.3,2,15-2.7"/>
				</g>
				<g>
					<path class="st4" d="M953.2,717.5c-2.7,4.7-0.4,11.1,5.2,14.3s12.3,2,15-2.7"/>
					<path class="st4" d="M932.8,705.7c-2.7,4.7-0.4,11.1,5.2,14.3s12.3,2,15-2.7"/>
					<path class="st4" d="M892.5,682.2c-2.7,4.7-0.4,11.1,5.2,14.3s12.3,2,15-2.7"/>
				</g>
				<g>
					<path class="st4" d="M1064.4,780.6c-2.7,4.7-0.4,11.1,5.2,14.3s12.3,2,15-2.7"/>
					<path class="st4" d="M1043.9,768.8c-2.7,4.7-0.4,11.1,5.2,14.3s12.3,2,15-2.7"/>
					<path class="st4" d="M1023.8,757.1c-2.7,4.7-0.4,11.1,5.2,14.3c5.6,3.2,12.3,2,15-2.7"/>
					<path class="st4" d="M1003.6,745.3c-2.7,4.7-0.4,11.1,5.2,14.3s12.3,2,15-2.7"/>
				</g>
				<g>
					<path class="st4" d="M782.8,833c-2.7,4.7-0.4,11.1,5.2,14.3s12.3,2,15-2.7"/>
					<path class="st4" d="M762.3,821.3c-2.7,4.7-0.4,11.1,5.2,14.3s12.3,2,15-2.7"/>
					<path class="st4" d="M742.2,809.5c-2.7,4.7-0.4,11.1,5.2,14.3s12.3,2,15-2.7"/>
					<path class="st4" d="M722,797.8c-2.7,4.7-0.4,11.1,5.2,14.3s12.3,2,15-2.7"/>
				</g>
				<g>
					<path class="st4" d="M862,706.6c-2.7,4.7-0.4,11.1,5.2,14.3s12.3,2,15-2.7"/>
					<path class="st4" d="M801.2,671.4c-2.7,4.7-0.4,11.1,5.2,14.3s12.3,2,15-2.7"/>
				</g>
				<g>
					<path class="st4" d="M876.2,758c-2.7,4.7-0.4,11.1,5.2,14.3s12.3,2,15-2.7"/>
					<path class="st4" d="M856.1,746.2c-2.7,4.7-0.4,11.1,5.2,14.3s12.3,2,15-2.7"/>
					<path class="st4" d="M835.9,734.5c-2.7,4.7-0.4,11.1,5.2,14.3s12.3,2,15-2.7"/>
				</g>
				<g>
					<path class="st4" d="M983.8,819.1c-2.7,4.7-0.4,11.1,5.2,14.3s12.3,2,15-2.7"/>
					<path class="st4" d="M963.4,807.3c-2.7,4.7-0.4,11.1,5.2,14.3s12.3,2,15-2.7"/>
					<path class="st4" d="M943.3,795.6c-2.7,4.7-0.4,11.1,5.2,14.3s12.3,2,15-2.7"/>
					<path class="st4" d="M923.1,783.8c-2.7,4.7-0.4,11.1,5.2,14.3s12.3,2,15-2.7"/>
				</g>
				<path class="st4" d="M957.8,846.9c-2.7,4.7-0.4,11.1,5.2,14.3s12.3,2,15-2.7"/>
				<g>
					<path class="st4" d="M927.3,871.3c-2.7,4.7-0.4,11.1,5.2,14.3s12.3,2,15-2.7"/>
					<path class="st4" d="M866.5,836.1c-2.7,4.7-0.4,11.1,5.2,14.3s12.3,2,15-2.7"/>
				</g>
				<g>
					<path class="st4" d="M804.4,799.2c-2.7,4.7-0.4,11.1,5.2,14.3s12.3,2,15-2.7"/>
					<path class="st4" d="M770.8,740.3c-2.7,4.7-0.4,11.1,5.2,14.3s12.3,2,15-2.7"/>
				</g>
				<g>
					<path class="st4" d="M941.5,922.7c-2.7,4.7-0.4,11.1,5.2,14.3s12.3,2,15-2.7"/>
					<path class="st4" d="M921.4,911c-2.7,4.7-0.4,11.1,5.2,14.3s12.3,2,15-2.7"/>
					<path class="st4" d="M901.2,899.2c-2.7,4.7-0.4,11.1,5.2,14.3s12.3,2,15-2.7"/>
				</g>
				<g>
					<g>
						<path class="st5" d="M1361.6,871.5c-10,12-28,17.6-42.1,10.9c-0.4,9-7.5,17.4-16.4,19.2c-8.9,1.8-18.7-3.2-22.5-11.4"/>
						<path class="st5" d="M1035.7,676.1c-5.8-13.6-10.1-26.2-2.5-38.9c4.2-7,11.8-11.4,16.3-18.2c4.4-6.6,5.5-14.8,7.5-22.4
							c5.2-19.9,19.7-39.5,40.2-42.2c16.9-2.2,33,7.3,46.3,17.9s25.9,23,42.2,28.2c17.3,5.5,35.9,1.9,54.1,2.2
							c23.9,0.3,48.5,8.2,65.2,25.3c16.7,17.2,23.7,44.5,13.3,66.1c0,0,26.9-25.7,64.7,4.2c30.8,24.4,23.4,67.7,4.1,90.8
							c30.8,40.3-19.2,72.2-19.2,72.2c-1.6,3.7-3.7,7.1-6.3,10.2"/>
						
							<radialGradient id="SVGID_1_" cx="237.33" cy="949.05" r="106.7" gradientTransform="matrix(1 0 0 -1 0 1280)" gradientUnits="userSpaceOnUse">
							<stop  offset="0.27" style="stop-color:#86B7CC"/>
							<stop  offset="0.34" style="stop-color:#8AB9CD;stop-opacity:0.96"/>
							<stop  offset="0.46" style="stop-color:#96C0D1;stop-opacity:0.86"/>
							<stop  offset="0.6" style="stop-color:#AACBD8;stop-opacity:0.68"/>
							<stop  offset="0.75" style="stop-color:#C5DBE2;stop-opacity:0.44"/>
							<stop  offset="0.93" style="stop-color:#E8EFEE;stop-opacity:0.14"/>
							<stop  offset="1" style="stop-color:#F8F8F4;stop-opacity:0"/>
						</radialGradient>
						<polygon class="st6" points="254.4,456.8 254.4,382.3 195,348.1 195,422.6 						"/>
						
							<radialGradient id="SVGID_00000012466269331169907040000016225209331549586865_" cx="312.7" cy="905.06" r="106.7" gradientTransform="matrix(1 0 0 -1 0 1280)" gradientUnits="userSpaceOnUse">
							<stop  offset="0.27" style="stop-color:#86B7CC"/>
							<stop  offset="0.34" style="stop-color:#8AB9CD;stop-opacity:0.96"/>
							<stop  offset="0.46" style="stop-color:#96C0D1;stop-opacity:0.86"/>
							<stop  offset="0.6" style="stop-color:#AACBD8;stop-opacity:0.68"/>
							<stop  offset="0.75" style="stop-color:#C5DBE2;stop-opacity:0.44"/>
							<stop  offset="0.93" style="stop-color:#E8EFEE;stop-opacity:0.14"/>
							<stop  offset="1" style="stop-color:#F8F8F4;stop-opacity:0"/>
						</radialGradient>
						<polygon style="fill:url(#SVGID_00000012466269331169907040000016225209331549586865_);" points="329.7,500.8 329.7,426.3 
							270.3,392.1 270.3,466.6 						"/>
						
							<radialGradient id="SVGID_00000160901120947506748780000011993713540343729025_" cx="388.07" cy="861.06" r="106.7" gradientTransform="matrix(1 0 0 -1 0 1280)" gradientUnits="userSpaceOnUse">
							<stop  offset="0.27" style="stop-color:#86B7CC"/>
							<stop  offset="0.34" style="stop-color:#8AB9CD;stop-opacity:0.96"/>
							<stop  offset="0.46" style="stop-color:#96C0D1;stop-opacity:0.86"/>
							<stop  offset="0.6" style="stop-color:#AACBD8;stop-opacity:0.68"/>
							<stop  offset="0.75" style="stop-color:#C5DBE2;stop-opacity:0.44"/>
							<stop  offset="0.93" style="stop-color:#E8EFEE;stop-opacity:0.14"/>
							<stop  offset="1" style="stop-color:#F8F8F4;stop-opacity:0"/>
						</radialGradient>
						<polygon style="fill:url(#SVGID_00000160901120947506748780000011993713540343729025_);" points="405.1,544.8 405.1,470.3 
							345.7,436.1 345.7,510.6 						"/>
						
							<radialGradient id="SVGID_00000127035708320779577620000010608758441170181808_" cx="581.2775" cy="220.6247" r="111.6864" gradientUnits="userSpaceOnUse">
							<stop  offset="0.27" style="stop-color:#86B7CC"/>
							<stop  offset="0.34" style="stop-color:#8AB9CD;stop-opacity:0.96"/>
							<stop  offset="0.46" style="stop-color:#96C0D1;stop-opacity:0.86"/>
							<stop  offset="0.6" style="stop-color:#AACBD8;stop-opacity:0.68"/>
							<stop  offset="0.75" style="stop-color:#C5DBE2;stop-opacity:0.44"/>
							<stop  offset="0.93" style="stop-color:#E8EFEE;stop-opacity:0.14"/>
							<stop  offset="1" style="stop-color:#F8F8F4;stop-opacity:0"/>
						</radialGradient>
						<polygon style="fill:url(#SVGID_00000127035708320779577620000010608758441170181808_);" points="578,338.9 578,264.5 
							637.4,230.3 637.4,304.7 						"/>
						
							<radialGradient id="SVGID_00000088114034591284572640000004567348850390751379_" cx="1404.75" cy="1100.9" r="106.7" gradientTransform="matrix(-1 0 0 -1 2059.1299 1280)" gradientUnits="userSpaceOnUse">
							<stop  offset="0.27" style="stop-color:#86B7CC"/>
							<stop  offset="0.34" style="stop-color:#8AB9CD;stop-opacity:0.96"/>
							<stop  offset="0.46" style="stop-color:#96C0D1;stop-opacity:0.86"/>
							<stop  offset="0.6" style="stop-color:#AACBD8;stop-opacity:0.68"/>
							<stop  offset="0.75" style="stop-color:#C5DBE2;stop-opacity:0.44"/>
							<stop  offset="0.93" style="stop-color:#E8EFEE;stop-opacity:0.14"/>
							<stop  offset="1" style="stop-color:#F8F8F4;stop-opacity:0"/>
						</radialGradient>
						<polygon style="fill:url(#SVGID_00000088114034591284572640000004567348850390751379_);" points="637.4,304.9 637.4,230.5 
							696.7,196.3 696.7,270.8 						"/>
						
							<radialGradient id="SVGID_00000177446643137903657820000001160106229742546615_" cx="237.33" cy="840.41" r="106.7" gradientTransform="matrix(1 0 0 -1 0 1280)" gradientUnits="userSpaceOnUse">
							<stop  offset="0.27" style="stop-color:#86B7CC"/>
							<stop  offset="0.34" style="stop-color:#8AB9CD;stop-opacity:0.96"/>
							<stop  offset="0.46" style="stop-color:#96C0D1;stop-opacity:0.86"/>
							<stop  offset="0.6" style="stop-color:#AACBD8;stop-opacity:0.68"/>
							<stop  offset="0.75" style="stop-color:#C5DBE2;stop-opacity:0.44"/>
							<stop  offset="0.93" style="stop-color:#E8EFEE;stop-opacity:0.14"/>
							<stop  offset="1" style="stop-color:#F8F8F4;stop-opacity:0"/>
						</radialGradient>
						<polygon style="fill:url(#SVGID_00000177446643137903657820000001160106229742546615_);" points="254.4,565.4 254.4,491 
							195,456.8 195,531.2 						"/>
						
							<radialGradient id="SVGID_00000135680980947403366810000016821144754759213488_" cx="312.7" cy="796.42" r="106.7" gradientTransform="matrix(1 0 0 -1 0 1280)" gradientUnits="userSpaceOnUse">
							<stop  offset="0.27" style="stop-color:#86B7CC"/>
							<stop  offset="0.34" style="stop-color:#8AB9CD;stop-opacity:0.96"/>
							<stop  offset="0.46" style="stop-color:#96C0D1;stop-opacity:0.86"/>
							<stop  offset="0.6" style="stop-color:#AACBD8;stop-opacity:0.68"/>
							<stop  offset="0.75" style="stop-color:#C5DBE2;stop-opacity:0.44"/>
							<stop  offset="0.93" style="stop-color:#E8EFEE;stop-opacity:0.14"/>
							<stop  offset="1" style="stop-color:#F8F8F4;stop-opacity:0"/>
						</radialGradient>
						<polygon style="fill:url(#SVGID_00000135680980947403366810000016821144754759213488_);" points="329.7,609.4 329.7,535 
							270.3,500.8 270.3,575.2 						"/>
						
							<radialGradient id="SVGID_00000164492808062223972490000017247241308576413057_" cx="388.07" cy="752.42" r="106.7" gradientTransform="matrix(1 0 0 -1 0 1280)" gradientUnits="userSpaceOnUse">
							<stop  offset="0.27" style="stop-color:#86B7CC"/>
							<stop  offset="0.34" style="stop-color:#8AB9CD;stop-opacity:0.96"/>
							<stop  offset="0.46" style="stop-color:#96C0D1;stop-opacity:0.86"/>
							<stop  offset="0.6" style="stop-color:#AACBD8;stop-opacity:0.68"/>
							<stop  offset="0.75" style="stop-color:#C5DBE2;stop-opacity:0.44"/>
							<stop  offset="0.93" style="stop-color:#E8EFEE;stop-opacity:0.14"/>
							<stop  offset="1" style="stop-color:#F8F8F4;stop-opacity:0"/>
						</radialGradient>
						<polygon style="fill:url(#SVGID_00000164492808062223972490000017247241308576413057_);" points="405.1,653.4 405.1,579 
							345.7,544.8 345.7,619.2 						"/>
						
							<radialGradient id="SVGID_00000042729090480036280790000005907438022301945517_" cx="237.33" cy="731.77" r="106.7" gradientTransform="matrix(1 0 0 -1 0 1280)" gradientUnits="userSpaceOnUse">
							<stop  offset="0.27" style="stop-color:#86B7CC"/>
							<stop  offset="0.34" style="stop-color:#8AB9CD;stop-opacity:0.96"/>
							<stop  offset="0.46" style="stop-color:#96C0D1;stop-opacity:0.86"/>
							<stop  offset="0.6" style="stop-color:#AACBD8;stop-opacity:0.68"/>
							<stop  offset="0.75" style="stop-color:#C5DBE2;stop-opacity:0.44"/>
							<stop  offset="0.93" style="stop-color:#E8EFEE;stop-opacity:0.14"/>
							<stop  offset="1" style="stop-color:#F8F8F4;stop-opacity:0"/>
						</radialGradient>
						<polygon style="fill:url(#SVGID_00000042729090480036280790000005907438022301945517_);" points="254.4,674.1 254.4,599.6 
							195,565.4 195,639.9 						"/>
						
							<radialGradient id="SVGID_00000029010382519704864100000009577889055264414864_" cx="312.7" cy="687.77" r="106.7" gradientTransform="matrix(1 0 0 -1 0 1280)" gradientUnits="userSpaceOnUse">
							<stop  offset="0.27" style="stop-color:#86B7CC"/>
							<stop  offset="0.34" style="stop-color:#8AB9CD;stop-opacity:0.96"/>
							<stop  offset="0.46" style="stop-color:#96C0D1;stop-opacity:0.86"/>
							<stop  offset="0.6" style="stop-color:#AACBD8;stop-opacity:0.68"/>
							<stop  offset="0.75" style="stop-color:#C5DBE2;stop-opacity:0.44"/>
							<stop  offset="0.93" style="stop-color:#E8EFEE;stop-opacity:0.14"/>
							<stop  offset="1" style="stop-color:#F8F8F4;stop-opacity:0"/>
						</radialGradient>
						<polygon style="fill:url(#SVGID_00000029010382519704864100000009577889055264414864_);" points="329.7,718.1 329.7,643.6 
							270.3,609.4 270.3,683.9 						"/>
						
							<radialGradient id="SVGID_00000032634561446463961620000003614238487475751084_" cx="507.77" cy="680.16" r="106.7" gradientTransform="matrix(1 0 0 -1 0 1280)" gradientUnits="userSpaceOnUse">
							<stop  offset="0.27" style="stop-color:#86B7CC"/>
							<stop  offset="0.34" style="stop-color:#8AB9CD;stop-opacity:0.96"/>
							<stop  offset="0.46" style="stop-color:#96C0D1;stop-opacity:0.86"/>
							<stop  offset="0.6" style="stop-color:#AACBD8;stop-opacity:0.68"/>
							<stop  offset="0.75" style="stop-color:#C5DBE2;stop-opacity:0.44"/>
							<stop  offset="0.93" style="stop-color:#E8EFEE;stop-opacity:0.14"/>
							<stop  offset="1" style="stop-color:#F8F8F4;stop-opacity:0"/>
						</radialGradient>
						<polygon style="fill:url(#SVGID_00000032634561446463961620000003614238487475751084_);" points="524.8,725.7 524.8,651.2 
							465.4,617 465.4,691.5 						"/>
						
							<radialGradient id="SVGID_00000050664583666599907550000018291726403380413076_" cx="583.14" cy="636.17" r="106.7" gradientTransform="matrix(1 0 0 -1 0 1280)" gradientUnits="userSpaceOnUse">
							<stop  offset="0.27" style="stop-color:#86B7CC"/>
							<stop  offset="0.34" style="stop-color:#8AB9CD;stop-opacity:0.96"/>
							<stop  offset="0.46" style="stop-color:#96C0D1;stop-opacity:0.86"/>
							<stop  offset="0.6" style="stop-color:#AACBD8;stop-opacity:0.68"/>
							<stop  offset="0.75" style="stop-color:#C5DBE2;stop-opacity:0.44"/>
							<stop  offset="0.93" style="stop-color:#E8EFEE;stop-opacity:0.14"/>
							<stop  offset="1" style="stop-color:#F8F8F4;stop-opacity:0"/>
						</radialGradient>
						<polygon style="fill:url(#SVGID_00000050664583666599907550000018291726403380413076_);" points="600.2,769.7 600.2,695.2 
							540.8,661 540.8,735.5 						"/>
						
							<radialGradient id="SVGID_00000024713747879577046100000011600982253280434102_" cx="507.77" cy="576.03" r="106.7" gradientTransform="matrix(1 0 0 -1 0 1280)" gradientUnits="userSpaceOnUse">
							<stop  offset="0.27" style="stop-color:#86B7CC"/>
							<stop  offset="0.34" style="stop-color:#8AB9CD;stop-opacity:0.96"/>
							<stop  offset="0.46" style="stop-color:#96C0D1;stop-opacity:0.86"/>
							<stop  offset="0.6" style="stop-color:#AACBD8;stop-opacity:0.68"/>
							<stop  offset="0.75" style="stop-color:#C5DBE2;stop-opacity:0.44"/>
							<stop  offset="0.93" style="stop-color:#E8EFEE;stop-opacity:0.14"/>
							<stop  offset="1" style="stop-color:#F8F8F4;stop-opacity:0"/>
						</radialGradient>
						<polygon style="fill:url(#SVGID_00000024713747879577046100000011600982253280434102_);" points="524.8,829.8 524.8,755.4 
							465.4,721.2 465.4,795.6 						"/>
						
							<radialGradient id="SVGID_00000126317782844070714360000000928240111155219616_" cx="583.14" cy="532.04" r="106.7" gradientTransform="matrix(1 0 0 -1 0 1280)" gradientUnits="userSpaceOnUse">
							<stop  offset="0.27" style="stop-color:#86B7CC"/>
							<stop  offset="0.34" style="stop-color:#8AB9CD;stop-opacity:0.96"/>
							<stop  offset="0.46" style="stop-color:#96C0D1;stop-opacity:0.86"/>
							<stop  offset="0.6" style="stop-color:#AACBD8;stop-opacity:0.68"/>
							<stop  offset="0.75" style="stop-color:#C5DBE2;stop-opacity:0.44"/>
							<stop  offset="0.93" style="stop-color:#E8EFEE;stop-opacity:0.14"/>
							<stop  offset="1" style="stop-color:#F8F8F4;stop-opacity:0"/>
						</radialGradient>
						<polygon style="fill:url(#SVGID_00000126317782844070714360000000928240111155219616_);" points="600.2,873.8 600.2,799.3 
							540.8,765.2 540.8,839.6 						"/>
						
							<radialGradient id="SVGID_00000176039708462396824650000006162873099362394279_" cx="815.91" cy="380.21" r="106.7" gradientTransform="matrix(1 0 0 -1 0 1280)" gradientUnits="userSpaceOnUse">
							<stop  offset="0.27" style="stop-color:#86B7CC"/>
							<stop  offset="0.34" style="stop-color:#8AB9CD;stop-opacity:0.96"/>
							<stop  offset="0.46" style="stop-color:#96C0D1;stop-opacity:0.86"/>
							<stop  offset="0.6" style="stop-color:#AACBD8;stop-opacity:0.68"/>
							<stop  offset="0.75" style="stop-color:#C5DBE2;stop-opacity:0.44"/>
							<stop  offset="0.93" style="stop-color:#E8EFEE;stop-opacity:0.14"/>
							<stop  offset="1" style="stop-color:#F8F8F4;stop-opacity:0"/>
						</radialGradient>
						<polygon style="fill:url(#SVGID_00000176039708462396824650000006162873099362394279_);" points="832.9,1025.6 832.9,951.2 
							773.5,917 773.5,991.4 						"/>
						
							<radialGradient id="SVGID_00000026151731947084836030000017915779848673965235_" cx="1805.6" cy="304.52" r="106.7" gradientTransform="matrix(-1 0 0 -1 2852.1899 1280)" gradientUnits="userSpaceOnUse">
							<stop  offset="0.27" style="stop-color:#86B7CC"/>
							<stop  offset="0.34" style="stop-color:#8AB9CD;stop-opacity:0.96"/>
							<stop  offset="0.46" style="stop-color:#96C0D1;stop-opacity:0.86"/>
							<stop  offset="0.6" style="stop-color:#AACBD8;stop-opacity:0.68"/>
							<stop  offset="0.75" style="stop-color:#C5DBE2;stop-opacity:0.44"/>
							<stop  offset="0.93" style="stop-color:#E8EFEE;stop-opacity:0.14"/>
							<stop  offset="1" style="stop-color:#F8F8F4;stop-opacity:0"/>
						</radialGradient>
						<polygon style="fill:url(#SVGID_00000026151731947084836030000017915779848673965235_);" points="1029.6,1101.3 
							1029.6,1026.9 1088.9,992.7 1088.9,1064.9 1081.3,1066.1 1069.8,1063.5 1059.3,1062.9 1052.3,1065 1045.8,1070.5 
							1043.4,1077.7 1044.9,1092.5 						"/>
						
							<radialGradient id="SVGID_00000100358275555322942200000008535087779575350453_" cx="1729.3" cy="350.23" r="106.7" gradientTransform="matrix(-1 0 0 -1 2852.1899 1280)" gradientUnits="userSpaceOnUse">
							<stop  offset="0.27" style="stop-color:#86B7CC"/>
							<stop  offset="0.34" style="stop-color:#8AB9CD;stop-opacity:0.96"/>
							<stop  offset="0.46" style="stop-color:#96C0D1;stop-opacity:0.86"/>
							<stop  offset="0.6" style="stop-color:#AACBD8;stop-opacity:0.68"/>
							<stop  offset="0.75" style="stop-color:#C5DBE2;stop-opacity:0.44"/>
							<stop  offset="0.93" style="stop-color:#E8EFEE;stop-opacity:0.14"/>
							<stop  offset="1" style="stop-color:#F8F8F4;stop-opacity:0"/>
						</radialGradient>
						<polygon style="fill:url(#SVGID_00000100358275555322942200000008535087779575350453_);" points="1105.9,1055.6 1105.9,981.2 
							1165.2,947 1165.2,1021.4 						"/>
						
							<radialGradient id="SVGID_00000152252849775935460460000017851709581171739786_" cx="1652.54" cy="396.79" r="106.7" gradientTransform="matrix(-1 0 0 -1 2852.1899 1280)" gradientUnits="userSpaceOnUse">
							<stop  offset="0.27" style="stop-color:#86B7CC"/>
							<stop  offset="0.34" style="stop-color:#8AB9CD;stop-opacity:0.96"/>
							<stop  offset="0.46" style="stop-color:#96C0D1;stop-opacity:0.86"/>
							<stop  offset="0.6" style="stop-color:#AACBD8;stop-opacity:0.68"/>
							<stop  offset="0.75" style="stop-color:#C5DBE2;stop-opacity:0.44"/>
							<stop  offset="0.93" style="stop-color:#E8EFEE;stop-opacity:0.14"/>
							<stop  offset="1" style="stop-color:#F8F8F4;stop-opacity:0"/>
						</radialGradient>
						<polygon style="fill:url(#SVGID_00000152252849775935460460000017851709581171739786_);" points="1182.6,1009 1182.6,934.6 
							1242,900.4 1242,974.9 						"/>
						<g>
							<polyline class="st5" points="1039.7,1122.5 997,1147.7 163,662.1 163,281.5 439.9,441.4 439.9,823.3 							"/>
							<line class="st5" x1="1126.8" y1="1071" x2="1107.3" y2="1082.5"/>
							<line class="st5" x1="1206.2" y1="1024.2" x2="1193.4" y2="1031.7"/>
							<polyline class="st5" points="1273.4,836.1 1273.4,984.5 1265,989.5 							"/>
							<line class="st5" x1="716.7" y1="856.4" x2="716.7" y2="984.5"/>
							<line class="st5" x1="618" y1="428.6" x2="720.9" y2="370.3"/>
							<polyline class="st5" points="716.7,745.7 716.7,689.5 439.9,529.6 565.7,458.3 							"/>
							<line class="st5" x1="995.3" y1="958.4" x2="997" y2="1147.7"/>
							<polyline class="st5" points="1249.1,800 1155.7,745.3 964.4,999.4 658.6,822.8 850,568.8 1155.7,745.3 							"/>
							<polyline class="st5" points="791.2,646.9 716.7,689.5 716.7,633 996.8,471.3 996.1,529.6 							"/>
							<polyline class="st5" points="996.1,652.7 996.1,529.6 888.7,591.1 							"/>
							<polyline class="st5" points="923.5,429 720.9,312 439.9,473.1 716.7,633 							"/>
							<line class="st5" x1="996.8" y1="471.3" x2="957.9" y2="448.9"/>
							<polyline class="st5" points="936.9,465.2 996.4,500.2 864,576.9 							"/>
							<polyline class="st5" points="591.9,412.5 720.8,338 902.7,445.1 							"/>
							<polyline class="st5" points="828.3,597.6 716.7,662.3 439.9,500.2 576.1,421.6 							"/>
							<line class="st5" x1="440" y1="441.4" x2="440" y2="414.1"/>
							<polyline class="st5" points="555.9,347 440,414.2 162.7,252 280.8,184.2 							"/>
							<line class="st5" x1="913.5" y1="481.8" x2="996.1" y2="529.6"/>
							<polyline class="st5" points="720.9,312 720.9,370.3 878,461.2 							"/>
							<polyline class="st5" points="439.9,441.4 720.9,276.1 720.9,370.3 							"/>
							<polyline class="st5" points="163,252.1 163,281.5 280.8,214.1 							"/>
							<polyline class="st5" points="291.9,220.6 280.8,214.1 280.8,95.6 555.3,253.8 720.9,158.5 720.9,276.1 							"/>
							<line class="st5" x1="329.4" y1="242.2" x2="313.8" y2="233.2"/>
							<line class="st5" x1="348.1" y1="253" x2="342.6" y2="249.9"/>
							<polyline class="st5" points="555.3,253.8 556,373.1 370,265.6 							"/>
							<polyline class="st5" points="720.9,158.5 448.3,0.4 280.8,95.6 							"/>
							<g>
								<polyline class="st5" points="414.3,291.2 414.3,197.1 473.7,231.2 473.7,325.4 								"/>
								<line class="st5" x1="444" y1="214.1" x2="444" y2="308.3"/>
							</g>
							<g>
								<g>
									<line class="st5" x1="376.1" y1="452.6" x2="376.1" y2="527"/>
									<polygon class="st5" points="405.8,544.1 405.8,469.6 346.4,435.5 346.4,509.9 									"/>
								</g>
								<g>
									<g>
										<line class="st5" x1="608.4" y1="246.8" x2="608.4" y2="321.3"/>
										<polygon class="st5" points="578.7,338.4 578.7,263.9 638.1,229.7 638.1,304.2 										"/>
									</g>
									<g>
										<line class="st5" x1="667.8" y1="212.7" x2="667.8" y2="287.2"/>
										<polygon class="st5" points="638.1,304.3 638.1,229.8 697.5,195.6 697.5,270.1 										"/>
									</g>
								</g>
								<g>
									<line class="st5" x1="300.8" y1="408.6" x2="300.8" y2="483"/>
									<polygon class="st5" points="330.4,500.1 330.4,425.7 271.1,391.5 271.1,465.9 									"/>
								</g>
								<g>
									<line class="st5" x1="225.4" y1="364.6" x2="225.4" y2="439"/>
									<polygon class="st5" points="255.1,456.1 255.1,381.7 195.7,347.5 195.7,421.9 									"/>
								</g>
							</g>
							<g>
								<g>
									<line class="st5" x1="376.1" y1="561.2" x2="376.1" y2="635.7"/>
									<polygon class="st5" points="405.8,652.7 405.8,578.3 346.4,544.1 346.4,618.5 									"/>
								</g>
								<g>
									<line class="st5" x1="300.8" y1="517.2" x2="300.8" y2="591.7"/>
									<polygon class="st5" points="330.4,608.8 330.4,534.3 271.1,500.1 271.1,574.6 									"/>
								</g>
								<g>
									<line class="st5" x1="225.4" y1="473.2" x2="225.4" y2="547.7"/>
									<polygon class="st5" points="255.1,564.8 255.1,490.3 195.7,456.1 195.7,530.6 									"/>
								</g>
							</g>
							<g>
								<g>
									<line class="st5" x1="300.8" y1="625.8" x2="300.8" y2="700.3"/>
									<polygon class="st5" points="330.4,717.4 330.4,642.9 271.1,608.8 271.1,683.2 									"/>
								</g>
								<g>
									<line class="st5" x1="225.4" y1="581.8" x2="225.4" y2="656.3"/>
									<polygon class="st5" points="255.1,673.4 255.1,599 195.7,564.8 195.7,639.2 									"/>
								</g>
							</g>
							<g>
								<g>
									<line class="st5" x1="571.2" y1="781.6" x2="571.2" y2="856"/>
									<polygon class="st5" points="600.9,873.1 600.9,798.7 541.5,764.5 541.5,838.9 									"/>
								</g>
								<g>
									<line class="st5" x1="495.8" y1="737.6" x2="495.8" y2="812"/>
									<polygon class="st5" points="525.5,829.1 525.5,754.7 466.1,720.5 466.1,794.9 									"/>
								</g>
							</g>
							<g>
								<g>
									<line class="st5" x1="571.2" y1="677.5" x2="571.2" y2="751.9"/>
									<polygon class="st5" points="600.9,769 600.9,694.5 541.5,660.3 541.5,734.8 									"/>
								</g>
								<g>
									<line class="st5" x1="495.8" y1="633.5" x2="495.8" y2="707.9"/>
									<polygon class="st5" points="525.5,725 525.5,650.5 466.1,616.4 466.1,690.8 									"/>
								</g>
							</g>
							<polyline class="st5" points="909.4,1096.6 909.4,993.1 953.4,1019.1 953.4,1122.2 							"/>
							<polyline class="st5" points="631.6,935 631.6,831.5 675.5,857.5 675.5,960.6 							"/>
							<polyline class="st5" points="363.2,778.3 363.2,674.8 407.1,700.8 407.1,803.9 							"/>
							<g>
								<polygon class="st5" points="658.8,474 652.6,500.7 674.8,513.5 680,486.2 								"/>
								<polyline class="st5" points="669.5,516.7 674.6,513.2 652.8,500.5 647.2,503.8 								"/>
								<line class="st5" x1="674.6" y1="512.6" x2="674.6" y2="519.7"/>
							</g>
							<g>
								<line class="st5" x1="804" y1="933.4" x2="804" y2="1007.9"/>
								<polygon class="st5" points="833.7,1025 833.7,950.5 774.3,916.3 774.3,990.8 								"/>
							</g>
							<g>
								<polyline class="st5" points="580.2,482.2 581.5,488.5 559.7,501.2 554.3,474.3 563.5,469 								"/>
								<polyline class="st5" points="569.7,508 559.7,501.2 581.5,488.5 592.9,495.5 								"/>
								<line class="st5" x1="559.7" y1="500.6" x2="559.7" y2="521.5"/>
							</g>
							<g>
								<polygon class="st5" points="296.1,202.7 289.9,229.4 312.1,242.2 317.3,215 								"/>
								<polygon class="st5" points="290,229.2 242.1,257 265,270.4 312,241.9 								"/>
								<line class="st5" x1="265" y1="270.4" x2="265" y2="291.2"/>
								<line class="st5" x1="242.6" y1="256.9" x2="242.6" y2="277.8"/>
								<line class="st5" x1="312" y1="241.3" x2="312" y2="262.2"/>
							</g>
							<g>
								<polygon class="st5" points="352.3,234.9 346.1,261.6 368.3,274.4 373.5,247.1 								"/>
								<polygon class="st5" points="346.2,261.4 298.2,289.2 321.2,302.5 368.1,274.1 								"/>
								<line class="st5" x1="321.2" y1="302.5" x2="321.2" y2="323.4"/>
								<line class="st5" x1="298.8" y1="289.1" x2="298.8" y2="310"/>
								<line class="st5" x1="368.1" y1="273.5" x2="368.1" y2="294.4"/>
							</g>
							<g>
								<line class="st5" x1="1059.5" y1="1009.1" x2="1059.5" y2="1063.1"/>
								<polyline class="st5" points="1044.8,1092 1029.8,1100.7 1029.8,1026.2 1089.2,992 1089.2,1064.9 								"/>
							</g>
							<g>
								<line class="st5" x1="1136.3" y1="963.4" x2="1136.3" y2="1023"/>
								<polyline class="st5" points="1124.8,1044.4 1106.6,1054.9 1106.6,980.5 1166,946.3 1166,1019 								"/>
							</g>
							<g>
								<line class="st5" x1="1213" y1="917.6" x2="1213" y2="983.5"/>
								<polyline class="st5" points="1205.2,996.6 1183.3,1009.2 1183.3,934.7 1242.7,900.5 1242.7,974.4 								"/>
							</g>
							<polygon class="st5" points="566.8,509.5 632.9,547.7 677.6,521.4 613.5,484.4 							"/>
							<g>
								<path class="st5" d="M564,464.3c-1.3,4.7,0.2,9.8,4.1,12.7c8.2,6.4,23.6,8,39.7,3.3c21.4-6.3,35.7-21.3,32.1-33.7
									c-1.2-4.1-4.2-7.3-8.5-9.6l-50.8-31.5L564,464.3L564,464.3z"/>
								<line class="st5" x1="610.7" y1="479.4" x2="624.1" y2="512.8"/>
							</g>
							<line class="st5" x1="632.9" y1="547.7" x2="632.9" y2="577.3"/>
							<line class="st5" x1="677.6" y1="521.4" x2="677.6" y2="542.7"/>
							<line class="st5" x1="566.8" y1="509.5" x2="566.8" y2="538.3"/>
							<g>
								<polygon class="st5" points="691,512.1 684.8,538.8 707,551.6 712.2,524.3 								"/>
								<polygon class="st5" points="685,538.5 663.7,551.6 686.6,564.9 706.9,551.3 								"/>
								<line class="st5" x1="686.6" y1="564.9" x2="686.6" y2="585.8"/>
								<line class="st5" x1="664.2" y1="551.5" x2="664.2" y2="572.4"/>
								<line class="st5" x1="706.9" y1="550.7" x2="706.9" y2="571.5"/>
							</g>
							<g>
								<ellipse class="st5" cx="330" cy="248.8" rx="12.8" ry="6.6"/>
								<line class="st5" x1="317.3" y1="248.8" x2="317.3" y2="265.5"/>
								<line class="st5" x1="342.8" y1="248.8" x2="342.8" y2="263.7"/>
								<line class="st5" x1="330" y1="255.3" x2="330" y2="270.8"/>
							</g>
						</g>
						<path class="st5" d="M1059,1132.3c-7.1,1-14.7-2.5-18.5-8.6c-3.9-6.1-3.8-14.4,0.1-20.4c1-1.5,2.2-2.9,3-4.5
							c3.6-7.1-1.4-15.7,0.4-23.4c1.4-5.9,6.7-10.2,12.5-11.8s12-0.7,17.8,1.1c1.7,0.5,3.4,1.1,5.1,1.3c2.2,0.2,4.4-0.3,6.6-0.7
							c8-1.5,18.2-0.8,21.8,6.5c1.3,2.7,1.4,5.9,0.5,8.7c-0.9,2.9-3.5,4.4-3.8,7.5c-0.8,9.3,1.7,17.8-6.8,24.2"/>
						<path class="st5" d="M1143.1,1076.9c-6-0.8-11.8-3-16.9-6.2c-4.6-2.9-9-7.9-7.7-13.2c1.1-4.6,6.3-7.8,6.3-12.6
							c0-2.5-1.5-4.7-2-7.2c-1-4.4,1.5-9.2,5.2-11.8c3.7-2.6,8.5-3.3,13.1-2.9c4.2,0.3,8.4,1.5,12.5,0.4c2.1-0.6,3.9-1.7,5.9-2.6
							c5.9-2.6,12.7-2.4,19-0.8c4.4,1.1,8.8,2.9,11.9,6.3c3.1,3.3,4.5,8.5,2.6,12.6c-1.3,2.8-3.9,4.8-5.5,7.5c-1.7,2.8-2,6.3-3,9.4
							s-3,6.4-6.3,7.1"/>
						<path class="st5" d="M1218.1,1028.7c-3.7-0.8-7.6-1.6-10.8-3.6s-5.7-5.7-5.3-9.5c0.4-3.9,3.8-7.1,4-11.1
							c0.1-1.6-0.4-3.2-0.7-4.8c-1.2-6.7,1.7-14.8,8.2-16.4c3-0.7,6.3,0.1,9.1-1.2c2.1-1,3.5-3.1,5.3-4.6c3.7-3.2,9.1-4.1,13.9-3.2
							c4.8,0.9,9.3,3.3,13.3,6c5,3.4,9.9,7.7,11.5,13.5c1.6,5.8-1.4,13.3-7.4,14.3"/>
						<path class="st5" d="M1113.3,640.9c-4.5-6.6-2.3-16.4,3.9-21.5c6.2-5,15.3-5.6,22.7-2.6c5.2,2.1,9.9,6.2,11.1,11.6
							c3.6-1.8,8-1.9,11.9-0.8c6.2,1.8,11.5,6.4,14,12.3s2.2,13-0.8,18.7"/>
						<path class="st5" d="M1275.8,663.8c-11.3-4.5-22.4,2.7-28.5,12.1c-7.4,11.4-6.4,25.2-0.6,37c2.5,5.2,6.9,9.1,11.2,12.9"/>
						<path class="st5" d="M1169.6,693.9c2.6-2.8,6.8-3.4,10.6-3c6.5,0.8,12.6,4.6,15.8,10.3s3.3,13.1,0,18.7"/>
						<path class="st5" d="M78.2,586.2l-57.5,32.5c-26.8,15.5-26.8,54.1,0,69.6l1020.6,590.9"/>
						<line class="st5" x1="138.4" y1="550.6" x2="104.4" y2="570.3"/>
						<line class="st5" x1="973.3" y1="1134" x2="882.2" y2="1187.2"/>
						<line class="st5" x1="872.2" y1="1075.4" x2="781.2" y2="1128.6"/>
						<line class="st5" x1="771.2" y1="1016.9" x2="680.2" y2="1070"/>
						<line class="st5" x1="670.9" y1="957.8" x2="579.2" y2="1011.4"/>
						<line class="st5" x1="569.6" y1="899.3" x2="478.2" y2="952.8"/>
						<line class="st5" x1="469.2" y1="840.4" x2="377.2" y2="894.2"/>
						<line class="st5" x1="368.4" y1="781.7" x2="276.1" y2="835.6"/>
						<line class="st5" x1="267.6" y1="723" x2="175.1" y2="777.1"/>
						<line class="st5" x1="163" y1="662.1" x2="69.8" y2="716.8"/>
						<line class="st5" x1="104.4" y1="607.9" x2="163" y2="642.2"/>
					</g>
					<line class="st5" x1="857.2" y1="1010.4" x2="899.8" y2="1034.3"/>
					<line class="st5" x1="857.2" y1="1029.1" x2="899.8" y2="1053.1"/>
					<line class="st5" x1="736" y1="979.7" x2="766.2" y2="996.7"/>
				</g>
			</g>
			<text transform="matrix(1 0 0 1 1275.78 803.64)" class="st1 st2 st3">Pitch</text>
			<line class="st0" x1="1268.1" y1="785.6" x2="1156.5" y2="721.2"/>
			<line class="st0" x1="1022.3" y1="962.5" x2="1277.4" y2="815.4"/>
			<line class="st0" x1="818.8" y1="312" x2="723.6" y2="256.9"/>
			<polyline class="st0" points="716.7,616.4 716.7,571.4 997,415.2 907.9,363.6 			"/>
			<line class="st0" x1="996.4" y1="455.5" x2="996.4" y2="415.4"/>
		</g>
	</g>
</g>
</svg>
