<?xml version="1.0" encoding="UTF-8"?><svg xmlns="http://www.w3.org/2000/svg" xmlns:xlink="http://www.w3.org/1999/xlink" viewBox="0 0 870.82 705.99"><defs><style>.g{fill:url(#e);}.h,.i{stroke-linejoin:bevel;}.h,.i,.j{fill:none;stroke:#2d5261;}.i{stroke-linecap:square;}.j{stroke-miterlimit:10;}.k{fill:url(#d);}.k,.l{opacity:.6;}.l{fill:url(#f);}</style><radialGradient id="d" cx="331.83" cy="261.92" fx="331.83" fy="261.92" r="396.17" gradientTransform="matrix(1, 0, 0, 1, 0, 0)" gradientUnits="userSpaceOnUse"><stop offset=".19" stop-color="#86b7cc"/><stop offset=".28" stop-color="#8ab9cd" stop-opacity=".96"/><stop offset=".4" stop-color="#96c0d1" stop-opacity=".86"/><stop offset=".55" stop-color="#aacbd8" stop-opacity=".68"/><stop offset=".73" stop-color="#c5dbe2" stop-opacity=".44"/><stop offset=".92" stop-color="#e8efee" stop-opacity=".14"/><stop offset="1" stop-color="#f8f8f4" stop-opacity="0"/></radialGradient><radialGradient id="e" cx="335.48" cy="401.77" fx="335.48" fy="401.77" r="215.18" xlink:href="#d"/><radialGradient id="f" cx="543.52" cy="248.35" fx="543.52" fy="248.35" r="138.64" gradientTransform="translate(809.82 -358.5) rotate(79.24)" xlink:href="#d"/></defs><g id="a"/><g id="b"><g id="c"><g><polygon class="k" points="435.93 687.16 549.21 622.15 549.21 271.39 435.93 416.91 435.93 687.16"/><polygon class="g" points="142.3 473.65 142.3 557.38 372.39 690.62 371.6 499.68 332.68 549.76 142.85 441.71 142.3 473.65"/><ellipse class="l" cx="621.44" cy="309.87" rx="39.71" ry="27.9" transform="translate(200.98 862.52) rotate(-79.24)"/><g><g><g><line class="j" x1="403.32" y1="705.99" x2="403.32" y2="458.83"/><line class="j" x1="371.6" y1="682.12" x2="371.6" y2="499.68"/><line class="j" x1="435.93" y1="687.16" x2="435.93" y2="416.91"/></g><g><line class="j" x1="110.24" y1="549.76" x2="110.24" y2="421.82"/><line class="j" x1="78.52" y1="524.77" x2="78.52" y2="404.29"/><line class="j" x1="142.85" y1="529.11" x2="142.85" y2="441.71"/></g><line class="j" x1="778.53" y1="429.06" x2="778.53" y2="295.73"/><line class="j" x1="778.53" y1="482.67" x2="778.53" y2="450.81"/><line class="j" x1="549.21" y1="622.15" x2="549.21" y2="271.39"/><path class="j" d="M600.48,188.02l-273.42,347.55c-.17,.21-.46,.27-.7,.13L58.6,381.1"/><line class="j" x1="797.91" y1="291.94" x2="623.96" y2="187.02"/><g><ellipse class="j" cx="621.44" cy="309.87" rx="39.71" ry="27.9" transform="translate(200.98 862.52) rotate(-79.24)"/><line class="j" x1="621.44" y1="270" x2="621.44" y2="348.9"/><line class="j" x1="594.28" y1="326.19" x2="648.84" y2="294.68"/></g><line class="j" x1="533.34" y1="612.14" x2="435.93" y2="555.9"/><line class="j" x1="371.6" y1="519.53" x2="360.98" y2="513.4"/><polyline class="j" points="477.76 580.05 477.76 429.91 441.92 409.21"/><g><path class="i" d="M295.18,517.68l21.75-27.65,1.92,1.11c2.31,1.33,5.33,1,7.05-1.03,.89-1.06,2.02-1.82,3.34-2.14,4.37-1.08,9.14,2.97,10.65,9.06,.27,1.08,.42,2.15,.45,3.19,.08,2.17,1.35,4.11,3.23,5.2l4.99,2.88-21.76,27.65-5.37-3.1c-1.88-1.08-3.15-3.03-3.23-5.2-.04-1.04-.18-2.11-.45-3.19-1.51-6.09-6.28-10.15-10.65-9.06-1.31,.33-2.44,1.08-3.34,2.14-1.72,2.04-4.74,2.37-7.05,1.03l-1.54-.89Z"/><line class="i" x1="325.26" y1="490.91" x2="304.3" y2="516.88"/><line class="i" x1="326.4" y1="520.43" x2="319.39" y2="529.11"/><line class="i" x1="340.34" y1="503.15" x2="332.12" y2="513.33"/></g><g><path class="i" d="M317.1,489.98l21.75-27.65,1.92,1.11c2.31,1.33,5.33,1,7.05-1.03,.89-1.06,2.02-1.82,3.34-2.14,4.37-1.08,9.14,2.97,10.65,9.06,.27,1.08,.42,2.15,.45,3.19,.08,2.17,1.35,4.11,3.23,5.2l4.99,2.88-21.76,27.65"/><line class="i" x1="347.17" y1="463.21" x2="324.57" y2="491.22"/><line class="i" x1="348.31" y1="492.73" x2="341.3" y2="501.41"/><line class="i" x1="362.26" y1="475.45" x2="354.04" y2="485.63"/></g><g><path class="i" d="M338.85,462.28l21.75-27.65,1.92,1.11c2.31,1.33,5.33,1,7.05-1.03,.89-1.06,2.02-1.82,3.34-2.14,4.37-1.08,9.14,2.97,10.65,9.06,.27,1.08,.42,2.15,.45,3.19,.08,2.17,1.35,4.11,3.23,5.2l4.99,2.88-21.76,27.65"/><line class="i" x1="368.93" y1="435.51" x2="346.32" y2="463.52"/><line class="i" x1="370.07" y1="465.03" x2="363.06" y2="473.71"/><line class="i" x1="384.01" y1="447.75" x2="375.79" y2="457.93"/></g><g><path class="i" d="M360.61,434.58l21.75-27.65,1.92,1.11c2.31,1.33,5.33,1,7.05-1.03,.89-1.06,2.02-1.82,3.34-2.14,4.37-1.08,9.14,2.97,10.65,9.06,.27,1.08,.42,2.15,.45,3.19,.08,2.17,1.35,4.11,3.23,5.2l4.99,2.88-21.76,27.65"/><line class="i" x1="390.68" y1="407.81" x2="368.08" y2="435.82"/><line class="i" x1="391.82" y1="437.33" x2="384.81" y2="446.01"/><line class="i" x1="405.77" y1="420.05" x2="397.55" y2="430.23"/></g><path class="i" d="M382.36,406.88l21.75-27.65,1.92,1.11c2.31,1.33,5.33,1,7.05-1.03,.89-1.06,2.02-1.82,3.34-2.14,4.37-1.08,9.14,2.97,10.65,9.06,.27,1.08,.42,2.15,.45,3.19,.08,2.17,1.35,4.11,3.23,5.2l4.99,2.88-21.76,27.65"/><line class="i" x1="412.43" y1="380.11" x2="389.83" y2="408.12"/><line class="i" x1="413.57" y1="409.63" x2="406.56" y2="418.31"/><line class="i" x1="427.52" y1="392.35" x2="419.3" y2="402.53"/><path class="i" d="M404.11,379.18l21.75-27.65,1.92,1.11c2.31,1.33,5.33,1,7.05-1.03,.89-1.06,2.02-1.82,3.34-2.14,4.37-1.08,9.14,2.97,10.65,9.06,.27,1.08,.42,2.15,.45,3.19,.08,2.17,1.35,4.11,3.23,5.2l4.99,2.88-21.76,27.65"/><line class="i" x1="434.19" y1="352.41" x2="411.58" y2="380.42"/><line class="i" x1="435.33" y1="381.93" x2="428.32" y2="390.61"/><line class="i" x1="449.28" y1="364.65" x2="441.06" y2="374.83"/><path class="i" d="M425.87,351.48l21.75-27.65,1.92,1.11c2.31,1.33,5.33,1,7.05-1.03,.89-1.06,2.02-1.82,3.34-2.14,4.37-1.08,9.14,2.97,10.65,9.06,.27,1.08,.42,2.15,.45,3.19,.08,2.17,1.35,4.11,3.23,5.2l4.99,2.88-21.76,27.65"/><line class="i" x1="455.94" y1="324.71" x2="433.34" y2="352.72"/><line class="i" x1="457.08" y1="354.23" x2="450.07" y2="362.91"/><line class="i" x1="471.03" y1="336.95" x2="462.81" y2="347.13"/><g><path class="i" d="M447.62,323.78l21.75-27.65,1.92,1.11c2.31,1.33,5.33,1,7.05-1.03,.89-1.06,2.02-1.82,3.34-2.14,4.37-1.08,9.14,2.97,10.65,9.06,.27,1.08,.42,2.15,.45,3.19,.08,2.17,1.35,4.11,3.23,5.2l4.99,2.88-21.76,27.65"/><line class="i" x1="477.7" y1="297.01" x2="455.09" y2="325.02"/><line class="i" x1="478.83" y1="326.53" x2="471.83" y2="335.21"/><line class="i" x1="492.78" y1="309.25" x2="484.56" y2="319.43"/></g><g><path class="i" d="M469.37,296.08l21.75-27.65,1.92,1.11c2.31,1.33,5.33,1,7.05-1.03,.89-1.06,2.02-1.82,3.34-2.14,4.37-1.08,9.14,2.97,10.65,9.06,.27,1.08,.42,2.15,.45,3.19,.08,2.17,1.35,4.11,3.23,5.2l4.99,2.88-21.76,27.65"/><line class="i" x1="499.45" y1="269.31" x2="476.85" y2="297.32"/><line class="i" x1="500.59" y1="298.83" x2="493.58" y2="307.51"/><line class="i" x1="514.54" y1="281.55" x2="506.32" y2="291.73"/></g><g><path class="i" d="M491.13,268.38l21.75-27.65,1.92,1.11c2.31,1.33,5.33,1,7.05-1.03,.89-1.06,2.02-1.82,3.34-2.14,4.37-1.08,9.14,2.97,10.65,9.06,.27,1.08,.42,2.15,.45,3.19,.08,2.17,1.35,4.11,3.23,5.2l4.99,2.88-21.76,27.65"/><line class="i" x1="521.2" y1="241.61" x2="498.6" y2="269.62"/><line class="i" x1="522.34" y1="271.13" x2="515.33" y2="279.81"/><line class="i" x1="536.29" y1="253.85" x2="528.07" y2="264.03"/></g><g><path class="i" d="M512.88,240.68l21.75-27.65,1.92,1.11c2.31,1.33,5.33,1,7.05-1.03,.89-1.06,2.02-1.82,3.34-2.14,4.37-1.08,9.14,2.97,10.65,9.06,.27,1.08,.42,2.15,.45,3.19,.08,2.17,1.35,4.11,3.23,5.2l4.99,2.88-21.76,27.65"/><line class="i" x1="542.96" y1="213.91" x2="520.35" y2="241.92"/><line class="i" x1="544.1" y1="243.43" x2="537.09" y2="252.11"/><line class="i" x1="558.05" y1="226.15" x2="549.83" y2="236.33"/></g><g><path class="i" d="M534.64,212.98l21.75-27.65,1.92,1.11c2.31,1.33,5.33,1,7.05-1.03,.89-1.06,2.02-1.82,3.34-2.14,4.37-1.08,9.14,2.97,10.65,9.06,.27,1.08,.42,2.15,.45,3.19,.08,2.17,1.35,4.11,3.23,5.2l4.99,2.88-21.76,27.65"/><line class="i" x1="564.71" y1="186.21" x2="542.11" y2="214.22"/><line class="i" x1="565.85" y1="215.73" x2="558.84" y2="224.41"/><line class="i" x1="579.8" y1="198.45" x2="571.58" y2="208.63"/></g><g><line class="i" x1="600.32" y1="187.9" x2="588.01" y2="203.54"/><line class="i" x1="578.91" y1="167.87" x2="563.86" y2="186.52"/><line class="i" x1="587.6" y1="188.03" x2="580.59" y2="196.71"/><line class="i" x1="595.93" y1="177.71" x2="593.33" y2="180.93"/></g><g><path class="i" d="M263.45,499.3l21.75-27.65,1.92,1.11c2.31,1.33,5.33,1,7.05-1.03,.89-1.06,2.02-1.82,3.34-2.14,4.37-1.08,9.14,2.97,10.65,9.06,.27,1.08,.42,2.15,.45,3.19,.08,2.17,1.35,4.11,3.23,5.2l4.99,2.88-21.76,27.65-5.37-3.1c-1.88-1.08-3.15-3.03-3.23-5.2-.04-1.04-.18-2.11-.45-3.19-1.51-6.09-6.28-10.15-10.65-9.06-1.31,.33-2.44,1.08-3.34,2.14-1.72,2.04-4.74,2.37-7.05,1.03l-1.54-.89Z"/><line class="i" x1="293.53" y1="472.53" x2="272.57" y2="498.5"/><line class="i" x1="294.67" y1="502.05" x2="287.66" y2="510.73"/><line class="i" x1="308.62" y1="484.76" x2="300.4" y2="494.95"/></g><g><path class="i" d="M285.37,471.6l21.75-27.65,1.92,1.11c2.31,1.33,5.33,1,7.05-1.03,.89-1.06,2.02-1.82,3.34-2.14,4.37-1.08,9.14,2.97,10.65,9.06,.27,1.08,.42,2.15,.45,3.19,.08,2.17,1.35,4.11,3.23,5.2l4.99,2.88-21.76,27.65"/><line class="i" x1="315.45" y1="444.83" x2="292.84" y2="472.84"/><line class="i" x1="316.58" y1="474.35" x2="309.57" y2="483.03"/><line class="i" x1="330.53" y1="457.06" x2="322.31" y2="467.25"/></g><g><path class="i" d="M307.12,443.9l21.75-27.65,1.92,1.11c2.31,1.33,5.33,1,7.05-1.03,.89-1.06,2.02-1.82,3.34-2.14,4.37-1.08,9.14,2.97,10.65,9.06,.27,1.08,.42,2.15,.45,3.19,.08,2.17,1.35,4.11,3.23,5.2l4.99,2.88-21.76,27.65"/><line class="i" x1="337.2" y1="417.13" x2="314.6" y2="445.14"/><line class="i" x1="338.34" y1="446.65" x2="331.33" y2="455.33"/><line class="i" x1="352.29" y1="429.36" x2="344.07" y2="439.55"/></g><g><path class="i" d="M328.88,416.2l21.75-27.65,1.92,1.11c2.31,1.33,5.33,1,7.05-1.03,.89-1.06,2.02-1.82,3.34-2.14,4.37-1.08,9.14,2.97,10.65,9.06,.27,1.08,.42,2.15,.45,3.19,.08,2.17,1.35,4.11,3.23,5.2l4.99,2.88-21.76,27.65"/><line class="i" x1="358.95" y1="389.43" x2="336.35" y2="417.44"/><line class="i" x1="360.09" y1="418.95" x2="353.08" y2="427.63"/><line class="i" x1="374.04" y1="401.66" x2="365.82" y2="411.85"/></g><g><path class="i" d="M350.63,388.5l21.75-27.65,1.92,1.11c2.31,1.33,5.33,1,7.05-1.03,.89-1.06,2.02-1.82,3.34-2.14,4.37-1.08,9.14,2.97,10.65,9.06,.27,1.08,.42,2.15,.45,3.19,.08,2.17,1.35,4.11,3.23,5.2l4.99,2.88-21.76,27.65"/><line class="i" x1="380.71" y1="361.73" x2="358.1" y2="389.74"/><line class="i" x1="381.85" y1="391.25" x2="374.84" y2="399.93"/><line class="i" x1="395.79" y1="373.96" x2="387.57" y2="384.15"/></g><g><path class="i" d="M372.39,360.8l21.75-27.65,1.92,1.11c2.31,1.33,5.33,1,7.05-1.03,.89-1.06,2.02-1.82,3.34-2.14,4.37-1.08,9.14,2.97,10.65,9.06,.27,1.08,.42,2.15,.45,3.19,.08,2.17,1.35,4.11,3.23,5.2l4.99,2.88-21.76,27.65"/><line class="i" x1="402.46" y1="334.03" x2="379.86" y2="362.04"/><line class="i" x1="403.6" y1="363.55" x2="396.59" y2="372.23"/><line class="i" x1="417.55" y1="346.26" x2="409.33" y2="356.45"/></g><g><path class="i" d="M394.14,333.1l21.75-27.65,1.92,1.11c2.31,1.33,5.33,1,7.05-1.03,.89-1.06,2.02-1.82,3.34-2.14,4.37-1.08,9.14,2.97,10.65,9.06,.27,1.08,.42,2.15,.45,3.19,.08,2.17,1.35,4.11,3.23,5.2l4.99,2.88-21.76,27.65"/><line class="i" x1="424.21" y1="306.33" x2="401.61" y2="334.34"/><line class="i" x1="425.35" y1="335.85" x2="418.34" y2="344.53"/><line class="i" x1="439.3" y1="318.56" x2="431.08" y2="328.75"/></g><g><path class="i" d="M415.89,305.4l21.75-27.65,1.92,1.11c2.31,1.33,5.33,1,7.05-1.03,.89-1.06,2.02-1.82,3.34-2.14,4.37-1.08,9.14,2.97,10.65,9.06,.27,1.08,.42,2.15,.45,3.19,.08,2.17,1.35,4.11,3.23,5.2l4.99,2.88-21.76,27.65"/><line class="i" x1="445.97" y1="278.63" x2="423.36" y2="306.64"/><line class="i" x1="447.11" y1="308.15" x2="440.1" y2="316.83"/><line class="i" x1="461.06" y1="290.86" x2="452.84" y2="301.05"/></g><g><path class="i" d="M437.65,277.7l21.75-27.65,1.92,1.11c2.31,1.33,5.33,1,7.05-1.03,.89-1.06,2.02-1.82,3.34-2.14,4.37-1.08,9.14,2.97,10.65,9.06,.27,1.08,.42,2.15,.45,3.19,.08,2.17,1.35,4.11,3.23,5.2l4.99,2.88-21.76,27.65"/><line class="i" x1="467.72" y1="250.93" x2="445.12" y2="278.94"/><line class="i" x1="468.86" y1="280.45" x2="461.85" y2="289.13"/><line class="i" x1="482.81" y1="263.16" x2="474.59" y2="273.35"/></g><g><path class="i" d="M459.4,250l21.75-27.65,1.92,1.11c2.31,1.33,5.33,1,7.05-1.03,.89-1.06,2.02-1.82,3.34-2.14,4.37-1.08,9.14,2.97,10.65,9.06,.27,1.08,.42,2.15,.45,3.19,.08,2.17,1.35,4.11,3.23,5.2l4.99,2.88-21.76,27.65"/><line class="i" x1="489.48" y1="223.23" x2="466.87" y2="251.24"/><line class="i" x1="490.61" y1="252.75" x2="483.61" y2="261.43"/><line class="i" x1="504.56" y1="235.46" x2="496.34" y2="245.65"/></g><g><path class="i" d="M481.15,222.3l21.75-27.65,1.92,1.11c2.31,1.33,5.33,1,7.05-1.03,.89-1.06,2.02-1.82,3.34-2.14,4.37-1.08,9.14,2.97,10.65,9.06,.27,1.08,.42,2.15,.45,3.19,.08,2.17,1.35,4.11,3.23,5.2l4.99,2.88-21.76,27.65"/><line class="i" x1="511.23" y1="195.53" x2="488.63" y2="223.54"/><line class="i" x1="512.37" y1="225.05" x2="505.36" y2="233.73"/><line class="i" x1="526.32" y1="207.76" x2="518.1" y2="217.95"/></g><g><path class="i" d="M502.91,194.6l21.75-27.65,1.92,1.11c2.31,1.33,5.33,1,7.05-1.03,.89-1.06,2.02-1.82,3.34-2.14,4.37-1.08,9.14,2.97,10.65,9.06,.27,1.08,.42,2.15,.45,3.19,.08,2.17,1.35,4.11,3.23,5.2l4.99,2.88-21.76,27.65"/><line class="i" x1="532.98" y1="167.83" x2="510.38" y2="195.84"/><line class="i" x1="534.12" y1="197.35" x2="527.11" y2="206.03"/><line class="i" x1="548.07" y1="180.06" x2="539.85" y2="190.25"/></g><g><line class="i" x1="572.45" y1="164.61" x2="556.28" y2="185.16"/><line class="i" x1="524.66" y1="166.9" x2="540.51" y2="146.75"/><line class="i" x1="546.97" y1="149.75" x2="532.13" y2="168.14"/><line class="i" x1="555.88" y1="169.65" x2="548.87" y2="178.33"/><line class="i" x1="564.1" y1="159.45" x2="561.61" y2="162.55"/></g><g><path class="i" d="M231.84,481.04l21.75-27.65,1.92,1.11c2.31,1.33,5.33,1,7.05-1.03,.89-1.06,2.02-1.82,3.34-2.14,4.37-1.08,9.14,2.97,10.65,9.06,.27,1.08,.42,2.15,.45,3.19,.08,2.17,1.35,4.11,3.23,5.2l4.99,2.88-21.76,27.65-5.37-3.1c-1.88-1.08-3.15-3.03-3.23-5.2-.04-1.04-.18-2.11-.45-3.19-1.51-6.09-6.28-10.15-10.65-9.06-1.31,.33-2.44,1.08-3.34,2.14-1.72,2.04-4.74,2.37-7.05,1.03l-1.54-.89Z"/><line class="i" x1="261.91" y1="454.28" x2="240.95" y2="480.24"/><line class="i" x1="263.05" y1="483.79" x2="256.04" y2="492.47"/><line class="i" x1="277" y1="466.51" x2="268.78" y2="476.69"/></g><g><path class="i" d="M253.75,453.34l21.75-27.65,1.92,1.11c2.31,1.33,5.33,1,7.05-1.03,.89-1.06,2.02-1.82,3.34-2.14,4.37-1.08,9.14,2.97,10.65,9.06,.27,1.08,.42,2.15,.45,3.19,.08,2.17,1.35,4.11,3.23,5.2l4.99,2.88-21.76,27.65"/><line class="i" x1="283.83" y1="426.58" x2="261.22" y2="454.58"/><line class="i" x1="284.97" y1="456.09" x2="277.96" y2="464.77"/><line class="i" x1="298.91" y1="438.81" x2="290.69" y2="448.99"/></g><g><path class="i" d="M275.51,425.64l21.75-27.65,1.92,1.11c2.31,1.33,5.33,1,7.05-1.03,.89-1.06,2.02-1.82,3.34-2.14,4.37-1.08,9.14,2.97,10.65,9.06,.27,1.08,.42,2.15,.45,3.19,.08,2.17,1.35,4.11,3.23,5.2l4.99,2.88-21.76,27.65"/><line class="i" x1="305.58" y1="398.88" x2="282.98" y2="426.88"/><line class="i" x1="306.72" y1="428.39" x2="299.71" y2="437.07"/><line class="i" x1="320.67" y1="411.11" x2="312.45" y2="421.29"/></g><g><path class="i" d="M297.26,397.94l21.75-27.65,1.92,1.11c2.31,1.33,5.33,1,7.05-1.03,.89-1.06,2.02-1.82,3.34-2.14,4.37-1.08,9.14,2.97,10.65,9.06,.27,1.08,.42,2.15,.45,3.19,.08,2.17,1.35,4.11,3.23,5.2l4.99,2.88-21.76,27.65"/><line class="i" x1="327.33" y1="371.18" x2="304.73" y2="399.18"/><line class="i" x1="328.47" y1="400.69" x2="321.46" y2="409.37"/><line class="i" x1="342.42" y1="383.41" x2="334.2" y2="393.59"/></g><g><path class="i" d="M319.01,370.24l21.75-27.65,1.92,1.11c2.31,1.33,5.33,1,7.05-1.03,.89-1.06,2.02-1.82,3.34-2.14,4.37-1.08,9.14,2.97,10.65,9.06,.27,1.08,.42,2.15,.45,3.19,.08,2.17,1.35,4.11,3.23,5.2l4.99,2.88-21.76,27.65"/><line class="i" x1="349.09" y1="343.48" x2="326.48" y2="371.48"/><line class="i" x1="350.23" y1="372.99" x2="343.22" y2="381.67"/><line class="i" x1="364.18" y1="355.71" x2="355.96" y2="365.89"/></g><g><path class="i" d="M340.77,342.54l21.75-27.65,1.92,1.11c2.31,1.33,5.33,1,7.05-1.03,.89-1.06,2.02-1.82,3.34-2.14,4.37-1.08,9.14,2.97,10.65,9.06,.27,1.08,.42,2.15,.45,3.19,.08,2.17,1.35,4.11,3.23,5.2l4.99,2.88-21.76,27.65"/><line class="i" x1="370.84" y1="315.78" x2="348.24" y2="343.78"/><line class="i" x1="371.98" y1="345.29" x2="364.97" y2="353.97"/><line class="i" x1="385.93" y1="328.01" x2="377.71" y2="338.19"/></g><g><path class="i" d="M362.52,314.84l21.75-27.65,1.92,1.11c2.31,1.33,5.33,1,7.05-1.03,.89-1.06,2.02-1.82,3.34-2.14,4.37-1.08,9.14,2.97,10.65,9.06,.27,1.08,.42,2.15,.45,3.19,.08,2.17,1.35,4.11,3.23,5.2l4.99,2.88-21.76,27.65"/><line class="i" x1="392.6" y1="288.08" x2="369.99" y2="316.08"/><line class="i" x1="393.73" y1="317.59" x2="386.73" y2="326.27"/><line class="i" x1="407.68" y1="300.31" x2="399.46" y2="310.49"/></g><g><path class="i" d="M384.27,287.14l21.75-27.65,1.92,1.11c2.31,1.33,5.33,1,7.05-1.03,.89-1.06,2.02-1.82,3.34-2.14,4.37-1.08,9.14,2.97,10.65,9.06,.27,1.08,.42,2.15,.45,3.19,.08,2.17,1.35,4.11,3.23,5.2l4.99,2.88-21.76,27.65"/><line class="i" x1="414.35" y1="260.38" x2="391.75" y2="288.38"/><line class="i" x1="415.49" y1="289.89" x2="408.48" y2="298.57"/><line class="i" x1="429.44" y1="272.61" x2="421.22" y2="282.79"/></g><g><path class="i" d="M406.03,259.44l21.75-27.65,1.92,1.11c2.31,1.33,5.33,1,7.05-1.03,.89-1.06,2.02-1.82,3.34-2.14,4.37-1.08,9.14,2.97,10.65,9.06,.27,1.08,.42,2.15,.45,3.19,.08,2.17,1.35,4.11,3.23,5.2l4.99,2.88-21.76,27.65"/><line class="i" x1="436.1" y1="232.68" x2="413.5" y2="260.68"/><line class="i" x1="437.24" y1="262.19" x2="430.23" y2="270.87"/><line class="i" x1="451.19" y1="244.91" x2="442.97" y2="255.09"/></g><g><path class="i" d="M427.78,231.74l21.75-27.65,1.92,1.11c2.31,1.33,5.33,1,7.05-1.03,.89-1.06,2.02-1.82,3.34-2.14,4.37-1.08,9.14,2.97,10.65,9.06,.27,1.08,.42,2.15,.45,3.19,.08,2.17,1.35,4.11,3.23,5.2l4.99,2.88-21.76,27.65"/><line class="i" x1="457.86" y1="204.98" x2="435.25" y2="232.98"/><line class="i" x1="459" y1="234.49" x2="451.99" y2="243.17"/><line class="i" x1="472.94" y1="217.21" x2="464.72" y2="227.39"/></g><g><path class="i" d="M449.54,204.04l21.75-27.65,1.92,1.11c2.31,1.33,5.33,1,7.05-1.03,.89-1.06,2.02-1.82,3.34-2.14,4.37-1.08,9.14,2.97,10.65,9.06,.27,1.08,.42,2.15,.45,3.19,.08,2.17,1.35,4.11,3.23,5.2l4.99,2.88-21.76,27.65"/><line class="i" x1="479.61" y1="177.28" x2="457.01" y2="205.28"/><line class="i" x1="480.75" y1="206.79" x2="473.74" y2="215.47"/><line class="i" x1="494.7" y1="189.51" x2="486.48" y2="199.69"/></g><g><path class="i" d="M471.29,176.34l21.75-27.65,1.92,1.11c2.31,1.33,5.33,1,7.05-1.03,.89-1.06,2.02-1.82,3.34-2.14,4.37-1.08,9.14,2.97,10.65,9.06,.27,1.08,.42,2.15,.45,3.19,.08,2.17,1.35,4.11,3.23,5.2l4.99,2.88-21.76,27.65"/><line class="i" x1="501.36" y1="149.58" x2="478.76" y2="177.58"/><line class="i" x1="502.5" y1="179.09" x2="495.49" y2="187.77"/><line class="i" x1="516.45" y1="161.81" x2="508.23" y2="171.99"/></g><g><line class="i" x1="540.83" y1="146.35" x2="524.66" y2="166.9"/><line class="i" x1="493.04" y1="148.64" x2="508.9" y2="128.49"/><line class="i" x1="515.35" y1="131.5" x2="500.51" y2="149.88"/><line class="i" x1="524.26" y1="151.39" x2="517.25" y2="160.07"/><line class="i" x1="532.49" y1="141.2" x2="529.99" y2="144.29"/></g><g><path class="i" d="M200.22,462.79l21.75-27.65,1.92,1.11c2.31,1.33,5.33,1,7.05-1.03,.89-1.06,2.02-1.82,3.34-2.14,4.37-1.08,9.14,2.97,10.65,9.06,.27,1.08,.42,2.15,.45,3.19,.08,2.17,1.35,4.11,3.23,5.2l4.99,2.88-21.76,27.65-5.37-3.1c-1.88-1.08-3.15-3.03-3.23-5.2-.04-1.04-.18-2.11-.45-3.19-1.51-6.09-6.28-10.15-10.65-9.06-1.31,.33-2.44,1.08-3.34,2.14-1.72,2.04-4.74,2.37-7.05,1.03l-1.54-.89Z"/><line class="i" x1="230.29" y1="436.02" x2="209.33" y2="461.99"/><line class="i" x1="231.43" y1="465.53" x2="224.42" y2="474.22"/><line class="i" x1="245.38" y1="448.25" x2="237.16" y2="458.44"/></g><g><path class="i" d="M222.13,435.09l21.75-27.65,1.92,1.11c2.31,1.33,5.33,1,7.05-1.03,.89-1.06,2.02-1.82,3.34-2.14,4.37-1.08,9.14,2.97,10.65,9.06,.27,1.08,.42,2.15,.45,3.19,.08,2.17,1.35,4.11,3.23,5.2l4.99,2.88-21.76,27.65"/><line class="i" x1="252.21" y1="408.32" x2="229.6" y2="436.32"/><line class="i" x1="253.35" y1="437.83" x2="246.34" y2="446.52"/><line class="i" x1="267.3" y1="420.55" x2="259.08" y2="430.74"/></g><g><path class="i" d="M243.89,407.39l21.75-27.65,1.92,1.11c2.31,1.33,5.33,1,7.05-1.03,.89-1.06,2.02-1.82,3.34-2.14,4.37-1.08,9.14,2.97,10.65,9.06,.27,1.08,.42,2.15,.45,3.19,.08,2.17,1.35,4.11,3.23,5.2l4.99,2.88-21.76,27.65"/><line class="i" x1="273.96" y1="380.62" x2="251.36" y2="408.62"/><line class="i" x1="275.1" y1="410.13" x2="268.09" y2="418.82"/><line class="i" x1="289.05" y1="392.85" x2="280.83" y2="403.04"/></g><g><path class="i" d="M265.64,379.69l21.75-27.65,1.92,1.11c2.31,1.33,5.33,1,7.05-1.03,.89-1.06,2.02-1.82,3.34-2.14,4.37-1.08,9.14,2.97,10.65,9.06,.27,1.08,.42,2.15,.45,3.19,.08,2.17,1.35,4.11,3.23,5.2l4.99,2.88-21.76,27.65"/><line class="i" x1="295.72" y1="352.92" x2="273.11" y2="380.92"/><line class="i" x1="296.85" y1="382.43" x2="289.84" y2="391.12"/><line class="i" x1="310.8" y1="365.15" x2="302.58" y2="375.34"/></g><g><path class="i" d="M287.39,351.99l21.75-27.65,1.92,1.11c2.31,1.33,5.33,1,7.05-1.03,.89-1.06,2.02-1.82,3.34-2.14,4.37-1.08,9.14,2.97,10.65,9.06,.27,1.08,.42,2.15,.45,3.19,.08,2.17,1.35,4.11,3.23,5.2l4.99,2.88-21.76,27.65"/><line class="i" x1="317.47" y1="325.22" x2="294.87" y2="353.22"/><line class="i" x1="318.61" y1="354.73" x2="311.6" y2="363.42"/><line class="i" x1="332.56" y1="337.45" x2="324.34" y2="347.64"/></g><g><path class="i" d="M309.15,324.29l21.75-27.65,1.92,1.11c2.31,1.33,5.33,1,7.05-1.03,.89-1.06,2.02-1.82,3.34-2.14,4.37-1.08,9.14,2.97,10.65,9.06,.27,1.08,.42,2.15,.45,3.19,.08,2.17,1.35,4.11,3.23,5.2l4.99,2.88-21.76,27.65"/><line class="i" x1="339.22" y1="297.52" x2="316.62" y2="325.52"/><line class="i" x1="340.36" y1="327.03" x2="333.35" y2="335.72"/><line class="i" x1="354.31" y1="309.75" x2="346.09" y2="319.94"/></g><g><path class="i" d="M330.9,296.59l21.75-27.65,1.92,1.11c2.31,1.33,5.33,1,7.05-1.03,.89-1.06,2.02-1.82,3.34-2.14,4.37-1.08,9.14,2.97,10.65,9.06,.27,1.08,.42,2.15,.45,3.19,.08,2.17,1.35,4.11,3.23,5.2l4.99,2.88-21.76,27.65"/><line class="i" x1="360.98" y1="269.82" x2="338.37" y2="297.82"/><line class="i" x1="362.12" y1="299.33" x2="355.11" y2="308.02"/><line class="i" x1="376.06" y1="282.05" x2="367.84" y2="292.24"/></g><g><path class="i" d="M352.66,268.89l21.75-27.65,1.92,1.11c2.31,1.33,5.33,1,7.05-1.03,.89-1.06,2.02-1.82,3.34-2.14,4.37-1.08,9.14,2.97,10.65,9.06,.27,1.08,.42,2.15,.45,3.19,.08,2.17,1.35,4.11,3.23,5.2l4.99,2.88-21.76,27.65"/><line class="i" x1="382.73" y1="242.12" x2="360.13" y2="270.12"/><line class="i" x1="383.87" y1="271.63" x2="376.86" y2="280.32"/><line class="i" x1="397.82" y1="254.35" x2="389.6" y2="264.54"/></g><g><path class="i" d="M374.41,241.19l21.75-27.65,1.92,1.11c2.31,1.33,5.33,1,7.05-1.03,.89-1.06,2.02-1.82,3.34-2.14,4.37-1.08,9.14,2.97,10.65,9.06,.27,1.08,.42,2.15,.45,3.19,.08,2.17,1.35,4.11,3.23,5.2l4.99,2.88-21.76,27.65"/><line class="i" x1="404.48" y1="214.42" x2="381.88" y2="242.42"/><line class="i" x1="405.62" y1="243.93" x2="398.61" y2="252.62"/><line class="i" x1="419.57" y1="226.65" x2="411.35" y2="236.84"/></g><g><path class="i" d="M396.16,213.49l21.75-27.65,1.92,1.11c2.31,1.33,5.33,1,7.05-1.03,.89-1.06,2.02-1.82,3.34-2.14,4.37-1.08,9.14,2.97,10.65,9.06,.27,1.08,.42,2.15,.45,3.19,.08,2.17,1.35,4.11,3.23,5.2l4.99,2.88-21.76,27.65"/><line class="i" x1="426.24" y1="186.72" x2="403.63" y2="214.72"/><line class="i" x1="427.38" y1="216.23" x2="420.37" y2="224.92"/><line class="i" x1="441.33" y1="198.95" x2="433.11" y2="209.14"/></g><g><path class="i" d="M417.92,185.79l21.75-27.65,1.92,1.11c2.31,1.33,5.33,1,7.05-1.03,.89-1.06,2.02-1.82,3.34-2.14,4.37-1.08,9.14,2.97,10.65,9.06,.27,1.08,.42,2.15,.45,3.19,.08,2.17,1.35,4.11,3.23,5.2l4.99,2.88-21.76,27.65"/><line class="i" x1="447.99" y1="159.02" x2="425.39" y2="187.02"/><line class="i" x1="449.13" y1="188.53" x2="442.12" y2="197.22"/><line class="i" x1="463.08" y1="171.25" x2="454.86" y2="181.44"/></g><g><path class="i" d="M439.67,158.09l21.75-27.65,1.92,1.11c2.31,1.33,5.33,1,7.05-1.03,.89-1.06,2.02-1.82,3.34-2.14,4.37-1.08,9.14,2.97,10.65,9.06,.27,1.08,.42,2.15,.45,3.19,.08,2.17,1.35,4.11,3.23,5.2l4.99,2.88-21.76,27.65"/><line class="i" x1="469.75" y1="131.32" x2="447.14" y2="159.32"/><line class="i" x1="470.89" y1="160.83" x2="463.88" y2="169.52"/><line class="i" x1="484.83" y1="143.55" x2="476.61" y2="153.74"/></g><g><line class="i" x1="509.22" y1="128.1" x2="493.04" y2="148.64"/><line class="i" x1="461.43" y1="130.39" x2="477.28" y2="110.24"/><line class="i" x1="483.73" y1="113.24" x2="468.9" y2="131.62"/><line class="i" x1="492.64" y1="133.13" x2="485.63" y2="141.82"/><line class="i" x1="500.87" y1="122.94" x2="498.37" y2="126.04"/></g><g><path class="i" d="M168.6,444.53l21.75-27.65,1.92,1.11c2.31,1.33,5.33,1,7.05-1.03,.89-1.06,2.02-1.82,3.34-2.14,4.37-1.08,9.14,2.97,10.65,9.06,.27,1.08,.42,2.15,.45,3.19,.08,2.17,1.35,4.11,3.23,5.2l4.99,2.88-21.76,27.65-5.37-3.1c-1.88-1.08-3.15-3.03-3.23-5.2-.04-1.04-.18-2.11-.45-3.19-1.51-6.09-6.28-10.15-10.65-9.06-1.31,.33-2.44,1.08-3.34,2.14-1.72,2.04-4.74,2.37-7.05,1.03l-1.54-.89Z"/><line class="i" x1="198.67" y1="417.76" x2="177.71" y2="443.73"/><line class="i" x1="199.81" y1="447.28" x2="192.8" y2="455.96"/><line class="i" x1="213.76" y1="430" x2="205.54" y2="440.18"/></g><g><path class="i" d="M190.51,416.83l21.75-27.65,1.92,1.11c2.31,1.33,5.33,1,7.05-1.03,.89-1.06,2.02-1.82,3.34-2.14,4.37-1.08,9.14,2.97,10.65,9.06,.27,1.08,.42,2.15,.45,3.19,.08,2.17,1.35,4.11,3.23,5.2l4.99,2.88-21.76,27.65"/><line class="i" x1="220.59" y1="390.06" x2="197.99" y2="418.07"/><line class="i" x1="221.73" y1="419.58" x2="214.72" y2="428.26"/><line class="i" x1="235.68" y1="402.3" x2="227.46" y2="412.48"/></g><g><path class="i" d="M212.27,389.13l21.75-27.65,1.92,1.11c2.31,1.33,5.33,1,7.05-1.03,.89-1.06,2.02-1.82,3.34-2.14,4.37-1.08,9.14,2.97,10.65,9.06,.27,1.08,.42,2.15,.45,3.19,.08,2.17,1.35,4.11,3.23,5.2l4.99,2.88-21.76,27.65"/><line class="i" x1="242.34" y1="362.36" x2="219.74" y2="390.37"/><line class="i" x1="243.48" y1="391.88" x2="236.47" y2="400.56"/><line class="i" x1="257.43" y1="374.6" x2="249.21" y2="384.78"/></g><g><path class="i" d="M234.02,361.43l21.75-27.65,1.92,1.11c2.31,1.33,5.33,1,7.05-1.03,.89-1.06,2.02-1.82,3.34-2.14,4.37-1.08,9.14,2.97,10.65,9.06,.27,1.08,.42,2.15,.45,3.19,.08,2.17,1.35,4.11,3.23,5.2l4.99,2.88-21.76,27.65"/><line class="i" x1="264.1" y1="334.66" x2="241.49" y2="362.67"/><line class="i" x1="265.24" y1="364.18" x2="258.23" y2="372.86"/><line class="i" x1="279.18" y1="346.9" x2="270.96" y2="357.08"/></g><g><path class="i" d="M255.78,333.73l21.75-27.65,1.92,1.11c2.31,1.33,5.33,1,7.05-1.03,.89-1.06,2.02-1.82,3.34-2.14,4.37-1.08,9.14,2.97,10.65,9.06,.27,1.08,.42,2.15,.45,3.19,.08,2.17,1.35,4.11,3.23,5.2l4.99,2.88-21.76,27.65"/><line class="i" x1="285.85" y1="306.96" x2="263.25" y2="334.97"/><line class="i" x1="286.99" y1="336.48" x2="279.98" y2="345.16"/><line class="i" x1="300.94" y1="319.2" x2="292.72" y2="329.38"/></g><g><path class="i" d="M277.53,306.03l21.75-27.65,1.92,1.11c2.31,1.33,5.33,1,7.05-1.03,.89-1.06,2.02-1.82,3.34-2.14,4.37-1.08,9.14,2.97,10.65,9.06,.27,1.08,.42,2.15,.45,3.19,.08,2.17,1.35,4.11,3.23,5.2l4.99,2.88-21.76,27.65"/><line class="i" x1="307.6" y1="279.26" x2="285" y2="307.27"/><line class="i" x1="308.74" y1="308.78" x2="301.73" y2="317.46"/><line class="i" x1="322.69" y1="291.5" x2="314.47" y2="301.68"/></g><g><path class="i" d="M299.28,278.33l21.75-27.65,1.92,1.11c2.31,1.33,5.33,1,7.05-1.03,.89-1.06,2.02-1.82,3.34-2.14,4.37-1.08,9.14,2.97,10.65,9.06,.27,1.08,.42,2.15,.45,3.19,.08,2.17,1.35,4.11,3.23,5.2l4.99,2.88-21.76,27.65"/><line class="i" x1="329.36" y1="251.56" x2="306.75" y2="279.57"/><line class="i" x1="330.5" y1="281.08" x2="323.49" y2="289.76"/><line class="i" x1="344.45" y1="263.8" x2="336.23" y2="273.98"/></g><g><path class="i" d="M321.04,250.63l21.75-27.65,1.92,1.11c2.31,1.33,5.33,1,7.05-1.03,.89-1.06,2.02-1.82,3.34-2.14,4.37-1.08,9.14,2.97,10.65,9.06,.27,1.08,.42,2.15,.45,3.19,.08,2.17,1.35,4.11,3.23,5.2l4.99,2.88-21.76,27.65"/><line class="i" x1="351.11" y1="223.86" x2="328.51" y2="251.87"/><line class="i" x1="352.25" y1="253.38" x2="345.24" y2="262.06"/><line class="i" x1="366.2" y1="236.1" x2="357.98" y2="246.28"/></g><g><path class="i" d="M342.79,222.93l21.75-27.65,1.92,1.11c2.31,1.33,5.33,1,7.05-1.03,.89-1.06,2.02-1.82,3.34-2.14,4.37-1.08,9.14,2.97,10.65,9.06,.27,1.08,.42,2.15,.45,3.19,.08,2.17,1.35,4.11,3.23,5.2l4.99,2.88-21.76,27.65"/><line class="i" x1="372.87" y1="196.16" x2="350.26" y2="224.17"/><line class="i" x1="374" y1="225.68" x2="367" y2="234.36"/><line class="i" x1="387.95" y1="208.4" x2="379.73" y2="218.58"/></g><g><path class="i" d="M364.54,195.23l21.75-27.65,1.92,1.11c2.31,1.33,5.33,1,7.05-1.03,.89-1.06,2.02-1.82,3.34-2.14,4.37-1.08,9.14,2.97,10.65,9.06,.27,1.08,.42,2.15,.45,3.19,.08,2.17,1.35,4.11,3.23,5.2l4.99,2.88-21.76,27.65"/><line class="i" x1="394.62" y1="168.46" x2="372.02" y2="196.47"/><line class="i" x1="395.76" y1="197.98" x2="388.75" y2="206.66"/><line class="i" x1="409.71" y1="180.7" x2="401.49" y2="190.88"/></g><g><path class="i" d="M386.3,167.53l21.75-27.65,1.92,1.11c2.31,1.33,5.33,1,7.05-1.03,.89-1.06,2.02-1.82,3.34-2.14,4.37-1.08,9.14,2.97,10.65,9.06,.27,1.08,.42,2.15,.45,3.19,.08,2.17,1.35,4.11,3.23,5.2l4.99,2.88-21.76,27.65"/><line class="i" x1="416.37" y1="140.76" x2="393.77" y2="168.77"/><line class="i" x1="417.51" y1="170.28" x2="410.5" y2="178.96"/><line class="i" x1="431.46" y1="153" x2="423.24" y2="163.18"/></g><g><path class="i" d="M408.05,139.83l21.75-27.65,1.92,1.11c2.31,1.33,5.33,1,7.05-1.03,.89-1.06,2.02-1.82,3.34-2.14,4.37-1.08,9.14,2.97,10.65,9.06,.27,1.08,.42,2.15,.45,3.19,.08,2.17,1.35,4.11,3.23,5.2l4.99,2.88-21.76,27.65"/><line class="i" x1="438.13" y1="113.06" x2="415.52" y2="141.07"/><line class="i" x1="439.27" y1="142.58" x2="432.26" y2="151.26"/><line class="i" x1="453.21" y1="125.3" x2="445" y2="135.48"/></g><g><line class="i" x1="477.6" y1="109.84" x2="461.43" y2="130.39"/><line class="i" x1="429.81" y1="112.13" x2="445.66" y2="91.98"/><line class="i" x1="452.11" y1="94.99" x2="437.28" y2="113.37"/><line class="i" x1="461.02" y1="114.88" x2="454.01" y2="123.56"/><line class="i" x1="469.25" y1="104.68" x2="466.75" y2="107.78"/></g><g><path class="i" d="M136.98,426.28l21.75-27.65,1.92,1.11c2.31,1.33,5.33,1,7.05-1.03,.89-1.06,2.02-1.82,3.34-2.14,4.37-1.08,9.14,2.97,10.65,9.06,.27,1.08,.42,2.15,.45,3.19,.08,2.17,1.35,4.11,3.23,5.2l4.99,2.88-21.76,27.65-5.37-3.1c-1.88-1.08-3.15-3.03-3.23-5.2-.04-1.04-.18-2.11-.45-3.19-1.51-6.09-6.28-10.15-10.65-9.06-1.31,.33-2.44,1.08-3.34,2.14-1.72,2.04-4.74,2.37-7.05,1.03l-1.54-.89Z"/><line class="i" x1="167.05" y1="399.51" x2="146.1" y2="425.47"/><line class="i" x1="168.19" y1="429.02" x2="161.18" y2="437.71"/><line class="i" x1="182.14" y1="411.74" x2="173.92" y2="421.92"/></g><g><path class="i" d="M158.9,398.58l21.75-27.65,1.92,1.11c2.31,1.33,5.33,1,7.05-1.03,.89-1.06,2.02-1.82,3.34-2.14,4.37-1.08,9.14,2.97,10.65,9.06,.27,1.08,.42,2.15,.45,3.19,.08,2.17,1.35,4.11,3.23,5.2l4.99,2.88-21.76,27.65"/><line class="i" x1="188.97" y1="371.81" x2="166.37" y2="399.81"/><line class="i" x1="190.11" y1="401.32" x2="183.1" y2="410.01"/><line class="i" x1="204.06" y1="384.04" x2="195.84" y2="394.22"/></g><g><path class="i" d="M180.65,370.88l21.75-27.65,1.92,1.11c2.31,1.33,5.33,1,7.05-1.03,.89-1.06,2.02-1.82,3.34-2.14,4.37-1.08,9.14,2.97,10.65,9.06,.27,1.08,.42,2.15,.45,3.19,.08,2.17,1.35,4.11,3.23,5.2l4.99,2.88-21.76,27.65"/><line class="i" x1="210.72" y1="344.11" x2="188.12" y2="372.11"/><line class="i" x1="211.86" y1="373.62" x2="204.85" y2="382.31"/><line class="i" x1="225.81" y1="356.34" x2="217.59" y2="366.52"/></g><g><path class="i" d="M202.4,343.18l21.75-27.65,1.92,1.11c2.31,1.33,5.33,1,7.05-1.03,.89-1.06,2.02-1.82,3.34-2.14,4.37-1.08,9.14,2.97,10.65,9.06,.27,1.08,.42,2.15,.45,3.19,.08,2.17,1.35,4.11,3.23,5.2l4.99,2.88-21.76,27.65"/><line class="i" x1="232.48" y1="316.41" x2="209.87" y2="344.41"/><line class="i" x1="233.62" y1="345.92" x2="226.61" y2="354.61"/><line class="i" x1="247.57" y1="328.64" x2="239.35" y2="338.82"/></g><g><path class="i" d="M224.16,315.48l21.75-27.65,1.92,1.11c2.31,1.33,5.33,1,7.05-1.03,.89-1.06,2.02-1.82,3.34-2.14,4.37-1.08,9.14,2.97,10.65,9.06,.27,1.08,.42,2.15,.45,3.19,.08,2.17,1.35,4.11,3.23,5.2l4.99,2.88-21.76,27.65"/><line class="i" x1="254.23" y1="288.71" x2="231.63" y2="316.71"/><line class="i" x1="255.37" y1="318.22" x2="248.36" y2="326.91"/><line class="i" x1="269.32" y1="300.94" x2="261.1" y2="311.12"/></g><g><path class="i" d="M245.91,287.78l21.75-27.65,1.92,1.11c2.31,1.33,5.33,1,7.05-1.03,.89-1.06,2.02-1.82,3.34-2.14,4.37-1.08,9.14,2.97,10.65,9.06,.27,1.08,.42,2.15,.45,3.19,.08,2.17,1.35,4.11,3.23,5.2l4.99,2.88-21.76,27.65"/><line class="i" x1="275.99" y1="261.01" x2="253.38" y2="289.01"/><line class="i" x1="277.12" y1="290.52" x2="270.11" y2="299.21"/><line class="i" x1="291.07" y1="273.24" x2="282.85" y2="283.42"/></g><g><path class="i" d="M267.66,260.08l21.75-27.65,1.92,1.11c2.31,1.33,5.33,1,7.05-1.03,.89-1.06,2.02-1.82,3.34-2.14,4.37-1.08,9.14,2.97,10.65,9.06,.27,1.08,.42,2.15,.45,3.19,.08,2.17,1.35,4.11,3.23,5.2l4.99,2.88-21.76,27.65"/><line class="i" x1="297.74" y1="233.31" x2="275.14" y2="261.31"/><line class="i" x1="298.88" y1="262.82" x2="291.87" y2="271.51"/><line class="i" x1="312.83" y1="245.54" x2="304.61" y2="255.72"/></g><g><path class="i" d="M289.42,232.38l21.75-27.65,1.92,1.11c2.31,1.33,5.33,1,7.05-1.03,.89-1.06,2.02-1.82,3.34-2.14,4.37-1.08,9.14,2.97,10.65,9.06,.27,1.08,.42,2.15,.45,3.19,.08,2.17,1.35,4.11,3.23,5.2l4.99,2.88-21.76,27.65"/><line class="i" x1="319.49" y1="205.61" x2="296.89" y2="233.61"/><line class="i" x1="320.63" y1="235.12" x2="313.62" y2="243.81"/><line class="i" x1="334.58" y1="217.84" x2="326.36" y2="228.02"/></g><g><path class="i" d="M311.17,204.68l21.75-27.65,1.92,1.11c2.31,1.33,5.33,1,7.05-1.03,.89-1.06,2.02-1.82,3.34-2.14,4.37-1.08,9.14,2.97,10.65,9.06,.27,1.08,.42,2.15,.45,3.19,.08,2.17,1.35,4.11,3.23,5.2l4.99,2.88-21.76,27.65"/><line class="i" x1="341.25" y1="177.91" x2="318.64" y2="205.91"/><line class="i" x1="342.39" y1="207.42" x2="335.38" y2="216.11"/><line class="i" x1="356.33" y1="190.14" x2="348.11" y2="200.32"/></g><g><path class="i" d="M332.93,176.98l21.75-27.65,1.92,1.11c2.31,1.33,5.33,1,7.05-1.03,.89-1.06,2.02-1.82,3.34-2.14,4.37-1.08,9.14,2.97,10.65,9.06,.27,1.08,.42,2.15,.45,3.19,.08,2.17,1.35,4.11,3.23,5.2l4.99,2.88-21.76,27.65"/><line class="i" x1="363" y1="150.21" x2="340.4" y2="178.21"/><line class="i" x1="364.14" y1="179.72" x2="357.13" y2="188.41"/><line class="i" x1="378.09" y1="162.44" x2="369.87" y2="172.62"/></g><g><path class="i" d="M354.68,149.28l21.75-27.65,1.92,1.11c2.31,1.33,5.33,1,7.05-1.03,.89-1.06,2.02-1.82,3.34-2.14,4.37-1.08,9.14,2.97,10.65,9.06,.27,1.08,.42,2.15,.45,3.19,.08,2.17,1.35,4.11,3.23,5.2l4.99,2.88-21.76,27.65"/><line class="i" x1="384.75" y1="122.51" x2="362.15" y2="150.51"/><line class="i" x1="385.89" y1="152.02" x2="378.88" y2="160.71"/><line class="i" x1="399.84" y1="134.74" x2="391.62" y2="144.92"/></g><g><path class="i" d="M376.43,121.58l21.75-27.65,1.92,1.11c2.31,1.33,5.33,1,7.05-1.03,.89-1.06,2.02-1.82,3.34-2.14,4.37-1.08,9.14,2.97,10.65,9.06,.27,1.08,.42,2.15,.45,3.19,.08,2.17,1.35,4.11,3.23,5.2l4.99,2.88-21.76,27.65"/><line class="i" x1="406.51" y1="94.81" x2="383.9" y2="122.81"/><line class="i" x1="407.65" y1="124.32" x2="400.64" y2="133.01"/><line class="i" x1="421.6" y1="107.04" x2="413.38" y2="117.22"/></g><g><line class="i" x1="445.98" y1="91.59" x2="429.81" y2="112.13"/><line class="i" x1="398.19" y1="93.88" x2="414.04" y2="73.73"/><line class="i" x1="420.5" y1="76.73" x2="405.66" y2="95.11"/><line class="i" x1="429.4" y1="96.62" x2="422.39" y2="105.31"/><line class="i" x1="437.63" y1="86.43" x2="435.13" y2="89.52"/></g><g><path class="i" d="M105.36,408.02l21.75-27.65,1.92,1.11c2.31,1.33,5.33,1,7.05-1.03,.89-1.06,2.02-1.82,3.34-2.14,4.37-1.08,9.14,2.97,10.65,9.06,.27,1.08,.42,2.15,.45,3.19,.08,2.17,1.35,4.11,3.23,5.2l4.99,2.88-21.76,27.65-5.37-3.1c-1.88-1.08-3.15-3.03-3.23-5.2-.04-1.04-.18-2.11-.45-3.19-1.51-6.09-6.28-10.15-10.65-9.06-1.31,.33-2.44,1.08-3.34,2.14-1.72,2.04-4.74,2.37-7.05,1.03l-1.54-.89Z"/><line class="i" x1="135.44" y1="381.25" x2="114.48" y2="407.22"/><line class="i" x1="136.57" y1="410.77" x2="129.56" y2="419.45"/><line class="i" x1="150.52" y1="393.48" x2="142.3" y2="403.67"/></g><g><path class="i" d="M127.28,380.32l21.75-27.65,1.92,1.11c2.31,1.33,5.33,1,7.05-1.03,.89-1.06,2.02-1.82,3.34-2.14,4.37-1.08,9.14,2.97,10.65,9.06,.27,1.08,.42,2.15,.45,3.19,.08,2.17,1.35,4.11,3.23,5.2l4.99,2.88-21.76,27.65"/><line class="i" x1="157.35" y1="353.55" x2="134.75" y2="381.56"/><line class="i" x1="158.49" y1="383.07" x2="151.48" y2="391.75"/><line class="i" x1="172.44" y1="365.78" x2="164.22" y2="375.97"/></g><g><path class="i" d="M149.03,352.62l21.75-27.65,1.92,1.11c2.31,1.33,5.33,1,7.05-1.03,.89-1.06,2.02-1.82,3.34-2.14,4.37-1.08,9.14,2.97,10.65,9.06,.27,1.08,.42,2.15,.45,3.19,.08,2.17,1.35,4.11,3.23,5.2l4.99,2.88-21.76,27.65"/><line class="i" x1="179.11" y1="325.85" x2="156.5" y2="353.86"/><line class="i" x1="180.24" y1="355.37" x2="173.23" y2="364.05"/><line class="i" x1="194.19" y1="338.08" x2="185.97" y2="348.27"/></g><g><path class="i" d="M170.78,324.92l21.75-27.65,1.92,1.11c2.31,1.33,5.33,1,7.05-1.03,.89-1.06,2.02-1.82,3.34-2.14,4.37-1.08,9.14,2.97,10.65,9.06,.27,1.08,.42,2.15,.45,3.19,.08,2.17,1.35,4.11,3.23,5.2l4.99,2.88-21.76,27.65"/><line class="i" x1="200.86" y1="298.15" x2="178.26" y2="326.16"/><line class="i" x1="202" y1="327.67" x2="194.99" y2="336.35"/><line class="i" x1="215.95" y1="310.38" x2="207.73" y2="320.57"/></g><g><path class="i" d="M192.54,297.22l21.75-27.65,1.92,1.11c2.31,1.33,5.33,1,7.05-1.03,.89-1.06,2.02-1.82,3.34-2.14,4.37-1.08,9.14,2.97,10.65,9.06,.27,1.08,.42,2.15,.45,3.19,.08,2.17,1.35,4.11,3.23,5.2l4.99,2.88-21.76,27.65"/><line class="i" x1="222.61" y1="270.45" x2="200.01" y2="298.46"/><line class="i" x1="223.75" y1="299.97" x2="216.74" y2="308.65"/><line class="i" x1="237.7" y1="282.68" x2="229.48" y2="292.87"/></g><g><path class="i" d="M214.29,269.52l21.75-27.65,1.92,1.11c2.31,1.33,5.33,1,7.05-1.03,.89-1.06,2.02-1.82,3.34-2.14,4.37-1.08,9.14,2.97,10.65,9.06,.27,1.08,.42,2.15,.45,3.19,.08,2.17,1.35,4.11,3.23,5.2l4.99,2.88-21.76,27.65"/><line class="i" x1="244.37" y1="242.75" x2="221.76" y2="270.76"/><line class="i" x1="245.51" y1="272.27" x2="238.5" y2="280.95"/><line class="i" x1="259.45" y1="254.98" x2="251.23" y2="265.17"/></g><g><path class="i" d="M236.05,241.82l21.75-27.65,1.92,1.11c2.31,1.33,5.33,1,7.05-1.03,.89-1.06,2.02-1.82,3.34-2.14,4.37-1.08,9.14,2.97,10.65,9.06,.27,1.08,.42,2.15,.45,3.19,.08,2.17,1.35,4.11,3.23,5.2l4.99,2.88-21.76,27.65"/><line class="i" x1="266.12" y1="215.05" x2="243.52" y2="243.06"/><line class="i" x1="267.26" y1="244.57" x2="260.25" y2="253.25"/><line class="i" x1="281.21" y1="227.28" x2="272.99" y2="237.47"/></g><g><path class="i" d="M257.8,214.12l21.75-27.65,1.92,1.11c2.31,1.33,5.33,1,7.05-1.03,.89-1.06,2.02-1.82,3.34-2.14,4.37-1.08,9.14,2.97,10.65,9.06,.27,1.08,.42,2.15,.45,3.19,.08,2.17,1.35,4.11,3.23,5.2l4.99,2.88-21.76,27.65"/><line class="i" x1="287.87" y1="187.35" x2="265.27" y2="215.36"/><line class="i" x1="289.01" y1="216.87" x2="282" y2="225.55"/><line class="i" x1="302.96" y1="199.58" x2="294.74" y2="209.77"/></g><g><path class="i" d="M279.55,186.42l21.75-27.65,1.92,1.11c2.31,1.33,5.33,1,7.05-1.03,.89-1.06,2.02-1.82,3.34-2.14,4.37-1.08,9.14,2.97,10.65,9.06,.27,1.08,.42,2.15,.45,3.19,.08,2.17,1.35,4.11,3.23,5.2l4.99,2.88-21.76,27.65"/><line class="i" x1="309.63" y1="159.65" x2="287.02" y2="187.66"/><line class="i" x1="310.77" y1="189.17" x2="303.76" y2="197.85"/><line class="i" x1="324.72" y1="171.88" x2="316.5" y2="182.07"/></g><g><path class="i" d="M301.31,158.72l21.75-27.65,1.92,1.11c2.31,1.33,5.33,1,7.05-1.03,.89-1.06,2.02-1.82,3.34-2.14,4.37-1.08,9.14,2.97,10.65,9.06,.27,1.08,.42,2.15,.45,3.19,.08,2.17,1.35,4.11,3.23,5.2l4.99,2.88-21.76,27.65"/><line class="i" x1="331.38" y1="131.95" x2="308.78" y2="159.96"/><line class="i" x1="332.52" y1="161.47" x2="325.51" y2="170.15"/><line class="i" x1="346.47" y1="144.18" x2="338.25" y2="154.37"/></g><g><path class="i" d="M323.06,131.02l21.75-27.65,1.92,1.11c2.31,1.33,5.33,1,7.05-1.03,.89-1.06,2.02-1.82,3.34-2.14,4.37-1.08,9.14,2.97,10.65,9.06,.27,1.08,.42,2.15,.45,3.19,.08,2.17,1.35,4.11,3.23,5.2l4.99,2.88-21.76,27.65"/><line class="i" x1="353.14" y1="104.25" x2="330.53" y2="132.26"/><line class="i" x1="354.27" y1="133.77" x2="347.27" y2="142.45"/><line class="i" x1="368.22" y1="116.48" x2="360" y2="126.67"/></g><g><path class="i" d="M344.81,103.32l21.75-27.65,1.92,1.11c2.31,1.33,5.33,1,7.05-1.03,.89-1.06,2.02-1.82,3.34-2.14,4.37-1.08,9.14,2.97,10.65,9.06,.27,1.08,.42,2.15,.45,3.19,.08,2.17,1.35,4.11,3.23,5.2l4.99,2.88-21.76,27.65"/><line class="i" x1="374.89" y1="76.55" x2="352.29" y2="104.56"/><line class="i" x1="376.03" y1="106.07" x2="369.02" y2="114.75"/><line class="i" x1="389.98" y1="88.78" x2="381.76" y2="98.97"/></g><g><line class="i" x1="414.36" y1="73.33" x2="398.19" y2="93.88"/><line class="i" x1="366.57" y1="75.62" x2="382.42" y2="55.47"/><line class="i" x1="388.88" y1="58.47" x2="374.04" y2="76.86"/><line class="i" x1="397.78" y1="78.37" x2="390.77" y2="87.05"/><line class="i" x1="406.01" y1="68.17" x2="403.51" y2="71.27"/></g><g><path class="i" d="M73.74,389.76l21.75-27.65,1.92,1.11c2.31,1.33,5.33,1,7.05-1.03,.89-1.06,2.02-1.82,3.34-2.14,4.37-1.08,9.14,2.97,10.65,9.06,.27,1.08,.42,2.15,.45,3.19,.08,2.17,1.35,4.11,3.23,5.2l4.99,2.88-21.76,27.65-5.37-3.1c-1.88-1.08-3.15-3.03-3.23-5.2-.04-1.04-.18-2.11-.45-3.19-1.51-6.09-6.28-10.15-10.65-9.06-1.31,.33-2.44,1.08-3.34,2.14-1.72,2.04-4.74,2.37-7.05,1.03l-1.54-.89Z"/><line class="i" x1="103.82" y1="363" x2="82.86" y2="388.96"/><line class="i" x1="104.96" y1="392.51" x2="97.95" y2="401.19"/><line class="i" x1="118.9" y1="375.23" x2="110.68" y2="385.41"/></g><g><path class="i" d="M95.66,362.06l21.75-27.65,1.92,1.11c2.31,1.33,5.33,1,7.05-1.03,.89-1.06,2.02-1.82,3.34-2.14,4.37-1.08,9.14,2.97,10.65,9.06,.27,1.08,.42,2.15,.45,3.19,.08,2.17,1.35,4.11,3.23,5.2l4.99,2.88-21.76,27.65"/><line class="i" x1="125.73" y1="335.3" x2="103.13" y2="363.3"/><line class="i" x1="126.87" y1="364.81" x2="119.86" y2="373.49"/><line class="i" x1="140.82" y1="347.53" x2="132.6" y2="357.71"/></g><g><path class="i" d="M117.41,334.36l21.75-27.65,1.92,1.11c2.31,1.33,5.33,1,7.05-1.03,.89-1.06,2.02-1.82,3.34-2.14,4.37-1.08,9.14,2.97,10.65,9.06,.27,1.08,.42,2.15,.45,3.19,.08,2.17,1.35,4.11,3.23,5.2l4.99,2.88-21.76,27.65"/><line class="i" x1="147.49" y1="307.6" x2="124.88" y2="335.6"/><line class="i" x1="148.63" y1="337.11" x2="141.62" y2="345.79"/><line class="i" x1="162.57" y1="319.83" x2="154.35" y2="330.01"/></g><g><path class="i" d="M139.17,306.66l21.75-27.65,1.92,1.11c2.31,1.33,5.33,1,7.05-1.03,.89-1.06,2.02-1.82,3.34-2.14,4.37-1.08,9.14,2.97,10.65,9.06,.27,1.08,.42,2.15,.45,3.19,.08,2.17,1.35,4.11,3.23,5.2l4.99,2.88-21.76,27.65"/><line class="i" x1="169.24" y1="279.9" x2="146.64" y2="307.9"/><line class="i" x1="170.38" y1="309.41" x2="163.37" y2="318.09"/><line class="i" x1="184.33" y1="292.13" x2="176.11" y2="302.31"/></g><g><path class="i" d="M160.92,278.96l21.75-27.65,1.92,1.11c2.31,1.33,5.33,1,7.05-1.03,.89-1.06,2.02-1.82,3.34-2.14,4.37-1.08,9.14,2.97,10.65,9.06,.27,1.08,.42,2.15,.45,3.19,.08,2.17,1.35,4.11,3.23,5.2l4.99,2.88-21.76,27.65"/><line class="i" x1="190.99" y1="252.2" x2="168.39" y2="280.2"/><line class="i" x1="192.13" y1="281.71" x2="185.12" y2="290.39"/><line class="i" x1="206.08" y1="264.43" x2="197.86" y2="274.61"/></g><g><path class="i" d="M182.67,251.26l21.75-27.65,1.92,1.11c2.31,1.33,5.33,1,7.05-1.03,.89-1.06,2.02-1.82,3.34-2.14,4.37-1.08,9.14,2.97,10.65,9.06,.27,1.08,.42,2.15,.45,3.19,.08,2.17,1.35,4.11,3.23,5.2l4.99,2.88-21.76,27.65"/><line class="i" x1="212.75" y1="224.5" x2="190.14" y2="252.5"/><line class="i" x1="213.89" y1="254.01" x2="206.88" y2="262.69"/><line class="i" x1="227.84" y1="236.73" x2="219.62" y2="246.91"/></g><g><path class="i" d="M204.43,223.56l21.75-27.65,1.92,1.11c2.31,1.33,5.33,1,7.05-1.03,.89-1.06,2.02-1.82,3.34-2.14,4.37-1.08,9.14,2.97,10.65,9.06,.27,1.08,.42,2.15,.45,3.19,.08,2.17,1.35,4.11,3.23,5.2l4.99,2.88-21.76,27.65"/><line class="i" x1="234.5" y1="196.8" x2="211.9" y2="224.8"/><line class="i" x1="235.64" y1="226.31" x2="228.63" y2="234.99"/><line class="i" x1="249.59" y1="209.03" x2="241.37" y2="219.21"/></g><g><path class="i" d="M226.18,195.86l21.75-27.65,1.92,1.11c2.31,1.33,5.33,1,7.05-1.03,.89-1.06,2.02-1.82,3.34-2.14,4.37-1.08,9.14,2.97,10.65,9.06,.27,1.08,.42,2.15,.45,3.19,.08,2.17,1.35,4.11,3.23,5.2l4.99,2.88-21.76,27.65"/><line class="i" x1="256.26" y1="169.1" x2="233.65" y2="197.1"/><line class="i" x1="257.39" y1="198.61" x2="250.39" y2="207.29"/><line class="i" x1="271.34" y1="181.33" x2="263.12" y2="191.51"/></g><g><path class="i" d="M247.93,168.16l21.75-27.65,1.92,1.11c2.31,1.33,5.33,1,7.05-1.03,.89-1.06,2.02-1.82,3.34-2.14,4.37-1.08,9.14,2.97,10.65,9.06,.27,1.08,.42,2.15,.45,3.19,.08,2.17,1.35,4.11,3.23,5.2l4.99,2.88-21.76,27.65"/><line class="i" x1="278.01" y1="141.4" x2="255.41" y2="169.4"/><line class="i" x1="279.15" y1="170.91" x2="272.14" y2="179.59"/><line class="i" x1="293.1" y1="153.63" x2="284.88" y2="163.81"/></g><g><path class="i" d="M269.69,140.46l21.75-27.65,1.92,1.11c2.31,1.33,5.33,1,7.05-1.03,.89-1.06,2.02-1.82,3.34-2.14,4.37-1.08,9.14,2.97,10.65,9.06,.27,1.08,.42,2.15,.45,3.19,.08,2.17,1.35,4.11,3.23,5.2l4.99,2.88-21.76,27.65"/><line class="i" x1="299.76" y1="113.7" x2="277.16" y2="141.7"/><line class="i" x1="300.9" y1="143.21" x2="293.89" y2="151.89"/><line class="i" x1="314.85" y1="125.93" x2="306.63" y2="136.11"/></g><g><path class="i" d="M291.44,112.76l21.75-27.65,1.92,1.11c2.31,1.33,5.33,1,7.05-1.03,.89-1.06,2.02-1.82,3.34-2.14,4.37-1.08,9.14,2.97,10.65,9.06,.27,1.08,.42,2.15,.45,3.19,.08,2.17,1.35,4.11,3.23,5.2l4.99,2.88-21.76,27.65"/><line class="i" x1="321.52" y1="86" x2="298.91" y2="114"/><line class="i" x1="322.66" y1="115.51" x2="315.65" y2="124.19"/><line class="i" x1="336.6" y1="98.23" x2="328.38" y2="108.41"/></g><g><path class="i" d="M313.2,85.06l21.75-27.65,1.92,1.11c2.31,1.33,5.33,1,7.05-1.03,.89-1.06,2.02-1.82,3.34-2.14,4.37-1.08,9.14,2.97,10.65,9.06,.27,1.08,.42,2.15,.45,3.19,.08,2.17,1.35,4.11,3.23,5.2l4.99,2.88-21.76,27.65"/><line class="i" x1="343.27" y1="58.3" x2="320.67" y2="86.3"/><line class="i" x1="344.41" y1="87.81" x2="337.4" y2="96.49"/><line class="i" x1="358.36" y1="70.53" x2="350.14" y2="80.71"/></g><g><line class="i" x1="382.74" y1="55.07" x2="366.57" y2="75.62"/><line class="i" x1="334.95" y1="57.36" x2="350.8" y2="37.21"/><line class="i" x1="357.26" y1="40.22" x2="342.42" y2="58.6"/><line class="i" x1="366.16" y1="60.11" x2="359.15" y2="68.79"/><line class="i" x1="374.39" y1="49.91" x2="371.89" y2="53.01"/></g><g><path class="i" d="M42.12,371.51l21.75-27.65,1.92,1.11c2.31,1.33,5.33,1,7.05-1.03,.89-1.06,2.02-1.82,3.34-2.14,4.37-1.08,9.14,2.97,10.65,9.06,.27,1.08,.42,2.15,.45,3.19,.08,2.17,1.35,4.11,3.23,5.2l4.99,2.88-21.76,27.65-5.37-3.1c-1.88-1.08-3.15-3.03-3.23-5.2-.04-1.04-.18-2.11-.45-3.19-1.51-6.09-6.28-10.15-10.65-9.06-1.31,.33-2.44,1.08-3.34,2.14-1.72,2.04-4.74,2.37-7.05,1.03l-1.54-.89Z"/><line class="i" x1="72.2" y1="344.74" x2="51.24" y2="370.71"/><line class="i" x1="73.34" y1="374.25" x2="66.33" y2="382.94"/><line class="i" x1="87.29" y1="356.97" x2="79.07" y2="367.16"/></g><g><path class="i" d="M64.04,343.81l21.75-27.65,1.92,1.11c2.31,1.33,5.33,1,7.05-1.03,.89-1.06,2.02-1.82,3.34-2.14,4.37-1.08,9.14,2.97,10.65,9.06,.27,1.08,.42,2.15,.45,3.19,.08,2.17,1.35,4.11,3.23,5.2l4.99,2.88-21.76,27.65"/><line class="i" x1="94.11" y1="317.04" x2="71.51" y2="345.04"/><line class="i" x1="95.25" y1="346.55" x2="88.24" y2="355.24"/><line class="i" x1="109.2" y1="329.27" x2="100.98" y2="339.46"/></g><g><path class="i" d="M85.79,316.11l21.75-27.65,1.92,1.11c2.31,1.33,5.33,1,7.05-1.03,.89-1.06,2.02-1.82,3.34-2.14,4.37-1.08,9.14,2.97,10.65,9.06,.27,1.08,.42,2.15,.45,3.19,.08,2.17,1.35,4.11,3.23,5.2l4.99,2.88-21.76,27.65"/><line class="i" x1="115.87" y1="289.34" x2="93.26" y2="317.34"/><line class="i" x1="117.01" y1="318.85" x2="110" y2="327.54"/><line class="i" x1="130.96" y1="301.57" x2="122.74" y2="311.76"/></g><g><path class="i" d="M107.55,288.41l21.75-27.65,1.92,1.11c2.31,1.33,5.33,1,7.05-1.03,.89-1.06,2.02-1.82,3.34-2.14,4.37-1.08,9.14,2.97,10.65,9.06,.27,1.08,.42,2.15,.45,3.19,.08,2.17,1.35,4.11,3.23,5.2l4.99,2.88-21.76,27.65"/><line class="i" x1="137.62" y1="261.64" x2="115.02" y2="289.64"/><line class="i" x1="138.76" y1="291.15" x2="131.75" y2="299.84"/><line class="i" x1="152.71" y1="273.87" x2="144.49" y2="284.06"/></g><g><path class="i" d="M129.3,260.71l21.75-27.65,1.92,1.11c2.31,1.33,5.33,1,7.05-1.03,.89-1.06,2.02-1.82,3.34-2.14,4.37-1.08,9.14,2.97,10.65,9.06,.27,1.08,.42,2.15,.45,3.19,.08,2.17,1.35,4.11,3.23,5.2l4.99,2.88-21.76,27.65"/><line class="i" x1="159.38" y1="233.94" x2="136.77" y2="261.94"/><line class="i" x1="160.51" y1="263.45" x2="153.5" y2="272.14"/><line class="i" x1="174.46" y1="246.17" x2="166.24" y2="256.36"/></g><g><path class="i" d="M151.05,233.01l21.75-27.65,1.92,1.11c2.31,1.33,5.33,1,7.05-1.03,.89-1.06,2.02-1.82,3.34-2.14,4.37-1.08,9.14,2.97,10.65,9.06,.27,1.08,.42,2.15,.45,3.19,.08,2.17,1.35,4.11,3.23,5.2l4.99,2.88-21.76,27.65"/><line class="i" x1="181.13" y1="206.24" x2="158.53" y2="234.24"/><line class="i" x1="182.27" y1="235.75" x2="175.26" y2="244.44"/><line class="i" x1="196.22" y1="218.47" x2="188" y2="228.66"/></g><g><path class="i" d="M172.81,205.31l21.75-27.65,1.92,1.11c2.31,1.33,5.33,1,7.05-1.03,.89-1.06,2.02-1.82,3.34-2.14,4.37-1.08,9.14,2.97,10.65,9.06,.27,1.08,.42,2.15,.45,3.19,.08,2.17,1.35,4.11,3.23,5.2l4.99,2.88-21.76,27.65"/><line class="i" x1="202.88" y1="178.54" x2="180.28" y2="206.54"/><line class="i" x1="204.02" y1="208.05" x2="197.01" y2="216.74"/><line class="i" x1="217.97" y1="190.77" x2="209.75" y2="200.96"/></g><g><path class="i" d="M194.56,177.61l21.75-27.65,1.92,1.11c2.31,1.33,5.33,1,7.05-1.03,.89-1.06,2.02-1.82,3.34-2.14,4.37-1.08,9.14,2.97,10.65,9.06,.27,1.08,.42,2.15,.45,3.19,.08,2.17,1.35,4.11,3.23,5.2l4.99,2.88-21.76,27.65"/><line class="i" x1="224.64" y1="150.84" x2="202.03" y2="178.84"/><line class="i" x1="225.78" y1="180.35" x2="218.77" y2="189.04"/><line class="i" x1="239.72" y1="163.07" x2="231.5" y2="173.26"/></g><g><path class="i" d="M216.32,149.91l21.75-27.65,1.92,1.11c2.31,1.33,5.33,1,7.05-1.03,.89-1.06,2.02-1.82,3.34-2.14,4.37-1.08,9.14,2.97,10.65,9.06,.27,1.08,.42,2.15,.45,3.19,.08,2.17,1.35,4.11,3.23,5.2l4.99,2.88-21.76,27.65"/><line class="i" x1="246.39" y1="123.14" x2="223.79" y2="151.14"/><line class="i" x1="247.53" y1="152.65" x2="240.52" y2="161.34"/><line class="i" x1="261.48" y1="135.37" x2="253.26" y2="145.56"/></g><g><path class="i" d="M238.07,122.21l21.75-27.65,1.92,1.11c2.31,1.33,5.33,1,7.05-1.03,.89-1.06,2.02-1.82,3.34-2.14,4.37-1.08,9.14,2.97,10.65,9.06,.27,1.08,.42,2.15,.45,3.19,.08,2.17,1.35,4.11,3.23,5.2l4.99,2.88-21.76,27.65"/><line class="i" x1="268.14" y1="95.44" x2="245.54" y2="123.44"/><line class="i" x1="269.28" y1="124.95" x2="262.27" y2="133.64"/><line class="i" x1="283.23" y1="107.67" x2="275.01" y2="117.86"/></g><g><path class="i" d="M259.82,94.51l21.75-27.65,1.92,1.11c2.31,1.33,5.33,1,7.05-1.03,.89-1.06,2.02-1.82,3.34-2.14,4.37-1.08,9.14,2.97,10.65,9.06,.27,1.08,.42,2.15,.45,3.19,.08,2.17,1.35,4.11,3.23,5.2l4.99,2.88-21.76,27.65"/><line class="i" x1="289.9" y1="67.74" x2="267.29" y2="95.74"/><line class="i" x1="291.04" y1="97.25" x2="284.03" y2="105.94"/><line class="i" x1="304.99" y1="79.97" x2="296.77" y2="90.16"/></g><g><path class="i" d="M281.58,66.81l21.75-27.65,1.92,1.11c2.31,1.33,5.33,1,7.05-1.03,.89-1.06,2.02-1.82,3.34-2.14,4.37-1.08,9.14,2.97,10.65,9.06,.27,1.08,.42,2.15,.45,3.19,.08,2.17,1.35,4.11,3.23,5.2l4.99,2.88-21.76,27.65"/><line class="i" x1="311.65" y1="40.04" x2="289.05" y2="68.04"/><line class="i" x1="312.79" y1="69.55" x2="305.78" y2="78.24"/><line class="i" x1="326.74" y1="52.27" x2="318.52" y2="62.46"/></g><g><line class="i" x1="351.12" y1="36.82" x2="334.95" y2="57.36"/><line class="i" x1="303.33" y1="39.11" x2="319.18" y2="18.96"/><line class="i" x1="325.64" y1="21.96" x2="310.8" y2="40.34"/><line class="i" x1="334.54" y1="41.85" x2="327.54" y2="50.54"/><line class="i" x1="342.77" y1="31.66" x2="340.27" y2="34.76"/></g><g><path class="i" d="M10.5,353.25l21.75-27.65,1.92,1.11c2.31,1.33,5.33,1,7.05-1.03,.89-1.06,2.02-1.82,3.34-2.14,4.37-1.08,9.14,2.97,10.65,9.06,.27,1.08,.42,2.15,.45,3.19,.08,2.17,1.35,4.11,3.23,5.2l4.99,2.88-21.76,27.65-5.37-3.1c-1.88-1.08-3.15-3.03-3.23-5.2-.04-1.04-.18-2.11-.45-3.19-1.51-6.09-6.28-10.15-10.65-9.06-1.31,.33-2.44,1.08-3.34,2.14-1.72,2.04-4.74,2.37-7.05,1.03l-1.54-.89Z"/><line class="i" x1="40.58" y1="326.48" x2="19.62" y2="352.45"/><line class="i" x1="41.72" y1="356" x2="34.71" y2="364.68"/><line class="i" x1="55.67" y1="338.72" x2="47.45" y2="348.9"/></g><g><path class="i" d="M32.42,325.55l21.75-27.65,1.92,1.11c2.31,1.33,5.33,1,7.05-1.03,.89-1.06,2.02-1.82,3.34-2.14,4.37-1.08,9.14,2.97,10.65,9.06,.27,1.08,.42,2.15,.45,3.19,.08,2.17,1.35,4.11,3.23,5.2l4.99,2.88-21.76,27.65"/><line class="i" x1="62.5" y1="298.78" x2="39.89" y2="326.79"/><line class="i" x1="63.63" y1="328.3" x2="56.62" y2="336.98"/><line class="i" x1="77.58" y1="311.02" x2="69.36" y2="321.2"/></g><g><path class="i" d="M54.17,297.85l21.75-27.65,1.92,1.11c2.31,1.33,5.33,1,7.05-1.03,.89-1.06,2.02-1.82,3.34-2.14,4.37-1.08,9.14,2.97,10.65,9.06,.27,1.08,.42,2.15,.45,3.19,.08,2.17,1.35,4.11,3.23,5.2l4.99,2.88-21.76,27.65"/><line class="i" x1="84.25" y1="271.08" x2="61.65" y2="299.09"/><line class="i" x1="85.39" y1="300.6" x2="78.38" y2="309.28"/><line class="i" x1="99.34" y1="283.32" x2="91.12" y2="293.5"/></g><g><path class="i" d="M75.93,270.15l21.75-27.65,1.92,1.11c2.31,1.33,5.33,1,7.05-1.03,.89-1.06,2.02-1.82,3.34-2.14,4.37-1.08,9.14,2.97,10.65,9.06,.27,1.08,.42,2.15,.45,3.19,.08,2.17,1.35,4.11,3.23,5.2l4.99,2.88-21.76,27.65"/><line class="i" x1="106" y1="243.38" x2="83.4" y2="271.39"/><line class="i" x1="107.14" y1="272.9" x2="100.13" y2="281.58"/><line class="i" x1="121.09" y1="255.62" x2="112.87" y2="265.8"/></g><g><path class="i" d="M162.94,159.35l21.75-27.65,1.92,1.11c2.31,1.33,5.33,1,7.05-1.03,.89-1.06,2.02-1.82,3.34-2.14,4.37-1.08,9.14,2.97,10.65,9.06,.27,1.08,.42,2.15,.45,3.19,.08,2.17,1.35,4.11,3.23,5.2l4.99,2.88-21.76,27.65"/><line class="i" x1="193.02" y1="132.58" x2="170.41" y2="160.59"/><line class="i" x1="194.16" y1="162.1" x2="187.15" y2="170.78"/><line class="i" x1="208.11" y1="144.82" x2="199.89" y2="155"/></g><g><path class="i" d="M184.7,131.65l21.75-27.65,1.92,1.11c2.31,1.33,5.33,1,7.05-1.03,.89-1.06,2.02-1.82,3.34-2.14,4.37-1.08,9.14,2.97,10.65,9.06,.27,1.08,.42,2.15,.45,3.19,.08,2.17,1.35,4.11,3.23,5.2l4.99,2.88-21.76,27.65"/><line class="i" x1="214.77" y1="104.88" x2="192.17" y2="132.89"/><line class="i" x1="215.91" y1="134.4" x2="208.9" y2="143.08"/><line class="i" x1="229.86" y1="117.12" x2="221.64" y2="127.3"/></g><g><path class="i" d="M206.45,103.95l21.75-27.65,1.92,1.11c2.31,1.33,5.33,1,7.05-1.03,.89-1.06,2.02-1.82,3.34-2.14,4.37-1.08,9.14,2.97,10.65,9.06,.27,1.08,.42,2.15,.45,3.19,.08,2.17,1.35,4.11,3.23,5.2l4.99,2.88-21.76,27.65"/><line class="i" x1="236.53" y1="77.18" x2="213.92" y2="105.19"/><line class="i" x1="237.66" y1="106.7" x2="230.66" y2="115.38"/><line class="i" x1="251.61" y1="89.42" x2="243.39" y2="99.6"/></g><g><path class="i" d="M228.2,76.25l21.75-27.65,1.92,1.11c2.31,1.33,5.33,1,7.05-1.03,.89-1.06,2.02-1.82,3.34-2.14,4.37-1.08,9.14,2.97,10.65,9.06,.27,1.08,.42,2.15,.45,3.19,.08,2.17,1.35,4.11,3.23,5.2l4.99,2.88-21.76,27.65"/><line class="i" x1="258.28" y1="49.48" x2="235.68" y2="77.49"/><line class="i" x1="259.42" y1="79" x2="252.41" y2="87.68"/><line class="i" x1="273.37" y1="61.72" x2="265.15" y2="71.9"/></g><g><path class="i" d="M249.96,48.55l21.75-27.65,1.92,1.11c2.31,1.33,5.33,1,7.05-1.03,.89-1.06,2.02-1.82,3.34-2.14,4.37-1.08,9.14,2.97,10.65,9.06,.27,1.08,.42,2.15,.45,3.19,.08,2.17,1.35,4.11,3.23,5.2l4.99,2.88-21.76,27.65"/><line class="i" x1="280.03" y1="21.78" x2="257.43" y2="49.79"/><line class="i" x1="281.17" y1="51.3" x2="274.16" y2="59.98"/><line class="i" x1="295.12" y1="34.02" x2="286.9" y2="44.2"/></g><g><line class="i" x1="319.5" y1="18.56" x2="303.33" y2="39.11"/><line class="i" x1="271.71" y1="20.85" x2="287.56" y2=".7"/><line class="i" x1="294.02" y1="3.71" x2="279.18" y2="22.09"/><line class="i" x1="302.93" y1="23.6" x2="295.92" y2="32.28"/><line class="i" x1="311.15" y1="13.4" x2="308.66" y2="16.5"/></g><g><path class="i" d="M.7,307.31l21.75-27.65,1.92,1.11c2.31,1.33,5.33,1,7.05-1.03,.89-1.06,2.02-1.82,3.34-2.14,4.37-1.08,9.14,2.97,10.65,9.06,.27,1.08,.42,2.15,.45,3.19,.08,2.17,1.35,4.11,3.23,5.2l4.99,2.88-21.76,27.65"/><line class="i" x1="30.78" y1="280.54" x2="8.17" y2="308.54"/><line class="i" x1="31.92" y1="310.05" x2="24.91" y2="318.74"/><line class="i" x1="45.86" y1="292.77" x2="37.64" y2="302.95"/></g><g><path class="i" d="M22.46,279.61l21.75-27.65,1.92,1.11c2.31,1.33,5.33,1,7.05-1.03,.89-1.06,2.02-1.82,3.34-2.14,4.37-1.08,9.14,2.97,10.65,9.06,.27,1.08,.42,2.15,.45,3.19,.08,2.17,1.35,4.11,3.23,5.2l4.99,2.88-21.76,27.65"/><line class="i" x1="52.53" y1="252.84" x2="29.93" y2="280.84"/><line class="i" x1="53.67" y1="282.35" x2="46.66" y2="291.04"/><line class="i" x1="67.62" y1="265.07" x2="59.4" y2="275.25"/></g><g><path class="i" d="M152.98,113.41l21.75-27.65,1.92,1.11c2.31,1.33,5.33,1,7.05-1.03,.89-1.06,2.02-1.82,3.34-2.14,4.37-1.08,9.14,2.97,10.65,9.06,.27,1.08,.42,2.15,.45,3.19,.08,2.17,1.35,4.11,3.23,5.2l4.99,2.88-21.76,27.65"/><line class="i" x1="183.05" y1="86.64" x2="160.45" y2="114.64"/><line class="i" x1="184.19" y1="116.15" x2="177.18" y2="124.84"/><line class="i" x1="198.14" y1="98.87" x2="189.92" y2="109.05"/></g><g><path class="i" d="M174.73,85.71l21.75-27.65,1.92,1.11c2.31,1.33,5.33,1,7.05-1.03,.89-1.06,2.02-1.82,3.34-2.14,4.37-1.08,9.14,2.97,10.65,9.06,.27,1.08,.42,2.15,.45,3.19,.08,2.17,1.35,4.11,3.23,5.2l4.99,2.88-21.76,27.65"/><line class="i" x1="204.81" y1="58.94" x2="182.2" y2="86.94"/><line class="i" x1="205.95" y1="88.45" x2="198.94" y2="97.14"/><line class="i" x1="219.9" y1="71.17" x2="211.68" y2="81.35"/></g><g><path class="i" d="M196.49,58.01l21.75-27.65,1.92,1.11c2.31,1.33,5.33,1,7.05-1.03,.89-1.06,2.02-1.82,3.34-2.14,4.37-1.08,9.14,2.97,10.65,9.06,.27,1.08,.42,2.15,.45,3.19,.08,2.17,1.35,4.11,3.23,5.2l4.99,2.88-21.76,27.65"/><line class="i" x1="226.56" y1="31.24" x2="203.96" y2="59.24"/><line class="i" x1="227.7" y1="60.75" x2="220.69" y2="69.44"/><line class="i" x1="241.65" y1="43.47" x2="233.43" y2="53.65"/></g><g><line class="j" x1="622.84" y1="162.23" x2="346.47" y2="3.64"/><line class="j" x1="597.16" y1="177.52" x2="320.78" y2="18.93"/><path class="j" d="M628.26,165.32l-3.69-2.19c-7.48-4.44-17.14-2.06-21.72,5.34l-5.7,9.05,10.47,29.67,13.93-8.04,6.7-33.83Z"/></g><polyline class="i" points="746.58 515.34 746.58 359.87 675.23 399.51 675.23 558.78"/><line class="j" x1="342.79" y1="536.75" x2="604.91" y2="199.49"/><line class="j" x1="265.27" y1="511.18" x2="332.68" y2="549.76"/><line class="j" x1="132.89" y1="435.41" x2="231.43" y2="491.81"/><line class="j" x1="35.71" y1="379.79" x2="81.35" y2="405.91"/><line class="j" x1="358.95" y1="682.87" x2="158.46" y2="567.1"/><line class="i" x1="627.17" y1="174.88" x2="797.91" y2="279.81"/><g><g><path class="h" d="M801.05,481.26c8.69,1.93,14.79,6.45,14.79,11.71,0,7.02-10.84,12.71-24.22,12.71s-24.22-5.69-24.22-12.71c0-5.72,7.2-10.56,17.11-12.15"/><line class="h" x1="809.44" y1="519.78" x2="815.46" y2="495.21"/><path class="h" d="M768.2,496.11l7.66,30.33,.27,.94c1.04,2.92,4.95,5.31,10.15,6.32"/></g><path class="h" d="M791.29,445.93c.18-.34,.37-.68,.58-1.01,1.46-2.33,3.71-4.32,6.42-4.82,5.06-.94,9.77,3.73,10.82,8.77s-.55,10.2-2.12,15.1l-7.02,21.83c-.55,1.7-1.11,3.43-2.19,4.85-1.08,1.42-2.79,2.49-4.57,2.31"/><path class="h" d="M790.49,490.65c-4.47-3.41-6.51-9.27-6.61-14.88s1.48-11.11,3.04-16.51l1.94-6.68c.28-.95,.55-1.9,.86-2.85"/><path class="h" d="M808.06,460.83c2.6-2.44,5.72-4.38,8.9-6.04,4.46-2.34,9.44-4.28,14.42-3.57,4.99,.72,9.76,4.95,9.45,9.98-.31,4.96-5.04,8.39-9.54,10.5-3.92,1.84-8.01,3.37-12.2,4.48-2.8,.74-5.8,1.88-8.78,1.52-2.73-.33-4.9-2.15-6.24-4.46"/><path class="h" d="M801.51,440.24c-4.77-1.84-5.32-8.29-4.69-12.35,.5-3.17,2.23-5.93,4.15-8.44,2.12-2.78,4.97-6.75,8.65-7.44,5.04-.94,6.64,4.81,6.8,8.72,.23,5.77-5.24,21.24-14,19.81"/><path class="h" d="M789.73,449.73c4.31-4.94-1.24-13.44-4.92-16.62-4.95-4.28-12.04-7.82-17.54-2.11-1.47,1.52-2.45,3.56-2.51,5.68-.07,2.53,1.16,4.96,2.86,6.84,2.37,2.62,5.63,4.7,8.73,6.34,2.81,1.48,9.34,3.71,13.38-.12"/></g></g><line class="i" x1="628.26" y1="165.32" x2="797.91" y2="267.99"/><g><path class="i" d="M797.81,423.98c-.32-.07-.39-.09-.71-.18-2.25-.63-4.41-1.74-5.96-3.48-1.65-1.85-2.53-4.3-3.1-6.66-.99-4.12-1.08-8.4-.47-12.6,.76-5.22,1.14-10.89,3.73-15.64,1.98-3.64,5.51-6.7,9.64-7.04,1.57-.13,3.24,.17,4.43,1.2,1.29,1.12,1.8,2.87,2.25,4.52l3.42,12.63c.83,3.06,3.54,5.24,6.71,5.38,4.48,.2,8.09-3.65,7.58-8.11-1.97-17.25-5.74-56.17-1.86-72.88,5.52-17.84,20.93-13.46,20.18,2.86-.57,12.53-.25,35.79-.07,45.93,.05,2.68,2.35,4.75,5.01,4.52,2.27-.19,4.06-2,4.22-4.26,.56-7.8,2.61-24.65,9.81-26.44,8.82-2.2,7.73,17.87,7.58,22.23-.2,5.77,.4,11.99-1.18,17.72-1.32,4.78-4.67,7.77-9.22,9.45-3.79,1.4-8.95,1.49-11.63,4.93-3.36,4.31-1.39,10.89,.02,15.54,1.96,6.46,3.83,13.02,5.3,19.62,2.88,12.96,4.53,22.62,4.5,35.91"/><path class="i" d="M835.28,452.23c.37-5.16,.57-9.5-.73-14.5-1.3-5-4.29-9.79-8.89-12.15-2.96-1.52-5.67-1.9-8.99-1.85"/><g><path class="h" d="M856.87,453.05c7.97,2.08,13.45,6.4,13.45,11.39,0,7.02-10.84,12.71-24.22,12.71-7.06,0-13.41-1.58-17.84-4.11"/><line class="h" x1="864.37" y1="489.44" x2="869.95" y2="466.67"/><path class="h" d="M824.44,474.52l5.91,23.39,.27,.94c1.04,2.92,4.95,5.31,10.15,6.32"/></g></g></g></g></g></g></svg>