<?xml version="1.0" encoding="utf-8"?>
<!-- Generator: Adobe Illustrator 26.1.0, SVG Export Plug-In . SVG Version: 6.00 Build 0)  -->
<svg version="1.1" id="Layer_1" xmlns="http://www.w3.org/2000/svg" xmlns:xlink="http://www.w3.org/1999/xlink" x="0px" y="0px"
	 viewBox="0 0 1575.9 1553.6" style="enable-background:new 0 0 1575.9 1553.6;" xml:space="preserve">
<style type="text/css">
	.st0{fill:none;}
	.st1{fill:#FF7E2F;}
	.st2{fill:none;stroke:#1F3943;stroke-width:0.7;}
	.st3{fill:none;stroke:#1F3943;stroke-width:0.7;stroke-miterlimit:3.9999;}
	.st4{fill:none;stroke:#1F3943;stroke-width:0.75;}
	.st5{fill:none;stroke:#1F3943;stroke-width:0.75;stroke-miterlimit:4;}
	.st6{fill:#F8F8F4;stroke:#2D5261;stroke-linejoin:bevel;}
	.st7{fill:none;stroke:#2D5261;stroke-linejoin:bevel;}
	.st8{fill:none;stroke:#2D5261;stroke-linecap:square;stroke-linejoin:bevel;}
	.st9{fill:#FFB487;stroke:#2D5261;stroke-linecap:square;stroke-linejoin:bevel;}
	.st10{fill:#F8F8F4;stroke:#2D5261;stroke-linecap:square;stroke-linejoin:bevel;}
	.st11{fill:#F8F8F4;}
	.st12{fill:none;stroke:#2D5261;}
	.st13{fill:url(#SVGID_1_);}
	.st14{fill:#F8F8F4;stroke:#1F3943;stroke-linejoin:bevel;}
	.st15{clip-path:url(#SVGID_00000121989974838866234780000003299717434119945613_);}
	.st16{fill:url(#SVGID_00000103948917773207748060000009133346253295042210_);stroke:#1F3943;stroke-linejoin:bevel;}
	.st17{fill:none;stroke:#1F3943;stroke-linejoin:bevel;}
	.st18{fill:url(#SVGID_00000100343700762880069300000016403475899149865359_);stroke:#1F3943;stroke-linejoin:bevel;}
	.st19{fill:#2D5261;stroke:#1F3943;}
	.st20{fill:none;stroke:#1F3943;stroke-linecap:square;stroke-linejoin:bevel;}
	.st21{fill:url(#SVGID_00000080191527407632741440000012850961315454012554_);stroke:#1F3943;stroke-linejoin:bevel;}
	
		.st22{fill:url(#SVGID_00000103229760736980523220000015141841739687398539_);stroke:#1F3943;stroke-linecap:square;stroke-linejoin:bevel;}
	.st23{fill:#F8F8F4;stroke:#1F3943;}
	.st24{clip-path:url(#SVGID_00000117644571052757224150000008603842479012502656_);}
	.st25{fill:url(#SVGID_00000138538016469824203000000015219965410557491369_);}
	.st26{clip-path:url(#SVGID_00000181044938544749018010000000648667010607506862_);}
	.st27{fill:url(#SVGID_00000135677459437107559800000006394057934442261129_);stroke:#1F3943;stroke-miterlimit:10;}
	.st28{fill:none;stroke:#1F3943;}
	.st29{fill:none;stroke:#1F3943;stroke-miterlimit:10;}
	.st30{fill:#2D5261;stroke:#1F3943;stroke-linecap:square;stroke-linejoin:bevel;}
	
		.st31{fill:url(#SVGID_00000101813281856395710290000010098959427803352976_);stroke:#1F3943;stroke-linecap:square;stroke-linejoin:bevel;}
	.st32{clip-path:url(#SVGID_00000178927706965798248030000011485785094134463650_);}
</style>
<pattern  y="1553.6" width="125" height="187.5" patternUnits="userSpaceOnUse" id="SVGID_0000003334759630818132132" viewBox="34.9 -212.6 125 187.5" style="overflow:visible;">
	<g>
		<rect x="34.9" y="-212.6" class="st0" width="125" height="187.5"/>
		<g>
			<rect x="34.9" y="-212.6" class="st0" width="125" height="187.5"/>
			<g>
				<rect x="34.9" y="-212.6" class="st0" width="125" height="187.5"/>
				<path class="st1" d="M152.3-40.4c-20.1-7.5-27.3-9.9-27.3-9.9l8.5,43.7L151.7,0L195-24.1c0,0-8.1-2.7-15.1-4.5
					c-5.1-1.3-9.1-0.4-14.9,2.4c-8.5,4.1-18.6,10.4-18.6,10.4l-3.8-14.5l18.6,6.1C161.2-24.1,160.3-37.4,152.3-40.4L152.3-40.4z"/>
				<path class="st1" d="M27.3-40.4C7.2-47.9,0-50.3,0-50.3L8.5-6.6L26.7,0L70-24.1c0,0-8.1-2.7-15.1-4.5c-5.1-1.3-9.1-0.4-14.9,2.4
					c-8.5,4.1-18.6,10.4-18.6,10.4l-3.8-14.5l18.6,6.1C36.2-24.1,35.3-37.4,27.3-40.4L27.3-40.4z"/>
				<path class="st1" d="M89.8-134.1c-20.1-7.5-27.3-9.9-27.3-9.9l8.5,43.7l18.2,6.6l43.3-24.1c0,0-8.1-2.7-15.1-4.5
					c-5.1-1.3-9.1-0.4-14.9,2.4c-8.5,4.2-18.6,10.4-18.6,10.4L80.1-124l18.6,6.2C98.7-117.8,97.8-131.1,89.8-134.1L89.8-134.1z"/>
				<path class="st1" d="M152.3-227.9c-20.1-7.5-27.3-9.9-27.3-9.9l8.5,43.7l18.2,6.6l43.3-24.1c0,0-8.1-2.7-15.1-4.5
					c-5.1-1.3-9.1-0.5-14.9,2.4c-8.5,4.1-18.6,10.4-18.6,10.4l-3.8-14.5l18.6,6.2C161.2-211.6,160.3-224.9,152.3-227.9L152.3-227.9z
					"/>
				<path class="st1" d="M27.3-227.9C7.2-235.4,0-237.8,0-237.8l8.5,43.7l18.2,6.6L70-211.6c0,0-8.1-2.7-15.1-4.5
					c-5.1-1.3-9.1-0.5-14.9,2.4c-8.5,4.2-18.6,10.4-18.6,10.4l-3.8-14.5l18.6,6.1C36.2-211.6,35.3-224.9,27.3-227.9z"/>
			</g>
		</g>
	</g>
</pattern>
<pattern  y="1553.6" width="156.3" height="170" patternUnits="userSpaceOnUse" id="SVGID_0000003553223559086082067" viewBox="42.5 -223.7 156.3 170" style="overflow:visible;">
	<g>
		<rect x="42.5" y="-223.7" class="st0" width="156.3" height="170"/>
		<g>
			<rect x="42.5" y="-223.7" class="st0" width="156.3" height="170"/>
			<g>
				<rect x="42.5" y="-223.7" class="st0" width="156.3" height="170"/>
				<g>
					<path class="st2" d="M195.2-73.5c-2.7,6.2-7.7,9.6-13.6,12.5c-10.9,5.4-6.7,18.1-11,27.2"/>
					<ellipse transform="matrix(0.866 -0.5 0.5 0.866 49.9033 84.6384)" class="st3" cx="182.9" cy="-50.8" rx="4.6" ry="7.4"/>
					<path class="st2" d="M210.3-111.4c0,0-8.7,28.4-28.2,42.5"/>
					<path class="st2" d="M219.9-114.3c-9.9,16.9-17,35.1-23.2,53.6c-4.4,13.1-12.1,19.8-22.2,29c-8.9,8-14.4,14.9-17.8,20.6"/>
					<path class="st2" d="M227-96.3c0,0-9.7,15.3-15.8,24.6s-12.9,33.1-23.6,37.9c0,0-15,6.9-31,31.3"/>
					<path class="st2" d="M185.6-92.6c1.6-3.3,3.3-6.6,5.2-9.7l5.3-9.1c0,0,14.6-26,15.3-29.6"/>
					<path class="st2" d="M150.6-14c0,0,15.7-20.2,20.2-36.9c1.6-6.1,3.5-12.1,6-18"/>
					<path class="st2" d="M190.3-27c18.2-4.8,23.4-18.2,26.9-30.1s15.5-21.2,15.5-21.2"/>
					<path class="st2" d="M193.9-11c6.5-5.4,12.1-11.8,16.2-19.2l3.7-6.5c0,0,5.2-11.2,16.2-17.2s12.8-15,12.8-15"/>
					<path class="st2" d="M150.4-37.3c3.6-12.9,18.8-33.9,18.8-33.9"/>
					<path class="st2" d="M186.6-107.6c-6.6,12.2-8,28.4-11.5,34.4"/>
					<ellipse transform="matrix(0.866 -0.5 0.5 0.866 68.1465 83.1372)" class="st3" cx="189.2" cy="-85.6" rx="2.6" ry="5.6"/>
					<path class="st2" d="M141.6-29.1c9.9-19.2,5.2-26,5.2-26l-10.7,18.4"/>
				</g>
				<path class="st2" d="M107.5-7.6c1.6-3.3,3.3-6.6,5.2-9.7l5.3-9.1c0,0,14.6-26,15.3-29.6"/>
				<g>
					<path class="st2" d="M53.9-111.4c0,0-8.7,28.4-28.2,42.5"/>
					<path class="st2" d="M63.5-114.3c-9.9,16.9-17,35.1-23.2,53.6c-4.5,13.1-12.1,19.8-22.2,29c-8.9,8-14.4,15-17.8,20.7"/>
					<path class="st2" d="M70.7-96.3c0,0-9.7,15.3-15.8,24.6S42.1-38.6,31.3-33.8c0,0-15,6.9-31,31.3"/>
					<path class="st2" d="M55.2-84.2c3.1-12.6,21.1-32.1,21.1-32.1"/>
					<path class="st2" d="M29.3-92.6c1.6-3.3,3.3-6.6,5.2-9.7l5.3-9.1c0,0,14.6-26,15.3-29.6"/>
					<path class="st2" d="M33.9-27c18.2-4.8,23.4-18.2,26.9-30.1s15.5-21.2,15.5-21.2"/>
					<path class="st2" d="M37.6-11c6.5-5.4,12.1-11.8,16.2-19.2l3.7-6.5c0,0,5.2-11.2,16.2-17.2s12.8-15,12.8-15"/>
					<path class="st2" d="M83.7-53.9c-1.2,6.9-3.5,13.6-6.6,19.8c-1.5,3-3.2,5.9-4.8,8.8L57.7-0.2"/>
					<path class="st2" d="M90.1-52.7c1.9-5.1,4.8-9.8,8.5-13.7c2.8-3,6.1-5.5,9.2-8.1c13.4-11.1,25.3-25.2,29-42.2"/>
				</g>
				<g>
					<path class="st2" d="M195.2-243.5c-2.7,6.2-7.7,9.6-13.6,12.5c-10.9,5.4-6.7,18.1-11,27.2"/>
					<ellipse transform="matrix(0.866 -0.5 0.5 0.866 134.903 61.8637)" class="st3" cx="182.9" cy="-220.8" rx="4.6" ry="7.4"/>
					<path class="st2" d="M184.5-192.9c0,0-14.6,17.8-33,48.5"/>
					<path class="st2" d="M219.9-284.3c-9.9,16.9-17,35.1-23.2,53.6c-4.4,13.1-12.1,19.8-22.2,29c-8.9,8-14.4,14.9-17.8,20.6"/>
					<path class="st2" d="M227-266.3c0,0-9.7,15.3-15.8,24.6s-12.9,33.1-23.6,37.9c0,0-15,6.9-31,31.3"/>
					<path class="st2" d="M150.6-184c0,0,15.7-20.2,20.2-36.9c1.6-6.1,3.5-12.1,6-18"/>
					<path class="st2" d="M190.3-197c18.2-4.8,23.4-18.2,26.9-30.1c3.5-11.9,15.5-21.2,15.5-21.2"/>
					<path class="st2" d="M193.9-181c6.5-5.3,12.1-11.8,16.2-19.2l3.7-6.5c0,0,5.2-11.2,16.2-17.2s12.8-15,12.8-15"/>
					<path class="st2" d="M169.9-153c2.1-5.9,5-10.6,8.1-14.5"/>
					<path class="st2" d="M176-131.5c1-6,4.9-11,9.3-15.2c3.9-3.7,8.2-7,11.9-10.9"/>
					<path class="st2" d="M194.6-99.1c4.8-3.7,7.5-9.4,10-14.9c5.2-11.5,10.4-23.1,15.6-34.6c1.7-3.8,3.4-7.7,5.8-11.1
						c2.8-4.2,6.4-7.7,9.7-11.4c8.4-9.5,15.6-20.5,18-33.3c-9.8,12.5-15.6,20.1-15.6,20.1"/>
					<path class="st2" d="M150.4-207.3c3.6-12.9,18.8-33.9,18.8-33.9"/>
					<path class="st2" d="M179.9-133.3c4.2-5.8,11.6-8,17.1-12.6c2.4-2.1,4.4-4.6,6.4-7.1l7.1-9"/>
					<path class="st2" d="M234.4-188.6c-6.8,15.5-31.4,46.8-38.7,58.7"/>
					<path class="st2" d="M141.6-199.1c9.9-19.2,5.2-26,5.2-26l-10.7,18.4"/>
					<path class="st2" d="M191.7-170.3c8.1-6.8,12.6-13.7,12.6-13.7"/>
					<path class="st2" d="M197.2-192.9c-11.6,13.5-9,22.9-14.3,28.8"/>
				</g>
				<g>
					<path class="st2" d="M117-158.5c-2.7,6.2-7.7,9.6-13.6,12.5c-10.9,5.4-6.7,18.1-11,27.2"/>
					<ellipse transform="matrix(0.866 -0.5 0.5 0.866 81.9215 34.2012)" class="st3" cx="104.8" cy="-135.8" rx="4.6" ry="7.4"/>
					<path class="st2" d="M106.4-107.9c0,0-14.6,17.8-33,48.5"/>
					<path class="st2" d="M132.1-196.4c0,0-8.7,28.4-28.2,42.5"/>
					<path class="st2" d="M141.7-199.3c-9.9,16.9-17,35.1-23.2,53.6c-4.4,13.1-12.1,19.8-22.2,29c-8.9,8-14.4,14.9-17.8,20.6"/>
					<path class="st2" d="M148.9-181.3c0,0-9.7,15.3-15.8,24.6c-6.1,9.3-12.8,33.1-23.6,37.9c0,0-15,6.9-31,31.3"/>
					<path class="st2" d="M133.4-169.2c3.1-12.6,21.1-32.1,21.1-32.1"/>
					<path class="st2" d="M107.5-177.6c1.6-3.3,3.3-6.6,5.2-9.7l5.3-9.1c0,0,14.6-26,15.3-29.6"/>
					<path class="st2" d="M72.4-99c0,0,15.7-20.2,20.2-36.9c1.7-6.1,3.5-12.1,6-18"/>
					<path class="st2" d="M112.1-112c18.2-4.8,23.4-18.2,26.9-30.2c3.5-11.9,15.5-21.2,15.5-21.2"/>
					<path class="st2" d="M115.7-96c6.5-5.4,12.1-11.8,16.2-19.2l3.7-6.5c0,0,5.2-11.2,16.2-17.2s12.8-15,12.8-15"/>
					<path class="st2" d="M91.7-68c2.1-5.9,5-10.6,8.1-14.5"/>
					<path class="st2" d="M161.9-138.9c-1.2,6.9-3.5,13.6-6.6,19.8c-1.5,3-3.2,5.9-4.8,8.8l-14.6,25.1"/>
					<path class="st2" d="M132.5-93.3c7.8-13.2,19.3-32.6,22-38.2c0,0-7.1,1.2-12.8,8.2"/>
					<path class="st2" d="M97.8-46.5c1-6,4.9-11,9.3-15.2c3.9-3.7,8.2-7,11.9-10.9"/>
					<path class="st2" d="M159.8-112c1.8-2.7,3.2-5.6,4.1-8.8c0.6-2,0.9-4.1,1.7-6.1s2.1-3.8,3.9-4.7"/>
					<path class="st2" d="M116.4-14.1c4.8-3.6,7.5-9.4,10-14.9c5.2-11.5,10.4-23.1,15.6-34.6c1.7-3.8,3.4-7.7,5.8-11.1
						c2.8-4.1,6.3-7.7,9.7-11.4c8.4-9.5,15.6-20.5,18-33.3c-9.8,12.5-15.6,20.1-15.6,20.1"/>
					<path class="st2" d="M168.3-137.7c1.9-5.1,4.8-9.8,8.5-13.7c2.8-3,6.1-5.5,9.2-8.1c13.4-11.2,25.4-25.2,29-42.2"/>
					<path class="st2" d="M188.3-122.3c-3.4,3.9-6.9,8-9.1,12.8c-1.8,4.1-2.6,8.6-4.2,12.8c-3.9,10.3-12.6,18.6-15.3,29.3"/>
					<path class="st2" d="M72.2-122.3c3.6-12.9,18.8-33.9,18.8-33.9"/>
					<path class="st2" d="M101.7-48.3c4.2-5.8,11.6-8,17.1-12.6c2.4-2.1,4.4-4.6,6.4-7.1l7.2-9"/>
					<path class="st2" d="M156.3-103.6c-6.8,15.5-31.4,46.8-38.7,58.7"/>
					<path class="st2" d="M108.4-192.6c-6.6,12.2-8,28.4-11.5,34.4"/>
					<ellipse transform="matrix(0.866 -0.5 0.5 0.866 100.1648 32.7)" class="st3" cx="111.1" cy="-170.6" rx="2.6" ry="5.6"/>
					<path class="st2" d="M63.4-114.1c9.9-19.2,5.2-26,5.2-26l-10.7,18.4"/>
					<path class="st2" d="M113.5-85.3c8.1-6.8,12.6-13.7,12.6-13.7"/>
					<path class="st2" d="M119-107.9c-11.6,13.4-9,22.9-14.3,28.8"/>
				</g>
				<g>
					<path class="st2" d="M63.5-284.3c-9.9,16.9-17,35.1-23.2,53.6c-4.5,13.1-12.1,19.8-22.2,29c-8.9,8-14.4,15-17.8,20.7"/>
					<path class="st2" d="M70.7-266.3c0,0-9.7,15.3-15.8,24.6s-12.8,33.1-23.6,37.9c0,0-15,6.9-31,31.3"/>
					<path class="st2" d="M33.9-197c18.2-4.8,23.4-18.2,26.9-30.1c3.5-11.9,15.5-21.2,15.5-21.2"/>
					<path class="st2" d="M37.6-181c6.5-5.4,12.1-11.8,16.2-19.2l3.7-6.5c0,0,5.2-11.2,16.2-17.2s12.8-15,12.8-15"/>
					<path class="st2" d="M83.7-223.9c-1.2,6.9-3.5,13.6-6.6,19.8c-1.5,3-3.2,5.9-4.8,8.8l-14.6,25.1"/>
					<path class="st2" d="M54.3-178.3c7.8-13.2,19.3-32.6,22-38.2c0,0-7.2,1.2-12.8,8.2"/>
					<path class="st2" d="M81.6-197c1.8-2.7,3.2-5.6,4.1-8.8c0.6-2,0.9-4.1,1.7-6.1c0.8-1.9,2-3.8,3.9-4.7"/>
					<path class="st2" d="M38.3-99.1c4.8-3.7,7.5-9.4,10-14.9c5.2-11.5,10.4-23.1,15.6-34.6c1.7-3.8,3.5-7.7,5.8-11.1
						c2.8-4.2,6.3-7.7,9.7-11.4c8.4-9.5,15.6-20.5,18-33.3c-9.8,12.5-15.6,20.1-15.6,20.1"/>
					<path class="st2" d="M90.1-222.7c1.9-5.1,4.8-9.8,8.5-13.7c2.8-3,6.1-5.5,9.2-8.1c13.4-11.2,25.3-25.2,29-42.2"/>
					<path class="st2" d="M110.1-207.3c-3.4,4-7,8-9.1,12.8c-1.8,4.1-2.6,8.6-4.2,12.8c-3.9,10.3-12.6,18.6-15.3,29.3"/>
					<path class="st2" d="M23.5-133.3c4.2-5.8,11.6-8,17-12.6c2.5-2.1,4.5-4.6,6.4-7.1l7.1-9"/>
					<path class="st2" d="M78.1-188.6c-6.8,15.5-31.4,46.8-38.7,58.7"/>
					<path class="st2" d="M35.4-170.3C43.5-177.1,48-184,48-184"/>
				</g>
				<path class="st2" d="M11.9-137.7c1.9-5.1,4.8-9.8,8.5-13.7c2.8-3,6.1-5.5,9.2-8.1C43-170.6,55-184.7,58.7-201.7"/>
				<g>
					<path class="st2" d="M97.8-216.5c1-6,4.9-11,9.3-15.2c3.9-3.7,8.2-7,11.9-10.9"/>
					<path class="st2" d="M116.4-184.1c4.8-3.7,7.5-9.4,10-14.9c5.2-11.5,10.4-23.1,15.6-34.6c1.7-3.8,3.4-7.7,5.8-11.2
						c2.8-4.1,6.3-7.7,9.7-11.4c8.4-9.5,15.6-20.5,18-33.3c-9.8,12.5-15.6,20.1-15.6,20.1"/>
					<path class="st2" d="M101.7-218.3c4.2-5.8,11.6-8,17.1-12.7c2.4-2.1,4.4-4.6,6.4-7.1l7.2-9"/>
					<path class="st2" d="M156.3-273.6c-6.8,15.5-31.4,46.8-38.7,58.7"/>
				</g>
			</g>
		</g>
	</g>
</pattern>
<pattern  y="1553.6" width="140.2" height="118.1" patternUnits="userSpaceOnUse" id="SVGID_0000011260060234011928889" viewBox="64.2 -123.6 140.2 118.1" style="overflow:visible;">
	<g>
		<rect x="64.2" y="-123.6" class="st0" width="140.2" height="118.1"/>
		<g>
			<rect x="64.2" y="-123.6" class="st0" width="140.2" height="118.1"/>
			<g>
				<rect x="64.2" y="-123.6" class="st0" width="140.2" height="118.1"/>
				<path class="st4" d="M187.7-18.1c17.8,3.2,35.2,8.4,51.8,15.6"/>
				<g>
					<g>
						<g>
							<path class="st4" d="M73.6-19.7c33.1,7,39.3,1.3,50.8,3.8c11.4,2.6,17.4,8.4,17.4,8.4"/>
							<ellipse transform="matrix(0.9906 -0.1368 0.1368 0.9906 2.7707 16.3978)" class="st5" cx="120.7" cy="-12" rx="7" ry="2"/>
						</g>
						<path class="st4" d="M107.7-11.3c4.8,6.8,33.1,5.8,42.2,7"/>
					</g>
					<path class="st4" d="M128.7-18.5c14.6,5,17.7,12.6,33.9,14.5"/>
					<path class="st4" d="M89.9-12c6.9,1.9,11.5,4.1,14.4,5.8c5.8,3.2,18.2,5.7,28.5,5.7"/>
					<path class="st4" d="M47.5-18.1c17.8,3.2,35.2,8.4,51.8,15.6"/>
					<path class="st4" d="M140.3-19.2c10.4,2.7,19,10.6,29.6,12.6c3,0.6,6,0.6,9.1,0.8c11.1,0.6,22,2.4,32.7,5.4"/>
					<path class="st4" d="M157.2-20.1c4.6,3.2,10.1,4.5,15.6,5.7l24.8,5.6"/>
				</g>
				<path class="st4" d="M0.1-19.2c10.4,2.7,19,10.6,29.6,12.6c3,0.6,6,0.6,9.1,0.8c11,0.6,22,2.4,32.7,5.4"/>
				<g>
					<g>
						<g>
							<path class="st4" d="M143.7-49.3c33.1,7,39.3,1.3,50.8,3.8c11.4,2.6,17.4,8.4,17.4,8.4"/>
							
								<ellipse transform="matrix(0.9906 -0.1368 0.1368 0.9906 7.4647 25.7095)" class="st5" cx="190.8" cy="-41.5" rx="7" ry="2"/>
						</g>
						<path class="st4" d="M177.8-40.8c4.8,6.8,33.1,5.8,42.1,7"/>
					</g>
					<path class="st4" d="M198.8-48.1c14.6,5,17.7,12.6,33.9,14.5"/>
					<path class="st4" d="M160-41.5c6.9,1.9,11.5,4.1,14.4,5.8c5.8,3.2,18.2,5.7,28.5,5.7"/>
					<path class="st4" d="M117.6-47.7c17.8,3.2,35.2,8.4,51.8,15.6"/>
					<path class="st4" d="M152.9-30.5c4.5,3.8,10.2,6.1,16,6.6c5.3,0.4,10.6-0.7,15.9-1.3c5.3-0.6,10.9-0.7,15.7,1.6"/>
				</g>
				<g>
					<g>
						<path class="st4" d="M3.5-49.3c33.1,7,39.3,1.3,50.8,3.8c11.4,2.6,17.4,8.4,17.4,8.4"/>
						<path class="st4" d="M37.6-40.8c4.9,6.8,33.1,5.8,42.2,7"/>
					</g>
					<path class="st4" d="M58.6-48.1c14.6,5,17.7,12.6,34,14.5"/>
					<path class="st4" d="M69.4-30c9.9,1,36.9-1.6,47.6,0.8"/>
					<path class="st4" d="M96.7-25.9c13.6-0.2,37.5,5.2,37.5,5.2"/>
					<path class="st4" d="M70.2-48.7C80.6-46,89.2-38,99.8-36.1c3,0.6,6,0.6,9.1,0.8c11.1,0.6,22,2.4,32.7,5.4"/>
					<path class="st4" d="M87.1-49.7c4.6,3.2,10.1,4.5,15.6,5.7l24.8,5.6"/>
				</g>
				<path class="st4" d="M187.7-77.2c17.8,3.2,35.2,8.4,51.8,15.6"/>
				<g>
					<g>
						<g>
							<path class="st4" d="M73.6-78.8c33.1,7,39.3,1.3,50.8,3.8c11.4,2.5,17.4,8.4,17.4,8.4"/>
							
								<ellipse transform="matrix(0.9906 -0.1368 0.1368 0.9906 10.8554 15.8432)" class="st5" cx="120.7" cy="-71.1" rx="7" ry="2"/>
						</g>
						<path class="st4" d="M107.7-70.3c4.8,6.8,33.1,5.8,42.2,7"/>
					</g>
					<path class="st4" d="M128.7-77.6c14.6,5,17.7,12.6,33.9,14.5"/>
					<path class="st4" d="M89.9-71.1c6.9,1.9,11.5,4.1,14.4,5.8c5.8,3.2,18.2,5.7,28.5,5.7"/>
					<path class="st4" d="M139.5-59.6c9.9,1,36.9-1.6,47.6,0.8"/>
					<path class="st4" d="M166.8-55.4c13.6-0.2,37.5,5.2,37.5,5.2"/>
					<path class="st4" d="M47.5-77.2c17.8,3.2,35.2,8.4,51.8,15.6"/>
					<path class="st4" d="M82.8-60c4.5,3.8,10.2,6.1,16,6.6c5.3,0.4,10.6-0.7,15.9-1.3s10.9-0.7,15.7,1.6"/>
					<path class="st4" d="M140.3-78.3c10.4,2.7,19,10.7,29.6,12.6c3,0.6,6,0.6,9.1,0.8c11.1,0.6,22,2.4,32.7,5.4"/>
					<path class="st4" d="M157.2-79.2c4.6,3.2,10.1,4.5,15.6,5.7l24.8,5.6"/>
				</g>
				<path class="st4" d="M0.1-78.3c10.4,2.7,19,10.7,29.6,12.6c3,0.6,6,0.6,9.1,0.8c11,0.6,22,2.4,32.7,5.4"/>
				<g>
					<g>
						<g>
							<path class="st4" d="M143.7-108.3c33.1,7,39.3,1.3,50.8,3.8c11.5,2.5,17.4,8.4,17.4,8.4"/>
							
								<ellipse transform="matrix(0.9906 -0.1368 0.1368 0.9906 15.5494 25.155)" class="st5" cx="190.8" cy="-100.6" rx="7" ry="2"/>
						</g>
						<path class="st4" d="M177.8-99.9c4.8,6.8,33.1,5.8,42.1,7"/>
					</g>
					<path class="st4" d="M198.8-107.1c14.6,5,17.7,12.6,33.9,14.5"/>
					<path class="st4" d="M160-100.6c6.9,1.9,11.5,4.1,14.4,5.8c5.8,3.2,18.2,5.7,28.5,5.7"/>
					<path class="st4" d="M117.6-106.7c17.8,3.2,35.2,8.4,51.8,15.6"/>
					<path class="st4" d="M152.9-89.5c4.5,3.8,10.2,6.1,16,6.6c5.3,0.4,10.6-0.7,15.9-1.3c5.3-0.6,10.9-0.7,15.7,1.6"/>
				</g>
				<g>
					<g>
						<path class="st4" d="M3.5-108.3c33.1,7,39.3,1.3,50.8,3.8c11.5,2.5,17.4,8.4,17.4,8.4"/>
						<path class="st4" d="M37.6-99.9c4.9,6.8,33.1,5.8,42.2,7"/>
					</g>
					<path class="st4" d="M58.6-107.1c14.6,5,17.7,12.6,34,14.5"/>
					<path class="st4" d="M69.4-89.1c9.9,1,36.9-1.6,47.6,0.8"/>
					<path class="st4" d="M96.7-85c13.6-0.2,37.5,5.2,37.5,5.2"/>
					<path class="st4" d="M70.2-107.8c10.4,2.7,19,10.6,29.6,12.6c3,0.6,6,0.6,9.1,0.8c11.1,0.6,22,2.4,32.7,5.4"/>
					<path class="st4" d="M87.1-108.7c4.6,3.2,10.1,4.5,15.6,5.7l24.8,5.6"/>
				</g>
				<path class="st4" d="M187.7-136.3c17.8,3.2,35.3,8.5,51.9,15.6"/>
				<g>
					<path class="st4" d="M107.7-129.4c4.8,6.8,33.1,5.8,42.2,7"/>
					<path class="st4" d="M128.7-136.7c14.6,5,17.7,12.6,33.9,14.5"/>
					<path class="st4" d="M89.9-130.1c6.9,1.9,11.5,4.1,14.4,5.8c5.8,3.2,18.2,5.7,28.5,5.7"/>
					<path class="st4" d="M139.5-118.6c9.9,1,36.9-1.6,47.6,0.8"/>
					<path class="st4" d="M166.8-114.5c13.6-0.2,37.5,5.2,37.5,5.2"/>
					<path class="st4" d="M47.5-136.3c17.8,3.2,35.3,8.5,51.9,15.6"/>
					<path class="st4" d="M82.8-119.1c4.5,3.8,10.2,6.1,16,6.6c5.3,0.4,10.6-0.7,15.9-1.3s10.9-0.7,15.7,1.6"/>
					<path class="st4" d="M140.3-137.3c10.4,2.6,19,10.6,29.6,12.6c3,0.6,6,0.6,9.1,0.8c11.1,0.6,22,2.4,32.7,5.4"/>
				</g>
				<path class="st4" d="M0.1-137.3c10.4,2.6,19,10.6,29.6,12.6c3,0.6,6,0.6,9.1,0.8c11,0.5,22,2.4,32.7,5.4"/>
			</g>
		</g>
	</g>
</pattern>
<pattern  y="1553.6" width="225" height="150" patternUnits="userSpaceOnUse" id="SVGID_0000013135476979633149356" viewBox="44.7 -185.2 225 150" style="overflow:visible;">
	<g>
		<rect x="44.7" y="-185.2" class="st0" width="225" height="150"/>
		<g>
			<rect x="44.7" y="-185.2" class="st0" width="225" height="150"/>
			<g>
				<rect x="44.7" y="-185.2" class="st0" width="225" height="150"/>
				<path class="st1" d="M283.5-70.5c-10.6,2-18.6,4.2-29.2,6.2c-9.4,21.5-18.8,42.5-28.2,62.2L225,0c5.3-0.7,11.3-1.8,15.6-2.8
					c7.3-1.5,10.8-5.2,13.3-11c5.5-12.4,10.9-25.1,16.3-37.7c4.8,8.4,9.5,17.1,14.5,25.2c-8.6,1.7-18.5,3.4-27.1,5.1l0,0
					c0,8.5,6.2,13.4,15.3,12c14.8-2.2,41.4-7.1,41.4-7.1C303.2-35.9,292.9-52.6,283.5-70.5L283.5-70.5z"/>
				<path class="st1" d="M58.5-70.5c-10.6,2-18.6,4.2-29.2,6.2C19.9-42.8,10.5-21.8,1.1-2.1L0,0c5.3-0.7,11.3-1.8,15.6-2.8
					c7.3-1.5,10.8-5.2,13.3-11c5.5-12.4,10.9-25.1,16.3-37.7c4.8,8.4,9.5,17.1,14.5,25.2c-8.6,1.7-18.5,3.4-27.1,5.1l0,0
					c0,8.5,6.2,13.4,15.3,12c14.8-2.2,41.4-7.1,41.4-7.1C78.2-35.9,67.9-52.6,58.5-70.5L58.5-70.5z"/>
				<path class="st1" d="M283.5-220.5c-10.6,2-18.6,4.2-29.2,6.2c-9.4,21.5-18.8,42.5-28.2,62.2L225-150c5.3-0.7,11.3-1.8,15.6-2.8
					c7.3-1.5,10.8-5.2,13.3-11c5.5-12.5,10.9-25.1,16.3-37.7c4.8,8.4,9.5,17.1,14.5,25.2c-8.6,1.7-18.5,3.4-27.1,5.1l0,0
					c0,8.5,6.2,13.4,15.3,12c14.8-2.2,41.4-7.1,41.4-7.1C303.2-185.9,292.9-202.6,283.5-220.5L283.5-220.5z"/>
				<path class="st1" d="M171-145.5c-10.6,2-18.6,4.2-29.2,6.2c-9.4,21.5-18.8,42.5-28.2,62.2l-1.1,2.1c5.3-0.7,11.3-1.8,15.6-2.8
					c7.3-1.5,10.8-5.2,13.3-11c5.5-12.4,10.9-25.1,16.3-37.7c4.8,8.4,9.5,17.1,14.5,25.2c-8.6,1.7-18.5,3.4-27.1,5.1l0,0
					c0,8.5,6.2,13.4,15.3,12c14.8-2.2,41.4-7.1,41.4-7.1C190.7-110.9,180.4-127.6,171-145.5L171-145.5z"/>
				<path class="st1" d="M58.5-220.5c-10.6,2-18.6,4.2-29.2,6.2c-9.4,21.5-18.8,42.6-28.2,62.2L0-150c5.3-0.7,11.3-1.8,15.6-2.8
					c7.3-1.5,10.8-5.2,13.3-11c5.4-12.5,10.9-25.1,16.3-37.7c4.8,8.4,9.5,17.1,14.5,25.2c-8.6,1.7-18.5,3.4-27.1,5.1l0,0
					c0,8.5,6.2,13.4,15.3,12c14.8-2.2,41.4-7.1,41.4-7.1C78.2-185.9,67.9-202.6,58.5-220.5z"/>
			</g>
		</g>
	</g>
</pattern>
<g>
	<g id="a">
	</g>
	<g id="b">
	</g>
	<g id="c">
	</g>
	<g id="d">
	</g>
	<g id="e">
	</g>
	<g id="f">
	</g>
	<g id="g">
	</g>
	<g id="h">
	</g>
	<g id="i">
	</g>
	<g id="j">
	</g>
	<g id="k">
		<g>
			<g>
				<polyline class="st6" points="811,1345.6 977.4,1249.9 1053.1,1205.3 1313.5,1053.3 1346.6,1005.5 1097.2,1148.6 1020.5,1194.2 
					854.2,1290.2 				"/>
				<polyline class="st6" points="836.1,1313.7 1002,1218 1078.5,1172.6 1334.1,1023.5 				"/>
			</g>
			<g>
				<polyline class="st6" points="716.7,1292.5 883.2,1196.8 958.8,1152.1 1219.3,1000.1 1252.3,952.4 1003,1095.5 926.2,1141.1 
					759.9,1237.1 				"/>
				<polyline class="st6" points="741.9,1260.6 907.8,1164.9 984.2,1119.5 1239.4,970.7 				"/>
			</g>
			<g>
				<polyline class="st6" points="627.4,1237.6 793.9,1141.9 865.1,1101.4 1032.4,1005.1 1073.7,952.7 909.3,1044.8 836.9,1086.2 
					670.6,1182.2 				"/>
				<polyline class="st6" points="652.6,1205.7 818.5,1110 890.5,1068.8 1058.2,972.3 				"/>
			</g>
			<g>
				<polyline class="st6" points="534.8,1184.2 703.9,1087 942.9,952 984.1,899.5 819.7,991.6 747.8,1030.7 578,1128.8 				"/>
				<polyline class="st6" points="559.9,1152.3 728.5,1055.1 800.9,1015.7 968.6,919.2 				"/>
			</g>
			<g>
				<polyline class="st6" points="441.1,1130.3 847.1,900.7 888.3,848.2 484.3,1074.9 				"/>
				<line class="st7" x1="466.3" y1="1098.4" x2="872.9" y2="867.9"/>
			</g>
			<g>
				<polyline class="st6" points="348.9,1077.6 755.1,845.7 796.3,793.2 631.9,885.3 392.1,1022.2 				"/>
				<polyline class="st6" points="374.1,1045.6 542.7,948.4 613.1,909.4 780.8,812.9 				"/>
			</g>
			<g>
				<polyline class="st6" points="257.3,1024.1 426.4,926.9 654.1,802.4 695.3,750 300.5,968.7 				"/>
				<line class="st7" x1="282.5" y1="992.2" x2="679.9" y2="769.7"/>
			</g>
			<g>
				<polyline class="st6" points="167,971.5 336.1,874.3 401.6,835.7 569,739.4 610.2,687 445.8,779 380.1,818 210.2,916.1 				"/>
				<polyline class="st6" points="192.2,939.6 360.8,842.4 427,803.1 594.7,706.6 				"/>
			</g>
			<g>
				<g>
					<line class="st8" x1="856.3" y1="1303.7" x2="856.3" y2="1298.4"/>
					<polygon class="st9" points="1301,1038.7 1209.6,986.5 764.3,1246.6 764.3,1252.3 764.3,1252.5 856.5,1304.1 1301,1044.5 
						1301,1039.1 					"/>
					<line class="st8" x1="856.3" y1="1303.7" x2="856.3" y2="1298.4"/>
					<polyline class="st9" points="764.6,1247 856.5,1298.4 1300.8,1038.8 					"/>
				</g>
				<g>
					<line class="st8" x1="757.6" y1="1247.2" x2="757.6" y2="1242"/>
					<polygon class="st9" points="1202.2,982.3 1110.8,930.1 665.6,1190.2 665.6,1195.8 665.6,1196.1 757.8,1247.7 1202.2,988.1 
						1202.2,982.7 					"/>
					<line class="st8" x1="757.6" y1="1247.2" x2="757.6" y2="1242"/>
					<polyline class="st9" points="665.9,1190.6 757.8,1242 1202,982.4 					"/>
				</g>
				<g>
					<line class="st8" x1="658.8" y1="1190.8" x2="658.8" y2="1185.6"/>
					<polygon class="st9" points="1103.5,925.8 1012.1,873.7 566.8,1133.8 566.8,1139.4 566.8,1139.7 659,1191.3 1103.5,931.7 
						1103.5,926.3 					"/>
					<line class="st8" x1="658.8" y1="1190.8" x2="658.8" y2="1185.6"/>
					<polyline class="st9" points="567.1,1134.2 659,1185.6 1103.3,926 					"/>
				</g>
				<g>
					<line class="st8" x1="560.1" y1="1134.4" x2="560.1" y2="1129.2"/>
					<polygon class="st9" points="1004.7,869.5 913.3,817.3 468.1,1077.4 468.1,1083 468.1,1083.3 560.2,1134.9 1004.7,875.3 
						1004.7,869.8 					"/>
					<line class="st8" x1="560.1" y1="1134.4" x2="560.1" y2="1129.2"/>
					<polyline class="st9" points="468.4,1077.8 560.2,1129.2 1004.5,869.6 					"/>
				</g>
				<g>
					<line class="st8" x1="461.3" y1="1078" x2="461.3" y2="1072.8"/>
					<polygon class="st9" points="906,813 814.6,760.9 369.3,1021 369.3,1026.6 369.3,1026.8 461.5,1078.5 906,818.9 906,813.5 
											"/>
					<line class="st8" x1="461.3" y1="1078" x2="461.3" y2="1072.8"/>
					<polyline class="st9" points="369.6,1021.3 461.5,1072.8 905.8,813.2 					"/>
				</g>
				<g>
					<line class="st8" x1="362.6" y1="1021.6" x2="362.6" y2="1016.4"/>
					<polygon class="st9" points="807.2,756.6 715.8,704.5 270.6,964.5 270.6,970.2 270.6,970.4 362.8,1022.1 807.2,762.5 
						807.2,757 					"/>
					<line class="st8" x1="362.6" y1="1021.6" x2="362.6" y2="1016.4"/>
					<polyline class="st9" points="270.9,964.9 362.8,1016.4 807,756.8 					"/>
				</g>
				<g>
					<line class="st8" x1="263.8" y1="965.2" x2="263.8" y2="960"/>
					<polygon class="st9" points="708.5,700.2 617.1,648.1 171.8,908.1 171.8,913.8 171.8,914 264,965.7 708.5,706.1 708.5,700.6 
											"/>
					<line class="st8" x1="263.8" y1="965.2" x2="263.8" y2="960"/>
					<polyline class="st9" points="172.1,908.5 264,960 708.3,700.4 					"/>
				</g>
			</g>
			<g>
				<g>
					<g>
						<polyline class="st10" points="754.2,644.5 768.6,637.5 1513.9,1068.5 1500.8,1075.7 						"/>
						<line class="st8" x1="754.2" y1="644.5" x2="1500.8" y2="1075.7"/>
						<polyline class="st10" points="1513.9,1068.5 1500.8,1075.7 1500.8,1106.4 1513.9,1098.7 1513.9,1068.5 						"/>
					</g>
					<polygon class="st10" points="754.2,644.5 754.2,673.8 1500.8,1106.4 1500.8,1075.7 					"/>
				</g>
				<g>
					<polygon class="st6" points="462.2,600.4 765.3,681.7 765.3,650.9 461.6,567.1 					"/>
					<polygon class="st6" points="765.3,650.9 754.3,644.6 449.8,560.2 461.6,567.1 					"/>
				</g>
				<g>
					<polyline class="st6" points="684.7,655.1 710.7,640.1 698.3,632.8 667.5,650.3 708,661.5 731.5,648.3 710.7,640.1 					"/>
					<polyline class="st7" points="731.5,648.3 710.7,636.2 698.3,632.8 					"/>
				</g>
				<g>
					<polyline class="st6" points="535.6,610.5 557.6,597.8 545.4,590.7 523.1,603.5 547.4,616.9 555.2,618.8 577.8,605.8 
						557.6,597.8 					"/>
					<polyline class="st6" points="545.4,590.7 558.8,594.4 577.8,605.8 					"/>
				</g>
				<g>
					<polygon class="st6" points="557.6,656 860.7,737.2 860.7,706.4 557,622.7 					"/>
					<polygon class="st6" points="860.7,706.4 849.7,700.1 545.2,615.8 557,622.7 					"/>
				</g>
				<g>
					<polyline class="st6" points="788.6,710.7 812.3,697 801,690.4 772.9,706.4 809.8,716.6 831.2,704.5 812.3,697 					"/>
					<polyline class="st7" points="831.2,704.5 812.3,693.5 801,690.4 					"/>
				</g>
				<g>
					<polyline class="st6" points="625.1,662.9 645.6,651.1 634.2,644.5 613.5,656.5 636.1,668.9 643.4,670.7 664.5,658.6 
						645.6,651.1 					"/>
					<polyline class="st6" points="634.2,644.5 646.7,647.9 664.5,658.6 					"/>
				</g>
				<g>
					<polygon class="st6" points="645.2,706.9 948.3,788.2 948.3,757.4 644.6,673.6 					"/>
					<polygon class="st6" points="948.3,757.4 937.3,751.1 632.8,666.7 644.6,673.6 					"/>
				</g>
				<g>
					<polyline class="st6" points="873.5,760.5 897.2,746.8 885.9,740.1 857.8,756.1 894.8,766.3 916.1,754.2 897.2,746.8 					"/>
					<polyline class="st7" points="916.1,754.2 897.2,743.2 885.9,740.1 					"/>
				</g>
				<g>
					<polyline class="st6" points="714.6,714 735,702.2 723.7,695.6 702.9,707.6 725.5,720 732.9,721.8 753.9,709.7 735,702.2 					
						"/>
					<polyline class="st6" points="723.7,695.6 736.2,699 753.9,709.7 					"/>
				</g>
				<g>
					<polygon class="st6" points="736.8,759.3 1039.9,840.6 1039.9,809.8 736.2,726 					"/>
					<polygon class="st6" points="1039.9,809.8 1028.9,803.5 724.4,719.1 736.2,726 					"/>
				</g>
				<g>
					<polyline class="st6" points="962.1,812.6 985.8,798.9 974.4,792.3 946.4,808.3 983.3,818.5 1004.6,806.4 985.8,798.9 					"/>
					<polyline class="st7" points="1004.6,806.4 985.8,795.4 974.4,792.3 					"/>
				</g>
				<g>
					<polyline class="st6" points="807,767.1 827.4,755.2 816.1,748.6 795.3,760.6 817.9,773 825.3,774.8 846.3,762.7 827.4,755.2 
											"/>
					<polyline class="st6" points="816.1,748.6 828.6,752.1 846.3,762.7 					"/>
				</g>
				<g>
					<polygon class="st6" points="829.9,812.9 1132.9,894.1 1132.9,863.3 829.2,779.6 					"/>
					<polygon class="st6" points="1132.9,863.3 1122,857 817.5,772.7 829.2,779.6 					"/>
				</g>
				<g>
					<polyline class="st6" points="1056.7,867.2 1080.4,853.5 1069,846.8 1041,862.8 1077.9,873.1 1099.2,861 1080.4,853.5 					"/>
					<polyline class="st7" points="1099.2,861 1080.4,850 1069,846.8 					"/>
				</g>
				<g>
					<polyline class="st6" points="903.9,822.2 924.4,810.4 913.1,803.7 892.3,815.7 914.9,828.1 922.3,830 943.3,817.8 
						924.4,810.4 					"/>
					<polyline class="st6" points="913.1,803.7 925.6,807.2 943.3,817.8 					"/>
				</g>
				<g>
					<polygon class="st6" points="923.7,867.3 1226.8,948.6 1226.8,917.8 923.1,834 					"/>
					<polygon class="st6" points="1226.8,917.8 1215.8,911.5 911.3,827.1 923.1,834 					"/>
				</g>
				<g>
					<polyline class="st6" points="1155.5,922.1 1179.2,908.4 1167.8,901.7 1139.8,917.7 1176.7,928 1198,915.9 1179.2,908.4 					
						"/>
					<polyline class="st7" points="1198,915.9 1179.2,904.9 1167.8,901.7 					"/>
				</g>
				<g>
					<polyline class="st6" points="992.7,874.8 1013.2,863 1001.9,856.4 981.1,868.4 1003.7,880.8 1011.1,882.6 1032.1,870.5 
						1013.2,863 					"/>
					<polyline class="st6" points="1001.9,856.4 1014.4,859.8 1032.1,870.5 					"/>
				</g>
				<g>
					<polygon class="st6" points="1014.3,919.5 1317.3,1000.8 1317.3,970 1013.7,886.2 					"/>
					<polygon class="st6" points="1317.3,970 1306.4,963.7 1001.9,879.3 1013.7,886.2 					"/>
				</g>
				<g>
					<polyline class="st6" points="1246,974.6 1269.7,960.9 1258.3,954.3 1230.3,970.3 1267.2,980.5 1288.5,968.4 1269.7,960.9 
											"/>
					<polyline class="st7" points="1288.5,968.4 1269.7,957.4 1258.3,954.3 					"/>
				</g>
				<g>
					<polyline class="st6" points="1085.8,927.3 1106.3,915.5 1095,908.8 1074.2,920.8 1096.8,933.2 1104.1,935 1125.2,922.9 
						1106.3,915.5 					"/>
					<polyline class="st6" points="1095,908.8 1107.5,912.3 1125.2,922.9 					"/>
				</g>
				<g>
					<polygon class="st6" points="1106.5,972.5 1409.5,1053.7 1409.5,1022.9 1105.9,939.2 					"/>
					<polygon class="st6" points="1409.5,1022.9 1398.6,1016.6 1094.1,932.3 1105.9,939.2 					"/>
				</g>
				<g>
					<polyline class="st6" points="1334.7,1026.2 1358.4,1012.5 1347,1005.9 1319,1021.9 1355.9,1032.1 1377.3,1020 1358.4,1012.5 
											"/>
					<polyline class="st7" points="1377.3,1020 1358.4,1009 1347,1005.9 					"/>
				</g>
				<g>
					<polyline class="st6" points="1178.7,981.5 1199.1,969.7 1187.8,963 1167.8,974.5 1189.6,987.4 1197,989.2 1218,977.1 
						1199.1,969.7 					"/>
					<polyline class="st6" points="1187.8,963 1200.3,966.5 1218,977.1 					"/>
				</g>
				<g>
					<polygon class="st6" points="1197.7,1025.2 1500.8,1106.4 1500.8,1075.7 1197.1,991.9 					"/>
					<polygon class="st6" points="1500.8,1075.7 1489.8,1069.3 1185.3,985 1197.1,991.9 					"/>
				</g>
				<g>
					<polygon class="st11" points="1197.8,991.9 1197.7,991.5 450.2,559.7 449.6,559.7 439.8,564.8 439.8,565.3 439.5,565.3 
						439.5,598.6 439.8,599.1 1189.2,1031.2 1189.8,1031.2 1197.8,1025.8 1198,1025.3 1198,991.9 					"/>
					<g>
						<polyline class="st6" points="975.5,907.3 912.9,871.3 514.5,641.5 451.9,605.4 						"/>
						<line class="st7" x1="1067.7" y1="960.5" x2="1004.9" y2="924.3"/>
						<line class="st7" x1="1159.8" y1="1013.6" x2="1097.3" y2="977.6"/>
						<polyline class="st6" points="1197.4,991.9 1197.4,1025.3 1189.5,1030.7 						"/>
						<polygon class="st6" points="449.9,560.2 440.1,565.3 1189.5,997.4 1197.4,992 						"/>
					</g>
				</g>
				<polyline class="st6" points="92,1068.4 451.7,605.3 451.7,576.5 451.7,571.9 439.9,565.1 80.1,1031 92,1038.1 92,1068.4 				
					"/>
				<line class="st7" x1="92.1" y1="1038.1" x2="451.8" y2="571.9"/>
				<g>
					<polyline class="st6" points="336.6,742.5 360.8,711.3 349.3,704.7 325.2,735.9 336.5,742.5 336.6,742.5 512.9,641 
						486.3,625.7 349.5,704.7 					"/>
					<line class="st7" x1="360.8" y1="711.3" x2="498.1" y2="632"/>
				</g>
				<g>
					<polygon class="st11" points="211.5,915.5 209.1,919.9 208.1,920.4 195.1,937.5 193.1,938.5 192.6,938.9 193.1,939.7 
						171.5,968.4 168.5,970.2 154.4,978.8 142.9,972.3 167.3,940.7 					"/>
					<polyline class="st7" points="168.8,970.6 154.4,978.8 154.4,978.8 142.9,972.3 167.3,940.7 167.4,940.8 211.5,915.5 					"/>
					<polyline class="st7" points="154.4,978.8 178.8,947.4 167.3,940.7 					"/>
					<line class="st7" x1="178.8" y1="947.4" x2="192.9" y2="939.3"/>
				</g>
				<polyline class="st6" points="182.4,1121 542.2,658 542.2,629.2 542.2,624.6 530.3,617.7 170.6,1083.6 182.4,1090.7 182.4,1121 
									"/>
				<line class="st7" x1="182.5" y1="1090.7" x2="542.3" y2="624.6"/>
				<g>
					<polyline class="st6" points="426.5,796.1 450.9,764.7 439.4,758 415.1,789.5 426.5,796.1 426.5,796.1 604.4,693.7 
						577.7,678.3 439.5,758 					"/>
					<line class="st7" x1="450.9" y1="764.7" x2="589.5" y2="684.7"/>
				</g>
				<g>
					<polygon class="st11" points="308.1,773.7 318.8,780 379.5,815.1 383.3,810.1 396,817.7 396,824.4 402,828.1 485.6,876.5 
						505.4,849 321.4,743.2 303.8,763.8 					"/>
					<g>
						<line class="st7" x1="493" y1="842.1" x2="320.6" y2="742.5"/>
						<g>
							<polyline class="st7" points="476.2,863.5 303.8,763.8 308.1,773.7 378.5,814.3 							"/>
							<polyline class="st7" points="396,816.9 396,824.1 396,824.4 472.3,868.5 							"/>
						</g>
					</g>
				</g>
				<g>
					<polyline class="st6" points="366.4,1226.8 726.1,763.8 726.1,735 726.1,730.4 714.3,723.5 354.5,1189.4 366.4,1196.5 
						366.4,1226.8 					"/>
					<line class="st7" x1="366.5" y1="1196.5" x2="726.2" y2="730.4"/>
				</g>
				<g>
					<polygon class="st11" points="486,1073.9 483.7,1078.4 482.6,1078.9 469.6,1095.9 467.7,1097 467.1,1097.3 467.6,1098.2 
						446,1126.9 443.1,1128.6 428.9,1137.3 417.5,1130.7 441.8,1099.2 					"/>
					<polyline class="st7" points="443.3,1129 428.9,1137.3 428.9,1137.3 417.5,1130.7 441.8,1099.2 441.9,1099.2 486,1073.9 					
						"/>
					<polyline class="st7" points="428.9,1137.3 453.3,1105.9 441.8,1099.2 					"/>
					<line class="st7" x1="453.3" y1="1105.9" x2="467.4" y2="1097.8"/>
				</g>
				<g>
					<polyline class="st6" points="610.2,902.6 634.6,871.1 623,864.4 598.7,896 610.2,902.6 610.2,902.6 788.8,799.7 762.1,784.3 
						623.2,864.5 					"/>
					<line class="st7" x1="634.6" y1="871.1" x2="773.1" y2="791.1"/>
				</g>
				<g>
					<polyline class="st6" points="274,1174 633.8,711 633.8,682.2 633.8,677.6 621.9,670.7 262.2,1136.6 274,1143.7 274,1174 					
						"/>
					<line class="st7" x1="274.1" y1="1143.7" x2="633.9" y2="677.6"/>
				</g>
				<g>
					<polygon class="st11" points="393.7,1021.2 391.4,1025.6 390.3,1026.1 377.3,1043.2 375.4,1044.2 374.9,1044.6 375.4,1045.4 
						353.7,1074.2 350.8,1075.9 336.6,1084.6 325.2,1078 349.5,1046.4 					"/>
					<polyline class="st7" points="351.1,1076.3 336.7,1084.6 336.6,1084.6 325.2,1078 349.5,1046.4 349.7,1046.5 393.7,1021.2 
											"/>
					<polyline class="st7" points="336.7,1084.6 361.1,1053.1 349.5,1046.4 					"/>
					<line class="st7" x1="361.1" y1="1053.1" x2="375.1" y2="1045"/>
				</g>
				<g>
					<polygon class="st11" points="302.1,967.8 299.8,972.2 298.7,972.7 285.7,989.8 283.8,990.9 283.3,991.2 283.8,992 
						262.1,1020.8 259.2,1022.5 245,1031.2 233.6,1024.6 257.9,993.1 					"/>
					<polyline class="st7" points="259.5,1022.9 245.1,1031.2 245,1031.2 233.6,1024.6 257.9,993.1 258.1,993.1 302.1,967.8 					
						"/>
					<polyline class="st7" points="245.1,1031.2 269.5,999.7 257.9,993.1 					"/>
					<line class="st7" x1="269.5" y1="999.7" x2="283.5" y2="991.6"/>
				</g>
				<g>
					<polyline class="st6" points="459.7,1280.8 819.5,817.8 819.5,789 819.5,784.4 807.7,777.6 447.9,1243.4 459.7,1250.5 
						459.7,1280.8 					"/>
					<line class="st7" x1="459.8" y1="1250.5" x2="819.6" y2="784.4"/>
				</g>
				<g>
					<polygon class="st11" points="579.1,1128.2 576.8,1132.6 575.7,1133.1 562.7,1150.2 560.8,1151.2 560.2,1151.6 560.7,1152.4 
						539.1,1181.1 536.1,1182.8 522,1191.5 510.6,1184.9 534.9,1153.4 					"/>
					<polyline class="st7" points="536.4,1183.2 522,1191.5 522,1191.5 510.6,1184.9 534.9,1153.4 535,1153.5 579.1,1128.2 					"/>
					<polyline class="st7" points="522,1191.5 546.4,1160.1 534.9,1153.4 					"/>
					<line class="st7" x1="546.4" y1="1160.1" x2="560.5" y2="1152"/>
				</g>
				<g>
					<polyline class="st6" points="702,958.5 726.8,926.5 715.1,919.7 690.3,951.8 701.9,958.5 702,958.5 882.7,854.4 855.5,838.7 
						715.2,919.8 					"/>
					<line class="st7" x1="726.8" y1="926.5" x2="867.6" y2="845.2"/>
				</g>
				<g>
					<polyline class="st6" points="552.2,1334.8 912,871.7 912,842.9 912,838.3 900.2,831.5 540.4,1297.3 552.2,1304.4 
						552.2,1334.8 					"/>
					<line class="st7" x1="552.3" y1="1304.4" x2="912.1" y2="838.3"/>
				</g>
				<g>
					<polygon class="st11" points="671.9,1181.5 669.6,1185.9 668.5,1186.4 655.5,1203.5 653.6,1204.6 653.1,1204.9 653.5,1205.8 
						631.9,1234.5 629,1236.2 614.8,1244.9 603.4,1238.3 627.7,1206.8 					"/>
					<polyline class="st7" points="629.2,1236.6 614.8,1244.9 614.8,1244.9 603.4,1238.3 627.7,1206.8 627.9,1206.8 671.9,1181.5 
											"/>
					<polyline class="st7" points="614.8,1244.9 639.2,1213.4 627.7,1206.8 					"/>
					<line class="st7" x1="639.2" y1="1213.4" x2="653.3" y2="1205.3"/>
				</g>
				<g>
					<polyline class="st6" points="795.7,1009.1 820.1,977.7 808.6,971 784.3,1002.5 795.7,1009.1 795.7,1009.1 973.6,906.7 
						946.9,891.3 808.8,971 					"/>
					<line class="st7" x1="820.1" y1="977.7" x2="958.7" y2="897.7"/>
				</g>
				<g>
					<g>
						<g>
							<g>
								<polygon class="st11" points="683.5,1135.1 683.5,1136.1 682.3,1135.4 682.3,1135.1 								"/>
								<polygon class="st11" points="750,1081.9 749.3,1083 747.9,1082.1 749.9,1081.9 								"/>
								<polygon class="st11" points="763.1,1181.1 763.1,1181.9 763,1182 762.5,1181.7 761.8,1181.3 761.8,1181.1 								"/>
								<polygon class="st11" points="778.9,1100 777.7,1099.4 778.3,1098.3 778.6,1098.4 								"/>
								<polygon class="st11" points="812.1,1117.9 812.1,1118.4 810.9,1120 810.9,1117.9 								"/>
							</g>
							<polygon class="st11" points="763.1,1181.1 763.1,1181.9 763,1182 762.5,1181.7 761.8,1181.3 761.8,1181.1 							"/>
							<g>
								<polygon class="st11" points="683.5,1135.1 683.5,1136.1 682.3,1135.4 682.3,1135.1 								"/>
								<polygon class="st11" points="812.1,1117.9 812.1,1118.4 810.9,1120 810.9,1117.9 								"/>
							</g>
						</g>
						<g>
							<g>
								<g>
									<polygon class="st11" points="750.1,1137.4 749.5,1137.4 748.7,1137 748.7,1136.9 749,1136.8 749.8,1136.6 749.9,1136.8 
																			"/>
									<polygon class="st11" points="757.9,1161.8 757.3,1162 756.8,1162.2 756.2,1160.6 757.3,1161.2 757.4,1160.3 757.7,1161.2 
																			"/>
								</g>
								<g>
									<polygon class="st11" points="727.9,1123.2 727.9,1123.5 727.3,1123.5 727.6,1123 727.7,1123 									"/>
									<polygon class="st11" points="750.3,1136.8 749.9,1136.8 750.1,1137.4 749.5,1137.4 748.7,1137 748.7,1136.9 749,1136.8 
										749,1135.8 749.8,1136.2 750.3,1136.2 									"/>
									<polygon class="st11" points="763.1,1134.9 763.1,1136.7 762.9,1136.8 762.7,1137 761.7,1137.1 761.8,1136.4 761.8,1135.8 
										762.2,1135.8 									"/>
								</g>
							</g>
							<g>
								<polygon class="st11" points="758.7,1159.9 758.3,1162.2 757.3,1162 757.1,1162 757.3,1161.2 757.4,1160.3 757.7,1161.2 
																	"/>
								<polygon class="st11" points="763,1136.5 763,1136.7 763,1136.8 762.9,1136.8 762.7,1137 761.7,1137.1 761.8,1136.4 
									761.9,1136.3 								"/>
							</g>
							<g>
								<polygon class="st11" points="758.7,1159.9 758.3,1162.2 757.3,1162 756.8,1162.2 756.2,1160.6 757.3,1161.2 757.6,1161.3 
									757.7,1161.2 								"/>
								<polygon class="st11" points="780.9,1110.6 780.9,1110.9 780.8,1111 780.5,1110.6 								"/>
							</g>
							<polygon class="st11" points="727.9,1123.3 727.9,1123.5 727.3,1123.5 727.6,1123 727.7,1123 							"/>
							<g>
								<polygon class="st11" points="750.3,1136.2 750.3,1136.8 749,1136.8 749,1135.8 749.8,1136.2 								"/>
								<polygon class="st11" points="763.1,1134.9 763.1,1136.8 761.8,1136.8 761.8,1135.8 762.2,1135.8 								"/>
							</g>
							<polygon class="st11" points="780.9,1110.6 780.9,1110.9 780.8,1111 780.5,1110.6 							"/>
							<path class="st11" d="M749.9,1081.9L749.9,1081.9 M778.6,1098.5l-0.2-0.1 M780.5,1110.6l0.2,0.4l0.2-0.2v-0.2L780.5,1110.6
								L780.5,1110.6z"/>
							<g>
								<path class="st11" d="M778.6,1098.4L778.6,1098.4l-28.7-16.6l0.1,0.1l-0.1-0.1l-18.5-10.7l-49.4,64l0.3,15.5l80.3,46.3
									l0.5,0.2l49-63.4l0.1-0.2l0.3-15.7L778.6,1098.4L778.6,1098.4z M727.6,1123L727.6,1123l0.3,0.2v0.3h-0.6L727.6,1123
									L727.6,1123z M750.3,1136.8H750l0.2,0.6h-0.6l-0.8-0.5l0,0l0.3-0.1v-1.1l0.8,0.5h0.5L750.3,1136.8L750.3,1136.8z
									 M758.3,1162.2l-1-0.2l-0.6,0.2l-0.5-1.6l1,0.6l0.2-0.8l0.3,0.8l1-1.3L758.3,1162.2L758.3,1162.2z M763.1,1181.9
									L763.1,1181.9l-0.5-0.2l-0.7-0.4v-0.2h1.2V1181.9L763.1,1181.9z M763.1,1136.8L763.1,1136.8l-0.3,0.2h-1l0.1-0.7v-0.6h0.3
									l0.9-0.9V1136.8L763.1,1136.8z M780.8,1111l-0.2-0.4h0.4v0.2L780.8,1111L780.8,1111z"/>
								<polygon class="st11" points="727.9,1123.2 727.9,1123.5 727.3,1123.5 727.6,1123 727.7,1123 								"/>
							</g>
						</g>
					</g>
					<g>
						<polygon class="st12" points="749.7,1082.4 731.6,1072 682.9,1135.1 762.9,1181.2 811.5,1118.2 778,1098.8 						"/>
						<line class="st12" x1="762.5" y1="1181.2" x2="762.5" y2="1196.4"/>
						<polyline class="st12" points="811.5,1117.9 811.5,1133.2 811.5,1133.5 762.9,1196.5 682.9,1150.3 682.9,1135.1 						"/>
					</g>
				</g>
				<g>
					<g>
						<polygon class="st11" points="753.8,1419.9 1097.3,977.6 1085.4,937.6 725.7,1403.7 						"/>
						<line class="st7" x1="948.3" y1="1136.6" x2="737.2" y2="1410.3"/>
					</g>
					<polyline class="st7" points="953,1108.4 1085.1,937.4 1096.9,944.2 964.9,1115.3 					"/>
					<line class="st7" x1="725.3" y1="1403.2" x2="936.4" y2="1129.8"/>
					<polyline class="st6" points="961.6,1151.8 854,1290.2 811,1345.7 753.4,1419.8 					"/>
					<polyline class="st7" points="1096.9,944.2 1096.9,977.6 1051.4,1036.2 1008,1092.1 982.2,1125.3 					"/>
				</g>
				<g>
					<polygon class="st11" points="854.7,1290 852.4,1294.4 851.3,1294.9 838.3,1312 836.4,1313.1 835.9,1313.4 836.3,1314.2 
						814.7,1342.9 811.8,1344.7 797.6,1353.3 786.2,1346.8 810.5,1315.2 					"/>
					<polyline class="st7" points="812.1,1345.1 797.7,1353.3 797.6,1353.3 786.2,1346.8 810.5,1315.2 810.7,1315.3 854.7,1290 
											"/>
					<polyline class="st7" points="797.7,1353.3 822.1,1321.9 810.5,1315.2 					"/>
					<line class="st7" x1="822.1" y1="1321.9" x2="836.1" y2="1313.8"/>
				</g>
				<g>
					<polyline class="st6" points="981.3,1115.7 1005.7,1084.2 994.2,1077.5 969.8,1109.1 981.2,1115.7 981.3,1115.7 1159.2,1013.2 
						1132.4,997.8 994.3,1077.6 					"/>
					<line class="st7" x1="1005.7" y1="1084.2" x2="1144.2" y2="1004.2"/>
				</g>
				<g>
					<polyline class="st6" points="644.8,1387.1 1004.5,924.1 1004.5,895.3 1004.5,890.7 992.7,883.8 632.9,1349.7 644.8,1356.8 
						644.8,1387.1 					"/>
					<line class="st7" x1="644.8" y1="1356.8" x2="1004.6" y2="890.7"/>
				</g>
				<g>
					<polygon class="st11" points="763.8,1234.8 761.5,1239.3 760.4,1239.8 747.4,1256.8 745.5,1257.9 745,1258.2 745.5,1259.1 
						723.8,1287.8 720.9,1289.5 706.7,1298.2 695.3,1291.6 719.6,1260.1 					"/>
					<polyline class="st7" points="721.2,1289.9 706.8,1298.2 706.7,1298.2 695.3,1291.6 719.6,1260.1 719.8,1260.2 763.8,1234.8 
											"/>
					<polyline class="st7" points="706.8,1298.2 731.2,1266.8 719.6,1260.1 					"/>
					<line class="st7" x1="731.2" y1="1266.8" x2="745.2" y2="1258.7"/>
				</g>
				<g>
					<polygon class="st11" points="860.5,1093.4 871.1,1099.7 931.8,1134.8 935.7,1129.8 948.3,1137.4 948.3,1144.1 954.3,1147.9 
						1037.9,1196.2 1057.8,1168.8 873.8,1062.9 856.2,1083.6 					"/>
					<g>
						<line class="st7" x1="1045.3" y1="1161.8" x2="872.9" y2="1062.2"/>
						<g>
							<polyline class="st7" points="1028.5,1183.2 856.2,1083.6 860.5,1093.4 932.4,1134.9 							"/>
							<polyline class="st7" points="948.3,1136.6 948.3,1143.8 948.3,1144.1 1024.6,1188.2 							"/>
						</g>
					</g>
				</g>
				<g>
					<polyline class="st6" points="829.6,1493.9 1189.3,1030.8 1189.3,1002 1189.3,997.4 1177.5,990.6 817.7,1456.5 829.6,1463.5 
						829.6,1493.9 					"/>
					<line class="st7" x1="829.7" y1="1463.5" x2="1189.4" y2="997.4"/>
				</g>
				<g>
					<polygon class="st6" points="817,1500.8 829.7,1493.9 829.6,1463.5 80.3,1031.4 66.9,1038.3 97.5,1056.4 816.5,1472.2 					"/>
					<polygon class="st6" points="66.9,1038.3 80.3,1046 816.5,1472.2 817.3,1501 66.9,1068.6 66.9,1038.3 80.3,1031.2 					"/>
				</g>
				<line class="st7" x1="816.5" y1="1472.2" x2="829.6" y2="1463.5"/>
				<g>
					<polyline class="st6" points="518.6,848.8 543,817.3 531.5,810.7 507.2,842.2 518.6,848.8 518.6,848.8 696.5,746.4 669.7,731 
						531.6,810.7 					"/>
					<line class="st7" x1="543" y1="817.3" x2="681.6" y2="737.3"/>
				</g>
				<g>
					<polyline class="st6" points="889.8,1063.1 914.2,1031.7 901.6,1024.9 877.1,1056.4 889.7,1063.1 889.8,1063.1 1067.7,960.7 
						1040.9,945.3 901.6,1024.9 					"/>
					<line class="st7" x1="914.2" y1="1031.7" x2="1052.7" y2="951.7"/>
				</g>
			</g>
			<g>
				
					<radialGradient id="SVGID_1_" cx="790.45" cy="524.1001" r="610.501" gradientTransform="matrix(1 0 0 -1 0 1554)" gradientUnits="userSpaceOnUse">
					<stop  offset="0.27" style="stop-color:#86B7CC"/>
					<stop  offset="0.34" style="stop-color:#8AB9CD;stop-opacity:0.96"/>
					<stop  offset="0.46" style="stop-color:#96C0D1;stop-opacity:0.86"/>
					<stop  offset="0.6" style="stop-color:#AACBD8;stop-opacity:0.68"/>
					<stop  offset="0.75" style="stop-color:#C5DBE2;stop-opacity:0.44"/>
					<stop  offset="0.93" style="stop-color:#E8EFEE;stop-opacity:0.14"/>
					<stop  offset="1" style="stop-color:#F8F8F4;stop-opacity:0"/>
				</radialGradient>
				<path class="st13" d="M1514.2,1067.7l-0.5,0.3L768.9,637.1l-14.4,6.9l0,0L449,559.3l1.7,1l0,0l1.7,1l0,0l0.7,0.4
					c-0.6-0.1-1.2-0.2-1.9-0.2c-0.2,0-0.5,0-0.7,0l-2.4-1.4l-8.6,4.5l-0.5-0.3l-0.5,0.3l0,0l-0.3-0.2l-0.1,0.1l0,0v0.6l0.1,0.1
					l-0.5,0.6L80.7,1030l11,6.6l0.3,0.2l0.1,0.1l0,0l0.4,0.2l-0.2,0.3v0.7l-1-0.6l-11.2-6.4l-12.4,6.3l0,0l12.5-6.6l-0.3-0.2
					l-13.3,6.7v0.6l0.5,0.3v29.2l749.4,432.2v0.6l0.5,0.3l0.3-0.2l0.5-0.3v-0.6l11.3-6.2v0.2l0.4,0.1l0.2-0.1v-0.2l0.5-0.7v-0.8
					l358.7-461l0.4,0.2l0.3-0.3v-0.3l-0.1-0.2l0.1-0.1l0.3-0.2l0.2-1v0.9l7.1-4.8l0.2,0.2l0.1,0.2l0.1-0.1l0.2-0.1l0.2,0.1l0.2-0.5
					l299.3,80.1l2.6,0.9l1-0.5l1-0.2l11.7-7.2v-29.1l0.5-0.3L1514.2,1067.7L1514.2,1067.7L1514.2,1067.7z M1168.1,901.2l12.2,3.6
					l18.1,10.6l-21.2,12.1l-37.1-10.4L1168.1,901.2L1168.1,901.2z M1109,911.9L1109,911.9l1.6,1l0,0l10.3,6.2l0,0l1.5,0.9l0,0l1.6,1
					l0,0l1.7,1l-0.1,0.1l0,0l0.1,0.8l-20.1,11.5l-0.6,0.3l-0.4,0.2h-0.4l-1.2-0.3l-4.3-1.1l-3.4-0.7l-21-12.1l-0.1-0.1v-0.9l0.2-0.1
					l0.1-0.1l14.1-8.2l0.6-0.3l0.6-0.3l4.2-2.4l0,0l0.6-0.3l0.2-0.1h0.4l0,0l12.6,3.5L1109,911.9L1109,911.9z M1041.1,861.8
					l19.1-10.9l0.5-0.3l8.6-4.2l10.3,2.6l1,0.6l18.9,11l-10.6,6.5l-0.5,0.3l-9.1,5.2l-0.6,0.3l-0.2,0.1h-0.4l-36.9-10.2v-0.3
					L1041.1,861.8L1041.1,861.8L1041.1,861.8z M1067,960.5v0.9l-0.1,0.1l-0.8,0.5l-112,145.8l-0.3,0.4v0.1l0,0l-0.3,0.3l-63.3-36.6
					l11-15.6l-11.1,6.4l-9.5-5l-3.3-1.4l-0.1-0.1l-0.1-0.5v-0.2l24.5-31.5h0.1l0.1-0.1l0,0l0,0l1.1-0.7l43-24.5l0,0l57-74.2l0.4,0.2
					l0.4,0.2v-0.1l0.2-0.4l0.1-0.2l0.1-0.2l62.1,35.8l0.6,0.4v0.2H1067L1067,960.5z M749.7,1082.3L749.7,1082.3l-0.6-0.3l-0.4-0.2
					l-0.4-0.2h0.2l-0.1-0.1l0.6-0.8l0.1-0.1l62.4-80.3l-15,8.6l-0.2,0.1l-0.3-0.1l-10.3-6l-0.4-0.2l-0.5-0.3l-0.2-0.1l-0.2-0.7
					l24.3-31.5l0.3-0.1l0,0l47.2-27.3l54.5-71v-0.4l1-0.7l62.2,35.9l0.4,0.3l0.4,0.2l0.2,0.1l-0.5,0.9l-0.3-0.2l-0.1,0.1
					l-161.2,209.6l-1.5-0.2h0.4l0.2-0.3L749.7,1082.3L749.7,1082.3z M1016.3,860l6.2,3.7l1.5,0.9l1.5,0.9l6.8,4.1l0.2,0.2
					l-18.5,10.7l-0.6,0.3l0,0l-0.4,0.2l-0.2,0.1l-0.7,0.4h-0.4l-1.4-0.3l-4.8-1.2l0,0l-1-0.3l-21.8-12v-0.8l0.4-0.2l1-0.6l0.1-0.1
					l14.6-8.4l0.6-0.3l0.6-0.3l2.6-1.5l0.3-0.2h0.4l0,0l11.9,4L1016.3,860L1016.3,860z M946.5,807.2l19.3-11l0.5-0.3l0,0l8.4-4.1
					l0,0l0.5,0.3l11.2,2.6l0.5,0.3l0.5,0.3L1005,806l0.5,0.3l-10.9,6.1l-0.5,0.3l-9.3,5.3l0,0l-0.6,0.3l-0.3,0.2h-0.4l-36.9-10.2
					v-0.4L946.5,807.2L946.5,807.2L946.5,807.2z M917.6,803.8l8.5,2.4l8.2,4.9l0,0l1.5,0.9l0,0l1.5,0.9l0,0l6.4,3.8l-0.1,0.1
					l0.1,0.8l-20.2,11.6l0,0l-0.6,0.3l-0.2,0.1h-0.4l-5.5-1.4h0.1l-5.7-1.6l0.1-0.3l-19.1-11v-0.9l0.3-0.2l16-9.2l0.6-0.3l0.6-0.4
					l3.2-1.9h0.4l0,0l0,0l0,0l3.5,1L917.6,803.8L917.6,803.8z M859,755.2l26.7-15.4l0.5-0.3l0.5,0.3L898,743l0.5,0.3l0.5,0.3
					l17.4,10.2l-20,11.8l0,0l-0.6,0.3l-0.4,0.2H895L858,756l-0.1-0.5v-0.4L859,755.2L859,755.2z M846.9,762.6l-20,11.5l0,0l-0.6,0.3
					l-0.4,0.2h-0.4l-1.3-0.3l0,0l-1.6-0.4l0,0l-0.1-0.1l0,0l-3.8-0.9l-0.6-0.1l-21.7-12.7v-0.9l0.1-0.2l0.1-0.1l13.7-7.9l0,0
					l0.6-0.3l0.6-0.3l4.3-2.5l0.5-0.3h0.4l0,0l3.6,1l1.4,0.4l0.7,0.2l1.2,0.3l4.8,1.7l1.5,0.9l16.2,9.8L846.9,762.6L846.9,762.6z
					 M775.3,704.2l0.6-0.3l17-9.7l0.5-0.3l0.5,0.3l2.3-1.5l5-2.7l12,3.2l18.2,10.9l-17.3,10.4l0,0l-0.6,0.3l-0.6,0.3l-0.8,0.5h-0.4
					l-36.9-10.2l-0.1-0.9l0,0L775.3,704.2L775.3,704.2z M737.8,698.7l1.6,1l0,0l11.7,7l0,0l1.5,0.9l0,0l1.5,0.9l0,0l0.2,0.1h0.1
					l-0.1,0.1v0.8l-19.6,11.3l0,0l-0.6,0.4l-0.6,0.3l-0.2,0.1l-0.4,0.1l-1.8-0.4l-3.9-2.1l-0.5-0.1l-22.6-12.4v-0.9l0.3-0.2
					l-0.3,0.2l0.1-0.1l12.5-7.2l0.6-0.3l0.6-0.4l0,0l4.8-2.7l0,0l0.6-0.4l0,0l0.3-0.2h0.4l0,0l12.6,3.5L737.8,698.7L737.8,698.7z
					 M669.8,649l0.6-0.3l28.3-16.2l0.6-0.3h0.4l0,0l12.2,3.4l0.4,0.2l1.7,1l18.1,10.5l-0.1,0.1v0.8l-21,11.9l-0.6,0.3l-1.2,0.7h-0.4
					l-39.3-10.9l-0.1-0.7v-0.2L669.8,649L669.8,649z M615.3,654.4L615.3,654.4L615.3,654.4l15.5-9l0.6-0.3l0.6-0.4l0,0l1.8-1l0,0
					l0.5-0.3h0.4l0,0l8.2,2.3l0.8,0.2l3.7,1l1.5,0.9l0,0l4.2,2.6l0,0l1.6,1l0,0l1.5,0.9l0,0l8.8,5.3l-0.1,0.1l0.1,0.8l-18.8,10.8
					l-0.6,0.3l-8.2-1.9l-0.7-0.2l-21.9-12.8L615.3,654.4L615.3,654.4z M603.8,693.2l0.4,0.2l-0.3,0.4l-0.2,0.3v0.2l0,0l-0.3,0.2
					L491.7,840l-63.1-35.3l-0.4-0.2l-0.4-0.2l0.3-0.4l0,0l0.3-0.4l11.5-14.8l-12.8,7.4l-0.2,0.1l-0.3-0.1l-11.1-6.4l-0.3-0.2v-0.2
					l-0.1-0.5l24.3-31.5l0.3-0.1l0,0l0.5-0.3l1.1-0.7l0,0l43.3-25l0,0l56.1-73v-0.1v-1.2l0.5,0.3l0.5,0.3l61.6,35.5L603.8,693.2z
					 M524.5,601.8L545,590l0.5-0.3h0.4l0,0l13.5,3.8l1.6,1l0,0l17.4,10.5l-0.1,0.1v0.8l-21.2,12.2l-10.5-2l-22.4-14L524.5,601.8
					L524.5,601.8z M471.7,576.4l0.5,0.3v0.6v0.6l-0.5-0.3l-0.5-0.3v-0.6l0.5,0.3V576.4L471.7,576.4z M464.8,567.3L464.8,567.3l1.7,1
					l-0.5-0.1l0,0l-0.9-0.2c-0.2-0.2-0.4-0.5-0.5-0.7H464.8L464.8,567.3z M349.2,703.8L349.2,703.8l0.3-0.1l0,0l0.9-0.5l1.1-0.7
					l43.4-25l55.1-71.7l0.9,0.5l0.1-0.1l-0.2-0.2l0.5-0.9l0.1,0.1l60.4,34.8l0.4,0.3l0.4,0.2l0.7,0.4c-0.1,0.4-0.1,0.8-0.2,1.2
					l-0.9-0.5l-0.7,0.4l0,0L400.1,787l-0.6,0.8l-0.4-0.2l-0.4-0.3l-60.6-35l-0.4-0.3l-0.4-0.2l0.2-0.3l0.1-0.1l0.3-0.4l12.8-16.5
					l-13.5,7.7l-0.2,0.1l-0.3-0.1l-10.9-6.3l-0.4-0.2l0,0l-0.1-0.7l0,0L349.2,703.8L349.2,703.8z M171.2,1082.5l-0.3,0.4l-0.4-0.2
					l0,0l0.1,0.6l-62-35.8l-0.4-0.3l-0.4-0.2l0.6-0.8l57.3-73.7l-10.7,6.2l-0.2,0.1l-0.3-0.1l-11.1-6.4l-0.3-0.2v-0.2l-0.1-0.6
					l24.3-31.5l0.3-0.1l0.6-0.3l1.1-0.6l41-23.6l106.3-136.9l0.2-0.3l0.4-0.5l0.9,0.5l60.6,35l1.1,1.4l-0.6-0.4l-207.5,268.7
					L171.2,1082.5L171.2,1082.5z M262.9,1135.4l-0.3,0.4l-0.5-0.3l-0.1,0.1l0.1,0.5l-62.9-36.3l-0.9-0.5l0.6-0.8l57.3-73.7
					l-10.7,6.2l-0.2,0.1l-0.3-0.1l-11.1-6.4l-0.3-0.2v-0.2l-0.1-0.5l24.3-31.5l0.3-0.1l0.6-0.3l1.1-0.7l41-23.6l1.1-0.7l105.6-135.9
					l-0.4-0.2l0.2-0.2l0.4-0.6l0.9,0.5l62.7,35.9l-0.2,0.2l-0.6,0.8l-207.2,268.4L262.9,1135.4L262.9,1135.4z M283.4,1162.5
					l-0.3,0.4l-0.2,0.3l-0.6-0.9l0.2-0.3l0.4,0.3l0.1-0.1L283.4,1162.5L283.4,1162.5L283.4,1162.5z M354.6,1188.3l-0.1,0.2l0.1,0.4
					l-63.2-36.5l-0.3,0.4l-0.4-0.3l-0.4-0.2l0.3-0.4l0.3-0.4l56.6-72.9l-10.1,5.8l-0.2,0.1l-0.3-0.1l-11.3-6.6l-0.1-0.1l-0.1-0.5
					v-0.2l24.3-31.5l0.3-0.1l1.1-0.7l41-23.6l139.6-179.7l-12.4,7.1l-0.2,0.1l-0.3-0.1l-11.3-6.5l-0.2-0.5v-0.3l24.3-31.5l0.3-0.1
					l0,0l0.1-0.1l1.1-0.7l43.3-25l0,0l56.1-73v-1.3l0.5,0.3l0.5,0.3l35.6,20.5h0.1l11.2,6.5l0.2-0.1l0.2,0.3l15,8.6l0.3,0.2v0.1
					l0.1,0.1l0.4,0.2l-0.3,0.4l-0.3,0.4l-0.1,0.1l-0.3-0.2l-0.4,0.2l-340,441.1L354.6,1188.3L354.6,1188.3z M383.1,1205.9l-0.5-0.2
					l-0.4-0.2l0.3-0.4l0.3-0.4l57.1-73.4l-10.4,6l-0.2,0.1l-0.3-0.1l-11.2-6.5l-0.2-0.1l-0.1-0.4l-0.1-0.4l24.3-31.5l0.3-0.1
					l0.3-0.2l1.7,0.3l40.4-24.5l0.6,1l138.2-179.6l-12.5,7.2l-0.2,0.1l-0.3-0.1L599,896l-0.2-0.1l-0.1-0.4l-0.1-0.3l24.3-31.5
					l0.3-0.1l0,0l0.2-0.1l1.1-0.7l43.3-25l56.6-73.6l-0.6-0.4c0.2-0.3,0.3-0.6,0.5-1l0.3,0.2l0.5,0.3l0.5,0.3l63.3,36.5l0.4,0.2
					l0.4,0.2l-0.7,0.9l-340.2,441.4L383.1,1205.9L383.1,1205.9z M540.3,1296.7l-63.8-36.8l-0.9-0.5l0.3-0.4l0.3-0.4l57-73.3
					l-10.7,6.1l-0.2,0.1l-0.3-0.1l-11.1-6.4l-0.3-0.2v-0.2l-0.1-0.5l24.3-31.5l0.3-0.1l0.5-0.3l1.3,0.2l41-23.6l0,0L715.2,951
					l-12.7,7.3l-0.2,0.1l-0.3-0.1l-11.2-6.5l-0.4-0.2l0,0l-0.1-0.7l0,0v-0.1l24.7-32h0.1l0,0l2.2-1.2l43.3-25l57.3-74.6l0.1-0.1l0,0
					v-1.1l1,0.6l62.7,36.2l0.4,0.3l0.4,0.2l-0.6,0.9v0.2l-0.4,0.2l-340,441L540.3,1296.7L540.3,1296.7z M569.3,1313.4l-0.4-0.3
					l-0.4-0.2l0.6-0.8l57.2-73.6l-10.8,6.2l-0.2,0.1l-0.3-0.1l-11.1-6.4l-0.4-0.2v-0.1l-0.1-0.6l24.3-31.5l0.3-0.1l0.7-0.4l1,0.4
					l41-23.6l20.5-27.2l0.1-0.1l0.6-0.8l63.2,36.5l0.4,0.2l0.4,0.2l-0.6,0.8l-0.1,0.1L634,1349L569.3,1313.4L569.3,1313.4z
					 M726.2,1402.8l-0.2,0.2l-0.4-0.3l0,0l-0.4-0.3l0.1-0.1l-63.4-36.6l-0.9-0.5l56.8-73.1l-10.5,6l-0.2,0.1l-0.3-0.1l-11.2-6.4
					l-0.2-0.1l-0.1-0.3l-0.1-0.4l24.3-31.5l0.3-0.1l0.4-0.2l1.8,0.4l41-23.6l105.6-137.8l0.2-0.3l0.4-0.5l0.4,0.3l0.4,0.2l62.4,36.1
					L726.2,1402.8L726.2,1402.8L726.2,1402.8z M818.8,1455.7l-1,0.6v-0.1l-63.6-36.7v0.1l-0.4-0.3l0,0l-0.4-0.3l0.3-0.3l55.7-71.7
					l-11.1,6.4l-0.2,0.1l-0.3-0.1l-11-6.4l-0.4-0.2v-0.1l-0.1-0.7l24.4-30.6l0.3-0.1l0.3-0.2l1-0.6l42.5-24.4l106.4-138.6l0.2-0.2
					l0.2-0.2l0.4,0.3l0.3,0.2l0.3-0.4l62.5,36.1l0.2,0.1l-0.4,0.6l0.2,0.1l0.4,0.2L818.8,1455.7L818.8,1455.7z M1158.9,1013.8
					l-0.2,0.4l-0.2-0.1l-0.1,0.1l0.4,0.2l-112.7,146.8l-0.4-0.2l-0.2,0.2l0,0l-0.2,0.3h-0.1l-0.4-0.2l-62.4-36.1l0.3-0.4l-0.5-0.4
					l0,0l0,0l-0.1-0.1l0.3-0.3l12.5-16.1l-13,7.5l-0.2,0.1l-0.3-0.1l-11.1-6.4l-0.3-0.2l-0.1-0.7l24.3-31.5l0.3-0.1l0,0l1.6-0.9
					l43.5-25.1l55.8-72.6l0.2-0.2l1-0.1l0.1-0.2l35.1,20.2l11.2,6.5l0.1-0.1l0.1,0.2l0,0l15.3,8.8l0.2,0.1l0.4,0.2l0,0
					L1158.9,1013.8L1158.9,1013.8z M1199.1,988.2l-12.6-2.5l-18.7-11.2l20.4-11.5l12.2,3.6l18.1,10.6L1199.1,988.2L1199.1,988.2z
					 M1267.3,980.5l-37.1-10.4l28-15.8l12.2,3.6l18.1,10.6L1267.3,980.5L1267.3,980.5z"/>
			</g>
			<g>
				<g>
					<g>
						<polygon class="st11" points="1025,928.1 1078.5,958.7 1067,965.9 1024.7,942.4 998.4,978.1 988,969.5 1010.4,932.3 						"/>
						<polygon class="st11" points="716.7,1086.1 741.9,1052.6 742,1044.3 710.5,1080.8 						"/>
						<polygon class="st11" points="742,1044.3 742,1052.4 783.5,1075.1 787.8,1069.7 						"/>
						<g>
							<path class="st14" d="M754.2,584.9L445,494.2L80.1,973v5.4l749.5,432.1l363.8-471.8l307.3,84v-5.9L754.2,584.9L754.2,584.9z
								 M1069.5,958.8l-29.4,38.5L996,972.5l28.8-38L1069.5,958.8L1069.5,958.8z"/>
							<g>
								<g>
									<defs>
										<path id="SVGID_00000003809290616902244680000004591171120062360491_" d="M445,494.2L80.1,973l749.5,430.3l363.8-473.5
											L445,494.2z M1069.6,959.4l-30,38l-43.7-25.6l29.4-37.5L1069.6,959.4L1069.6,959.4z"/>
									</defs>
									<clipPath id="SVGID_00000137107989171111738260000009484167177013464728_">
										<use xlink:href="#SVGID_00000003809290616902244680000004591171120062360491_"  style="overflow:visible;"/>
									</clipPath>
									<g style="clip-path:url(#SVGID_00000137107989171111738260000009484167177013464728_);">
										
											<pattern  id="SVGID_00000086670975454822067570000002435990748947676552_" xlink:href="#SVGID_0000003553223559086082067" patternTransform="matrix(1 0 0 1 -1374.62 19928.1426)">
										</pattern>
										
											<polygon style="fill:url(#SVGID_00000086670975454822067570000002435990748947676552_);stroke:#1F3943;stroke-linejoin:bevel;" points="
											647.3,-263.4 -374.8,-560.3 -1580.7,988.7 -1580.7,1035.4 896.7,2465.1 2099,908.9 3114.8,1183.1 3114.8,1159.3 
																					"/>
									</g>
								</g>
							</g>
							<g>
								<polyline class="st17" points="829.7,1410.6 829.7,1403.3 80.1,973 445,494.2 754.2,584.9 1500.8,1016.8 1500.8,1022.7 
									1193.4,938.7 1193.4,929.8 								"/>
								<polyline class="st17" points="829.7,1403.3 1193.4,929.8 1500.8,1016.8 								"/>
								<polyline class="st17" points="80.1,973 80.1,978.5 829.7,1410.6 1193.4,938.7 								"/>
								<line class="st17" x1="445" y1="494.2" x2="1193.4" y2="929.8"/>
							</g>
						</g>
						<polyline class="st7" points="1024.7,934.5 1024.7,942.4 1064.9,964.3 						"/>
						<line class="st7" x1="1024.7" y1="942.6" x2="1000.6" y2="974.8"/>
					</g>
					<g>
						<polyline class="st17" points="703.7,1322.7 1057,846.4 1349.4,928.9 						"/>
						<polyline class="st17" points="543.3,1230.8 897.6,754.7 1193.9,839.3 						"/>
						<polyline class="st17" points="374.1,1132.2 727.7,657.1 1009.5,732.6 						"/>
						<polyline class="st17" points="204.9,1033.6 558,559.2 852.1,641.5 						"/>
					</g>
				</g>
				
					<pattern  id="SVGID_00000111159269818250964810000016196741648639568014_" xlink:href="#SVGID_0000011260060234011928889" patternTransform="matrix(1 0 0 1 -1643.3099 19890.6367)">
				</pattern>
				
					<polygon style="fill:url(#SVGID_00000111159269818250964810000016196741648639568014_);stroke:#1F3943;stroke-linejoin:bevel;" points="
					1193.4,929.8 1500.8,1016.8 754.2,584.9 445,494.2 				"/>
			</g>
			<g>
				<polygon class="st19" points="100.7,872.1 80.1,899 829.8,1329 851,1301 				"/>
				<path class="st19" d="M1500.6,942.8l-37.6-10.6L718.3,499.8l36,10.3L1500.6,942.8C1500.6,942.7,1500.6,942.7,1500.6,942.8
					L1500.6,942.8z"/>
			</g>
			<g>
				<g>
					<g>
						<polygon class="st11" points="1069.7,799.8 1065,799.8 1024.8,777.8 1000.2,809.4 984.4,800 1024,754.3 1071.6,772.2 						
							"/>
						<polygon class="st11" points="717.3,919.9 741.4,887.3 742,879.7 710.5,916.2 						"/>
						<polygon class="st11" points="742.4,879 740.9,887 782.9,910.7 788.1,905 						"/>
						<g>
							<path class="st14" d="M754.2,422.2L445,329.6l-364.9,476V816l749.5,430.7L1193.5,773l307.3,86.9v-9.2L754.2,422.2z M1068,793
								l-28,36.5l-43.4-24.4l28-35.9L1068,793L1068,793z"/>
							<g>
								<polyline class="st20" points="829.7,1246.2 829.7,1236.8 80.1,805.6 445,329.6 754.2,422.2 1500.8,850.6 1500.8,859.8 
									1193.4,773 1193.4,763.1 								"/>
								<polyline class="st20" points="829.7,1236.8 1193.4,762.9 1500.4,850.7 								"/>
								<polyline class="st20" points="80.1,805.6 80.1,816.1 829.7,1246.7 1193.4,773 								"/>
								<line class="st20" x1="445" y1="329.6" x2="1193.4" y2="762.9"/>
							</g>
						</g>
						<g>
							<polyline class="st12" points="1024.7,769 1024.8,777.8 1063.2,799 							"/>
							<line class="st12" x1="1025" y1="777.4" x2="1001.7" y2="808.2"/>
						</g>
					</g>
					
						<pattern  id="SVGID_00000059309386349158720100000016894759233154200214_" xlink:href="#SVGID_0000013135476979633149356" patternTransform="matrix(1 0 0 1 -1464.2899 19555.1992)">
					</pattern>
					
						<path style="fill:url(#SVGID_00000059309386349158720100000016894759233154200214_);stroke:#1F3943;stroke-linejoin:bevel;" d="
						M445.1,329.7l-364.9,476l749.5,431.1L1193.6,763L445.1,329.7z M1039.5,829.5l-43.2-24.3l28.2-36l43.8,24.3L1039.5,829.5
						L1039.5,829.5z"/>
				</g>
				
					<pattern  id="SVGID_00000092426875074875790640000014644550868991564929_" xlink:href="#SVGID_0000003334759630818132132" patternTransform="matrix(1 0 0 1 -1779.63 19957.5195)">
				</pattern>
				
					<polygon style="fill:url(#SVGID_00000092426875074875790640000014644550868991564929_);stroke:#1F3943;stroke-linecap:square;stroke-linejoin:bevel;" points="
					445,329.6 1193.4,762.9 1500.8,850.6 754.2,422.2 				"/>
			</g>
			<g>
				<g>
					<polygon class="st11" points="1074.2,724.9 1063.2,721.2 1024.6,698.9 999.3,730.9 986.4,714.2 1019.2,676.9 1061.7,680.3 
						1091.5,706 					"/>
					<g>
						<g>
							<polygon class="st11" points="721.7,837.6 742,808.2 742,794.8 714.4,833.2 							"/>
							<g>
								<g>
									<path class="st23" d="M754.3,338.5L445,245L58.6,740.9V755L810,1192.2l383.5-496.6l327.2,91.4v-10.3L754.3,338.5z
										 M1068.7,711.1l-28.9,36l-42.9-24.5l27.6-36L1068.7,711.1L1068.7,711.1z"/>
									<g>
										<polyline class="st20" points="809.9,1191.5 809.9,1175.5 58.5,740.6 445,244.8 754.2,338.2 1520.4,776.7 1520.4,787 
											1193.4,695.3 1193.4,681.9 										"/>
										<polyline class="st20" points="809.9,1175.5 1193.4,681.5 1520.1,776.7 										"/>
										<polyline class="st20" points="58.5,740.6 58.5,754.7 809.9,1192.2 1193.4,695.8 										"/>
										<line class="st20" x1="445" y1="244.8" x2="1193.4" y2="681.5"/>
									</g>
								</g>
								<polyline class="st12" points="1024.6,686.8 1024.6,699.2 1061.7,720 								"/>
								<line class="st12" x1="1024.6" y1="699.2" x2="1003.1" y2="726.4"/>
							</g>
						</g>
						<g>
							<g>
								<defs>
									<path id="SVGID_00000114042203860713425410000007127698866066763914_" d="M445,245L59.1,740.4l750.8,434.5l383.6-493.2
										L445,245z M1039.9,747.1l-43.3-24.4l28-36l44.3,24.4L1039.9,747.1L1039.9,747.1z"/>
								</defs>
								<clipPath id="SVGID_00000097500476133215007640000004216884195060010885_">
									<use xlink:href="#SVGID_00000114042203860713425410000007127698866066763914_"  style="overflow:visible;"/>
								</clipPath>
								<g style="clip-path:url(#SVGID_00000097500476133215007640000004216884195060010885_);">
									
										<radialGradient id="SVGID_00000031175722025443628380000016121595471426409657_" cx="203.19" cy="-475.01" r="1098.47" gradientTransform="matrix(1 0 0 1 0 762)" gradientUnits="userSpaceOnUse">
										<stop  offset="0.27" style="stop-color:#86B7CC"/>
										<stop  offset="0.34" style="stop-color:#8AB9CD;stop-opacity:0.96"/>
										<stop  offset="0.46" style="stop-color:#96C0D1;stop-opacity:0.86"/>
										<stop  offset="0.6" style="stop-color:#AACBD8;stop-opacity:0.68"/>
										<stop  offset="0.75" style="stop-color:#C5DBE2;stop-opacity:0.44"/>
										<stop  offset="0.93" style="stop-color:#E8EFEE;stop-opacity:0.14"/>
										<stop  offset="1" style="stop-color:#F8F8F4;stop-opacity:0"/>
									</radialGradient>
									
										<rect x="-14" y="239.9" style="fill:url(#SVGID_00000031175722025443628380000016121595471426409657_);" width="1353" height="1114.7"/>
									<line class="st20" x1="1175" y1="647.5" x2="753.4" y2="1204.3"/>
									<line class="st20" x1="1118.1" y1="615.6" x2="696.5" y2="1172.4"/>
									<line class="st20" x1="1061.2" y1="583.7" x2="639.6" y2="1140.5"/>
									<line class="st20" x1="1004.3" y1="551.8" x2="582.7" y2="1108.6"/>
									<line class="st20" x1="947.5" y1="519.9" x2="525.8" y2="1076.7"/>
									<line class="st20" x1="890.6" y1="488" x2="468.9" y2="1044.8"/>
									<line class="st20" x1="833.7" y1="456.1" x2="412" y2="1012.9"/>
									<line class="st20" x1="776.8" y1="424.1" x2="355.1" y2="981"/>
									<line class="st20" x1="719.9" y1="392.2" x2="298.2" y2="949.1"/>
									<line class="st20" x1="663" y1="360.3" x2="241.4" y2="917.2"/>
									<line class="st20" x1="606.1" y1="328.4" x2="184.5" y2="885.3"/>
									<line class="st20" x1="549.2" y1="296.5" x2="127.6" y2="853.4"/>
									<line class="st20" x1="492.3" y1="264.6" x2="70.7" y2="821.5"/>
									<line class="st20" x1="435.4" y1="232.7" x2="13.8" y2="789.5"/>
									<g>
										<line class="st20" x1="1133.5" y1="702" x2="1078" y2="668.5"/>
										<line class="st20" x1="1021.2" y1="636.3" x2="965.8" y2="602.9"/>
										<line class="st20" x1="909" y1="570.7" x2="853.6" y2="537.3"/>
										<line class="st20" x1="796.3" y1="504.7" x2="741.3" y2="471.6"/>
										<line class="st20" x1="683.9" y1="439" x2="629.1" y2="406"/>
										<line class="st20" x1="571.7" y1="373.3" x2="516.9" y2="340.3"/>
										<line class="st20" x1="459.1" y1="307.5" x2="404.7" y2="274.7"/>
										<line class="st20" x1="347.9" y1="242.4" x2="292.5" y2="209.1"/>
									</g>
									<g>
										<line class="st20" x1="1081.3" y1="771.2" x2="1025.9" y2="739.2"/>
										<line class="st20" x1="970.4" y1="703.5" x2="915" y2="670.1"/>
										<line class="st20" x1="858.2" y1="637.8" x2="802.8" y2="604.4"/>
										<line class="st20" x1="745.5" y1="571.9" x2="690.5" y2="538.8"/>
										<line class="st20" x1="633.1" y1="506.1" x2="578.3" y2="473.1"/>
										<line class="st20" x1="520.9" y1="440.5" x2="466.1" y2="407.5"/>
										<line class="st20" x1="408.3" y1="374.6" x2="353.9" y2="341.8"/>
										<line class="st20" x1="297.1" y1="309.6" x2="241.6" y2="276.2"/>
									</g>
									<g>
										<line class="st20" x1="1031.8" y1="836.2" x2="976.4" y2="802.8"/>
										<line class="st20" x1="919.6" y1="770.6" x2="864.2" y2="737.2"/>
										<line class="st20" x1="807.4" y1="705" x2="752" y2="671.6"/>
										<line class="st20" x1="694.7" y1="639" x2="639.7" y2="605.9"/>
										<line class="st20" x1="582.2" y1="573.3" x2="527.5" y2="540.3"/>
										<line class="st20" x1="470" y1="507.6" x2="415.3" y2="474.6"/>
										<line class="st20" x1="357.5" y1="441.8" x2="303" y2="409"/>
										<line class="st20" x1="246.2" y1="376.8" x2="190.8" y2="343.3"/>
									</g>
									<g>
										<line class="st20" x1="981" y1="903.4" x2="925.6" y2="870"/>
										<line class="st20" x1="868.8" y1="837.8" x2="813.4" y2="804.3"/>
										<line class="st20" x1="756.6" y1="772.1" x2="701.1" y2="738.7"/>
										<line class="st20" x1="643.8" y1="706.2" x2="588.9" y2="673.1"/>
										<line class="st20" x1="531.4" y1="640.4" x2="476.7" y2="607.4"/>
										<line class="st20" x1="419.2" y1="574.8" x2="364.5" y2="541.8"/>
										<line class="st20" x1="306.6" y1="508.9" x2="252.2" y2="476.1"/>
										<line class="st20" x1="195.4" y1="443.9" x2="140" y2="410.5"/>
									</g>
									<g>
										<line class="st20" x1="930.2" y1="970.5" x2="874.8" y2="937.2"/>
										<line class="st20" x1="818" y1="904.9" x2="762.5" y2="871.5"/>
										<line class="st20" x1="705.8" y1="839.3" x2="650.3" y2="805.9"/>
										<line class="st20" x1="593" y1="773.3" x2="538.1" y2="740.2"/>
										<line class="st20" x1="480.6" y1="707.6" x2="425.9" y2="674.6"/>
										<line class="st20" x1="368.4" y1="641.9" x2="313.6" y2="608.9"/>
										<line class="st20" x1="255.8" y1="576.1" x2="201.4" y2="543.3"/>
										<line class="st20" x1="144.6" y1="511" x2="89.2" y2="477.6"/>
									</g>
									<g>
										<line class="st20" x1="879.4" y1="1037.7" x2="824" y2="1004.3"/>
										<line class="st20" x1="767.2" y1="972.1" x2="711.7" y2="938.7"/>
										<line class="st20" x1="654.9" y1="906.4" x2="599.5" y2="873"/>
										<line class="st20" x1="542.2" y1="840.5" x2="487.3" y2="807.4"/>
										<line class="st20" x1="429.8" y1="774.7" x2="375" y2="741.7"/>
										<line class="st20" x1="317.6" y1="709.1" x2="262.8" y2="676.1"/>
										<line class="st20" x1="205" y1="643.2" x2="150.6" y2="610.4"/>
										<line class="st20" x1="93.8" y1="578.2" x2="38.4" y2="544.8"/>
									</g>
									<g>
										<line class="st20" x1="828.6" y1="1104.8" x2="773.1" y2="1071.4"/>
										<line class="st20" x1="716.3" y1="1039.2" x2="660.9" y2="1005.8"/>
										<line class="st20" x1="604.1" y1="973.6" x2="548.7" y2="940.2"/>
										<line class="st20" x1="491.4" y1="907.6" x2="436.5" y2="874.5"/>
										<line class="st20" x1="379" y1="841.9" x2="324.2" y2="808.9"/>
										<line class="st20" x1="266.8" y1="776.2" x2="212" y2="743.2"/>
										<line class="st20" x1="154.2" y1="710.4" x2="99.8" y2="677.6"/>
										<line class="st20" x1="43" y1="645.3" x2="-12.4" y2="611.9"/>
									</g>
									<g>
										<line class="st20" x1="777.8" y1="1172" x2="722.3" y2="1138.6"/>
										<line class="st20" x1="665.5" y1="1106.3" x2="610.1" y2="1072.9"/>
										<line class="st20" x1="553.3" y1="1040.7" x2="497.9" y2="1007.3"/>
										<line class="st20" x1="440.6" y1="974.8" x2="385.6" y2="941.7"/>
										<line class="st20" x1="328.2" y1="909" x2="273.4" y2="876"/>
										<line class="st20" x1="216" y1="843.4" x2="161.2" y2="810.4"/>
										<line class="st20" x1="103.4" y1="777.5" x2="49" y2="744.7"/>
									</g>
									<g>
										<line class="st20" x1="1162.6" y1="770.5" x2="1107.2" y2="737"/>
										<line class="st20" x1="1052.5" y1="702.1" x2="995.5" y2="670.7"/>
										<line class="st20" x1="938.2" y1="639.2" x2="882.8" y2="605.8"/>
										<line class="st20" x1="825.5" y1="573.2" x2="770.5" y2="540.1"/>
										<line class="st20" x1="713" y1="507.5" x2="658.3" y2="474.5"/>
										<line class="st20" x1="600.8" y1="441.8" x2="546.1" y2="408.8"/>
										<line class="st20" x1="488.3" y1="376" x2="433.8" y2="343.2"/>
										<line class="st20" x1="377.1" y1="311" x2="321.6" y2="277.5"/>
									</g>
									<g>
										<line class="st20" x1="1114.3" y1="834.4" x2="1058.8" y2="801"/>
										<line class="st20" x1="1002.1" y1="768.7" x2="946.6" y2="735.3"/>
										<line class="st20" x1="889.8" y1="703.1" x2="834.4" y2="669.7"/>
										<line class="st20" x1="777.1" y1="637.1" x2="722.2" y2="604"/>
										<line class="st20" x1="664.7" y1="571.4" x2="610" y2="538.4"/>
										<line class="st20" x1="552.5" y1="505.7" x2="497.7" y2="472.7"/>
										<line class="st20" x1="439.9" y1="439.9" x2="385.5" y2="407.1"/>
										<line class="st20" x1="328.7" y1="374.9" x2="273.3" y2="341.5"/>
									</g>
									<g>
										<line class="st20" x1="1065.9" y1="898.3" x2="1010.5" y2="864.9"/>
										<line class="st20" x1="953.7" y1="832.6" x2="898.3" y2="799.2"/>
										<line class="st20" x1="841.5" y1="767" x2="786" y2="733.6"/>
										<line class="st20" x1="728.8" y1="701" x2="673.8" y2="667.9"/>
										<line class="st20" x1="616.3" y1="635.3" x2="561.6" y2="602.3"/>
										<line class="st20" x1="504.1" y1="569.7" x2="449.4" y2="536.7"/>
										<line class="st20" x1="391.6" y1="503.8" x2="337.1" y2="471"/>
										<line class="st20" x1="280.4" y1="438.8" x2="224.9" y2="405.4"/>
									</g>
									<g>
										<line class="st20" x1="1017.6" y1="962.2" x2="962.2" y2="928.8"/>
										<line class="st20" x1="905.4" y1="896.5" x2="849.9" y2="863.1"/>
										<line class="st20" x1="793.1" y1="830.9" x2="737.7" y2="797.5"/>
										<line class="st20" x1="680.4" y1="764.9" x2="625.5" y2="731.8"/>
										<line class="st20" x1="568" y1="699.2" x2="513.2" y2="666.2"/>
										<line class="st20" x1="455.8" y1="633.6" x2="401" y2="600.5"/>
										<line class="st20" x1="343.2" y1="567.7" x2="288.8" y2="534.9"/>
										<line class="st20" x1="232" y1="502.7" x2="176.6" y2="469.3"/>
									</g>
									<g>
										<line class="st20" x1="969.2" y1="1026.1" x2="913.8" y2="992.7"/>
										<line class="st20" x1="857" y1="960.4" x2="801.6" y2="927"/>
										<line class="st20" x1="744.8" y1="894.8" x2="689.3" y2="861.4"/>
										<line class="st20" x1="632.1" y1="828.8" x2="577.1" y2="795.8"/>
										<line class="st20" x1="519.7" y1="763.1" x2="464.9" y2="730.1"/>
										<line class="st20" x1="407.5" y1="697.5" x2="352.7" y2="664.5"/>
										<line class="st20" x1="294.9" y1="631.6" x2="240.4" y2="598.8"/>
										<line class="st20" x1="183.7" y1="566.6" x2="128.2" y2="533.2"/>
									</g>
									<g>
										<line class="st20" x1="920.9" y1="1090" x2="865.5" y2="1056.6"/>
										<line class="st20" x1="808.7" y1="1024.3" x2="753.2" y2="990.9"/>
										<line class="st20" x1="696.4" y1="958.7" x2="641" y2="925.3"/>
										<line class="st20" x1="583.7" y1="892.8" x2="528.8" y2="859.7"/>
										<line class="st20" x1="471.3" y1="827" x2="416.5" y2="794"/>
										<line class="st20" x1="359.1" y1="761.4" x2="304.3" y2="728.4"/>
										<line class="st20" x1="246.5" y1="695.5" x2="192.1" y2="662.7"/>
										<line class="st20" x1="135.3" y1="630.5" x2="79.9" y2="597.1"/>
									</g>
									<g>
										<line class="st20" x1="872.5" y1="1153.9" x2="817.1" y2="1120.5"/>
										<line class="st20" x1="760.3" y1="1088.2" x2="704.9" y2="1054.8"/>
										<line class="st20" x1="648.1" y1="1022.6" x2="592.7" y2="989.2"/>
										<line class="st20" x1="535.4" y1="956.7" x2="480.4" y2="923.6"/>
										<line class="st20" x1="423" y1="890.9" x2="368.2" y2="857.9"/>
										<line class="st20" x1="310.8" y1="825.3" x2="256" y2="792.3"/>
										<line class="st20" x1="198.2" y1="759.4" x2="143.8" y2="726.6"/>
										<line class="st20" x1="87" y1="694.4" x2="31.5" y2="661"/>
									</g>
									<g>
										<line class="st20" x1="824.2" y1="1217.8" x2="768.8" y2="1184.4"/>
										<line class="st20" x1="712" y1="1152.2" x2="656.5" y2="1118.8"/>
										<line class="st20" x1="599.7" y1="1086.5" x2="544.3" y2="1053.1"/>
										<line class="st20" x1="487" y1="1020.6" x2="432.1" y2="987.5"/>
										<line class="st20" x1="374.6" y1="954.8" x2="319.9" y2="921.8"/>
										<line class="st20" x1="262.4" y1="889.2" x2="207.6" y2="856.2"/>
										<line class="st20" x1="149.8" y1="823.3" x2="95.4" y2="790.5"/>
										<line class="st20" x1="38.6" y1="758.3" x2="-16.8" y2="724.9"/>
									</g>
								</g>
							</g>
						</g>
					</g>
				</g>
				<g>
					<g>
						<defs>
							<polygon id="SVGID_00000009556128649614904790000000760660038327021495_" points="446,245.7 1194.4,682.2 1520.7,776.7 
								755.2,339 							"/>
						</defs>
						<clipPath id="SVGID_00000092454171342453631220000001986583100414523033_">
							<use xlink:href="#SVGID_00000009556128649614904790000000760660038327021495_"  style="overflow:visible;"/>
						</clipPath>
						<g style="clip-path:url(#SVGID_00000092454171342453631220000001986583100414523033_);">
							
								<radialGradient id="SVGID_00000039849711708805303020000015523005941964582561_" cx="535.64" cy="-602.6899" r="866.48" gradientTransform="matrix(1 0 0 1 0 762)" gradientUnits="userSpaceOnUse">
								<stop  offset="0.27" style="stop-color:#86B7CC"/>
								<stop  offset="0.34" style="stop-color:#8AB9CD;stop-opacity:0.96"/>
								<stop  offset="0.46" style="stop-color:#96C0D1;stop-opacity:0.86"/>
								<stop  offset="0.6" style="stop-color:#AACBD8;stop-opacity:0.68"/>
								<stop  offset="0.75" style="stop-color:#C5DBE2;stop-opacity:0.44"/>
								<stop  offset="0.93" style="stop-color:#E8EFEE;stop-opacity:0.14"/>
								<stop  offset="1" style="stop-color:#F8F8F4;stop-opacity:0"/>
							</radialGradient>
							
								<rect x="337.6" y="130.1" style="fill:url(#SVGID_00000039849711708805303020000015523005941964582561_);stroke:#1F3943;stroke-miterlimit:10;" width="1233.8" height="692"/>
							<g>
								<g>
									<g>
										<line class="st28" x1="184.3" y1="125" x2="1352.2" y2="800.8"/>
										<line class="st28" x1="1305.6" y1="773.8" x2="1245.2" y2="754"/>
										<line class="st28" x1="1242.1" y1="737" x2="1181.7" y2="717.2"/>
										<line class="st28" x1="1178.7" y1="700.3" x2="1118.2" y2="680.5"/>
										<line class="st28" x1="1115.2" y1="663.5" x2="1054.7" y2="644.2"/>
										<line class="st28" x1="1052.9" y1="627.8" x2="990" y2="607.2"/>
										<line class="st28" x1="988.3" y1="590" x2="926.5" y2="570.6"/>
										<line class="st28" x1="925.5" y1="553.9" x2="862.9" y2="534"/>
										<line class="st28" x1="863.3" y1="517.9" x2="798.8" y2="497.1"/>
										<line class="st28" x1="801" y1="481.8" x2="735.2" y2="460.5"/>
										<line class="st28" x1="736.5" y1="444.5" x2="671.5" y2="423.9"/>
										<line class="st28" x1="674.1" y1="408.4" x2="608.4" y2="387.5"/>
										<line class="st28" x1="611.5" y1="372.2" x2="544.3" y2="350.7"/>
										<line class="st28" x1="548.9" y1="336" x2="481.5" y2="314.5"/>
										<line class="st28" x1="484.9" y1="299" x2="417" y2="277.4"/>
										<line class="st28" x1="421.6" y1="262.3" x2="353.5" y2="240.8"/>
										<line class="st28" x1="356.8" y1="224.9" x2="289.4" y2="204"/>
										<line class="st28" x1="299.5" y1="191.7" x2="225.8" y2="167.6"/>
										<line class="st28" x1="234.9" y1="154.6" x2="162.4" y2="130.8"/>
									</g>
									<g>
										<line class="st28" x1="200.3" y1="119" x2="1409.9" y2="818.9"/>
										<line class="st28" x1="1321.6" y1="767.8" x2="1261.2" y2="748"/>
										<line class="st28" x1="1258.2" y1="735.4" x2="1197.8" y2="715.6"/>
										<line class="st28" x1="1194.7" y1="694.3" x2="1134.3" y2="674.5"/>
										<line class="st28" x1="1131.3" y1="657.5" x2="1072.8" y2="638.9"/>
										<line class="st28" x1="1069" y1="621.8" x2="1008.8" y2="602.1"/>
										<line class="st28" x1="1004.4" y1="584" x2="946" y2="565.7"/>
										<line class="st28" x1="941.5" y1="547.9" x2="882.4" y2="529.1"/>
										<line class="st28" x1="879.4" y1="511.9" x2="820.9" y2="493.1"/>
										<line class="st28" x1="817" y1="475.9" x2="757" y2="456.4"/>
										<line class="st28" x1="752.5" y1="438.5" x2="693.9" y2="419.9"/>
										<line class="st28" x1="690.1" y1="402.4" x2="630.6" y2="383.5"/>
										<line class="st28" x1="627.6" y1="366.2" x2="567.6" y2="347"/>
										<line class="st28" x1="564.9" y1="330" x2="506.2" y2="311.3"/>
										<line class="st28" x1="501" y1="293" x2="442.4" y2="274.4"/>
										<line class="st28" x1="437.6" y1="256.4" x2="379.5" y2="238"/>
										<line class="st28" x1="372.9" y1="218.9" x2="316" y2="201.2"/>
										<line class="st28" x1="315.5" y1="185.7" x2="257.6" y2="167.4"/>
										<line class="st28" x1="251" y1="148.6" x2="203.7" y2="136.3"/>
									</g>
								</g>
								<g>
									<g>
										<line class="st28" x1="291" y1="156.3" x2="1458.9" y2="832"/>
										<line class="st28" x1="1412.3" y1="805" x2="1351.9" y2="785.3"/>
										<line class="st28" x1="1348.8" y1="768.3" x2="1288.4" y2="748.5"/>
										<line class="st28" x1="1285.4" y1="731.5" x2="1224.9" y2="711.7"/>
										<line class="st28" x1="1221.9" y1="694.8" x2="1161.4" y2="675.5"/>
										<line class="st28" x1="1159.7" y1="659" x2="1099.7" y2="639.4"/>
										<line class="st28" x1="1095" y1="621.2" x2="1037" y2="603"/>
										<line class="st28" x1="1032.2" y1="585.1" x2="974" y2="566.7"/>
										<line class="st28" x1="970" y1="549.2" x2="909" y2="529.5"/>
										<line class="st28" x1="907.7" y1="513.1" x2="847.9" y2="493.7"/>
										<line class="st28" x1="843.2" y1="475.8" x2="784.9" y2="457.2"/>
										<line class="st28" x1="780.8" y1="439.7" x2="720.3" y2="419.9"/>
										<line class="st28" x1="718.2" y1="403.5" x2="659.2" y2="384.6"/>
										<line class="st28" x1="655.6" y1="367.2" x2="595.5" y2="348.1"/>
										<line class="st28" x1="591.7" y1="330.2" x2="532.6" y2="311.5"/>
										<line class="st28" x1="528.3" y1="293.6" x2="468.8" y2="274.4"/>
										<line class="st28" x1="463.5" y1="256.1" x2="406.2" y2="238.4"/>
										<line class="st28" x1="406.2" y1="222.9" x2="345.6" y2="203.1"/>
										<line class="st28" x1="341.6" y1="185.8" x2="282" y2="166.3"/>
									</g>
									<g>
										<line class="st28" x1="307" y1="150.3" x2="1516.7" y2="850.2"/>
										<line class="st28" x1="1428.3" y1="799.1" x2="1367.9" y2="779.3"/>
										<line class="st28" x1="1364.9" y1="762.3" x2="1304.5" y2="742.5"/>
										<line class="st28" x1="1301.4" y1="725.5" x2="1241" y2="705.7"/>
										<line class="st28" x1="1238" y1="688.8" x2="1179.5" y2="670.2"/>
										<line class="st28" x1="1175.7" y1="653.1" x2="1115.5" y2="633.3"/>
										<line class="st28" x1="1111.1" y1="615.2" x2="1052.8" y2="597"/>
										<line class="st28" x1="1048.2" y1="579.1" x2="989.1" y2="560.4"/>
										<line class="st28" x1="986.1" y1="543.2" x2="927.6" y2="524.3"/>
										<line class="st28" x1="923.7" y1="507.1" x2="863.7" y2="487.6"/>
										<line class="st28" x1="859.2" y1="469.8" x2="800.6" y2="451.2"/>
										<line class="st28" x1="796.8" y1="433.7" x2="737.3" y2="414.8"/>
										<line class="st28" x1="734.3" y1="397.5" x2="674.3" y2="378.3"/>
										<line class="st28" x1="671.6" y1="361.2" x2="612.9" y2="342.5"/>
										<line class="st28" x1="607.7" y1="324.3" x2="549.1" y2="305.6"/>
										<line class="st28" x1="544.4" y1="287.6" x2="486.2" y2="269.3"/>
										<line class="st28" x1="479.6" y1="250.1" x2="422.7" y2="232.5"/>
										<line class="st28" x1="422.3" y1="217" x2="364.3" y2="198.7"/>
										<line class="st28" x1="357.7" y1="179.8" x2="310.4" y2="167.5"/>
									</g>
								</g>
								<g>
									<g>
										<line class="st29" x1="407.3" y1="192.8" x2="1575.2" y2="868.5"/>
										<line class="st29" x1="1528.6" y1="841.6" x2="1468.2" y2="821.8"/>
										<line class="st29" x1="1465.1" y1="804.8" x2="1404.7" y2="785"/>
										<line class="st29" x1="1401.7" y1="768" x2="1341.2" y2="748.2"/>
										<line class="st29" x1="1338.2" y1="731.3" x2="1277.7" y2="712"/>
										<line class="st29" x1="1275.9" y1="695.6" x2="1216" y2="675.9"/>
										<line class="st29" x1="1211.3" y1="657.8" x2="1153.3" y2="639.6"/>
										<line class="st29" x1="1148.5" y1="621.6" x2="1090.3" y2="603.2"/>
										<line class="st29" x1="1086.3" y1="585.7" x2="1025.2" y2="566"/>
										<line class="st29" x1="1024" y1="549.6" x2="964.2" y2="530.2"/>
										<line class="st29" x1="959.5" y1="512.3" x2="901.2" y2="493.8"/>
										<line class="st29" x1="897.1" y1="476.2" x2="836.6" y2="456.4"/>
										<line class="st29" x1="834.5" y1="440" x2="775.5" y2="421.1"/>
										<line class="st29" x1="771.9" y1="403.8" x2="711.8" y2="384.6"/>
										<line class="st29" x1="708" y1="366.8" x2="648.9" y2="348"/>
										<line class="st29" x1="644.6" y1="330.1" x2="585.1" y2="310.9"/>
										<line class="st29" x1="579.8" y1="292.6" x2="522.5" y2="274.9"/>
										<line class="st29" x1="522.5" y1="259.5" x2="461.9" y2="239.6"/>
										<line class="st29" x1="457.9" y1="222.3" x2="398.3" y2="202.8"/>
									</g>
									<g>
										<line class="st29" x1="423.3" y1="186.8" x2="1632.9" y2="886.7"/>
										<line class="st29" x1="1544.6" y1="835.6" x2="1484.2" y2="815.8"/>
										<line class="st29" x1="1481.2" y1="798.8" x2="1420.8" y2="779"/>
										<line class="st29" x1="1417.7" y1="762" x2="1357.3" y2="742.3"/>
										<line class="st29" x1="1354.3" y1="725.3" x2="1295.8" y2="706.7"/>
										<line class="st29" x1="1292" y1="689.6" x2="1231.8" y2="669.8"/>
										<line class="st29" x1="1227.4" y1="651.8" x2="1169.1" y2="633.5"/>
										<line class="st29" x1="1164.5" y1="615.6" x2="1105.4" y2="596.9"/>
										<line class="st29" x1="1102.4" y1="579.7" x2="1043.9" y2="560.9"/>
										<line class="st29" x1="1040" y1="543.6" x2="980" y2="524.2"/>
										<line class="st29" x1="975.5" y1="506.3" x2="916.9" y2="487.7"/>
										<line class="st29" x1="913.1" y1="470.2" x2="853.6" y2="451.3"/>
										<line class="st29" x1="850.6" y1="434" x2="790.6" y2="414.8"/>
										<line class="st29" x1="787.9" y1="397.8" x2="729.2" y2="379.1"/>
										<line class="st29" x1="724" y1="360.8" x2="665.4" y2="342.2"/>
										<line class="st29" x1="660.7" y1="324.1" x2="602.5" y2="305.8"/>
										<line class="st29" x1="595.9" y1="286.6" x2="539" y2="269"/>
										<line class="st29" x1="538.6" y1="253.5" x2="480.6" y2="235.2"/>
										<line class="st29" x1="474" y1="216.4" x2="426.7" y2="204.1"/>
									</g>
								</g>
								<g>
									<g>
										<line class="st29" x1="511.5" y1="222.9" x2="1679.4" y2="898.6"/>
										<line class="st29" x1="1632.8" y1="871.6" x2="1572.4" y2="851.8"/>
										<line class="st29" x1="1569.3" y1="834.9" x2="1508.9" y2="815.1"/>
										<line class="st29" x1="1505.9" y1="798.1" x2="1445.5" y2="778.3"/>
										<line class="st29" x1="1442.4" y1="761.3" x2="1381.9" y2="742.1"/>
										<line class="st29" x1="1380.2" y1="725.6" x2="1320.3" y2="706"/>
										<line class="st29" x1="1315.5" y1="687.8" x2="1257.5" y2="669.6"/>
										<line class="st29" x1="1252.7" y1="651.7" x2="1194.5" y2="633.2"/>
										<line class="st29" x1="1190.5" y1="615.7" x2="1129.5" y2="596.1"/>
										<line class="st29" x1="1128.2" y1="579.7" x2="1068.4" y2="560.3"/>
										<line class="st29" x1="1063.7" y1="542.3" x2="1005.4" y2="523.8"/>
										<line class="st29" x1="1001.3" y1="506.2" x2="940.8" y2="486.5"/>
										<line class="st29" x1="938.7" y1="470" x2="879.8" y2="451.1"/>
										<line class="st29" x1="876.1" y1="433.8" x2="816.1" y2="414.7"/>
										<line class="st29" x1="812.2" y1="396.8" x2="753.1" y2="378.1"/>
										<line class="st29" x1="748.8" y1="360.2" x2="689.3" y2="341"/>
										<line class="st29" x1="684" y1="322.7" x2="626.7" y2="304.9"/>
										<line class="st29" x1="626.7" y1="289.5" x2="566.2" y2="269.7"/>
										<line class="st29" x1="562.2" y1="252.4" x2="502.5" y2="232.9"/>
									</g>
									<g>
										<line class="st29" x1="527.6" y1="216.9" x2="1737.2" y2="916.7"/>
										<line class="st29" x1="1585.4" y1="828.9" x2="1525" y2="809.1"/>
										<line class="st29" x1="1521.9" y1="792.1" x2="1461.5" y2="772.3"/>
										<line class="st29" x1="1458.5" y1="755.3" x2="1400" y2="736.7"/>
										<line class="st29" x1="1396.2" y1="719.6" x2="1336" y2="699.9"/>
										<line class="st29" x1="1331.6" y1="681.8" x2="1273.3" y2="663.5"/>
										<line class="st29" x1="1268.7" y1="645.7" x2="1209.6" y2="627"/>
										<line class="st29" x1="1206.6" y1="609.8" x2="1148.1" y2="590.9"/>
										<line class="st29" x1="1144.3" y1="573.7" x2="1084.2" y2="554.2"/>
										<line class="st29" x1="1079.8" y1="536.4" x2="1021.2" y2="517.7"/>
										<line class="st29" x1="1017.4" y1="500.3" x2="957.8" y2="481.3"/>
										<line class="st29" x1="954.8" y1="464.1" x2="894.8" y2="444.8"/>
										<line class="st29" x1="892.2" y1="427.8" x2="833.4" y2="409.1"/>
										<line class="st29" x1="828.2" y1="390.8" x2="769.7" y2="372.2"/>
										<line class="st29" x1="764.9" y1="354.2" x2="706.8" y2="335.8"/>
										<line class="st29" x1="700.1" y1="316.7" x2="643.2" y2="299.1"/>
										<line class="st29" x1="642.8" y1="283.5" x2="584.8" y2="265.3"/>
										<line class="st29" x1="578.2" y1="246.4" x2="530.9" y2="234.1"/>
									</g>
								</g>
								<g>
									<g>
										<line class="st29" x1="615.7" y1="252.9" x2="1783.7" y2="928.7"/>
										<line class="st29" x1="1546.7" y1="791.4" x2="1487.9" y2="772.7"/>
										<line class="st29" x1="1484.4" y1="755.7" x2="1424.5" y2="736"/>
										<line class="st29" x1="1419.8" y1="717.9" x2="1361.7" y2="699.7"/>
										<line class="st29" x1="1356.9" y1="681.7" x2="1298.7" y2="663.3"/>
										<line class="st29" x1="1294.8" y1="645.8" x2="1233.7" y2="626.1"/>
										<line class="st29" x1="1232.4" y1="609.7" x2="1172.6" y2="590.3"/>
										<line class="st29" x1="1167.9" y1="572.4" x2="1109.6" y2="553.9"/>
										<line class="st29" x1="1105.5" y1="536.3" x2="1045.1" y2="516.5"/>
										<line class="st29" x1="1043" y1="500.1" x2="984" y2="481.2"/>
										<line class="st29" x1="980.3" y1="463.9" x2="920.3" y2="444.7"/>
										<line class="st29" x1="916.4" y1="426.9" x2="857.3" y2="408.1"/>
										<line class="st29" x1="853" y1="390.2" x2="793.6" y2="371"/>
										<line class="st29" x1="788.3" y1="352.7" x2="730.9" y2="335"/>
										<line class="st29" x1="730.9" y1="319.6" x2="670.4" y2="299.8"/>
										<line class="st29" x1="666.4" y1="282.5" x2="606.7" y2="262.9"/>
									</g>
									<g>
										<line class="st29" x1="631.8" y1="246.9" x2="1841.4" y2="946.8"/>
										<line class="st29" x1="1626.2" y1="822.2" x2="1573.2" y2="805.4"/>
										<line class="st29" x1="1562.7" y1="785.4" x2="1504.2" y2="766.8"/>
										<line class="st29" x1="1500.4" y1="749.7" x2="1440.2" y2="730"/>
										<line class="st29" x1="1435.8" y1="711.9" x2="1377.5" y2="693.6"/>
										<line class="st29" x1="1372.9" y1="675.8" x2="1313.8" y2="657"/>
										<line class="st29" x1="1310.8" y1="639.8" x2="1252.3" y2="621"/>
										<line class="st29" x1="1248.5" y1="603.7" x2="1188.4" y2="584.2"/>
										<line class="st29" x1="1184" y1="566.4" x2="1125.4" y2="547.8"/>
										<line class="st29" x1="1121.6" y1="530.3" x2="1062" y2="511.4"/>
										<line class="st29" x1="1059" y1="494.1" x2="999.1" y2="474.9"/>
										<line class="st29" x1="996.4" y1="457.9" x2="937.6" y2="439.2"/>
										<line class="st29" x1="932.4" y1="420.9" x2="873.9" y2="402.3"/>
										<line class="st29" x1="869.1" y1="384.2" x2="811" y2="365.9"/>
										<line class="st29" x1="804.3" y1="346.8" x2="747.4" y2="329.1"/>
										<line class="st29" x1="747" y1="313.6" x2="689" y2="295.3"/>
										<line class="st29" x1="682.4" y1="276.5" x2="635.2" y2="264.2"/>
									</g>
								</g>
							</g>
						</g>
					</g>
				</g>
			</g>
			<g>
				<polygon class="st19" points="1169.3,601.6 1193.4,570.1 445,132.7 422.6,162.3 				"/>
				<polygon class="st30" points="1217.7,577.6 1193.4,570.1 445,132.7 474.2,142.9 				"/>
			</g>
			<g>
				<g>
					<g>
						
							<radialGradient id="SVGID_00000057149929711502693920000015739397688031320760_" cx="407.66" cy="-773.2" r="825.75" gradientTransform="matrix(1 0 0 1 0 762)" gradientUnits="userSpaceOnUse">
							<stop  offset="0.27" style="stop-color:#86B7CC"/>
							<stop  offset="0.38" style="stop-color:#8DBBCE"/>
							<stop  offset="0.55" style="stop-color:#A3C7D6"/>
							<stop  offset="0.76" style="stop-color:#C6DBE2"/>
							<stop  offset="1" style="stop-color:#F7F7F3"/>
							<stop  offset="1" style="stop-color:#F8F8F4"/>
						</radialGradient>
						
							<polyline style="fill:url(#SVGID_00000057149929711502693920000015739397688031320760_);stroke:#1F3943;stroke-linecap:square;stroke-linejoin:bevel;" points="
							1217.4,487.8 1193.3,479.4 443.5,45.9 474.4,56.5 1217.7,487.8 1217.7,493 1193.4,485.6 1193.3,485.5 1168.7,517.2 
							419.9,80.6 419.9,74.5 443.5,45.9 1193.3,479.4 1168.7,511 420.2,74.6 						"/>
						<line class="st20" x1="1168.7" y1="511" x2="1168.7" y2="516.8"/>
					</g>
					<polyline class="st20" points="1193.3,485.4 1193.3,479 1168.7,511 					"/>
				</g>
				<polyline class="st20" points="1134.2,490 1158.8,459.5 1181.8,467.1 				"/>
				<polyline class="st20" points="1098.8,469.5 1123.3,439 1146.4,446.6 				"/>
				<polyline class="st20" points="1063.4,449.1 1087.9,418.5 1111.6,426.3 				"/>
				<polyline class="st20" points="1028,428.6 1052.6,398.1 1076.4,405.9 				"/>
				<polyline class="st20" points="992.6,408.1 1017.2,377.6 1041.6,385.7 				"/>
				<polyline class="st20" points="957.2,387.7 981.7,357.1 1006,365.1 				"/>
				<polyline class="st20" points="922.4,366.8 946.3,336.6 970.9,344.8 				"/>
				<polyline class="st20" points="887,346.3 910.9,316.2 935.8,324.4 				"/>
				<polyline class="st20" points="851.6,325.8 875.5,295.7 900.2,303.9 				"/>
				<polyline class="st20" points="816.1,304.9 840.1,275.2 865.1,283.5 				"/>
				<polyline class="st20" points="780.7,284.4 804.7,254.8 829.5,262.5 				"/>
				<polyline class="st20" points="745.3,263.9 769.3,234.3 794.7,242.3 				"/>
				<polyline class="st20" points="709.9,243.5 733.9,213.8 759.6,222.3 				"/>
				<polyline class="st20" points="674.5,223 698.5,193.4 725.1,202.1 				"/>
				<polyline class="st20" points="639.1,202.5 663.1,172.9 688.4,180.6 				"/>
				<polyline class="st20" points="604.2,181 627.7,152.4 654.9,161.4 				"/>
				<polyline class="st20" points="568.8,160.5 592.3,132 619.8,141 				"/>
				<polyline class="st20" points="533.4,140 556.9,111.5 584.9,120.7 				"/>
				<polyline class="st20" points="498.2,120.1 521.5,91 549.3,100.2 				"/>
				<polyline class="st20" points="462.9,99.5 486.1,70.6 515.1,80.1 				"/>
				<polyline class="st20" points="427.7,78.7 450.7,50.1 482.8,61.3 				"/>
			</g>
			<g>
				<polygon class="st11" points="1069,542.9 1069,543.3 1039.6,578.5 996.4,554.6 1001.8,531.5 1001.8,523.8 1001.7,523.6 
					1016.2,504.9 1035.5,502.4 1035.7,502.4 1058.8,515.7 1061,527.3 				"/>
				<g>
					<g>
						<line class="st12" x1="1031.5" y1="554.6" x2="1039.2" y2="578.5"/>
						<polyline class="st12" points="1010.7,542 1031.9,554.6 1044,554.2 1061,536.7 1068.6,542.9 						"/>
					</g>
					<line class="st12" x1="1039.5" y1="578.6" x2="1044" y2="554.2"/>
					<polyline class="st12" points="1060.5,527.2 1068.6,542.9 1068.6,543.2 1039.5,578.6 996.7,554.3 1002.4,531.3 1002.4,523.3 
											"/>
					<polyline class="st12" points="996.7,554.3 1010.7,542 1002.4,531.3 					"/>
					<polyline class="st12" points="1031.9,554.6 1031.9,545.9 1044,545.9 1044,554.6 					"/>
					<line class="st12" x1="1061" y1="529.8" x2="1061" y2="536.7"/>
					<polygon class="st12" points="1044,545.9 1061,529.8 1058.2,515.7 1035.4,502.6 1016.5,505.1 1002.4,523.3 1010.7,534.1 
						1031.9,545.9 					"/>
					<line class="st12" x1="1010.7" y1="542" x2="1010.7" y2="534.1"/>
				</g>
				<g>
					<g>
						<defs>
							<polygon id="SVGID_00000044869230121067081950000012743992477324753069_" points="1044,545.9 1061,529.8 1058.2,515.7 
								1035.4,502.6 1016.5,505.1 1002.4,523.3 1010.7,534.1 1031.9,545.9 							"/>
						</defs>
						<clipPath id="SVGID_00000061459958713669530380000013235073088606758558_">
							<use xlink:href="#SVGID_00000044869230121067081950000012743992477324753069_"  style="overflow:visible;"/>
						</clipPath>
						<g style="clip-path:url(#SVGID_00000061459958713669530380000013235073088606758558_);">
							<g>
								<path class="st12" d="M1031.9,525c-17.9-0.9-15.4-19.9-15.4-19.9"/>
								<path class="st12" d="M1031.9,525c-15.6-8.8-4.8-24.7-4.8-24.7"/>
								<path class="st12" d="M1031.8,525.3c-10.3-14.6,6.2-24.4,6.2-24.4"/>
								<path class="st12" d="M1031.8,525.3c-2.7-17.7,16.5-19,16.5-19"/>
								<path class="st12" d="M1031.9,525.1c6.3-17.1,26.8-9.8,26.8-9.8"/>
								<path class="st12" d="M1031.9,525.1c14.5-12.8,29.1,1.7,29.1,1.7"/>
								<path class="st12" d="M1031.6,525c19.5-6.2,25.4,12.2,25.4,12.2"/>
								<path class="st12" d="M1031.6,525c20.6,2,16.4,20.8,16.4,20.8"/>
								<path class="st12" d="M1031.6,525c16.8,6.2,8.7,23.6,8.7,23.6"/>
								<path class="st12" d="M1031.6,524.7c12.5,12.8-2.3,25-2.3,25"/>
								<path class="st12" d="M1031.6,524.7c5.4,17.1-13.3,21.4-13.3,21.4"/>
								<path class="st12" d="M1031.5,525c-3.5,17.8-25,13.9-25,13.9"/>
								<path class="st12" d="M1031.5,525c-12.3,14.9-29,2.9-29,2.9"/>
								<path class="st12" d="M1031.9,525c-18.2,9.2-27-11.2-27-11.2"/>
							</g>
						</g>
					</g>
				</g>
			</g>
		</g>
	</g>
</g>
</svg>
