<?xml version="1.0" encoding="UTF-8"?><svg xmlns="http://www.w3.org/2000/svg" xmlns:xlink="http://www.w3.org/1999/xlink" viewBox="0 0 784.07 638.02"><defs><style>.h{fill:none;stroke:#2d5261;stroke-linejoin:bevel;}.i{fill:url(#d);}.i,.j,.k,.l{opacity:.6;}.j{fill:url(#g);}.k{fill:url(#f);}.l{fill:url(#e);}</style><radialGradient id="d" cx="585.43" cy="274.83" fx="585.43" fy="274.83" r="284.75" gradientTransform="matrix(1, 0, 0, 1, 0, 0)" gradientUnits="userSpaceOnUse"><stop offset=".19" stop-color="#86b7cc"/><stop offset=".28" stop-color="#8ab9cd" stop-opacity=".96"/><stop offset=".4" stop-color="#96c0d1" stop-opacity=".86"/><stop offset=".55" stop-color="#aacbd8" stop-opacity=".68"/><stop offset=".73" stop-color="#c5dbe2" stop-opacity=".44"/><stop offset=".92" stop-color="#e8efee" stop-opacity=".14"/><stop offset="1" stop-color="#f8f8f4" stop-opacity="0"/></radialGradient><radialGradient id="e" cx="298.21" cy="470.82" fx="298.21" fy="470.82" r="96.54" xlink:href="#d"/><radialGradient id="f" cx="189.48" cy="408.23" fx="189.48" fy="408.23" r="96.54" xlink:href="#d"/><radialGradient id="g" cx="80.74" cy="344.39" fx="80.74" fy="344.39" r="96.54" xlink:href="#d"/></defs><g id="a"/><g id="b"><g id="c"><g><line class="h" x1="357.68" y1="638.02" x2="357.68" y2="463.06"/><line class="h" x1="638.4" y1="302.93" x2="638.4" y2="477.04"/><line class="h" x1="619" y1="283.91" x2="661.13" y2="325.93"/><polyline class="h" points="404.39 367.5 501.24 166.47 602.02 266.98"/><line class="h" x1="342.23" y1="494.75" x2="377.52" y2="422.52"/><g><g><path class="i" d="M509.34,342.89l-9.68,5.6c-29.32,16.96-47.38,48.26-47.38,82.13v107.4l109.95-63.58v-101.04c0-27.14-29.39-44.1-52.89-30.51Z"/><line class="h" x1="501.38" y1="516.47" x2="465.32" y2="537.32"/><line class="h" x1="527.15" y1="501.66" x2="519.35" y2="506.17"/><line class="h" x1="546.17" y1="490.66" x2="536.66" y2="496.16"/><path class="h" d="M531.05,332.31c7.82,.78,15,3.74,20.93,8.27"/><path class="h" d="M506.34,337.7c6.33-3.66,13.45-5.59,20.59-5.59,1.39,0,2.76,.07,4.11,.2"/><path class="h" d="M454.03,391.95c8.39-20.15,23.21-37.43,42.63-48.66l9.68-5.6"/><path class="h" d="M509.34,342.89l-9.68,5.6c-29.32,16.96-47.38,48.26-47.38,82.13v107.4l109.95-63.58v-101.04c0-27.14-29.39-44.1-52.89-30.51Z"/><path class="h" d="M423.19,391.4h0v163.79l29.09-17.35v-129.91c0-14.93-16.27-24.17-29.09-16.53Z"/><path class="h" d="M591.33,296.09l-7.04,4.2c-13.67,8.15-22.05,22.9-22.05,38.82v135.11l29.09-17.35v-160.78Z"/></g><line class="h" x1="509.59" y1="342.54" x2="509.59" y2="505.03"/><line class="h" x1="452.28" y1="447.95" x2="562.23" y2="384.47"/><line class="h" x1="452.28" y1="492.39" x2="562.23" y2="428.9"/></g><path class="h" d="M509.59,269.3c16.1-9.29,29.23-16.87,29.23-16.87"/><path class="h" d="M462.4,296.29s14.27-8.18,31.27-17.98"/><path class="h" d="M480.58,302.93c.08,.05,87.62-50.5,87.62-50.5"/><path class="h" d="M487.23,317.82c16.65-9.61,30.46-17.58,30.46-17.58"/><path class="h" d="M542.59,304.88c16.65-9.61,30.46-17.58,30.46-17.58"/><path class="h" d="M430.07,350.74s11.8-6.76,26.7-15.35"/><line class="h" x1="498.08" y1="149.84" x2="239.32" y2=".43"/><path class="h" d="M659.46,467.98c-4.29-21.24,.7-44.65,15.32-60.99,7.89-8.82,17.84-15.9,26.14-24.44,7.06-7.26,13.83-14.81,20.28-22.62"/><path class="h" d="M706.1,348.24c-9.16,11.04-21.07,22.52-35.58,31.66,3.08-15.27,7.53-30.26,13.27-44.74,5.54-13.98,12.34-27.66,14.95-42.47"/><path class="h" d="M702.77,333.05c-2.3,10.2,6.52,22.63,15.88,26.12,7.77,2.9,16.82,1.05,21.83-5.81"/><path class="h" d="M584.73,236.26c1.95-10.12,9.82-19.19,19.69-22.74,12.58-4.52,27.22-.89,37.62,7.5,5.07-23.39,29.63-40.79,53.38-37.8,23.75,2.99,43.24,25.93,42.35,49.85,14.09,5.6,25.33,17.94,29.58,32.49,4.25,14.55,1.43,31-7.43,43.3,11.04,4.19,19.77,14.02,22.62,25.48,2.85,11.46-.26,24.24-8.05,33.11-4.92,5.6-11.59,9.77-15.19,16.3-5.02,9.1-2.92,20.58-6.58,30.3-5.46,14.5-25.09,21.5-38.5,13.72-1.48,9.15-3.44,19.15-10.65,24.98-7.09,5.73-17.87,5.52-25.63,.74-7.76-4.78-13.78-16.67-15.55-25.61"/><g><g><path class="l" d="M223.97,539.11v-39.95c0-17.82,19.33-28.92,34.72-19.94l6,3.5c13.15,7.68,21.24,21.76,21.24,36.99v55.54l-61.96-36.14Z"/><line class="h" x1="217.97" y1="539.11" x2="217.97" y2="532.37"/><g><path class="h" d="M267.71,477.54c14.94,8.72,24.22,24.88,24.22,42.17v55.54"/><path class="h" d="M217.97,532.37v-33.21c0-10.54,5.46-19.97,14.6-25.22,4.57-2.63,9.58-3.93,14.58-3.91"/></g><g><line class="h" x1="183.2" y1="456.35" x2="183.2" y2="511.89"/><path class="h" d="M158.98,414.18c8.17,4.77,14.65,11.76,18.84,19.95"/><path class="h" d="M109.23,469.01v-33.21c0-10.54,5.46-19.97,14.6-25.22,4.57-2.63,9.58-3.93,14.58-3.91"/></g><g><line class="h" x1="74.46" y1="393" x2="74.46" y2="448.54"/><path class="h" d="M50.24,350.83c8.17,4.77,14.65,11.76,18.84,19.95"/><path class="h" d="M15.1,347.22c4.57-2.63,9.58-3.93,14.58-3.91"/><path class="h" d="M.5,399.69v-27.24c0-4.36,.93-8.52,2.67-12.28"/></g><path class="h" d="M223.97,539.11v-39.95c0-17.82,19.33-28.92,34.72-19.94l6,3.5c13.15,7.68,21.24,21.76,21.24,36.99v55.54"/><path class="k" d="M115.23,476.53v-39.95c0-17.82,19.33-28.92,34.72-19.94l6,3.5c13.15,7.68,21.24,21.76,21.24,36.99v55.54l-61.96-36.14Z"/><path class="j" d="M6.5,412.68v-39.95c0-17.82,19.33-28.92,34.72-19.94l6,3.5c13.15,7.68,21.24,21.76,21.24,36.99v55.54L6.5,412.68Z"/><line class="h" x1="254.95" y1="477.35" x2="254.95" y2="561.48"/><line class="h" x1="223.97" y1="512.34" x2="285.93" y2="548.41"/></g><line class="h" x1="301.53" y1="523.1" x2="343.36" y2="547.25"/><line class="h" x1="309.47" y1="547.05" x2="336.81" y2="563.48"/><line class="h" x1="184.19" y1="509.18" x2="211.53" y2="525.62"/><g><g><path class="h" d="M115.23,475.9v-39.95c0-17.82,19.33-28.92,34.72-19.94l6,3.5c13.15,7.68,21.24,21.76,21.24,36.99v55.54"/><line class="h" x1="146.22" y1="414.14" x2="146.22" y2="498.27"/><line class="h" x1="134.39" y1="460.28" x2="177.2" y2="485.2"/><line class="h" x1="115.23" y1="449.13" x2="124.78" y2="454.69"/></g><g><g><path class="h" d="M17.65,352.97c6.82-4.11,15.71-4.76,23.57-.18l6,3.5c13.15,7.68,21.24,21.76,21.24,36.99v55.54"/><line class="h" x1="6.5" y1="402.14" x2="6.5" y2="375.86"/><line class="h" x1="37.48" y1="389" x2="37.48" y2="435.06"/><line class="h" x1="37.48" y1="350.93" x2="37.48" y2="375.86"/><line class="h" x1="6.5" y1="385.92" x2="68.46" y2="421.99"/></g><line class="h" x1="80.8" y1="377.7" x2="108.13" y2="394.13"/><line class="h" x1="86.16" y1="398.22" x2="113.5" y2="414.65"/></g></g></g><g><line class="h" x1="477.49" y1="192" x2="209.58" y2="37.31"/><line class="h" x1="467.33" y1="132.03" x2="447.06" y2="174.43"/><line class="h" x1="437.74" y1="114.65" x2="417.47" y2="157.05"/><line class="h" x1="408.14" y1="97.28" x2="387.87" y2="139.67"/><line class="h" x1="377.54" y1="79.9" x2="357.27" y2="122.3"/><line class="h" x1="347.95" y1="63.52" x2="327.68" y2="105.92"/><line class="h" x1="318.35" y1="46.14" x2="298.08" y2="88.54"/><line class="h" x1="288.76" y1="28.76" x2="268.49" y2="71.16"/><line class="h" x1="259.16" y1="11.39" x2="238.89" y2="53.78"/></g><g><line class="h" x1="456.71" y1="234.55" x2="174.26" y2="71.47"/><line class="h" x1="432.01" y1="166.19" x2="411.74" y2="208.59"/><line class="h" x1="460.03" y1="182.09" x2="439.75" y2="224.49"/><line class="h" x1="402.42" y1="148.81" x2="382.15" y2="191.21"/><line class="h" x1="372.82" y1="131.43" x2="352.55" y2="173.83"/><line class="h" x1="342.23" y1="114.06" x2="321.96" y2="156.45"/><line class="h" x1="312.63" y1="97.68" x2="292.36" y2="140.08"/><line class="h" x1="283.04" y1="80.3" x2="262.77" y2="122.7"/><line class="h" x1="253.44" y1="62.92" x2="233.17" y2="105.32"/><line class="h" x1="223.85" y1="45.55" x2="203.57" y2="87.94"/></g><g><line class="h" x1="415.16" y1="319.53" x2="132.22" y2="156.16"/><line class="h" x1="389.98" y1="250.88" x2="369.7" y2="293.28"/><line class="h" x1="419.76" y1="267.75" x2="399.2" y2="310.76"/><line class="h" x1="360.38" y1="233.51" x2="340.11" y2="275.9"/><line class="h" x1="330.79" y1="216.13" x2="310.51" y2="258.53"/><line class="h" x1="300.19" y1="198.75" x2="279.92" y2="241.15"/><line class="h" x1="270.59" y1="182.37" x2="250.32" y2="224.77"/><line class="h" x1="241" y1="165" x2="220.73" y2="207.39"/><line class="h" x1="211.4" y1="147.62" x2="191.13" y2="190.02"/><line class="h" x1="181.81" y1="130.24" x2="161.54" y2="172.64"/></g><g><line class="h" x1="435.45" y1="276.69" x2="167.54" y2="122"/><line class="h" x1="425.29" y1="216.73" x2="405.02" y2="259.12"/><line class="h" x1="395.7" y1="199.35" x2="375.43" y2="241.75"/><line class="h" x1="366.1" y1="181.97" x2="345.83" y2="224.37"/><line class="h" x1="335.51" y1="164.59" x2="315.23" y2="206.99"/><line class="h" x1="305.91" y1="148.22" x2="285.64" y2="190.61"/><line class="h" x1="276.31" y1="130.84" x2="256.04" y2="173.24"/><line class="h" x1="246.72" y1="113.46" x2="226.45" y2="155.86"/><line class="h" x1="217.12" y1="96.08" x2="196.85" y2="138.48"/></g><g><line class="h" x1="394.12" y1="361.61" x2="126.21" y2="206.91"/><line class="h" x1="383.96" y1="301.64" x2="363.69" y2="344.04"/><line class="h" x1="354.37" y1="284.26" x2="334.1" y2="326.66"/><line class="h" x1="324.77" y1="266.88" x2="304.5" y2="309.28"/><line class="h" x1="294.18" y1="249.5" x2="273.91" y2="291.9"/><line class="h" x1="264.58" y1="233.13" x2="244.31" y2="275.53"/><line class="h" x1="234.99" y1="215.75" x2="214.71" y2="258.15"/><line class="h" x1="205.39" y1="198.37" x2="185.12" y2="240.77"/><line class="h" x1="175.79" y1="180.99" x2="155.52" y2="223.39"/></g><g><line class="h" x1="373.83" y1="404.11" x2="91.47" y2="241.07"/><line class="h" x1="349.22" y1="335.8" x2="328.95" y2="378.2"/><line class="h" x1="378.13" y1="352.12" x2="357.86" y2="394.52"/><line class="h" x1="319.63" y1="318.42" x2="299.35" y2="360.82"/><line class="h" x1="290.03" y1="301.04" x2="269.76" y2="343.44"/><line class="h" x1="259.43" y1="283.66" x2="239.16" y2="326.06"/><line class="h" x1="229.84" y1="267.29" x2="209.57" y2="309.68"/><line class="h" x1="200.24" y1="249.91" x2="179.97" y2="292.31"/><line class="h" x1="170.65" y1="232.53" x2="150.38" y2="274.93"/><line class="h" x1="141.05" y1="215.15" x2="120.78" y2="257.55"/></g><g><polyline class="h" points="666.65 317.96 498.08 149.84 332.33 489.16 50.29 326.31"/><line class="h" x1="308.04" y1="421.04" x2="287.77" y2="463.43"/><line class="h" x1="337.71" y1="438.06" x2="317.44" y2="480.46"/><line class="h" x1="278.45" y1="403.66" x2="258.18" y2="446.06"/><line class="h" x1="248.85" y1="386.28" x2="228.58" y2="428.68"/><line class="h" x1="218.26" y1="368.9" x2="197.98" y2="411.3"/><line class="h" x1="188.66" y1="352.53" x2="168.39" y2="394.92"/><line class="h" x1="159.06" y1="335.15" x2="138.79" y2="377.55"/><line class="h" x1="129.47" y1="317.77" x2="109.2" y2="360.17"/><line class="h" x1="99.87" y1="300.39" x2="79.6" y2="342.79"/></g><g><line class="h" x1="353.52" y1="446.84" x2="85.61" y2="292.15"/><line class="h" x1="343.36" y1="386.88" x2="323.09" y2="429.27"/><line class="h" x1="313.76" y1="369.5" x2="293.49" y2="411.9"/><line class="h" x1="284.17" y1="352.12" x2="263.9" y2="394.52"/><line class="h" x1="253.57" y1="334.74" x2="233.3" y2="377.14"/><line class="h" x1="223.98" y1="318.37" x2="203.71" y2="360.76"/><line class="h" x1="194.38" y1="300.99" x2="174.11" y2="343.39"/><line class="h" x1="164.79" y1="283.61" x2="144.51" y2="326.01"/><line class="h" x1="135.19" y1="266.23" x2="114.92" y2="308.63"/></g></g></g></g></svg>