<?xml version="1.0" encoding="utf-8"?>
<!-- Generator: Adobe Illustrator 26.1.0, SVG Export Plug-In . SVG Version: 6.00 Build 0)  -->
<svg version="1.1" id="a" xmlns="http://www.w3.org/2000/svg" xmlns:xlink="http://www.w3.org/1999/xlink" x="0px" y="0px"
	 viewBox="0 0 689.4 750.8" style="enable-background:new 0 0 689.4 750.8;" xml:space="preserve">
<style type="text/css">
	.st0{fill:url(#SVGID_1_);}
	.st1{fill:url(#SVGID_00000134939828821613610950000001013796119827925684_);}
	.st2{fill:url(#SVGID_00000062174807685687852520000006996875964966194306_);}
	.st3{fill:url(#SVGID_00000158022068318662716680000015940290808436046777_);}
	.st4{fill:url(#SVGID_00000076562405976469768860000003635726460373113730_);}
	.st5{fill:url(#SVGID_00000116953107373939535410000013724652744428441504_);}
	.st6{fill:url(#SVGID_00000140734028785143214560000007003562729168198813_);}
	.st7{fill:url(#SVGID_00000165944361380051070870000014029566120248077724_);}
	.st8{fill:url(#SVGID_00000003088875921963058050000008150940866874585226_);}
	.st9{fill:url(#SVGID_00000125564735830843282420000017061947231092659390_);}
	.st10{fill:url(#SVGID_00000078765461055528188030000007647496068187256255_);}
	.st11{fill:url(#SVGID_00000133519756110481841130000009966855180923878591_);}
	.st12{fill:url(#SVGID_00000111158991935321084980000011944833869329562269_);}
	.st13{fill:url(#SVGID_00000106108663858534861800000004150992046790587318_);}
	.st14{fill:url(#SVGID_00000065777498882164154570000006304258942480122045_);}
	.st15{fill:url(#SVGID_00000145770446761844812110000013126557273129494718_);}
	.st16{fill:url(#SVGID_00000125602580156425647780000010545182193429504405_);}
	.st17{fill:url(#SVGID_00000152982203640750278790000016681626871700870784_);}
	.st18{fill:url(#SVGID_00000129189035192360276510000012173644026062167709_);}
	.st19{fill:url(#SVGID_00000063634136464521119960000005995302678593639843_);}
	.st20{fill:url(#SVGID_00000066494450839182502270000004260909533011620752_);}
	.st21{fill:url(#SVGID_00000041274207071395631540000010068629271668080521_);}
	.st22{fill:none;stroke:#2D5261;stroke-linejoin:bevel;}
</style>
<g>
	
		<radialGradient id="SVGID_1_" cx="548.08" cy="403.52" r="155.87" gradientTransform="matrix(1 0 0 -1 0 752)" gradientUnits="userSpaceOnUse">
		<stop  offset="0.19" style="stop-color:#86B7CC"/>
		<stop  offset="0.28" style="stop-color:#8AB9CD;stop-opacity:0.96"/>
		<stop  offset="0.4" style="stop-color:#96C0D1;stop-opacity:0.86"/>
		<stop  offset="0.55" style="stop-color:#AACBD8;stop-opacity:0.68"/>
		<stop  offset="0.73" style="stop-color:#C5DBE2;stop-opacity:0.44"/>
		<stop  offset="0.92" style="stop-color:#E8EFEE;stop-opacity:0.14"/>
		<stop  offset="1" style="stop-color:#F8F8F4;stop-opacity:0"/>
	</radialGradient>
	<polygon class="st0" points="493,414.8 493,496.2 535.3,471.7 535.3,390.5 	"/>
	
		<radialGradient id="SVGID_00000105386691417967381000000018375697467380778422_" cx="494.59" cy="623.07" r="201.16" gradientTransform="matrix(1 0 0 -1 0 752)" gradientUnits="userSpaceOnUse">
		<stop  offset="0.19" style="stop-color:#86B7CC"/>
		<stop  offset="0.28" style="stop-color:#8AB9CD;stop-opacity:0.96"/>
		<stop  offset="0.4" style="stop-color:#96C0D1;stop-opacity:0.86"/>
		<stop  offset="0.55" style="stop-color:#AACBD8;stop-opacity:0.68"/>
		<stop  offset="0.73" style="stop-color:#C5DBE2;stop-opacity:0.44"/>
		<stop  offset="0.92" style="stop-color:#E8EFEE;stop-opacity:0.14"/>
		<stop  offset="1" style="stop-color:#F8F8F4;stop-opacity:0"/>
	</radialGradient>
	<polygon style="fill:url(#SVGID_00000105386691417967381000000018375697467380778422_);" points="403.4,223.3 403.4,319.1 
		473.4,278.7 473.4,183 	"/>
	
		<radialGradient id="SVGID_00000052817130573866281810000009892252409477198738_" cx="561.72" cy="674.43" r="226.27" gradientTransform="matrix(1 0 0 -1 0 752)" gradientUnits="userSpaceOnUse">
		<stop  offset="0.19" style="stop-color:#86B7CC"/>
		<stop  offset="0.28" style="stop-color:#8AB9CD;stop-opacity:0.96"/>
		<stop  offset="0.4" style="stop-color:#96C0D1;stop-opacity:0.86"/>
		<stop  offset="0.55" style="stop-color:#AACBD8;stop-opacity:0.68"/>
		<stop  offset="0.73" style="stop-color:#C5DBE2;stop-opacity:0.44"/>
		<stop  offset="0.92" style="stop-color:#E8EFEE;stop-opacity:0.14"/>
		<stop  offset="1" style="stop-color:#F8F8F4;stop-opacity:0"/>
	</radialGradient>
	<polygon style="fill:url(#SVGID_00000052817130573866281810000009892252409477198738_);" points="507.5,163.8 507.5,292.4 
		549.1,267.2 549.1,138.7 	"/>
	
		<radialGradient id="SVGID_00000171706449070151644180000000878366808050143668_" cx="605.49" cy="436.42" r="155.87" gradientTransform="matrix(1 0 0 -1 0 752)" gradientUnits="userSpaceOnUse">
		<stop  offset="0.19" style="stop-color:#86B7CC"/>
		<stop  offset="0.28" style="stop-color:#8AB9CD;stop-opacity:0.96"/>
		<stop  offset="0.4" style="stop-color:#96C0D1;stop-opacity:0.86"/>
		<stop  offset="0.55" style="stop-color:#AACBD8;stop-opacity:0.68"/>
		<stop  offset="0.73" style="stop-color:#C5DBE2;stop-opacity:0.44"/>
		<stop  offset="0.92" style="stop-color:#E8EFEE;stop-opacity:0.14"/>
		<stop  offset="1" style="stop-color:#F8F8F4;stop-opacity:0"/>
	</radialGradient>
	<polygon style="fill:url(#SVGID_00000171706449070151644180000000878366808050143668_);" points="550.4,381.9 550.4,463.3 
		592.7,438.8 592.7,357.6 	"/>
	
		<radialGradient id="SVGID_00000173847880590631949870000007743577171298799250_" cx="581.08" cy="419" r="95.85" gradientTransform="matrix(1 0 0 -1 0 752)" gradientUnits="userSpaceOnUse">
		<stop  offset="0.19" style="stop-color:#86B7CC"/>
		<stop  offset="0.28" style="stop-color:#8AB9CD;stop-opacity:0.96"/>
		<stop  offset="0.4" style="stop-color:#96C0D1;stop-opacity:0.86"/>
		<stop  offset="0.55" style="stop-color:#AACBD8;stop-opacity:0.68"/>
		<stop  offset="0.73" style="stop-color:#C5DBE2;stop-opacity:0.44"/>
		<stop  offset="0.92" style="stop-color:#E8EFEE;stop-opacity:0.14"/>
		<stop  offset="1" style="stop-color:#F8F8F4;stop-opacity:0"/>
	</radialGradient>
	<polygon style="fill:url(#SVGID_00000173847880590631949870000007743577171298799250_);" points="607.8,349 607.8,430.4 
		650.1,405.9 650.1,324.7 	"/>
	
		<radialGradient id="SVGID_00000160148438468668963650000003262967476678838422_" cx="579.71" cy="340.34" r="107.21" gradientTransform="matrix(1 0 0 -1 0 752)" gradientUnits="userSpaceOnUse">
		<stop  offset="0.19" style="stop-color:#86B7CC"/>
		<stop  offset="0.28" style="stop-color:#8AB9CD;stop-opacity:0.96"/>
		<stop  offset="0.4" style="stop-color:#96C0D1;stop-opacity:0.86"/>
		<stop  offset="0.55" style="stop-color:#AACBD8;stop-opacity:0.68"/>
		<stop  offset="0.73" style="stop-color:#C5DBE2;stop-opacity:0.44"/>
		<stop  offset="0.92" style="stop-color:#E8EFEE;stop-opacity:0.14"/>
		<stop  offset="1" style="stop-color:#F8F8F4;stop-opacity:0"/>
	</radialGradient>
	<polygon style="fill:url(#SVGID_00000160148438468668963650000003262967476678838422_);" points="607.8,448 607.8,529.4 650.1,505 
		650.1,423.7 	"/>
	
		<radialGradient id="SVGID_00000017498105861746153910000006916940410508071555_" cx="335.92" cy="247.96" r="155.87" gradientTransform="matrix(1 0 0 -1 0 752)" gradientUnits="userSpaceOnUse">
		<stop  offset="0.19" style="stop-color:#86B7CC"/>
		<stop  offset="0.28" style="stop-color:#8AB9CD;stop-opacity:0.96"/>
		<stop  offset="0.4" style="stop-color:#96C0D1;stop-opacity:0.86"/>
		<stop  offset="0.55" style="stop-color:#AACBD8;stop-opacity:0.68"/>
		<stop  offset="0.73" style="stop-color:#C5DBE2;stop-opacity:0.44"/>
		<stop  offset="0.92" style="stop-color:#E8EFEE;stop-opacity:0.14"/>
		<stop  offset="1" style="stop-color:#F8F8F4;stop-opacity:0"/>
	</radialGradient>
	<polygon style="fill:url(#SVGID_00000017498105861746153910000006916940410508071555_);" points="280.8,570.3 280.8,651.7 
		323.1,627.3 323.1,546 	"/>
	
		<radialGradient id="SVGID_00000106840711240983314510000001670133330426847396_" cx="393.33" cy="280.87" r="155.87" gradientTransform="matrix(1 0 0 -1 0 752)" gradientUnits="userSpaceOnUse">
		<stop  offset="0.19" style="stop-color:#86B7CC"/>
		<stop  offset="0.28" style="stop-color:#8AB9CD;stop-opacity:0.96"/>
		<stop  offset="0.4" style="stop-color:#96C0D1;stop-opacity:0.86"/>
		<stop  offset="0.55" style="stop-color:#AACBD8;stop-opacity:0.68"/>
		<stop  offset="0.73" style="stop-color:#C5DBE2;stop-opacity:0.44"/>
		<stop  offset="0.92" style="stop-color:#E8EFEE;stop-opacity:0.14"/>
		<stop  offset="1" style="stop-color:#F8F8F4;stop-opacity:0"/>
	</radialGradient>
	<polygon style="fill:url(#SVGID_00000106840711240983314510000001670133330426847396_);" points="338.2,537.5 338.2,618.8 
		380.5,594.4 380.5,513.1 	"/>
	
		<radialGradient id="SVGID_00000109728809931990154440000003469071821415378057_" cx="450.74" cy="313.77" r="155.87" gradientTransform="matrix(1 0 0 -1 0 752)" gradientUnits="userSpaceOnUse">
		<stop  offset="0.19" style="stop-color:#86B7CC"/>
		<stop  offset="0.28" style="stop-color:#8AB9CD;stop-opacity:0.96"/>
		<stop  offset="0.4" style="stop-color:#96C0D1;stop-opacity:0.86"/>
		<stop  offset="0.55" style="stop-color:#AACBD8;stop-opacity:0.68"/>
		<stop  offset="0.73" style="stop-color:#C5DBE2;stop-opacity:0.44"/>
		<stop  offset="0.92" style="stop-color:#E8EFEE;stop-opacity:0.14"/>
		<stop  offset="1" style="stop-color:#F8F8F4;stop-opacity:0"/>
	</radialGradient>
	<polygon style="fill:url(#SVGID_00000109728809931990154440000003469071821415378057_);" points="395.6,504.5 395.6,585.9 
		437.9,561.5 437.9,480.2 	"/>
	
		<radialGradient id="SVGID_00000010308426049714913330000018390054982337282487_" cx="244.14" cy="119.7" r="112.27" gradientTransform="matrix(1 0 0 -1 0 752)" gradientUnits="userSpaceOnUse">
		<stop  offset="0.19" style="stop-color:#86B7CC"/>
		<stop  offset="0.28" style="stop-color:#8AB9CD;stop-opacity:0.96"/>
		<stop  offset="0.4" style="stop-color:#96C0D1;stop-opacity:0.86"/>
		<stop  offset="0.55" style="stop-color:#AACBD8;stop-opacity:0.68"/>
		<stop  offset="0.73" style="stop-color:#C5DBE2;stop-opacity:0.44"/>
		<stop  offset="0.92" style="stop-color:#E8EFEE;stop-opacity:0.14"/>
		<stop  offset="1" style="stop-color:#F8F8F4;stop-opacity:0"/>
	</radialGradient>
	<polygon style="fill:url(#SVGID_00000010308426049714913330000018390054982337282487_);" points="280.8,669.4 280.8,750.8 
		323.1,726.3 323.1,645.1 	"/>
	
		<radialGradient id="SVGID_00000078019913225805389970000002720434260524995744_" cx="301.55" cy="152.99" r="112.27" gradientTransform="matrix(1 0 0 -1 0 752)" gradientUnits="userSpaceOnUse">
		<stop  offset="0.19" style="stop-color:#86B7CC"/>
		<stop  offset="0.28" style="stop-color:#8AB9CD;stop-opacity:0.96"/>
		<stop  offset="0.4" style="stop-color:#96C0D1;stop-opacity:0.86"/>
		<stop  offset="0.55" style="stop-color:#AACBD8;stop-opacity:0.68"/>
		<stop  offset="0.73" style="stop-color:#C5DBE2;stop-opacity:0.44"/>
		<stop  offset="0.92" style="stop-color:#E8EFEE;stop-opacity:0.14"/>
		<stop  offset="1" style="stop-color:#F8F8F4;stop-opacity:0"/>
	</radialGradient>
	<polygon style="fill:url(#SVGID_00000078019913225805389970000002720434260524995744_);" points="338.2,636.1 338.2,717.5 
		380.5,693.1 380.5,611.8 	"/>
	
		<radialGradient id="SVGID_00000082357939605699757290000015078527148500172735_" cx="358.96" cy="185.37" r="112.27" gradientTransform="matrix(1 0 0 -1 0 752)" gradientUnits="userSpaceOnUse">
		<stop  offset="0.19" style="stop-color:#86B7CC"/>
		<stop  offset="0.28" style="stop-color:#8AB9CD;stop-opacity:0.96"/>
		<stop  offset="0.4" style="stop-color:#96C0D1;stop-opacity:0.86"/>
		<stop  offset="0.55" style="stop-color:#AACBD8;stop-opacity:0.68"/>
		<stop  offset="0.73" style="stop-color:#C5DBE2;stop-opacity:0.44"/>
		<stop  offset="0.92" style="stop-color:#E8EFEE;stop-opacity:0.14"/>
		<stop  offset="1" style="stop-color:#F8F8F4;stop-opacity:0"/>
	</radialGradient>
	<polygon style="fill:url(#SVGID_00000082357939605699757290000015078527148500172735_);" points="395.6,603.7 395.6,685.1 
		437.9,660.7 437.9,579.4 	"/>
	
		<radialGradient id="SVGID_00000155845012372366590530000011935334528041911473_" cx="-11117.0498" cy="121.52" r="112.27" gradientTransform="matrix(-1 0 0 -1 -10855.2002 752)" gradientUnits="userSpaceOnUse">
		<stop  offset="0.19" style="stop-color:#86B7CC"/>
		<stop  offset="0.28" style="stop-color:#8AB9CD;stop-opacity:0.96"/>
		<stop  offset="0.4" style="stop-color:#96C0D1;stop-opacity:0.86"/>
		<stop  offset="0.55" style="stop-color:#AACBD8;stop-opacity:0.68"/>
		<stop  offset="0.73" style="stop-color:#C5DBE2;stop-opacity:0.44"/>
		<stop  offset="0.92" style="stop-color:#E8EFEE;stop-opacity:0.14"/>
		<stop  offset="1" style="stop-color:#F8F8F4;stop-opacity:0"/>
	</radialGradient>
	<polygon style="fill:url(#SVGID_00000155845012372366590530000011935334528041911473_);" points="225.2,667.6 225.2,749 
		182.9,724.5 182.9,643.3 	"/>
	
		<radialGradient id="SVGID_00000060020137863227723430000008013095567002926258_" cx="-11059.6396" cy="154.81" r="112.27" gradientTransform="matrix(-1 0 0 -1 -10855.2002 752)" gradientUnits="userSpaceOnUse">
		<stop  offset="0.19" style="stop-color:#86B7CC"/>
		<stop  offset="0.28" style="stop-color:#8AB9CD;stop-opacity:0.96"/>
		<stop  offset="0.4" style="stop-color:#96C0D1;stop-opacity:0.86"/>
		<stop  offset="0.55" style="stop-color:#AACBD8;stop-opacity:0.68"/>
		<stop  offset="0.73" style="stop-color:#C5DBE2;stop-opacity:0.44"/>
		<stop  offset="0.92" style="stop-color:#E8EFEE;stop-opacity:0.14"/>
		<stop  offset="1" style="stop-color:#F8F8F4;stop-opacity:0"/>
	</radialGradient>
	<polygon style="fill:url(#SVGID_00000060020137863227723430000008013095567002926258_);" points="167.8,634.3 167.8,715.7 
		125.5,691.2 125.5,610 	"/>
	
		<radialGradient id="SVGID_00000119836059974282023030000004972298585958563768_" cx="-11002.2305" cy="187.19" r="112.27" gradientTransform="matrix(-1 0 0 -1 -10855.2002 752)" gradientUnits="userSpaceOnUse">
		<stop  offset="0.19" style="stop-color:#86B7CC"/>
		<stop  offset="0.28" style="stop-color:#8AB9CD;stop-opacity:0.96"/>
		<stop  offset="0.4" style="stop-color:#96C0D1;stop-opacity:0.86"/>
		<stop  offset="0.55" style="stop-color:#AACBD8;stop-opacity:0.68"/>
		<stop  offset="0.73" style="stop-color:#C5DBE2;stop-opacity:0.44"/>
		<stop  offset="0.92" style="stop-color:#E8EFEE;stop-opacity:0.14"/>
		<stop  offset="1" style="stop-color:#F8F8F4;stop-opacity:0"/>
	</radialGradient>
	<polygon style="fill:url(#SVGID_00000119836059974282023030000004972298585958563768_);" points="110.4,601.9 110.4,683.3 
		68.1,658.8 68.1,577.6 	"/>
	
		<radialGradient id="SVGID_00000119810271111990039760000013785572829233329028_" cx="456.31" cy="275.25" r="112.27" gradientTransform="matrix(1 0 0 -1 0 752)" gradientUnits="userSpaceOnUse">
		<stop  offset="0.19" style="stop-color:#86B7CC"/>
		<stop  offset="0.28" style="stop-color:#8AB9CD;stop-opacity:0.96"/>
		<stop  offset="0.4" style="stop-color:#96C0D1;stop-opacity:0.86"/>
		<stop  offset="0.55" style="stop-color:#AACBD8;stop-opacity:0.68"/>
		<stop  offset="0.73" style="stop-color:#C5DBE2;stop-opacity:0.44"/>
		<stop  offset="0.92" style="stop-color:#E8EFEE;stop-opacity:0.14"/>
		<stop  offset="1" style="stop-color:#F8F8F4;stop-opacity:0"/>
	</radialGradient>
	<polygon style="fill:url(#SVGID_00000119810271111990039760000013785572829233329028_);" points="493,513.8 493,595.2 535.3,570.8 
		535.3,489.5 	"/>
	
		<radialGradient id="SVGID_00000121971637209990703810000015528939997005846410_" cx="513.72" cy="308.15" r="112.27" gradientTransform="matrix(1 0 0 -1 0 752)" gradientUnits="userSpaceOnUse">
		<stop  offset="0.19" style="stop-color:#86B7CC"/>
		<stop  offset="0.28" style="stop-color:#8AB9CD;stop-opacity:0.96"/>
		<stop  offset="0.4" style="stop-color:#96C0D1;stop-opacity:0.86"/>
		<stop  offset="0.55" style="stop-color:#AACBD8;stop-opacity:0.68"/>
		<stop  offset="0.73" style="stop-color:#C5DBE2;stop-opacity:0.44"/>
		<stop  offset="0.92" style="stop-color:#E8EFEE;stop-opacity:0.14"/>
		<stop  offset="1" style="stop-color:#F8F8F4;stop-opacity:0"/>
	</radialGradient>
	<polygon style="fill:url(#SVGID_00000121971637209990703810000015528939997005846410_);" points="550.4,481 550.4,562.3 
		592.7,537.9 592.7,456.6 	"/>
	
		<radialGradient id="SVGID_00000017515517769359712880000011135604911345425063_" cx="-10650.5303" cy="250.23" r="155.87" gradientTransform="matrix(-1 0 0 -1 -10480.7695 752)" gradientUnits="userSpaceOnUse">
		<stop  offset="0.19" style="stop-color:#86B7CC"/>
		<stop  offset="0.28" style="stop-color:#8AB9CD;stop-opacity:0.96"/>
		<stop  offset="0.4" style="stop-color:#96C0D1;stop-opacity:0.86"/>
		<stop  offset="0.55" style="stop-color:#AACBD8;stop-opacity:0.68"/>
		<stop  offset="0.73" style="stop-color:#C5DBE2;stop-opacity:0.44"/>
		<stop  offset="0.92" style="stop-color:#E8EFEE;stop-opacity:0.14"/>
		<stop  offset="1" style="stop-color:#F8F8F4;stop-opacity:0"/>
	</radialGradient>
	<polygon style="fill:url(#SVGID_00000017515517769359712880000011135604911345425063_);" points="224.9,568.1 224.9,649.5 
		182.6,625 182.6,543.8 	"/>
	
		<radialGradient id="SVGID_00000111153070930197008640000009290210586579412665_" cx="175.4374" cy="509.3858" r="83.9027" gradientUnits="userSpaceOnUse">
		<stop  offset="0.19" style="stop-color:#86B7CC"/>
		<stop  offset="0.28" style="stop-color:#8AB9CD;stop-opacity:0.96"/>
		<stop  offset="0.4" style="stop-color:#96C0D1;stop-opacity:0.86"/>
		<stop  offset="0.55" style="stop-color:#AACBD8;stop-opacity:0.68"/>
		<stop  offset="0.73" style="stop-color:#C5DBE2;stop-opacity:0.44"/>
		<stop  offset="0.92" style="stop-color:#E8EFEE;stop-opacity:0.14"/>
		<stop  offset="1" style="stop-color:#F8F8F4;stop-opacity:0"/>
	</radialGradient>
	<polygon style="fill:url(#SVGID_00000111153070930197008640000009290210586579412665_);" points="167.5,535.2 167.5,616.6 
		125.1,592.1 125.1,510.9 	"/>
	
		<radialGradient id="SVGID_00000035515446340130640640000007669595601256349090_" cx="-10536.2197" cy="315.52" r="155.87" gradientTransform="matrix(-1 0 0 -1 -10480.7695 752)" gradientUnits="userSpaceOnUse">
		<stop  offset="0.19" style="stop-color:#86B7CC"/>
		<stop  offset="0.28" style="stop-color:#8AB9CD;stop-opacity:0.96"/>
		<stop  offset="0.4" style="stop-color:#96C0D1;stop-opacity:0.86"/>
		<stop  offset="0.55" style="stop-color:#AACBD8;stop-opacity:0.68"/>
		<stop  offset="0.73" style="stop-color:#C5DBE2;stop-opacity:0.44"/>
		<stop  offset="0.92" style="stop-color:#E8EFEE;stop-opacity:0.14"/>
		<stop  offset="1" style="stop-color:#F8F8F4;stop-opacity:0"/>
	</radialGradient>
	<polygon style="fill:url(#SVGID_00000035515446340130640640000007669595601256349090_);" points="110.6,502.8 110.6,584.2 
		68.2,559.7 68.2,478.5 	"/>
	
		<radialGradient id="SVGID_00000060710373512861116070000012021121059008850308_" cx="85.07" cy="282.91" r="72.97" gradientTransform="matrix(1 0 0 -1 0 752)" gradientUnits="userSpaceOnUse">
		<stop  offset="0.19" style="stop-color:#86B7CC"/>
		<stop  offset="0.28" style="stop-color:#8AB9CD;stop-opacity:0.96"/>
		<stop  offset="0.4" style="stop-color:#96C0D1;stop-opacity:0.86"/>
		<stop  offset="0.55" style="stop-color:#AACBD8;stop-opacity:0.68"/>
		<stop  offset="0.73" style="stop-color:#C5DBE2;stop-opacity:0.44"/>
		<stop  offset="0.92" style="stop-color:#E8EFEE;stop-opacity:0.14"/>
		<stop  offset="1" style="stop-color:#F8F8F4;stop-opacity:0"/>
	</radialGradient>
	<polygon style="fill:url(#SVGID_00000060710373512861116070000012021121059008850308_);" points="54.1,469 54.1,550.4 11.8,526 
		11.8,444.7 	"/>
	
		<radialGradient id="SVGID_00000101082508778138209620000007491462485342477712_" cx="71.14" cy="193.48" r="68.94" fx="45.11" fy="193.48" gradientTransform="matrix(1 0 0 -1 0 752)" gradientUnits="userSpaceOnUse">
		<stop  offset="0.19" style="stop-color:#86B7CC"/>
		<stop  offset="0.28" style="stop-color:#8AB9CD;stop-opacity:0.96"/>
		<stop  offset="0.4" style="stop-color:#96C0D1;stop-opacity:0.86"/>
		<stop  offset="0.55" style="stop-color:#AACBD8;stop-opacity:0.68"/>
		<stop  offset="0.73" style="stop-color:#C5DBE2;stop-opacity:0.44"/>
		<stop  offset="0.92" style="stop-color:#E8EFEE;stop-opacity:0.14"/>
		<stop  offset="1" style="stop-color:#F8F8F4;stop-opacity:0"/>
	</radialGradient>
	<polygon style="fill:url(#SVGID_00000101082508778138209620000007491462485342477712_);" points="54.1,568.1 54.1,649.5 11.8,625 
		11.8,543.8 	"/>
	<g>
		<polyline class="st22" points="253.8,732 253.8,552 464.9,430.1 		"/>
		<polyline class="st22" points="464.9,430.1 464.9,396.8 676,274.9 676,486.2 		"/>
		<line class="st22" x1="0.5" y1="566.3" x2="0.5" y2="584.9"/>
		<line class="st22" x1="0.5" y1="515.9" x2="0.5" y2="547.7"/>
		<line class="st22" x1="253.8" y1="552" x2="0.5" y2="406.7"/>
		<polyline class="st22" points="143.4,324.2 211.6,284.8 464.9,430.1 464.9,610.2 		"/>
		<line class="st22" x1="89.4" y1="355.4" x2="122" y2="336.6"/>
		<polyline class="st22" points="25.4,392.4 0.5,406.7 0.5,480.4 		"/>
		<polyline class="st22" points="435.9,446.8 211.6,317.3 211.6,284.8 211.6,122.3 422.7,0.4 577.5,89.8 		"/>
		<line class="st22" x1="211.6" y1="317.3" x2="28.8" y2="422.9"/>
		<g>
			<polygon class="st22" points="183.4,414.9 225.7,439.2 267.9,414.9 225.7,390.5 			"/>
			<line class="st22" x1="225.7" y1="455" x2="225.7" y2="438.7"/>
			<polyline class="st22" points="267.9,414.8 267.9,431 225.7,455 183.4,431.1 183.4,414.9 			"/>
		</g>
		<line class="st22" x1="607.2" y1="268.9" x2="575.9" y2="251.4"/>
		<line class="st22" x1="646.3" y1="292" x2="631.6" y2="283.6"/>
		<polyline class="st22" points="676,274.9 575.9,218.5 577.5,89.8 366.4,211.7 366.4,341.7 464.9,396.8 		"/>
		<polyline class="st22" points="393.9,357.6 575.9,251.4 575.9,218.5 		"/>
		<line class="st22" x1="211.6" y1="122.3" x2="366.4" y2="211.7"/>
		<polyline class="st22" points="478.8,208 478.8,282.3 455.5,295.7 		"/>
		<polyline class="st22" points="422.9,314.4 398,328.7 398,219.6 478.8,173.2 		"/>
		<polygon class="st22" points="403.4,222.8 403.4,269.4 403.4,319.4 473.4,279.1 473.4,182.5 		"/>
		<polyline class="st22" points="543.9,135.4 554.4,129.1 554.4,239 		"/>
		<polyline class="st22" points="502.1,291.3 502.1,160.3 521.2,148.9 		"/>
		<polyline class="st22" points="549,267.2 549,138.7 507.5,163.4 507.5,291.3 		"/>
		<g>
			<ellipse class="st22" cx="621.1" cy="267" rx="14.4" ry="7.6"/>
			<path class="st22" d="M607.2,268.9l4.6,18.1l0.2,0.6c0.8,2.3,4.7,4.1,9.4,4.1s8.5-1.8,9.4-4.1l0.2-0.6l4.8-20"/>
		</g>
		<g>
			<path class="st22" d="M605.7,293.5c8,0,14.4,3.4,14.4,7.6s-6.5,7.6-14.4,7.6s-14.4-3.4-14.4-7.6c0-0.6,0.1-1.2,0.4-1.7"/>
			<line class="st22" x1="618.4" y1="308.2" x2="620.1" y2="301"/>
			<line class="st22" x1="591.7" y1="302.9" x2="596.3" y2="321"/>
		</g>
		<g>
			<path class="st22" d="M623.1,267c0-10,5.9-19.7,14.7-24.4c8.8-4.7,20.1-4.1,28.4,1.4"/>
			<path class="st22" d="M688.9,257.7c-1,0-2.2,0.2-3.2,0.4c-0.2-0.9-0.3-1.8-0.8-2.5c-0.7-1-2.4-1.5-2.9-0.1
				c-0.4,1.1,0,2.4,0.2,3.5c0,0-0.1,0-0.1,0c-0.7,0.2-1.4,0.5-2.2,0.7c0-0.4-0.1-0.7-0.2-1.1c-0.2-1.1-0.3-2.4-1-3.4
				c-0.7-1-2.4-1.5-2.9-0.1c-0.4,1.1,0,2.6,0.2,3.7c0.1,0.5,0.3,1.1,0.4,1.6c-1.6,0.2-3.2,0.3-4.9,0.3c0.1-0.6,0.2-1.3,0.2-2
				c0-1.2,0.2-2.4-0.2-3.6c-0.4-1.1-2-2-2.8-0.7c-0.6,1-0.6,2.5-0.6,3.7c0,0.7,0,1.4,0.1,2.1c-3.7-0.8-7.2-3-7.3-7.1
				c-0.2-3.3,1.1-7.1,5.3-9.2c0,0-1.3-3.8,1.1-7.5c2.2-3.3,5.7-5.4,9.9-3.9c1.8,0.6,3.2,1.6,4.5,2.7c-0.8,0.3-1.5,0.7-2.2,1.2
				c-1,0.6-2.3,1.4-2.8,2.5c-0.7,1.4,0.9,2.3,2.1,2c1.2-0.2,2.2-1.1,3.1-1.7c0.7-0.5,1.3-0.9,1.9-1.5c0.9,1.4,1.7,2.9,2.2,4.5
				c-0.6,0.1-1.2,0.3-1.7,0.5c-1.1,0.4-2.5,0.9-3.3,1.8c-1,1.2,0.4,2.4,1.6,2.4c1.2,0,2.3-0.6,3.4-1c0.3-0.1,0.7-0.3,1-0.4
				c0.2,1.1,0.5,2.2,0.6,3.3c0,0-0.1,0-0.1,0c-1.1,0.4-2.5,0.9-3.3,1.8c-1,1.2,0.4,2.4,1.6,2.4c0.8,0,1.6-0.2,2.3-0.6
				C688.4,254.4,688.6,256.1,688.9,257.7L688.9,257.7z"/>
			<path class="st22" d="M662.8,199c-0.2,0.5-0.3,1.1-0.4,1.7c-0.2,0.9-1,1.6-2,1.6c-0.4,0-0.8,0-1.3,0.2c-1.3,0.4-2.4,2-1,3
				c1,0.7,2.5,0.9,3.8,1c0,0.1,0,0.1,0,0.2v0c0,1.3-1.1,2.3-2.3,2.1c-1.1-0.1-2.2-0.2-2.8,0c-1.3,0.4-2.4,2-1,3c1,0.8,2.8,0.9,4,1
				c0.6,0.1,1.2,0.1,1.8,0.1c-0.2,1-0.4,2-0.7,2.9c-0.3,1.2-1.6,1.8-2.8,1.4c-1.3-0.5-7.1-2.6-7.9-2.6c-1.4,0.1-2.8,1.4-1.7,2.7
				c0.8,1,6.7,3.1,7.8,3.5c0.8,0.3,1.5,0.4,2.3,0.6c-2.1,3.6-5.6,6.5-10,5.3c-3.5-1-7.2-3.6-7.8-8.8c0,0-4.5,0.1-7.5-3.7
				c-2.7-3.4-3.7-7.9-0.7-11.8c1.3-1.6,2.8-2.9,4.4-3.8c0.1,0.9,0.3,1.9,0.5,2.7c0.3,1.2,2.2,6.9,3.2,7.8c1.3,1.2,2.7-0.2,2.8-1.5
				c0.1-1.3-1.9-6.7-2.3-7.9v0c-0.4-1.4,0.5-2.9,1.9-3.1c0.9-0.1,1.8-0.2,2.6-0.2c-0.1,0.7-0.1,1.3,0,2c0.1,1.3,0,3,0.8,4.1
				c1,1.4,2.7,0.4,3.1-0.9c0.2-0.5,0.2-1.5,0.2-2.4c0-1.4,1.2-2.6,2.7-2.3c0.3,0,0.5,0.1,0.8,0.1c0,0,0,0.1,0,0.1
				c0.1,1.3,0.1,3,0.8,4.1c1,1.5,2.7,0.4,3.1-0.9c0.1-0.2,0.1-0.3,0.1-0.5c0.2-1.1,1.4-1.9,2.6-1.6L662.8,199L662.8,199z"/>
			<path class="st22" d="M617,266.9c-0.6-19.3,12.1-34.4,23.5-48.5"/>
			<path class="st22" d="M613.8,269.1c0.8-2.4,3.9-2.9,6.2-2.2c2.4-0.6,5.2,0.4,5.2,0.4"/>
		</g>
		<g>
			<path class="st22" d="M664.1,312.6c-3.4-3.6-11-5.3-11.9-6c0.4-0.4,0.7-0.7,1-1.1c0.6-0.7,1.2-1.4,1.5-2.2
				c0.3-0.9-0.3-2.1-1.4-1.7c-0.8,0.3-1.5,1.3-2,2c-0.3,0.4-0.6,0.9-0.9,1.4c-1.9-2.2-3-5.1-1.2-7.7c1.4-2.1,3.9-3.9,7.5-3.1
				c0,0,1-2.9,4.1-4c2.8-1,5.9-0.6,7.8,2.2c0.8,1.2,1.2,2.4,1.5,3.7c-0.6-0.1-1.3-0.2-1.9-0.3c-0.9,0-2-0.2-2.8,0.2
				c-1.1,0.6-0.5,1.8,0.4,2.2c0.8,0.4,1.8,0.3,2.7,0.4c0.6,0,1.2,0,1.8,0C670.1,299.5,663.9,307.4,664.1,312.6L664.1,312.6z"/>
			<path class="st22" d="M626.5,269.7c4.3-4.2,10.2-3.6,15-0.4c8.3,5.7,10.2,16.5,15.1,24.7"/>
			<path class="st22" d="M624,269.5c1.7-0.4,3.5,0.4,4.2,1.6"/>
		</g>
		<path class="st22" d="M603.5,300.1c-1.3-2.1-2.6-4.3-4-6.4c-5.9-8.9-18.9-13.2-29.1-11.7"/>
		<path class="st22" d="M570.9,282c-1.3-1.1-2.5-2.2-3.5-3.6c-0.8-1.1-2.2-3.2-1-4.5c1.2-1.3,3.9,0,5,0.8c2.3,1.6,4,5,5.7,7.1"/>
		<path class="st22" d="M570.9,281.8c-1.3,1.1-2.5,2.2-3.5,3.6c-0.8,1.1-2.2,3.2-1,4.5c1.2,1.3,3.9,0,5-0.8c2.3-1.6,4-5,5.7-7.1"/>
		<path class="st22" d="M579.2,282c-1.3,1.1-2.3,2.9-3.2,4.3c-0.8,1.1-2.8,3.2-1.7,4.4c1.2,1.3,3.9,0,5-0.8c2.3-1.6,4-5,5.7-7.1"/>
		<path class="st22" d="M586.7,284c-1,1.9-2.8,4.5-3.8,5.9c-0.8,1.1-2.8,3.2-1.7,4.4c1.2,1.3,3.9,0,5-0.8c2.3-1.6,4.6-4.5,5.9-7"/>
		<path class="st22" d="M594.2,288.2c-1.4,2.6-4.5,5.2-5.9,6.5c-1.1,1-3.8,2.8-2.8,4.5c1,1.7,4.2,0.8,5.6,0.2
			c2.8-1.2,6.3-3.2,8.3-5.4"/>
		<path class="st22" d="M579,282c-0.9-1.4-1.8-2.8-2.4-4.4c-0.4-1.2-1.3-3.7,0.2-4.6c1.5-0.9,3.7,1,4.6,2.1c1.8,2.1,2.5,5.9,3.6,8.4
			"/>
		<path class="st22" d="M586.7,284c-0.6-1.6-1.2-3.2-1.3-4.9c-0.2-1.3-0.4-3.9,1.2-4.4c1.7-0.6,3.4,1.9,4,3.1c1.2,2.5,1.1,6.3,1.7,9
			"/>
		<path class="st22" d="M594.2,288.2c-0.1-1.7-0.2-3.4,0.1-5c0.2-1.3,0.7-3.8,2.4-3.9c1.7-0.1,2.7,2.8,3,4.1c0.5,2.7-0.8,6.4-1,9.1"
			/>
		<path class="st22" d="M599.8,294.3c0.4-1.6,0.7-3.3,1.5-4.8c0.6-1.2,1.7-3.5,3.4-3.1c1.7,0.4,1.9,3.4,1.7,4.7
			c-0.3,2.8-2,6.1-3,8.6"/>
		<path class="st22" d="M595.8,301.3c1.3-1.5,3.5-2.2,5.4-1.6c0.5,0.2,1.1,0.4,1.6,0.5c2.1,0.4,4.2-1.3,6.3-1.3
			c1.3,0,2.5,0.8,3.6,1.5"/>
		<polygon class="st22" points="493,414.8 493,496.2 535.3,471.7 535.3,390.5 		"/>
		<polygon class="st22" points="550.4,381.9 550.4,463.3 592.7,438.8 592.7,357.6 		"/>
		<polygon class="st22" points="607.8,349 607.8,430.4 650.1,405.9 650.1,324.7 		"/>
		<polyline class="st22" points="535.3,556.4 535.3,489.5 493,513.8 493,595.2 		"/>
		<polyline class="st22" points="592.7,529.4 592.7,456.6 550.4,481 550.4,542.4 		"/>
		<polyline class="st22" points="650.1,485.6 650.1,423.7 607.8,448 607.8,522.2 		"/>
		<polygon class="st22" points="280.8,570.5 280.8,651.9 323.1,627.4 323.1,546.2 		"/>
		<polygon class="st22" points="338.2,537.6 338.2,619 380.5,594.5 380.5,513.3 		"/>
		<polygon class="st22" points="395.6,504.7 395.6,586.1 437.9,561.6 437.9,480.4 		"/>
		<polyline class="st22" points="323.1,712.1 323.1,645.2 280.8,669.6 280.8,722 		"/>
		<polyline class="st22" points="380.5,671.8 380.5,612.3 338.2,636.7 338.2,698.1 		"/>
		<polyline class="st22" points="437.9,641.3 437.9,579.4 395.6,603.8 395.6,664.6 		"/>
		<polygon class="st22" points="225.2,567.9 225.2,649.3 182.9,624.9 182.9,543.6 		"/>
		<polygon class="st22" points="167.8,535 167.8,616.4 125.5,592 125.5,510.7 		"/>
		<polygon class="st22" points="110.4,502.1 110.4,583.5 68.1,559.1 68.1,477.8 		"/>
		<polyline class="st22" points="182.9,709.5 182.9,642.7 225.2,667 225.2,719.4 		"/>
		<polyline class="st22" points="125.5,669.3 125.5,609.8 167.8,634.1 167.8,695.5 		"/>
		<polyline class="st22" points="68.1,638.7 68.1,576.9 110.4,601.2 110.4,662.1 		"/>
		<polyline class="st22" points="21.1,450.4 54.1,469.4 54.1,550.7 11.8,526.3 		"/>
		<polyline class="st22" points="18,547.7 54.1,568.4 54.1,629.3 		"/>
	</g>
</g>
<line class="st22" x1="245.8" y1="359.8" x2="355.1" y2="422.9"/>
<line class="st22" x1="191.9" y1="328.7" x2="221.7" y2="345.9"/>
<line class="st22" x1="250.1" y1="492.8" x2="285.6" y2="513.3"/>
<line class="st22" x1="164.4" y1="443.3" x2="211.6" y2="470.5"/>
<line class="st22" x1="122.4" y1="419.1" x2="146.3" y2="432.9"/>
<line class="st22" x1="437.9" y1="203.4" x2="437.9" y2="299.8"/>
<line class="st22" x1="403.6" y1="273.2" x2="473.4" y2="233.3"/>
</svg>
