<?xml version="1.0" encoding="UTF-8"?><svg xmlns="http://www.w3.org/2000/svg" xmlns:xlink="http://www.w3.org/1999/xlink" viewBox="0 0 978.63 711.36"><defs><style>.k{fill:url(#g);}.l{fill:url(#f);}.m{fill:url(#i);}.n{stroke:#2d5261;}.n,.o{fill:none;stroke-linejoin:bevel;}.o{stroke:#ff7e2f;}.p{fill:url(#e);}.p,.q,.r,.s{opacity:.93;}.q{fill:url(#d);}.r{fill:url(#j);}.s{fill:url(#h);}</style><radialGradient id="d" cx="323.56" cy="-90.59" fx="323.56" fy="-90.59" r="728.38" gradientTransform="matrix(1, 0, 0, 1, 0, 0)" gradientUnits="userSpaceOnUse"><stop offset=".19" stop-color="#86b7cc"/><stop offset=".28" stop-color="#8ab9cd" stop-opacity=".96"/><stop offset=".4" stop-color="#96c0d1" stop-opacity=".86"/><stop offset=".55" stop-color="#aacbd8" stop-opacity=".68"/><stop offset=".73" stop-color="#c5dbe2" stop-opacity=".44"/><stop offset=".92" stop-color="#e8efee" stop-opacity=".14"/><stop offset="1" stop-color="#f8f8f4" stop-opacity="0"/></radialGradient><radialGradient id="e" cx="245.84" cy="242.07" fx="245.84" fy="242.07" r="94.08" xlink:href="#d"/><radialGradient id="f" cx="212.18" cy="394.78" fx="212.18" fy="394.78" r="104.98" gradientTransform="matrix(1, 0, 0, 1, 0, 0)" gradientUnits="userSpaceOnUse"><stop offset=".26" stop-color="#ff7e2f"/><stop offset=".32" stop-color="#fe8135" stop-opacity=".97"/><stop offset=".42" stop-color="#fe8c45" stop-opacity=".88"/><stop offset=".54" stop-color="#fd9d61" stop-opacity=".75"/><stop offset=".68" stop-color="#fbb487" stop-opacity=".55"/><stop offset=".83" stop-color="#fad2b7" stop-opacity=".31"/><stop offset="1" stop-color="#f8f6f2" stop-opacity="0"/><stop offset="1" stop-color="#f8f8f4" stop-opacity="0"/></radialGradient><radialGradient id="g" cx="313.86" cy="535.36" fx="313.86" fy="535.36" r="168.65" xlink:href="#f"/><radialGradient id="h" cx="353.85" cy="275.84" fx="353.85" fy="275.84" r="147.69" xlink:href="#d"/><radialGradient id="i" cx="396.17" cy="583.53" fx="396.17" fy="583.53" r="168.65" xlink:href="#f"/><radialGradient id="j" cx="436.17" cy="324.02" fx="436.17" fy="324.02" r="147.69" xlink:href="#d"/></defs><g id="a"/><g id="b"><g id="c"><g><line class="o" x1="221.31" y1="444.45" x2="221.31" y2="465.75"/><polygon class="q" points="544.93 601.26 544.93 349.68 577.7 289.67 942.4 77.77 978.63 98.69 978.63 349.68 544.93 601.26"/><path class="p" d="M222.59,267.46c-1.53,3.16-3.57,6.02-5.63,8.46l32.19,18.53v48.66l10.04-5.73v-49.01l-36.6-20.9Z"/><line class="n" x1="113.86" y1="404.51" x2="113.86" y2="364.61"/><line class="n" x1="244.58" y1="501.29" x2="224.37" y2="489.63"/><polyline class="n" points="464.4 411.99 464.4 628.16 352.61 563.64"/><polyline class="n" points="259.18 291.62 259.18 288.36 222.31 267.3"/><polyline class="n" points="210.12 282.75 210.12 320.9 249.07 343.15 259.18 337.37 259.18 295.03"/><polyline class="o" points="210.12 282.81 210.12 320.9 249.07 343.15 249.07 294.13 217.16 275.91"/><polyline class="l" points="210.12 282.23 210.12 320.32 249.07 342.57 249.07 293.56 217.19 275.35"/><polyline class="o" points="210.12 282.69 210.12 320.9 249.07 343.15 249.07 294.13 217.03 275.83"/><path class="n" d="M53.64,702.42c-18.59-2.99-36.46-6.66-53.52-10.78"/><path class="n" d="M232.2,706.36c-41.17,5.03-80.84,5.57-118.34,2.99"/><path class="n" d="M624.98,535.12l-160.59,93.04c-64.37,36.93-128.04,59.32-189.02,71.32"/><polyline class="o" points="500.34 96.92 423.81 140.25 423.81 402.98"/><g><polyline class="k" points="275.73 310.17 275.73 438.73 331.39 470.87 331.39 342.31 275.73 310.17"/><g><polygon class="s" points="285.84 304.4 275.73 310.09 331.28 342.27 331.28 470.81 331.39 470.87 341.5 465.1 341.5 336.54 285.84 304.4"/><polygon class="n" points="275.73 310.09 275.73 438.73 331.39 470.87 341.5 465.1 341.5 336.54 285.84 304.4 275.73 310.09"/><polyline class="o" points="249.07 294.13 259.18 288.36 285.84 304.4 275.73 310.09 275.73 438.73 331.39 470.87 331.3 342.26 275.64 310.04"/></g></g><g><polyline class="m" points="358.04 358.35 358.04 486.91 413.7 519.05 413.7 390.49 358.04 358.35"/><g><polygon class="r" points="368.15 352.58 358.04 358.27 413.6 390.45 413.6 518.99 413.7 519.05 423.81 513.28 423.81 384.72 368.15 352.58"/><polygon class="n" points="358.04 358.27 358.04 486.91 413.7 519.05 423.81 513.28 423.81 384.72 368.15 352.58 358.04 358.27"/><polyline class="o" points="413.7 519.05 413.62 390.44 357.95 358.22"/></g></g><line class="o" x1="538.22" y1="492.42" x2="545.32" y2="488.2"/><polyline class="o" points="331.39 342.31 341.5 336.54 368.15 352.58 358.04 358.27 358.04 486.91 413.7 519.05 423.81 513.28 464.4 536.3 538.22 492.42"/><line class="n" x1="515.25" y1="539.95" x2="482.52" y2="558.85"/><line class="n" x1="204.16" y1="193.38" x2="227.95" y2="207.12"/><line class="n" x1="221.53" y1="224.58" x2="275.37" y2="255.67"/><line class="n" x1="224.88" y1="181.59" x2="337.41" y2="246.57"/><path class="n" d="M55.15,177.13c-8.05,38.95-15.81,67.05-15.81,67.05,0,0,17.01,.3,38.2-8.85"/><path class="n" d="M71.94,61.08c-1.26,20.31-3.82,41.5-6.98,61.97"/><path class="n" d="M133.95,251.67c-9.55,8.17-20.19,15.19-31.43,21.2-35.45,18.98-54.26,58.95-47.54,98.6,7.61,44.91,23.93,98.7,58.88,130.36"/><path class="n" d="M105.69,458.48c-11.25-6.02-17.52-20.08-14.48-32.47,3.04-12.39,15.12-21.95,27.87-22.07,3.07-8.56,7.04-17.21,14.09-22.95,10.5-8.54,27.15-8.29,37.39,.55,10.25,8.85,12.92,25.27,6,36.91,9.88-2.36,20.99,1.69,27.03,9.86s6.65,19.98,1.49,28.73c3.85,.5,7.84,1.06,11.12,3.15,3.68,2.35,5.99,6.37,7.4,10.5,3.82,11.17,1.48,24.65-7.13,32.73-8.6,8.08-23.44,9.17-32.2,1.26"/><path class="n" d="M230.32,532.44c-3.31-6.46-6.68-13.98-3.94-20.7,1.89-4.62,6.41-7.76,11.18-9.21,4.78-1.45,9.86-1.45,14.85-1.45-5.99-9.28-2.94-23.45,4.8-30.87,11.7-11.21,30.06,5.4,29.31,18.62,5.25-1.23,16.16-8.94,31.03,3.24,10.34,8.47,7.89,23.4,5.76,28.42,7.31-2.89,16-1.14,22.26,3.61,6.26,4.75,10.18,12.17,11.62,19.89,.82,4.4,.87,9.06-.7,13.25-1.97,5.27-6.29,9.34-10.97,12.45-11.77,7.82-28.16,10.33-39.87,2.43"/><g><line class="n" x1="410.08" y1="119.75" x2="384.38" y2="71.84"/><polyline class="n" points="675.25 182.17 498.46 284.49 450.98 195.99"/><line class="n" x1="724.34" y1="153.76" x2="675.25" y2="182.17"/><line class="n" x1="407.23" y1="139.58" x2="332.48" y2=".24"/><polyline class="n" points="661.79 201.33 493.79 298.57 446.31 210.06"/><line class="n" x1="465.3" y1="245.46" x2="465.3" y2="352.27"/><line class="n" x1="570.13" y1="277.04" x2="738.23" y2="179.76"/><polyline class="n" points="814.15 151.83 577.7 289.67 545.32 349.68 545.32 581.27"/></g><line class="n" x1="710.39" y1="212.45" x2="858.05" y2="298.23"/><line class="n" x1="751.41" y1="188.72" x2="751.41" y2="236.28"/><path class="n" d="M289.9,525.27c4.3-2.72,10.25-3.23,14.4-.28,4.15,2.95,5.42,9.66,1.88,13.32,3.37-.01,6.7,.7,9.96,1.55,2.38,.62,4.78,1.33,6.83,2.68,2.05,1.35,3.74,3.44,4.07,5.88s-1.02,5.15-3.36,5.91"/><path class="n" d="M247.26,522.6c-.05-3.66,2.79-6.92,6.18-8.29,3.4-1.38,7.22-1.2,10.84-.58,.9,.15,1.81,.34,2.61,.77"/><path class="n" d="M270.84,504.43c5.98-2.96,18.47-4.94,20.9,3.98"/><path class="n" d="M134.06,435.29c1.88-6.94,9.15-12.07,16.3-11.29,7.15,.78,13.2,7.56,12.94,14.75-.05,1.5-.35,2.99-.87,4.4,4.82-1.88,10.57,.33,13.85,4.33s4.43,9.38,4.37,14.55"/><path class="n" d="M97.69,308.43c3.43,6.51,12.6,8.44,19.29,5.36,6.68-3.08,10.97-9.95,12.88-17.06,2.44,2.7,6.87,2.7,10.08,.99s7.67-7.44,7.67-14.65"/><path class="n" d="M173.23,227.46c3.38,1.18,6.53,3.28,8.49,6.28,1.97,3,2.62,6.94,1.26,10.26-.91,2.21-4.13,7.68-10.11,9.15"/><polygon class="n" points="514.71 385.58 514.71 421.61 530.53 412.47 530.53 376.76 514.71 385.58"/><line class="o" x1="221.31" y1="327.39" x2="221.31" y2="444.45"/><polyline class="o" points="214.38 279.42 249.07 299.27 259.18 293.16"/><path class="n" d="M231.88,69.03c10.53,11.66,18.95,27.67,18.95,49.04,0,64.63-50.09,76.38-50.09,76.38,8.92,8.29,16.04,18.84,20.86,30.03,1.33,3.08,8,19.71,3,36.61-7.87,26.57-29.51,27.3-42.07,38.68-18.77,17-23.17,47.54-45.2,60.01-20.81,11.77-48.54,.68-63.16-18.24-5.48-7.09-9.58-14.97-12.78-23.29"/><line class="n" x1="259.18" y1="295.03" x2="259.18" y2="291.62"/></g></g></g></svg>