<?xml version="1.0" encoding="UTF-8"?><svg xmlns="http://www.w3.org/2000/svg" xmlns:xlink="http://www.w3.org/1999/xlink" viewBox="0 0 960.55 1133.82"><defs><style>.be{fill:url(#v);}.bf{fill:url(#g);}.bg{fill:url(#s);}.bh{fill:url(#q);}.bi{fill:url(#r);}.bj{fill:url(#i);}.bk{fill:url(#h);}.bl{fill:url(#k);}.bm{fill:url(#m);}.bn{fill:url(#l);}.bo{fill:url(#n);}.bp{fill:url(#x);}.bq{fill:url(#w);}.br{fill:url(#aa);}.bs{fill:url(#ag);}.bt{fill:url(#ab);}.bu{fill:url(#ah);}.bv{fill:url(#ap);}.bw{fill:url(#af);}.bx{fill:url(#aq);}.by{fill:url(#ar);}.c`{fill:url(#al);}.ca{fill:url(#aw);}.cb{fill:url(#am);}.cc{fill:url(#ac);}.cd{fill:url(#au);}.ce{fill:url(#ak);}.cf{fill:url(#av);}.cg{fill:url(#ba);}.ch{fill:url(#bb);}.ci{fill:url(#b`);}.cj,.ck,.cl,.cm,.cn,.co{fill:none;}.ck,.cl,.cp{stroke-linejoin:bevel;}.ck,.cq,.cn,.cp{stroke:#2d5261;}.cl{stroke:#ff7e2f;}.cr{fill:#2d5261;}.cm,.cq,.cn,.co{stroke-miterlimit:10;}.cm,.co{stroke:#86b7cc;stroke-width:.75px;}.cq,.cp{fill:#f8f8f4;}.cs{clip-path:url(#t);}.ct{clip-path:url(#y);}.cu{clip-path:url(#j);}.cv{clip-path:url(#o);}.cw{clip-path:url(#bc);}.cx{clip-path:url(#as);}.cy{clip-path:url(#an);}.d`{clip-path:url(#ax);}.da{clip-path:url(#ai);}.db{clip-path:url(#ad);}.co{stroke-dasharray:0 0 3 4;}.dc{fill:url(#u);}.dc,.dd,.de,.df,.dg,.dh,.di,.dj,.dk{opacity:.69;}.dd{fill:url(#p);}.de{fill:url(#bd);}.df{fill:url(#at);}.dg{fill:url(#ay);}.dh{fill:url(#a`);}.di{fill:url(#ao);}.dj{fill:url(#aj);}.dk{fill:url(#ae);}.dl{fill:url(#d);opacity:.93;}.dm{fill:url(#f);}.dm,.dn{opacity:.98;}.dn{fill:url(#e);}</style><radialGradient id="d" cx="218.22" cy="441.97" fx="218.22" fy="441.97" r="728.38" gradientTransform="matrix(1, 0, 0, 1, 0, 0)" gradientUnits="userSpaceOnUse"><stop offset=".19" stop-color="#86b7cc"/><stop offset=".28" stop-color="#8ab9cd" stop-opacity=".96"/><stop offset=".4" stop-color="#96c0d1" stop-opacity=".86"/><stop offset=".55" stop-color="#aacbd8" stop-opacity=".68"/><stop offset=".73" stop-color="#c5dbe2" stop-opacity=".44"/><stop offset=".92" stop-color="#e8efee" stop-opacity=".14"/><stop offset="1" stop-color="#f8f8f4" stop-opacity="0"/></radialGradient><radialGradient id="e" cx="226.45" cy="470.14" fx="226.45" fy="470.14" r="217.23" xlink:href="#d"/><radialGradient id="f" cx="288.91" cy="448.3" fx="288.91" fy="448.3" r="273.03" xlink:href="#d"/><radialGradient id="g" cx="886.61" cy="6" fx="886.61" fy="6" r="253.07" gradientTransform="matrix(1, 0, 0, 1, 0, 0)" gradientUnits="userSpaceOnUse"><stop offset=".27" stop-color="#86b7cc"/><stop offset=".34" stop-color="#8ab9cd" stop-opacity=".96"/><stop offset=".46" stop-color="#96c0d1" stop-opacity=".86"/><stop offset=".6" stop-color="#aacbd8" stop-opacity=".68"/><stop offset=".75" stop-color="#c5dbe2" stop-opacity=".44"/><stop offset=".93" stop-color="#e8efee" stop-opacity=".14"/><stop offset="1" stop-color="#f8f8f4" stop-opacity="0"/></radialGradient><radialGradient id="h" cx="886.61" cy="6" fx="886.61" fy="6" r="253.07" xlink:href="#g"/><radialGradient id="i" cx="886.61" cy="6" fx="886.61" fy="6" r="253.07" xlink:href="#g"/><clipPath id="j"><polyline class="cj" points="807.04 211.62 721.03 54.48 813.4 .69 899.72 157.98 807.04 211.62"/></clipPath><linearGradient id="k" x1="726.42" y1="333.03" x2="858.36" y2="-23.4" gradientTransform="matrix(1, 0, 0, 1, 0, 0)" gradientUnits="userSpaceOnUse"><stop offset=".21" stop-color="#f8f8f4" stop-opacity="0"/><stop offset=".77" stop-color="#ff7e2f"/></linearGradient><radialGradient id="l" cx="753.98" cy="150.98" fx="753.98" fy="150.98" r="253.07" xlink:href="#g"/><radialGradient id="m" cx="753.98" cy="150.98" fx="753.98" fy="150.98" r="253.07" xlink:href="#g"/><radialGradient id="n" cx="753.98" cy="150.98" fx="753.98" fy="150.98" r="253.07" xlink:href="#g"/><clipPath id="o"><polyline class="cj" points="674.41 356.6 588.41 199.46 680.77 145.67 767.1 302.96 674.41 356.6"/></clipPath><linearGradient id="p" x1="609.62" y1="406.73" x2="691.54" y2="219.73" xlink:href="#k"/><radialGradient id="q" cx="728.72" cy="422.04" fx="728.72" fy="422.04" r="253.07" xlink:href="#g"/><radialGradient id="r" cx="728.72" cy="422.04" fx="728.72" fy="422.04" r="253.07" xlink:href="#g"/><radialGradient id="s" cx="728.72" cy="422.04" fx="728.72" fy="422.04" r="253.07" xlink:href="#g"/><clipPath id="t"><polyline class="cj" points="649.15 627.66 563.14 470.52 655.5 416.73 741.83 574.02 649.15 627.66"/></clipPath><linearGradient id="u" x1="601.45" y1="638.76" x2="683.37" y2="451.76" xlink:href="#k"/><radialGradient id="v" cx="837.47" cy="356.91" fx="837.47" fy="356.91" r="253.07" xlink:href="#g"/><radialGradient id="w" cx="837.47" cy="356.91" fx="837.47" fy="356.91" r="253.07" xlink:href="#g"/><radialGradient id="x" cx="837.47" cy="356.91" fx="837.47" fy="356.91" r="253.07" xlink:href="#g"/><clipPath id="y"><polyline class="cj" points="757.9 562.53 671.89 405.39 764.25 351.6 850.58 508.89 757.9 562.53"/></clipPath><linearGradient id="a`" x1="705.59" y1="584.16" x2="787.51" y2="397.15" xlink:href="#k"/><radialGradient id="aa" cx="946.63" cy="293.32" fx="946.63" fy="293.32" r="253.07" xlink:href="#g"/><radialGradient id="ab" cx="946.63" cy="293.32" fx="946.63" fy="293.32" r="253.07" xlink:href="#g"/><radialGradient id="ac" cx="946.63" cy="293.32" fx="946.63" fy="293.32" r="253.07" xlink:href="#g"/><clipPath id="ad"><polyline class="cj" points="867.06 498.94 781.06 341.8 873.42 288 959.75 445.3 867.06 498.94"/></clipPath><linearGradient id="ae" x1="809.89" y1="531.69" x2="891.8" y2="344.69" xlink:href="#k"/><radialGradient id="af" cx="619.4" cy="484.87" fx="619.4" fy="484.87" r="253.07" xlink:href="#g"/><radialGradient id="ag" cx="619.4" cy="484.87" fx="619.4" fy="484.87" r="253.07" xlink:href="#g"/><radialGradient id="ah" cx="619.4" cy="484.87" fx="619.4" fy="484.87" r="253.07" xlink:href="#g"/><clipPath id="ai"><polyline class="cj" points="539.83 690.49 453.82 533.35 546.19 479.56 632.51 636.85 539.83 690.49"/></clipPath><linearGradient id="aj" x1="502.4" y1="678.16" x2="584.32" y2="491.16" xlink:href="#k"/><radialGradient id="ak" cx="509.08" cy="548.7" fx="509.08" fy="548.7" r="253.07" xlink:href="#g"/><radialGradient id="al" cx="509.08" cy="548.7" fx="509.08" fy="548.7" r="253.07" xlink:href="#g"/><radialGradient id="am" cx="509.08" cy="548.7" fx="509.08" fy="548.7" r="253.07" xlink:href="#g"/><clipPath id="an"><polyline class="cj" points="429.51 754.32 343.5 597.18 435.87 543.39 522.19 700.68 429.51 754.32"/></clipPath><linearGradient id="ao" x1="396.7" y1="731.46" x2="478.61" y2="544.46" xlink:href="#k"/><radialGradient id="ap" cx="634.83" cy="249.17" fx="634.83" fy="249.17" xlink:href="#g"/><radialGradient id="aq" cx="634.83" cy="249.17" fx="634.83" fy="249.17" r="253.07" xlink:href="#g"/><radialGradient id="ar" cx="634.83" cy="249.17" fx="634.83" fy="249.17" r="253.07" xlink:href="#g"/><clipPath id="as"><polyline class="cj" points="555.26 454.79 469.26 297.65 561.62 243.86 647.95 401.15 555.26 454.79"/></clipPath><linearGradient id="at" x1="496.94" y1="490.17" x2="578.86" y2="303.17" xlink:href="#k"/><radialGradient id="au" cx="525.51" cy="312" fx="525.51" fy="312" xlink:href="#g"/><radialGradient id="av" cx="525.51" cy="312" fx="525.51" fy="312" r="253.07" xlink:href="#g"/><radialGradient id="aw" cx="525.51" cy="312" fx="525.51" fy="312" r="253.07" xlink:href="#g"/><clipPath id="ax"><polyline class="cj" points="445.94 517.62 359.94 360.48 452.3 306.69 538.63 463.98 445.94 517.62"/></clipPath><linearGradient id="ay" x1="405.09" y1="513.13" x2="487.01" y2="326.12" xlink:href="#k"/><radialGradient id="b`" cx="415.2" cy="375.83" fx="415.2" fy="375.83" xlink:href="#g"/><radialGradient id="ba" cx="415.2" cy="375.83" fx="415.2" fy="375.83" r="253.07" xlink:href="#g"/><radialGradient id="bb" cx="415.2" cy="375.83" fx="415.2" fy="375.83" r="253.07" xlink:href="#g"/><clipPath id="bc"><polyline class="cj" points="335.63 581.45 249.62 424.31 341.98 370.52 428.31 527.81 335.63 581.45"/></clipPath><linearGradient id="bd" x1="299.96" y1="565.1" x2="381.88" y2="378.1" xlink:href="#k"/></defs><g id="a"/><g id="b"><g id="c"><g><polygon class="dl" points="439.6 1133.82 440.9 879.78 472.85 820.64 837.07 610.34 873.29 631.25 873.29 882.25 439.6 1133.82"/><line class="ck" x1="88.44" y1="517.2" x2=".34" y2="597.11"/><polygon class="dn" points="168.58 493.19 168.58 641.93 73.64 588.4 168.58 493.19"/><polygon class="dm" points="309.81 725.23 191.73 656.59 191.73 505.09 309.81 725.23"/><line class="ck" x1="31.88" y1="582.19" x2="31.88" y2="700.02"/><polygon class="ck" points="168.58 493.19 168.58 641.93 73.64 588.4 168.58 493.19"/><polygon class="ck" points="309.81 725.23 191.73 656.59 191.73 505.09 309.81 725.23"/><polyline class="cl" points="359.46 643.41 315.74 668.17 315.74 872.08"/><g><polyline class="ck" points="307.03 652.19 190.03 434.09 88.44 517.2"/><polyline class="ck" points="879.68 534.46 394.51 815.26 347.51 727.65"/><polyline class="ck" points="304.21 671.81 187.21 453.71 85.62 536.82"/><polyline class="ck" points="745.19 623.55 389.89 829.19 342.89 741.58"/><line class="ck" x1="190.39" y1="434.09" x2="536.95" y2="233.98"/><line class="ck" x1="361.69" y1="776.62" x2="361.69" y2="882.36"/><line class="ck" x1="465.46" y1="807.89" x2="631.86" y2="711.59"/><line class="ck" x1="374.13" y1="814.74" x2="374.13" y2="855.17"/><polyline class="ck" points="723.89 675.5 472.96 820.39 440.9 879.78 440.9 917.47"/></g><line class="ck" x1="605.06" y1="744.16" x2="752.71" y2="829.95"/><line class="ck" x1="646.08" y1="720.43" x2="646.08" y2="767.99"/><line class="ck" x1="394.51" y1="815.26" x2="389.89" y2="829.19"/><g><g><line class="co" x1="772.35" y1="62.21" x2="735.88" y2="188.23"/><g><line class="co" x1="899.72" y1="157.98" x2="863.25" y2="284"/><line class="co" x1="806.32" y1="213.01" x2="768.74" y2="342.87"/><line class="co" x1="716.98" y1="65.2" x2="680.51" y2="191.22"/><g><g><polyline class="cp" points="900.05 157.99 896.35 168.46 803.31 221.77 717.23 64.64 720.81 54.48"/><line class="cp" x1="803.31" y1="221.77" x2="807.04" y2="211.62"/><polyline class="cq" points="807.04 211.62 721.03 54.48 813.4 .69 899.72 157.98 807.04 211.62"/></g><g><polyline class="bf" points="900.05 157.99 896.35 168.46 803.31 221.77 717.23 64.64 720.81 54.48"/><line class="bk" x1="803.31" y1="221.77" x2="807.04" y2="211.62"/><polyline class="bj" points="807.04 211.62 721.03 54.48 813.4 .69 899.72 157.98 807.04 211.62"/></g><polyline class="cr" points="807.04 211.62 721.03 54.48 813.4 .69 899.72 157.98 807.04 211.62"/><g class="cu"><g><g><g><g><path class="cm" d="M792.05,184.48l12.48,22.75c1.32,2.41,4.37,3.26,6.75,1.89l22.52-13c2.32-1.34,3.14-4.29,1.84-6.63l-12.69-22.87c-1.34-2.41-4.4-3.25-6.78-1.85l-22.31,13.12c-2.29,1.34-3.09,4.26-1.81,6.59Z"/><path class="cm" d="M822.89,166.38l12.65,22.91c1.33,2.42,4.4,3.26,6.78,1.86l22.36-13.13c2.3-1.35,3.1-4.28,1.81-6.61l-12.71-22.9c-1.34-2.41-4.4-3.25-6.78-1.85l-22.3,13.12c-2.29,1.35-3.09,4.27-1.81,6.6Z"/><path class="cm" d="M853.73,148.28l12.65,22.91c1.33,2.42,4.4,3.26,6.78,1.86l22.36-13.13c2.3-1.35,3.1-4.28,1.81-6.61l-12.71-22.9c-1.34-2.41-4.4-3.25-6.78-1.85l-22.3,13.12c-2.29,1.35-3.09,4.27-1.81,6.6Z"/></g><g><path class="cm" d="M774.79,152.98l12.48,22.75c1.32,2.41,4.37,3.26,6.75,1.89l22.52-13c2.32-1.34,3.14-4.29,1.84-6.63l-12.69-22.87c-1.34-2.41-4.4-3.25-6.78-1.85l-22.31,13.12c-2.29,1.34-3.09,4.26-1.81,6.59Z"/><path class="cm" d="M805.63,134.88l12.65,22.91c1.33,2.42,4.4,3.26,6.78,1.86l22.36-13.13c2.3-1.35,3.1-4.28,1.81-6.61l-12.71-22.9c-1.34-2.41-4.4-3.25-6.78-1.85l-22.3,13.12c-2.29,1.35-3.09,4.27-1.81,6.6Z"/><path class="cm" d="M836.47,116.78l12.65,22.91c1.33,2.42,4.4,3.26,6.78,1.86l22.36-13.13c2.3-1.35,3.1-4.28,1.81-6.61l-12.71-22.9c-1.34-2.41-4.4-3.25-6.78-1.85l-22.3,13.12c-2.29,1.35-3.09,4.27-1.81,6.6Z"/></g><g><path class="cm" d="M757.52,121.48l12.48,22.75c1.32,2.41,4.37,3.26,6.75,1.89l22.52-13c2.32-1.34,3.14-4.29,1.84-6.63l-12.69-22.87c-1.34-2.41-4.4-3.25-6.78-1.85l-22.31,13.12c-2.29,1.34-3.09,4.26-1.81,6.59Z"/><path class="cm" d="M788.37,103.39l12.65,22.91c1.33,2.42,4.4,3.26,6.78,1.86l22.36-13.13c2.3-1.35,3.1-4.28,1.81-6.61l-12.71-22.9c-1.34-2.41-4.4-3.25-6.78-1.85l-22.3,13.12c-2.29,1.35-3.09,4.27-1.81,6.6Z"/><path class="cm" d="M819.2,85.29l12.65,22.91c1.33,2.42,4.4,3.26,6.78,1.86l22.36-13.13c2.3-1.35,3.1-4.28,1.81-6.61l-12.71-22.9c-1.34-2.41-4.4-3.25-6.78-1.85l-22.3,13.12c-2.29,1.35-3.09,4.27-1.81,6.6Z"/></g><g><path class="cm" d="M740.26,89.99l12.48,22.75c1.32,2.41,4.37,3.26,6.75,1.89l22.52-13c2.32-1.34,3.14-4.29,1.84-6.63l-12.69-22.87c-1.34-2.41-4.4-3.25-6.78-1.85l-22.31,13.12c-2.29,1.34-3.09,4.26-1.81,6.59Z"/><path class="cm" d="M771.11,71.89l12.65,22.91c1.33,2.42,4.4,3.26,6.78,1.86l22.36-13.13c2.3-1.35,3.1-4.28,1.81-6.61l-12.71-22.9c-1.34-2.41-4.4-3.25-6.78-1.85l-22.3,13.12c-2.29,1.35-3.09,4.27-1.81,6.6Z"/><path class="cm" d="M801.94,53.79l12.65,22.91c1.33,2.42,4.4,3.26,6.78,1.86l22.36-13.13c2.3-1.35,3.1-4.28,1.81-6.61l-12.71-22.9c-1.34-2.41-4.4-3.25-6.78-1.85l-22.3,13.12c-2.29,1.35-3.09,4.27-1.81,6.6Z"/></g><g><path class="cm" d="M723,58.49l12.48,22.75c1.32,2.41,4.37,3.26,6.75,1.89l22.52-13c2.32-1.34,3.14-4.29,1.84-6.63l-12.69-22.87c-1.34-2.41-4.4-3.25-6.78-1.85l-22.31,13.12c-2.29,1.34-3.09,4.26-1.81,6.59Z"/><path class="cm" d="M753.85,40.39l12.65,22.91c1.33,2.42,4.4,3.26,6.78,1.86l22.36-13.13c2.3-1.35,3.1-4.28,1.81-6.61l-12.71-22.9c-1.34-2.41-4.4-3.25-6.78-1.85l-22.3,13.12c-2.29,1.35-3.09,4.27-1.81,6.6Z"/><path class="cm" d="M784.68,22.29l12.65,22.91c1.33,2.42,4.4,3.26,6.78,1.86l22.36-13.13c2.3-1.35,3.1-4.28,1.81-6.61l-12.71-22.9c-1.34-2.41-4.4-3.25-6.78-1.85l-22.3,13.12c-2.29,1.35-3.09,4.27-1.81,6.6Z"/></g></g><line class="cm" x1="737.09" y1="45.13" x2="823.05" y2="202.64"/><line class="co" x1="729.37" y1="49.13" x2="815.32" y2="206.64"/><line class="co" x1="744.79" y1="40.56" x2="830.74" y2="198.06"/><line class="co" x1="760.2" y1="31.98" x2="845.91" y2="189.05"/><line class="co" x1="775.62" y1="23.41" x2="861.17" y2="180.19"/><line class="co" x1="791.03" y1="14.83" x2="876.35" y2="171.18"/><line class="co" x1="806.45" y1="6.26" x2="891.59" y2="162.27"/><line class="cm" x1="767.2" y1="27.07" x2="853.15" y2="184.58"/><line class="cm" x1="797.3" y1="9.02" x2="883.5" y2="166.98"/></g><line class="cm" x1="822.2" y1="16.76" x2="729.1" y2="70.56"/><line class="cm" x1="839.46" y1="47.52" x2="746.37" y2="101.32"/><line class="cm" x1="856.72" y1="80.23" x2="763.63" y2="134.03"/><line class="cm" x1="873.98" y1="111" x2="780.89" y2="164.8"/><line class="cm" x1="891.24" y1="142.01" x2="798.15" y2="195.81"/></g></g><polyline class="cn" points="807.04 211.62 721.03 54.48 813.4 .69 899.72 157.98 807.04 211.62"/></g><polyline class="bl" points="807.04 211.62 721.03 54.48 813.4 .69 899.72 157.98 807.04 211.62"/><polyline class="cn" points="807.04 211.62 721.03 54.48 813.4 .69 899.72 157.98 807.04 211.62"/></g></g><g><line class="co" x1="673.68" y1="356.74" x2="662.36" y2="404.45"/><line class="co" x1="764.51" y1="308.89" x2="753.18" y2="356.6"/><line class="co" x1="584.61" y1="209.62" x2="578.93" y2="244.81"/><g><g><g><polyline class="cp" points="767.43 302.97 763.72 313.44 670.68 366.75 584.61 209.62 588.19 199.46"/><line class="cp" x1="670.68" y1="366.75" x2="674.41" y2="356.6"/><polyline class="cq" points="674.41 356.6 588.41 199.46 680.77 145.67 767.1 302.96 674.41 356.6"/></g><g><polyline class="bn" points="767.43 302.97 763.72 313.44 670.68 366.75 584.61 209.62 588.19 199.46"/><line class="bm" x1="670.68" y1="366.75" x2="674.41" y2="356.6"/><polyline class="bo" points="674.41 356.6 588.41 199.46 680.77 145.67 767.1 302.96 674.41 356.6"/></g><polyline class="cr" points="674.41 356.6 588.41 199.46 680.77 145.67 767.1 302.96 674.41 356.6"/><g class="cv"><g><g><g><g><path class="cm" d="M659.42,329.46l12.48,22.75c1.32,2.41,4.37,3.26,6.75,1.89l22.52-13c2.32-1.34,3.14-4.29,1.84-6.63l-12.69-22.87c-1.34-2.41-4.4-3.25-6.78-1.85l-22.31,13.12c-2.29,1.34-3.09,4.26-1.81,6.59Z"/><path class="cm" d="M690.27,311.36l12.65,22.91c1.33,2.42,4.4,3.26,6.78,1.86l22.36-13.13c2.3-1.35,3.1-4.28,1.81-6.61l-12.71-22.9c-1.34-2.41-4.4-3.25-6.78-1.85l-22.3,13.12c-2.29,1.35-3.09,4.27-1.81,6.6Z"/><path class="cm" d="M721.1,293.26l12.65,22.91c1.33,2.42,4.4,3.26,6.78,1.86l22.36-13.13c2.3-1.35,3.1-4.28,1.81-6.61l-12.71-22.9c-1.34-2.41-4.4-3.25-6.78-1.85l-22.3,13.12c-2.29,1.35-3.09,4.27-1.81,6.6Z"/></g><g><path class="cm" d="M642.16,297.96l12.48,22.75c1.32,2.41,4.37,3.26,6.75,1.89l22.52-13c2.32-1.34,3.14-4.29,1.84-6.63l-12.69-22.87c-1.34-2.41-4.4-3.25-6.78-1.85l-22.31,13.12c-2.29,1.34-3.09,4.26-1.81,6.59Z"/><path class="cm" d="M673.01,279.86l12.65,22.91c1.33,2.42,4.4,3.26,6.78,1.86l22.36-13.13c2.3-1.35,3.1-4.28,1.81-6.61l-12.71-22.9c-1.34-2.41-4.4-3.25-6.78-1.85l-22.3,13.12c-2.29,1.35-3.09,4.27-1.81,6.6Z"/><path class="cm" d="M703.84,261.76l12.65,22.91c1.33,2.42,4.4,3.26,6.78,1.86l22.36-13.13c2.3-1.35,3.1-4.28,1.81-6.61l-12.71-22.9c-1.34-2.41-4.4-3.25-6.78-1.85l-22.3,13.12c-2.29,1.35-3.09,4.27-1.81,6.6Z"/></g><g><path class="cm" d="M624.9,266.46l12.48,22.75c1.32,2.41,4.37,3.26,6.75,1.89l22.52-13c2.32-1.34,3.14-4.29,1.84-6.63l-12.69-22.87c-1.34-2.41-4.4-3.25-6.78-1.85l-22.31,13.12c-2.29,1.34-3.09,4.26-1.81,6.59Z"/><path class="cm" d="M655.75,248.37l12.65,22.91c1.33,2.42,4.4,3.26,6.78,1.86l22.36-13.13c2.3-1.35,3.1-4.28,1.81-6.61l-12.71-22.9c-1.34-2.41-4.4-3.25-6.78-1.85l-22.3,13.12c-2.29,1.35-3.09,4.27-1.81,6.6Z"/><path class="cm" d="M686.58,230.26l12.65,22.91c1.33,2.42,4.4,3.26,6.78,1.86l22.36-13.13c2.3-1.35,3.1-4.28,1.81-6.61l-12.71-22.9c-1.34-2.41-4.4-3.25-6.78-1.85l-22.3,13.12c-2.29,1.35-3.09,4.27-1.81,6.6Z"/></g><g><path class="cm" d="M607.64,234.97l12.48,22.75c1.32,2.41,4.37,3.26,6.75,1.89l22.52-13c2.32-1.34,3.14-4.29,1.84-6.63l-12.69-22.87c-1.34-2.41-4.4-3.25-6.78-1.85l-22.31,13.12c-2.29,1.34-3.09,4.26-1.81,6.59Z"/><path class="cm" d="M638.49,216.87l12.65,22.91c1.33,2.42,4.4,3.26,6.78,1.86l22.36-13.13c2.3-1.35,3.1-4.28,1.81-6.61l-12.71-22.9c-1.34-2.41-4.4-3.25-6.78-1.85l-22.3,13.12c-2.29,1.35-3.09,4.27-1.81,6.6Z"/><path class="cm" d="M669.32,198.77l12.65,22.91c1.33,2.42,4.4,3.26,6.78,1.86l22.36-13.13c2.3-1.35,3.1-4.28,1.81-6.61l-12.71-22.9c-1.34-2.41-4.4-3.25-6.78-1.85l-22.3,13.12c-2.29,1.35-3.09,4.27-1.81,6.6Z"/></g><g><path class="cm" d="M590.38,203.47l12.48,22.75c1.32,2.41,4.37,3.26,6.75,1.89l22.52-13c2.32-1.34,3.14-4.29,1.84-6.63l-12.69-22.87c-1.34-2.41-4.4-3.25-6.78-1.85l-22.31,13.12c-2.29,1.34-3.09,4.26-1.81,6.59Z"/><path class="cm" d="M621.23,185.37l12.65,22.91c1.33,2.42,4.4,3.26,6.78,1.86l22.36-13.13c2.3-1.35,3.1-4.28,1.81-6.61l-12.71-22.9c-1.34-2.41-4.4-3.25-6.78-1.85l-22.3,13.12c-2.29,1.35-3.09,4.27-1.81,6.6Z"/><path class="cm" d="M652.06,167.27l12.65,22.91c1.33,2.42,4.4,3.26,6.78,1.86l22.36-13.13c2.3-1.35,3.1-4.28,1.81-6.61l-12.71-22.9c-1.34-2.41-4.4-3.25-6.78-1.85l-22.3,13.12c-2.29,1.35-3.09,4.27-1.81,6.6Z"/></g></g><line class="cm" x1="604.47" y1="190.11" x2="690.42" y2="347.62"/><line class="co" x1="596.74" y1="194.11" x2="682.7" y2="351.62"/><line class="co" x1="612.16" y1="185.54" x2="698.11" y2="343.04"/><line class="co" x1="627.58" y1="176.96" x2="713.29" y2="334.03"/><line class="co" x1="642.99" y1="168.39" x2="728.55" y2="325.17"/><line class="co" x1="658.41" y1="159.81" x2="743.73" y2="316.15"/><line class="co" x1="673.83" y1="151.24" x2="758.96" y2="307.25"/><line class="cm" x1="634.57" y1="172.05" x2="720.52" y2="329.56"/><line class="cm" x1="664.67" y1="154" x2="750.87" y2="311.96"/></g><line class="cm" x1="689.57" y1="161.74" x2="596.48" y2="215.54"/><line class="cm" x1="706.83" y1="192.5" x2="613.74" y2="246.3"/><line class="cm" x1="724.09" y1="225.21" x2="631" y2="279.01"/><line class="cm" x1="741.35" y1="255.98" x2="648.26" y2="309.78"/><line class="cm" x1="758.61" y1="286.99" x2="665.52" y2="340.79"/></g></g><polyline class="cn" points="674.41 356.6 588.41 199.46 680.77 145.67 767.1 302.96 674.41 356.6"/></g><polyline class="dd" points="674.41 356.6 588.41 199.46 680.77 145.67 767.1 302.96 674.41 356.6"/><polyline class="cn" points="674.41 356.6 588.41 199.46 680.77 145.67 767.1 302.96 674.41 356.6"/></g><g><g><g><polyline class="cp" points="742.16 574.03 738.46 584.5 645.41 637.81 559.34 480.68 562.92 470.52"/><line class="cp" x1="645.41" y1="637.81" x2="649.15" y2="627.66"/><polyline class="cq" points="649.15 627.66 563.14 470.52 655.5 416.73 741.83 574.02 649.15 627.66"/></g><g><polyline class="bh" points="742.16 574.03 738.46 584.5 645.41 637.81 559.34 480.68 562.92 470.52"/><line class="bi" x1="645.41" y1="637.81" x2="649.15" y2="627.66"/><polyline class="bg" points="649.15 627.66 563.14 470.52 655.5 416.73 741.83 574.02 649.15 627.66"/></g><polyline class="cr" points="649.15 627.66 563.14 470.52 655.5 416.73 741.83 574.02 649.15 627.66"/><g class="cs"><g><g><g><g><path class="cm" d="M634.16,600.52l12.48,22.75c1.32,2.41,4.37,3.26,6.75,1.89l22.52-13c2.32-1.34,3.14-4.29,1.84-6.63l-12.69-22.87c-1.34-2.41-4.4-3.25-6.78-1.85l-22.31,13.12c-2.29,1.34-3.09,4.26-1.81,6.59Z"/><path class="cm" d="M665,582.42l12.65,22.91c1.33,2.42,4.4,3.26,6.78,1.86l22.36-13.13c2.3-1.35,3.1-4.28,1.81-6.61l-12.71-22.9c-1.34-2.41-4.4-3.25-6.78-1.85l-22.3,13.12c-2.29,1.35-3.09,4.27-1.81,6.6Z"/><path class="cm" d="M695.84,564.32l12.65,22.91c1.33,2.42,4.4,3.26,6.78,1.86l22.36-13.13c2.3-1.35,3.1-4.28,1.81-6.61l-12.71-22.9c-1.34-2.41-4.4-3.25-6.78-1.85l-22.3,13.12c-2.29,1.35-3.09,4.27-1.81,6.6Z"/></g><g><path class="cm" d="M616.89,569.02l12.48,22.75c1.32,2.41,4.37,3.26,6.75,1.89l22.52-13c2.32-1.34,3.14-4.29,1.84-6.63l-12.69-22.87c-1.34-2.41-4.4-3.25-6.78-1.85l-22.31,13.12c-2.29,1.34-3.09,4.26-1.81,6.59Z"/><path class="cm" d="M647.74,550.92l12.65,22.91c1.33,2.42,4.4,3.26,6.78,1.86l22.36-13.13c2.3-1.35,3.1-4.28,1.81-6.61l-12.71-22.9c-1.34-2.41-4.4-3.25-6.78-1.85l-22.3,13.12c-2.29,1.35-3.09,4.27-1.81,6.6Z"/><path class="cm" d="M678.57,532.82l12.65,22.91c1.33,2.42,4.4,3.26,6.78,1.86l22.36-13.13c2.3-1.35,3.1-4.28,1.81-6.61l-12.71-22.9c-1.34-2.41-4.4-3.25-6.78-1.85l-22.3,13.12c-2.29,1.35-3.09,4.27-1.81,6.6Z"/></g><g><path class="cm" d="M599.63,537.52l12.48,22.75c1.32,2.41,4.37,3.26,6.75,1.89l22.52-13c2.32-1.34,3.14-4.29,1.84-6.63l-12.69-22.87c-1.34-2.41-4.4-3.25-6.78-1.85l-22.31,13.12c-2.29,1.34-3.09,4.26-1.81,6.59Z"/><path class="cm" d="M630.48,519.43l12.65,22.91c1.33,2.42,4.4,3.26,6.78,1.86l22.36-13.13c2.3-1.35,3.1-4.28,1.81-6.61l-12.71-22.9c-1.34-2.41-4.4-3.25-6.78-1.85l-22.3,13.12c-2.29,1.35-3.09,4.27-1.81,6.6Z"/><path class="cm" d="M661.31,501.33l12.65,22.91c1.33,2.42,4.4,3.26,6.78,1.86l22.36-13.13c2.3-1.35,3.1-4.28,1.81-6.61l-12.71-22.9c-1.34-2.41-4.4-3.25-6.78-1.85l-22.3,13.12c-2.29,1.35-3.09,4.27-1.81,6.6Z"/></g><g><path class="cm" d="M582.37,506.03l12.48,22.75c1.32,2.41,4.37,3.26,6.75,1.89l22.52-13c2.32-1.34,3.14-4.29,1.84-6.63l-12.69-22.87c-1.34-2.41-4.4-3.25-6.78-1.85l-22.31,13.12c-2.29,1.34-3.09,4.26-1.81,6.59Z"/><path class="cm" d="M613.22,487.93l12.65,22.91c1.33,2.42,4.4,3.26,6.78,1.86l22.36-13.13c2.3-1.35,3.1-4.28,1.81-6.61l-12.71-22.9c-1.34-2.41-4.4-3.25-6.78-1.85l-22.3,13.12c-2.29,1.35-3.09,4.27-1.81,6.6Z"/><path class="cm" d="M644.05,469.83l12.65,22.91c1.33,2.42,4.4,3.26,6.78,1.86l22.36-13.13c2.3-1.35,3.1-4.28,1.81-6.61l-12.71-22.9c-1.34-2.41-4.4-3.25-6.78-1.85l-22.3,13.12c-2.29,1.35-3.09,4.27-1.81,6.6Z"/></g><g><path class="cm" d="M565.11,474.53l12.48,22.75c1.32,2.41,4.37,3.26,6.75,1.89l22.52-13c2.32-1.34,3.14-4.29,1.84-6.63l-12.69-22.87c-1.34-2.41-4.4-3.25-6.78-1.85l-22.31,13.12c-2.29,1.34-3.09,4.26-1.81,6.59Z"/><path class="cm" d="M595.96,456.43l12.65,22.91c1.33,2.42,4.4,3.26,6.78,1.86l22.36-13.13c2.3-1.35,3.1-4.28,1.81-6.61l-12.71-22.9c-1.34-2.41-4.4-3.25-6.78-1.85l-22.3,13.12c-2.29,1.35-3.09,4.27-1.81,6.6Z"/><path class="cm" d="M626.79,438.33l12.65,22.91c1.33,2.42,4.4,3.26,6.78,1.86l22.36-13.13c2.3-1.35,3.1-4.28,1.81-6.61l-12.71-22.9c-1.34-2.41-4.4-3.25-6.78-1.85l-22.3,13.12c-2.29,1.35-3.09,4.27-1.81,6.6Z"/></g></g><line class="cm" x1="579.2" y1="461.17" x2="665.16" y2="618.68"/><line class="co" x1="571.48" y1="465.17" x2="657.43" y2="622.68"/><line class="co" x1="586.89" y1="456.6" x2="672.85" y2="614.1"/><line class="co" x1="602.31" y1="448.02" x2="688.02" y2="605.09"/><line class="co" x1="617.73" y1="439.45" x2="703.28" y2="596.23"/><line class="co" x1="633.14" y1="430.87" x2="718.46" y2="587.21"/><line class="co" x1="648.56" y1="422.3" x2="733.7" y2="578.31"/><line class="cm" x1="609.3" y1="443.11" x2="695.26" y2="600.62"/><line class="cm" x1="639.41" y1="425.06" x2="725.61" y2="583.02"/></g><line class="cm" x1="664.3" y1="432.8" x2="571.21" y2="486.6"/><line class="cm" x1="681.57" y1="463.56" x2="588.47" y2="517.36"/><line class="cm" x1="698.83" y1="496.27" x2="605.74" y2="550.07"/><line class="cm" x1="716.09" y1="527.04" x2="623" y2="580.84"/><line class="cm" x1="733.35" y1="558.05" x2="640.26" y2="611.85"/></g></g><polyline class="cn" points="649.15 627.66 563.14 470.52 655.5 416.73 741.83 574.02 649.15 627.66"/></g><polyline class="dc" points="649.15 627.66 563.14 470.52 655.5 416.73 741.83 574.02 649.15 627.66"/><polyline class="cn" points="649.15 627.66 563.14 470.52 655.5 416.73 741.83 574.02 649.15 627.66"/></g><g><g><g><polyline class="cp" points="850.91 508.9 847.21 519.37 754.16 572.68 668.09 415.54 671.67 405.39"/><line class="cp" x1="754.16" y1="572.68" x2="757.9" y2="562.53"/><polyline class="cq" points="757.9 562.53 671.89 405.39 764.25 351.6 850.58 508.89 757.9 562.53"/></g><g><polyline class="be" points="850.91 508.9 847.21 519.37 754.16 572.68 668.09 415.54 671.67 405.39"/><line class="bq" x1="754.16" y1="572.68" x2="757.9" y2="562.53"/><polyline class="bp" points="757.9 562.53 671.89 405.39 764.25 351.6 850.58 508.89 757.9 562.53"/></g><polyline class="cr" points="757.9 562.53 671.89 405.39 764.25 351.6 850.58 508.89 757.9 562.53"/><g class="ct"><g><g><g><g><path class="cm" d="M742.91,535.38l12.48,22.75c1.32,2.41,4.37,3.26,6.75,1.89l22.52-13c2.32-1.34,3.14-4.29,1.84-6.63l-12.69-22.87c-1.34-2.41-4.4-3.25-6.78-1.85l-22.31,13.12c-2.29,1.34-3.09,4.26-1.81,6.59Z"/><path class="cm" d="M773.75,517.29l12.65,22.91c1.33,2.42,4.4,3.26,6.78,1.86l22.36-13.13c2.3-1.35,3.1-4.28,1.81-6.61l-12.71-22.9c-1.34-2.41-4.4-3.25-6.78-1.85l-22.3,13.12c-2.29,1.35-3.09,4.27-1.81,6.6Z"/><path class="cm" d="M804.59,499.18l12.65,22.91c1.33,2.42,4.4,3.26,6.78,1.86l22.36-13.13c2.3-1.35,3.1-4.28,1.81-6.61l-12.71-22.9c-1.34-2.41-4.4-3.25-6.78-1.85l-22.3,13.12c-2.29,1.35-3.09,4.27-1.81,6.6Z"/></g><g><path class="cm" d="M725.64,503.89l12.48,22.75c1.32,2.41,4.37,3.26,6.75,1.89l22.52-13c2.32-1.34,3.14-4.29,1.84-6.63l-12.69-22.87c-1.34-2.41-4.4-3.25-6.78-1.85l-22.31,13.12c-2.29,1.34-3.09,4.26-1.81,6.59Z"/><path class="cm" d="M756.49,485.79l12.65,22.91c1.33,2.42,4.4,3.26,6.78,1.86l22.36-13.13c2.3-1.35,3.1-4.28,1.81-6.61l-12.71-22.9c-1.34-2.41-4.4-3.25-6.78-1.85l-22.3,13.12c-2.29,1.35-3.09,4.27-1.81,6.6Z"/><path class="cm" d="M787.32,467.69l12.65,22.91c1.33,2.42,4.4,3.26,6.78,1.86l22.36-13.13c2.3-1.35,3.1-4.28,1.81-6.61l-12.71-22.9c-1.34-2.41-4.4-3.25-6.78-1.85l-22.3,13.12c-2.29,1.35-3.09,4.27-1.81,6.6Z"/></g><g><path class="cm" d="M708.38,472.39l12.48,22.75c1.32,2.41,4.37,3.26,6.75,1.89l22.52-13c2.32-1.34,3.14-4.29,1.84-6.63l-12.69-22.87c-1.34-2.41-4.4-3.25-6.78-1.85l-22.31,13.12c-2.29,1.34-3.09,4.26-1.81,6.59Z"/><path class="cm" d="M739.23,454.29l12.65,22.91c1.33,2.42,4.4,3.26,6.78,1.86l22.36-13.13c2.3-1.35,3.1-4.28,1.81-6.61l-12.71-22.9c-1.34-2.41-4.4-3.25-6.78-1.85l-22.3,13.12c-2.29,1.35-3.09,4.27-1.81,6.6Z"/><path class="cm" d="M770.06,436.19l12.65,22.91c1.33,2.42,4.4,3.26,6.78,1.86l22.36-13.13c2.3-1.35,3.1-4.28,1.81-6.61l-12.71-22.9c-1.34-2.41-4.4-3.25-6.78-1.85l-22.3,13.12c-2.29,1.35-3.09,4.27-1.81,6.6Z"/></g><g><path class="cm" d="M691.12,440.89l12.48,22.75c1.32,2.41,4.37,3.26,6.75,1.89l22.52-13c2.32-1.34,3.14-4.29,1.84-6.63l-12.69-22.87c-1.34-2.41-4.4-3.25-6.78-1.85l-22.31,13.12c-2.29,1.34-3.09,4.26-1.81,6.59Z"/><path class="cm" d="M721.97,422.8l12.65,22.91c1.33,2.42,4.4,3.26,6.78,1.86l22.36-13.13c2.3-1.35,3.1-4.28,1.81-6.61l-12.71-22.9c-1.34-2.41-4.4-3.25-6.78-1.85l-22.3,13.12c-2.29,1.35-3.09,4.27-1.81,6.6Z"/><path class="cm" d="M752.8,404.69l12.65,22.91c1.33,2.42,4.4,3.26,6.78,1.86l22.36-13.13c2.3-1.35,3.1-4.28,1.81-6.61l-12.71-22.9c-1.34-2.41-4.4-3.25-6.78-1.85l-22.3,13.12c-2.29,1.35-3.09,4.27-1.81,6.6Z"/></g><g><path class="cm" d="M673.86,409.4l12.48,22.75c1.32,2.41,4.37,3.26,6.75,1.89l22.52-13c2.32-1.34,3.14-4.29,1.84-6.63l-12.69-22.87c-1.34-2.41-4.4-3.25-6.78-1.85l-22.31,13.12c-2.29,1.34-3.09,4.26-1.81,6.59Z"/><path class="cm" d="M704.71,391.3l12.65,22.91c1.33,2.42,4.4,3.26,6.78,1.86l22.36-13.13c2.3-1.35,3.1-4.28,1.81-6.61l-12.71-22.9c-1.34-2.41-4.4-3.25-6.78-1.85l-22.3,13.12c-2.29,1.35-3.09,4.27-1.81,6.6Z"/><path class="cm" d="M735.54,373.2l12.65,22.91c1.33,2.42,4.4,3.26,6.78,1.86l22.36-13.13c2.3-1.35,3.1-4.28,1.81-6.61l-12.71-22.9c-1.34-2.41-4.4-3.25-6.78-1.85l-22.3,13.12c-2.29,1.35-3.09,4.27-1.81,6.6Z"/></g></g><line class="cm" x1="687.95" y1="396.04" x2="773.91" y2="553.54"/><line class="co" x1="680.23" y1="400.04" x2="766.18" y2="557.54"/><line class="co" x1="695.64" y1="391.46" x2="781.6" y2="548.97"/><line class="co" x1="711.06" y1="382.89" x2="796.77" y2="539.95"/><line class="co" x1="726.48" y1="374.31" x2="812.03" y2="531.09"/><line class="co" x1="741.89" y1="365.74" x2="827.21" y2="522.08"/><line class="co" x1="757.31" y1="357.16" x2="842.45" y2="513.17"/><line class="cm" x1="718.05" y1="377.98" x2="804.01" y2="535.48"/><line class="cm" x1="748.16" y1="359.92" x2="834.36" y2="517.88"/></g><line class="cm" x1="773.06" y1="367.67" x2="679.96" y2="421.46"/><line class="cm" x1="790.32" y1="398.43" x2="697.22" y2="452.22"/><line class="cm" x1="807.58" y1="431.14" x2="714.49" y2="484.93"/><line class="cm" x1="824.84" y1="461.91" x2="731.75" y2="515.7"/><line class="cm" x1="842.1" y1="492.92" x2="749.01" y2="546.71"/></g></g><polyline class="cn" points="757.9 562.53 671.89 405.39 764.25 351.6 850.58 508.89 757.9 562.53"/></g><polyline class="dh" points="757.9 562.53 671.89 405.39 764.25 351.6 850.58 508.89 757.9 562.53"/><polyline class="cn" points="757.9 562.53 671.89 405.39 764.25 351.6 850.58 508.89 757.9 562.53"/></g><g><g><g><polyline class="cp" points="960.08 445.31 956.37 455.78 863.33 509.09 777.26 351.95 780.84 341.8"/><line class="cp" x1="863.33" y1="509.09" x2="867.06" y2="498.94"/><polyline class="cq" points="867.06 498.94 781.06 341.8 873.42 288 959.75 445.3 867.06 498.94"/></g><g><polyline class="br" points="960.08 445.31 956.37 455.78 863.33 509.09 777.26 351.95 780.84 341.8"/><line class="bt" x1="863.33" y1="509.09" x2="867.06" y2="498.94"/><polyline class="cc" points="867.06 498.94 781.06 341.8 873.42 288 959.75 445.3 867.06 498.94"/></g><polyline class="cr" points="867.06 498.94 781.06 341.8 873.42 288 959.75 445.3 867.06 498.94"/><g class="db"><g><g><g><g><path class="cm" d="M852.07,471.79l12.48,22.75c1.32,2.41,4.37,3.26,6.75,1.89l22.52-13c2.32-1.34,3.14-4.29,1.84-6.63l-12.69-22.87c-1.34-2.41-4.4-3.25-6.78-1.85l-22.31,13.12c-2.29,1.34-3.09,4.26-1.81,6.59Z"/><path class="cm" d="M882.92,453.7l12.65,22.91c1.33,2.42,4.4,3.26,6.78,1.86l22.36-13.13c2.3-1.35,3.1-4.28,1.81-6.61l-12.71-22.9c-1.34-2.41-4.4-3.25-6.78-1.85l-22.3,13.12c-2.29,1.35-3.09,4.27-1.81,6.6Z"/><path class="cm" d="M913.75,435.59l12.65,22.91c1.33,2.42,4.4,3.26,6.78,1.86l22.36-13.13c2.3-1.35,3.1-4.28,1.81-6.61l-12.71-22.9c-1.34-2.41-4.4-3.25-6.78-1.85l-22.3,13.12c-2.29,1.35-3.09,4.27-1.81,6.6Z"/></g><g><path class="cm" d="M834.81,440.3l12.48,22.75c1.32,2.41,4.37,3.26,6.75,1.89l22.52-13c2.32-1.34,3.14-4.29,1.84-6.63l-12.69-22.87c-1.34-2.41-4.4-3.25-6.78-1.85l-22.31,13.12c-2.29,1.34-3.09,4.26-1.81,6.59Z"/><path class="cm" d="M865.66,422.2l12.65,22.91c1.33,2.42,4.4,3.26,6.78,1.86l22.36-13.13c2.3-1.35,3.1-4.28,1.81-6.61l-12.71-22.9c-1.34-2.41-4.4-3.25-6.78-1.85l-22.3,13.12c-2.29,1.35-3.09,4.27-1.81,6.6Z"/><path class="cm" d="M896.49,404.1l12.65,22.91c1.33,2.42,4.4,3.26,6.78,1.86l22.36-13.13c2.3-1.35,3.1-4.28,1.81-6.61l-12.71-22.9c-1.34-2.41-4.4-3.25-6.78-1.85l-22.3,13.12c-2.29,1.35-3.09,4.27-1.81,6.6Z"/></g><g><path class="cm" d="M817.55,408.8l12.48,22.75c1.32,2.41,4.37,3.26,6.75,1.89l22.52-13c2.32-1.34,3.14-4.29,1.84-6.63l-12.69-22.87c-1.34-2.41-4.4-3.25-6.78-1.85l-22.31,13.12c-2.29,1.34-3.09,4.26-1.81,6.59Z"/><path class="cm" d="M848.4,390.7l12.65,22.91c1.33,2.42,4.4,3.26,6.78,1.86l22.36-13.13c2.3-1.35,3.1-4.28,1.81-6.61l-12.71-22.9c-1.34-2.41-4.4-3.25-6.78-1.85l-22.3,13.12c-2.29,1.35-3.09,4.27-1.81,6.6Z"/><path class="cm" d="M879.23,372.6l12.65,22.91c1.33,2.42,4.4,3.26,6.78,1.86l22.36-13.13c2.3-1.35,3.1-4.28,1.81-6.61l-12.71-22.9c-1.34-2.41-4.4-3.25-6.78-1.85l-22.3,13.12c-2.29,1.35-3.09,4.27-1.81,6.6Z"/></g><g><path class="cm" d="M800.29,377.3l12.48,22.75c1.32,2.41,4.37,3.26,6.75,1.89l22.52-13c2.32-1.34,3.14-4.29,1.84-6.63l-12.69-22.87c-1.34-2.41-4.4-3.25-6.78-1.85l-22.31,13.12c-2.29,1.34-3.09,4.26-1.81,6.59Z"/><path class="cm" d="M831.14,359.21l12.65,22.91c1.33,2.42,4.4,3.26,6.78,1.86l22.36-13.13c2.3-1.35,3.1-4.28,1.81-6.61l-12.71-22.9c-1.34-2.41-4.4-3.25-6.78-1.85l-22.3,13.12c-2.29,1.35-3.09,4.27-1.81,6.6Z"/><path class="cm" d="M861.97,341.1l12.65,22.91c1.33,2.42,4.4,3.26,6.78,1.86l22.36-13.13c2.3-1.35,3.1-4.28,1.81-6.61l-12.71-22.9c-1.34-2.41-4.4-3.25-6.78-1.85l-22.3,13.12c-2.29,1.35-3.09,4.27-1.81,6.6Z"/></g><g><path class="cm" d="M783.03,345.81l12.48,22.75c1.32,2.41,4.37,3.26,6.75,1.89l22.52-13c2.32-1.34,3.14-4.29,1.84-6.63l-12.69-22.87c-1.34-2.41-4.4-3.25-6.78-1.85l-22.31,13.12c-2.29,1.34-3.09,4.26-1.81,6.59Z"/><path class="cm" d="M813.88,327.71l12.65,22.91c1.33,2.42,4.4,3.26,6.78,1.86l22.36-13.13c2.3-1.35,3.1-4.28,1.81-6.61l-12.71-22.9c-1.34-2.41-4.4-3.25-6.78-1.85l-22.3,13.12c-2.29,1.35-3.09,4.27-1.81,6.6Z"/><path class="cm" d="M844.71,309.61l12.65,22.91c1.33,2.42,4.4,3.26,6.78,1.86l22.36-13.13c2.3-1.35,3.1-4.28,1.81-6.61l-12.71-22.9c-1.34-2.41-4.4-3.25-6.78-1.85l-22.3,13.12c-2.29,1.35-3.09,4.27-1.81,6.6Z"/></g></g><line class="cm" x1="797.12" y1="332.45" x2="883.07" y2="489.95"/><line class="co" x1="789.39" y1="336.45" x2="875.35" y2="493.95"/><line class="co" x1="804.81" y1="327.87" x2="890.76" y2="485.38"/><line class="co" x1="820.23" y1="319.3" x2="905.94" y2="476.36"/><line class="co" x1="835.64" y1="310.72" x2="921.2" y2="467.5"/><line class="co" x1="851.06" y1="302.15" x2="936.38" y2="458.49"/><line class="co" x1="866.48" y1="293.57" x2="951.61" y2="449.58"/><line class="cm" x1="827.22" y1="314.39" x2="913.17" y2="471.89"/><line class="cm" x1="857.32" y1="296.33" x2="943.52" y2="454.29"/></g><line class="cm" x1="882.22" y1="304.08" x2="789.13" y2="357.87"/><line class="cm" x1="899.48" y1="334.84" x2="806.39" y2="388.63"/><line class="cm" x1="916.74" y1="367.55" x2="823.65" y2="421.34"/><line class="cm" x1="934" y1="398.32" x2="840.91" y2="452.11"/><line class="cm" x1="951.26" y1="429.33" x2="858.17" y2="483.12"/></g></g><polyline class="cn" points="867.06 498.94 781.06 341.8 873.42 288 959.75 445.3 867.06 498.94"/></g><polyline class="dk" points="867.06 498.94 781.06 341.8 873.42 288 959.75 445.3 867.06 498.94"/><polyline class="cn" points="867.06 498.94 781.06 341.8 873.42 288 959.75 445.3 867.06 498.94"/></g><g><g><g><polyline class="cp" points="632.85 636.86 629.14 647.33 536.1 700.64 450.02 543.51 453.6 533.35"/><line class="cp" x1="536.1" y1="700.64" x2="539.83" y2="690.49"/><polyline class="cq" points="539.83 690.49 453.82 533.35 546.19 479.56 632.51 636.85 539.83 690.49"/></g><g><polyline class="bw" points="632.85 636.86 629.14 647.33 536.1 700.64 450.02 543.51 453.6 533.35"/><line class="bs" x1="536.1" y1="700.64" x2="539.83" y2="690.49"/><polyline class="bu" points="539.83 690.49 453.82 533.35 546.19 479.56 632.51 636.85 539.83 690.49"/></g><polyline class="cr" points="539.83 690.49 453.82 533.35 546.19 479.56 632.51 636.85 539.83 690.49"/><g class="da"><g><g><g><g><path class="cm" d="M524.84,663.35l12.48,22.75c1.32,2.41,4.37,3.26,6.75,1.89l22.52-13c2.32-1.34,3.14-4.29,1.84-6.63l-12.69-22.87c-1.34-2.41-4.4-3.25-6.78-1.85l-22.31,13.12c-2.29,1.34-3.09,4.26-1.81,6.59Z"/><path class="cm" d="M555.69,645.25l12.65,22.91c1.33,2.42,4.4,3.26,6.78,1.86l22.36-13.13c2.3-1.35,3.1-4.28,1.81-6.61l-12.71-22.9c-1.34-2.41-4.4-3.25-6.78-1.85l-22.3,13.12c-2.29,1.35-3.09,4.27-1.81,6.6Z"/><path class="cm" d="M586.52,627.15l12.65,22.91c1.33,2.42,4.4,3.26,6.78,1.86l22.36-13.13c2.3-1.35,3.1-4.28,1.81-6.61l-12.71-22.9c-1.34-2.41-4.4-3.25-6.78-1.85l-22.3,13.12c-2.29,1.35-3.09,4.27-1.81,6.6Z"/></g><g><path class="cm" d="M507.58,631.85l12.48,22.75c1.32,2.41,4.37,3.26,6.75,1.89l22.52-13c2.32-1.34,3.14-4.29,1.84-6.63l-12.69-22.87c-1.34-2.41-4.4-3.25-6.78-1.85l-22.31,13.12c-2.29,1.34-3.09,4.26-1.81,6.59Z"/><path class="cm" d="M538.42,613.75l12.65,22.91c1.33,2.42,4.4,3.26,6.78,1.86l22.36-13.13c2.3-1.35,3.1-4.28,1.81-6.61l-12.71-22.9c-1.34-2.41-4.4-3.25-6.78-1.85l-22.3,13.12c-2.29,1.35-3.09,4.27-1.81,6.6Z"/><path class="cm" d="M569.26,595.65l12.65,22.91c1.33,2.42,4.4,3.26,6.78,1.86l22.36-13.13c2.3-1.35,3.1-4.28,1.81-6.61l-12.71-22.9c-1.34-2.41-4.4-3.25-6.78-1.85l-22.3,13.12c-2.29,1.35-3.09,4.27-1.81,6.6Z"/></g><g><path class="cm" d="M490.32,600.35l12.48,22.75c1.32,2.41,4.37,3.26,6.75,1.89l22.52-13c2.32-1.34,3.14-4.29,1.84-6.63l-12.69-22.87c-1.34-2.41-4.4-3.25-6.78-1.85l-22.31,13.12c-2.29,1.34-3.09,4.26-1.81,6.59Z"/><path class="cm" d="M521.16,582.26l12.65,22.91c1.33,2.42,4.4,3.26,6.78,1.86l22.36-13.13c2.3-1.35,3.1-4.28,1.81-6.61l-12.71-22.9c-1.34-2.41-4.4-3.25-6.78-1.85l-22.3,13.12c-2.29,1.35-3.09,4.27-1.81,6.6Z"/><path class="cm" d="M552,564.15l12.65,22.91c1.33,2.42,4.4,3.26,6.78,1.86l22.36-13.13c2.3-1.35,3.1-4.28,1.81-6.61l-12.71-22.9c-1.34-2.41-4.4-3.25-6.78-1.85l-22.3,13.12c-2.29,1.35-3.09,4.27-1.81,6.6Z"/></g><g><path class="cm" d="M473.05,568.86l12.48,22.75c1.32,2.41,4.37,3.26,6.75,1.89l22.52-13c2.32-1.34,3.14-4.29,1.84-6.63l-12.69-22.87c-1.34-2.41-4.4-3.25-6.78-1.85l-22.31,13.12c-2.29,1.34-3.09,4.26-1.81,6.59Z"/><path class="cm" d="M503.9,550.76l12.65,22.91c1.33,2.42,4.4,3.26,6.78,1.86l22.36-13.13c2.3-1.35,3.1-4.28,1.81-6.61l-12.71-22.9c-1.34-2.41-4.4-3.25-6.78-1.85l-22.3,13.12c-2.29,1.35-3.09,4.27-1.81,6.6Z"/><path class="cm" d="M534.73,532.66l12.65,22.91c1.33,2.42,4.4,3.26,6.78,1.86l22.36-13.13c2.3-1.35,3.1-4.28,1.81-6.61l-12.71-22.9c-1.34-2.41-4.4-3.25-6.78-1.85l-22.3,13.12c-2.29,1.35-3.09,4.27-1.81,6.6Z"/></g><g><path class="cm" d="M455.79,537.36l12.48,22.75c1.32,2.41,4.37,3.26,6.75,1.89l22.52-13c2.32-1.34,3.14-4.29,1.84-6.63l-12.69-22.87c-1.34-2.41-4.4-3.25-6.78-1.85l-22.31,13.12c-2.29,1.34-3.09,4.26-1.81,6.59Z"/><path class="cm" d="M486.64,519.26l12.65,22.91c1.33,2.42,4.4,3.26,6.78,1.86l22.36-13.13c2.3-1.35,3.1-4.28,1.81-6.61l-12.71-22.9c-1.34-2.41-4.4-3.25-6.78-1.85l-22.3,13.12c-2.29,1.35-3.09,4.27-1.81,6.6Z"/><path class="cm" d="M517.47,501.16l12.65,22.91c1.33,2.42,4.4,3.26,6.78,1.86l22.36-13.13c2.3-1.35,3.1-4.28,1.81-6.61l-12.71-22.9c-1.34-2.41-4.4-3.25-6.78-1.85l-22.3,13.12c-2.29,1.35-3.09,4.27-1.81,6.6Z"/></g></g><line class="cm" x1="469.89" y1="524" x2="555.84" y2="681.5"/><line class="co" x1="462.16" y1="528" x2="548.11" y2="685.51"/><line class="co" x1="477.58" y1="519.43" x2="563.53" y2="676.93"/><line class="co" x1="492.99" y1="510.85" x2="578.7" y2="667.92"/><line class="co" x1="508.41" y1="502.28" x2="593.96" y2="659.06"/><line class="co" x1="523.83" y1="493.7" x2="609.14" y2="650.04"/><line class="co" x1="539.24" y1="485.13" x2="624.38" y2="641.14"/><line class="cm" x1="499.99" y1="505.94" x2="585.94" y2="663.45"/><line class="cm" x1="530.09" y1="487.89" x2="616.29" y2="645.85"/></g><line class="cm" x1="554.99" y1="495.63" x2="461.9" y2="549.43"/><line class="cm" x1="572.25" y1="526.39" x2="479.16" y2="580.19"/><line class="cm" x1="589.51" y1="559.1" x2="496.42" y2="612.9"/><line class="cm" x1="606.77" y1="589.87" x2="513.68" y2="643.67"/><line class="cm" x1="624.03" y1="620.88" x2="530.94" y2="674.68"/></g></g><polyline class="cn" points="539.83 690.49 453.82 533.35 546.19 479.56 632.51 636.85 539.83 690.49"/></g><polyline class="dj" points="539.83 690.49 453.82 533.35 546.19 479.56 632.51 636.85 539.83 690.49"/><polyline class="cn" points="539.83 690.49 453.82 533.35 546.19 479.56 632.51 636.85 539.83 690.49"/></g><g><g><g><polyline class="cp" points="522.53 700.69 518.82 711.16 425.78 764.47 339.7 607.34 343.29 597.18"/><line class="cp" x1="425.78" y1="764.47" x2="429.51" y2="754.32"/><polyline class="cq" points="429.51 754.32 343.5 597.18 435.87 543.39 522.19 700.68 429.51 754.32"/></g><g><polyline class="ce" points="522.53 700.69 518.82 711.16 425.78 764.47 339.7 607.34 343.29 597.18"/><line class="c`" x1="425.78" y1="764.47" x2="429.51" y2="754.32"/><polyline class="cb" points="429.51 754.32 343.5 597.18 435.87 543.39 522.19 700.68 429.51 754.32"/></g><polyline class="cr" points="429.51 754.32 343.5 597.18 435.87 543.39 522.19 700.68 429.51 754.32"/><g class="cy"><g><g><g><g><path class="cm" d="M414.52,727.18l12.48,22.75c1.32,2.41,4.37,3.26,6.75,1.89l22.52-13c2.32-1.34,3.14-4.29,1.84-6.63l-12.69-22.87c-1.34-2.41-4.4-3.25-6.78-1.85l-22.31,13.12c-2.29,1.34-3.09,4.26-1.81,6.59Z"/><path class="cm" d="M445.37,709.08l12.65,22.91c1.33,2.42,4.4,3.26,6.78,1.86l22.36-13.13c2.3-1.35,3.1-4.28,1.81-6.61l-12.71-22.9c-1.34-2.41-4.4-3.25-6.78-1.85l-22.3,13.12c-2.29,1.35-3.09,4.27-1.81,6.6Z"/><path class="cm" d="M476.2,690.98l12.65,22.91c1.33,2.42,4.4,3.26,6.78,1.86l22.36-13.13c2.3-1.35,3.1-4.28,1.81-6.61l-12.71-22.9c-1.34-2.41-4.4-3.25-6.78-1.85l-22.3,13.12c-2.29,1.35-3.09,4.27-1.81,6.6Z"/></g><g><path class="cm" d="M397.26,695.68l12.48,22.75c1.32,2.41,4.37,3.26,6.75,1.89l22.52-13c2.32-1.34,3.14-4.29,1.84-6.63l-12.69-22.87c-1.34-2.41-4.4-3.25-6.78-1.85l-22.31,13.12c-2.29,1.34-3.09,4.26-1.81,6.59Z"/><path class="cm" d="M428.11,677.58l12.65,22.91c1.33,2.42,4.4,3.26,6.78,1.86l22.36-13.13c2.3-1.35,3.1-4.28,1.81-6.61l-12.71-22.9c-1.34-2.41-4.4-3.25-6.78-1.85l-22.3,13.12c-2.29,1.35-3.09,4.27-1.81,6.6Z"/><path class="cm" d="M458.94,659.48l12.65,22.91c1.33,2.42,4.4,3.26,6.78,1.86l22.36-13.13c2.3-1.35,3.1-4.28,1.81-6.61l-12.71-22.9c-1.34-2.41-4.4-3.25-6.78-1.85l-22.3,13.12c-2.29,1.35-3.09,4.27-1.81,6.6Z"/></g><g><path class="cm" d="M380,664.18l12.48,22.75c1.32,2.41,4.37,3.26,6.75,1.89l22.52-13c2.32-1.34,3.14-4.29,1.84-6.63l-12.69-22.87c-1.34-2.41-4.4-3.25-6.78-1.85l-22.31,13.12c-2.29,1.34-3.09,4.26-1.81,6.59Z"/><path class="cm" d="M410.84,646.09l12.65,22.91c1.33,2.42,4.4,3.26,6.78,1.86l22.36-13.13c2.3-1.35,3.1-4.28,1.81-6.61l-12.71-22.9c-1.34-2.41-4.4-3.25-6.78-1.85l-22.3,13.12c-2.29,1.35-3.09,4.27-1.81,6.6Z"/><path class="cm" d="M441.68,627.98l12.65,22.91c1.33,2.42,4.4,3.26,6.78,1.86l22.36-13.13c2.3-1.35,3.1-4.28,1.81-6.61l-12.71-22.9c-1.34-2.41-4.4-3.25-6.78-1.85l-22.3,13.12c-2.29,1.35-3.09,4.27-1.81,6.6Z"/></g><g><path class="cm" d="M362.74,632.69l12.48,22.75c1.32,2.41,4.37,3.26,6.75,1.89l22.52-13c2.32-1.34,3.14-4.29,1.84-6.63l-12.69-22.87c-1.34-2.41-4.4-3.25-6.78-1.85l-22.31,13.12c-2.29,1.34-3.09,4.26-1.81,6.59Z"/><path class="cm" d="M393.58,614.59l12.65,22.91c1.33,2.42,4.4,3.26,6.78,1.86l22.36-13.13c2.3-1.35,3.1-4.28,1.81-6.61l-12.71-22.9c-1.34-2.41-4.4-3.25-6.78-1.85l-22.3,13.12c-2.29,1.35-3.09,4.27-1.81,6.6Z"/><path class="cm" d="M424.42,596.49l12.65,22.91c1.33,2.42,4.4,3.26,6.78,1.86l22.36-13.13c2.3-1.35,3.1-4.28,1.81-6.61l-12.71-22.9c-1.34-2.41-4.4-3.25-6.78-1.85l-22.3,13.12c-2.29,1.35-3.09,4.27-1.81,6.6Z"/></g><g><path class="cm" d="M345.48,601.19l12.48,22.75c1.32,2.41,4.37,3.26,6.75,1.89l22.52-13c2.32-1.34,3.14-4.29,1.84-6.63l-12.69-22.87c-1.34-2.41-4.4-3.25-6.78-1.85l-22.31,13.12c-2.29,1.34-3.09,4.26-1.81,6.59Z"/><path class="cm" d="M376.32,583.09l12.65,22.91c1.33,2.42,4.4,3.26,6.78,1.86l22.36-13.13c2.3-1.35,3.1-4.28,1.81-6.61l-12.71-22.9c-1.34-2.41-4.4-3.25-6.78-1.85l-22.3,13.12c-2.29,1.35-3.09,4.27-1.81,6.6Z"/><path class="cm" d="M407.16,564.99l12.65,22.91c1.33,2.42,4.4,3.26,6.78,1.86l22.36-13.13c2.3-1.35,3.1-4.28,1.81-6.61l-12.71-22.9c-1.34-2.41-4.4-3.25-6.78-1.85l-22.3,13.12c-2.29,1.35-3.09,4.27-1.81,6.6Z"/></g></g><line class="cm" x1="359.57" y1="587.83" x2="445.52" y2="745.33"/><line class="co" x1="351.84" y1="591.83" x2="437.79" y2="749.34"/><line class="co" x1="367.26" y1="583.26" x2="453.21" y2="740.76"/><line class="co" x1="382.67" y1="574.68" x2="468.38" y2="731.75"/><line class="co" x1="398.09" y1="566.11" x2="483.65" y2="722.89"/><line class="co" x1="413.51" y1="557.53" x2="498.82" y2="713.87"/><line class="co" x1="428.92" y1="548.96" x2="514.06" y2="704.97"/><line class="cm" x1="389.67" y1="569.77" x2="475.62" y2="727.28"/><line class="cm" x1="419.77" y1="551.71" x2="505.97" y2="709.68"/></g><line class="cm" x1="444.67" y1="559.46" x2="351.58" y2="613.26"/><line class="cm" x1="461.93" y1="590.22" x2="368.84" y2="644.02"/><line class="cm" x1="479.19" y1="622.93" x2="386.1" y2="676.73"/><line class="cm" x1="496.45" y1="653.7" x2="403.36" y2="707.5"/><line class="cm" x1="513.71" y1="684.71" x2="420.62" y2="738.51"/></g></g><polyline class="cn" points="429.51 754.32 343.5 597.18 435.87 543.39 522.19 700.68 429.51 754.32"/></g><polyline class="di" points="429.51 754.32 343.5 597.18 435.87 543.39 522.19 700.68 429.51 754.32"/><polyline class="cn" points="429.51 754.32 343.5 597.18 435.87 543.39 522.19 700.68 429.51 754.32"/></g><g><g><g><polyline class="cp" points="648.28 401.16 644.57 411.63 551.53 464.94 465.46 307.81 469.04 297.65"/><line class="cp" x1="551.53" y1="464.94" x2="555.26" y2="454.79"/><polyline class="cq" points="555.26 454.79 469.26 297.65 561.62 243.86 647.95 401.15 555.26 454.79"/></g><g><polyline class="bv" points="648.28 401.16 644.57 411.63 551.53 464.94 465.46 307.81 469.04 297.65"/><line class="bx" x1="551.53" y1="464.94" x2="555.26" y2="454.79"/><polyline class="by" points="555.26 454.79 469.26 297.65 561.62 243.86 647.95 401.15 555.26 454.79"/></g><polyline class="cr" points="555.26 454.79 469.26 297.65 561.62 243.86 647.95 401.15 555.26 454.79"/><g class="cx"><g><g><g><g><path class="cm" d="M540.27,427.65l12.48,22.75c1.32,2.41,4.37,3.26,6.75,1.89l22.52-13c2.32-1.34,3.14-4.29,1.84-6.63l-12.69-22.87c-1.34-2.41-4.4-3.25-6.78-1.85l-22.31,13.12c-2.29,1.34-3.09,4.26-1.81,6.59Z"/><path class="cm" d="M571.12,409.55l12.65,22.91c1.33,2.42,4.4,3.26,6.78,1.86l22.36-13.13c2.3-1.35,3.1-4.28,1.81-6.61l-12.71-22.9c-1.34-2.41-4.4-3.25-6.78-1.85l-22.3,13.12c-2.29,1.35-3.09,4.27-1.81,6.6Z"/><path class="cm" d="M601.95,391.45l12.65,22.91c1.33,2.42,4.4,3.26,6.78,1.86l22.36-13.13c2.3-1.35,3.1-4.28,1.81-6.61l-12.71-22.9c-1.34-2.41-4.4-3.25-6.78-1.85l-22.3,13.12c-2.29,1.35-3.09,4.27-1.81,6.6Z"/></g><g><path class="cm" d="M523.01,396.15l12.48,22.75c1.32,2.41,4.37,3.26,6.75,1.89l22.52-13c2.32-1.34,3.14-4.29,1.84-6.63l-12.69-22.87c-1.34-2.41-4.4-3.25-6.78-1.85l-22.31,13.12c-2.29,1.34-3.09,4.26-1.81,6.59Z"/><path class="cm" d="M553.86,378.06l12.65,22.91c1.33,2.42,4.4,3.26,6.78,1.86l22.36-13.13c2.3-1.35,3.1-4.28,1.81-6.61l-12.71-22.9c-1.34-2.41-4.4-3.25-6.78-1.85l-22.3,13.12c-2.29,1.35-3.09,4.27-1.81,6.6Z"/><path class="cm" d="M584.69,359.95l12.65,22.91c1.33,2.42,4.4,3.26,6.78,1.86l22.36-13.13c2.3-1.35,3.1-4.28,1.81-6.61l-12.71-22.9c-1.34-2.41-4.4-3.25-6.78-1.85l-22.3,13.12c-2.29,1.35-3.09,4.27-1.81,6.6Z"/></g><g><path class="cm" d="M505.75,364.66l12.48,22.75c1.32,2.41,4.37,3.26,6.75,1.89l22.52-13c2.32-1.34,3.14-4.29,1.84-6.63l-12.69-22.87c-1.34-2.41-4.4-3.25-6.78-1.85l-22.31,13.12c-2.29,1.34-3.09,4.26-1.81,6.59Z"/><path class="cm" d="M536.6,346.56l12.65,22.91c1.33,2.42,4.4,3.26,6.78,1.86l22.36-13.13c2.3-1.35,3.1-4.28,1.81-6.61l-12.71-22.9c-1.34-2.41-4.4-3.25-6.78-1.85l-22.3,13.12c-2.29,1.35-3.09,4.27-1.81,6.6Z"/><path class="cm" d="M567.43,328.46l12.65,22.91c1.33,2.42,4.4,3.26,6.78,1.86l22.36-13.13c2.3-1.35,3.1-4.28,1.81-6.61l-12.71-22.9c-1.34-2.41-4.4-3.25-6.78-1.85l-22.3,13.12c-2.29,1.35-3.09,4.27-1.81,6.6Z"/></g><g><path class="cm" d="M488.49,333.16l12.48,22.75c1.32,2.41,4.37,3.26,6.75,1.89l22.52-13c2.32-1.34,3.14-4.29,1.84-6.63l-12.69-22.87c-1.34-2.41-4.4-3.25-6.78-1.85l-22.31,13.12c-2.29,1.34-3.09,4.26-1.81,6.59Z"/><path class="cm" d="M519.34,315.06l12.65,22.91c1.33,2.42,4.4,3.26,6.78,1.86l22.36-13.13c2.3-1.35,3.1-4.28,1.81-6.61l-12.71-22.9c-1.34-2.41-4.4-3.25-6.78-1.85l-22.3,13.12c-2.29,1.35-3.09,4.27-1.81,6.6Z"/><path class="cm" d="M550.17,296.96l12.65,22.91c1.33,2.42,4.4,3.26,6.78,1.86l22.36-13.13c2.3-1.35,3.1-4.28,1.81-6.61l-12.71-22.9c-1.34-2.41-4.4-3.25-6.78-1.85l-22.3,13.12c-2.29,1.35-3.09,4.27-1.81,6.6Z"/></g><g><path class="cm" d="M471.23,301.66l12.48,22.75c1.32,2.41,4.37,3.26,6.75,1.89l22.52-13c2.32-1.34,3.14-4.29,1.84-6.63l-12.69-22.87c-1.34-2.41-4.4-3.25-6.78-1.85l-22.31,13.12c-2.29,1.34-3.09,4.26-1.81,6.59Z"/><path class="cm" d="M502.08,283.56l12.65,22.91c1.33,2.42,4.4,3.26,6.78,1.86l22.36-13.13c2.3-1.35,3.1-4.28,1.81-6.61l-12.71-22.9c-1.34-2.41-4.4-3.25-6.78-1.85l-22.3,13.12c-2.29,1.35-3.09,4.27-1.81,6.6Z"/><path class="cm" d="M532.91,265.46l12.65,22.91c1.33,2.42,4.4,3.26,6.78,1.86l22.36-13.13c2.3-1.35,3.1-4.28,1.81-6.61l-12.71-22.9c-1.34-2.41-4.4-3.25-6.78-1.85l-22.3,13.12c-2.29,1.35-3.09,4.27-1.81,6.6Z"/></g></g><line class="cm" x1="485.32" y1="288.3" x2="571.27" y2="445.81"/><line class="co" x1="477.6" y1="292.3" x2="563.55" y2="449.81"/><line class="co" x1="493.01" y1="283.73" x2="578.96" y2="441.23"/><line class="co" x1="508.43" y1="275.15" x2="594.14" y2="432.22"/><line class="co" x1="523.84" y1="266.58" x2="609.4" y2="423.36"/><line class="co" x1="539.26" y1="258" x2="624.58" y2="414.35"/><line class="co" x1="554.68" y1="249.43" x2="639.81" y2="405.44"/><line class="cm" x1="515.42" y1="270.24" x2="601.37" y2="427.75"/><line class="cm" x1="545.52" y1="252.19" x2="631.72" y2="410.15"/></g><line class="cm" x1="570.42" y1="259.93" x2="477.33" y2="313.73"/><line class="cm" x1="587.68" y1="290.69" x2="494.59" y2="344.49"/><line class="cm" x1="604.94" y1="323.4" x2="511.85" y2="377.2"/><line class="cm" x1="622.2" y1="354.17" x2="529.11" y2="407.97"/><line class="cm" x1="639.46" y1="385.18" x2="546.37" y2="438.98"/></g></g><polyline class="cn" points="555.26 454.79 469.26 297.65 561.62 243.86 647.95 401.15 555.26 454.79"/></g><polyline class="df" points="555.26 454.79 469.26 297.65 561.62 243.86 647.95 401.15 555.26 454.79"/><polyline class="cn" points="555.26 454.79 469.26 297.65 561.62 243.86 647.95 401.15 555.26 454.79"/></g><g><g><g><polyline class="cp" points="538.96 463.99 535.25 474.46 442.21 527.77 356.14 370.64 359.72 360.48"/><line class="cp" x1="442.21" y1="527.77" x2="445.94" y2="517.62"/><polyline class="cq" points="445.94 517.62 359.94 360.48 452.3 306.69 538.63 463.98 445.94 517.62"/></g><g><polyline class="cd" points="538.96 463.99 535.25 474.46 442.21 527.77 356.14 370.64 359.72 360.48"/><line class="cf" x1="442.21" y1="527.77" x2="445.94" y2="517.62"/><polyline class="ca" points="445.94 517.62 359.94 360.48 452.3 306.69 538.63 463.98 445.94 517.62"/></g><polyline class="cr" points="445.94 517.62 359.94 360.48 452.3 306.69 538.63 463.98 445.94 517.62"/><g class="d`"><g><g><g><g><path class="cm" d="M430.95,490.48l12.48,22.75c1.32,2.41,4.37,3.26,6.75,1.89l22.52-13c2.32-1.34,3.14-4.29,1.84-6.63l-12.69-22.87c-1.34-2.41-4.4-3.25-6.78-1.85l-22.31,13.12c-2.29,1.34-3.09,4.26-1.81,6.59Z"/><path class="cm" d="M461.8,472.38l12.65,22.91c1.33,2.42,4.4,3.26,6.78,1.86l22.36-13.13c2.3-1.35,3.1-4.28,1.81-6.61l-12.71-22.9c-1.34-2.41-4.4-3.25-6.78-1.85l-22.3,13.12c-2.29,1.35-3.09,4.27-1.81,6.6Z"/><path class="cm" d="M492.63,454.28l12.65,22.91c1.33,2.42,4.4,3.26,6.78,1.86l22.36-13.13c2.3-1.35,3.1-4.28,1.81-6.61l-12.71-22.9c-1.34-2.41-4.4-3.25-6.78-1.85l-22.3,13.12c-2.29,1.35-3.09,4.27-1.81,6.6Z"/></g><g><path class="cm" d="M413.69,458.98l12.48,22.75c1.32,2.41,4.37,3.26,6.75,1.89l22.52-13c2.32-1.34,3.14-4.29,1.84-6.63l-12.69-22.87c-1.34-2.41-4.4-3.25-6.78-1.85l-22.31,13.12c-2.29,1.34-3.09,4.26-1.81,6.59Z"/><path class="cm" d="M444.54,440.88l12.65,22.91c1.33,2.42,4.4,3.26,6.78,1.86l22.36-13.13c2.3-1.35,3.1-4.28,1.81-6.61l-12.71-22.9c-1.34-2.41-4.4-3.25-6.78-1.85l-22.3,13.12c-2.29,1.35-3.09,4.27-1.81,6.6Z"/><path class="cm" d="M475.37,422.78l12.65,22.91c1.33,2.42,4.4,3.26,6.78,1.86l22.36-13.13c2.3-1.35,3.1-4.28,1.81-6.61l-12.71-22.9c-1.34-2.41-4.4-3.25-6.78-1.85l-22.3,13.12c-2.29,1.35-3.09,4.27-1.81,6.6Z"/></g><g><path class="cm" d="M396.43,427.48l12.48,22.75c1.32,2.41,4.37,3.26,6.75,1.89l22.52-13c2.32-1.34,3.14-4.29,1.84-6.63l-12.69-22.87c-1.34-2.41-4.4-3.25-6.78-1.85l-22.31,13.12c-2.29,1.34-3.09,4.26-1.81,6.59Z"/><path class="cm" d="M427.28,409.39l12.65,22.91c1.33,2.42,4.4,3.26,6.78,1.86l22.36-13.13c2.3-1.35,3.1-4.28,1.81-6.61l-12.71-22.9c-1.34-2.41-4.4-3.25-6.78-1.85l-22.3,13.12c-2.29,1.35-3.09,4.27-1.81,6.6Z"/><path class="cm" d="M458.11,391.29l12.65,22.91c1.33,2.42,4.4,3.26,6.78,1.86l22.36-13.13c2.3-1.35,3.1-4.28,1.81-6.61l-12.71-22.9c-1.34-2.41-4.4-3.25-6.78-1.85l-22.3,13.12c-2.29,1.35-3.09,4.27-1.81,6.6Z"/></g><g><path class="cm" d="M379.17,395.99l12.48,22.75c1.32,2.41,4.37,3.26,6.75,1.89l22.52-13c2.32-1.34,3.14-4.29,1.84-6.63l-12.69-22.87c-1.34-2.41-4.4-3.25-6.78-1.85l-22.31,13.12c-2.29,1.34-3.09,4.26-1.81,6.59Z"/><path class="cm" d="M410.02,377.89l12.65,22.91c1.33,2.42,4.4,3.26,6.78,1.86l22.36-13.13c2.3-1.35,3.1-4.28,1.81-6.61l-12.71-22.9c-1.34-2.41-4.4-3.25-6.78-1.85l-22.3,13.12c-2.29,1.35-3.09,4.27-1.81,6.6Z"/><path class="cm" d="M440.85,359.79l12.65,22.91c1.33,2.42,4.4,3.26,6.78,1.86l22.36-13.13c2.3-1.35,3.1-4.28,1.81-6.61l-12.71-22.9c-1.34-2.41-4.4-3.25-6.78-1.85l-22.3,13.12c-2.29,1.35-3.09,4.27-1.81,6.6Z"/></g><g><path class="cm" d="M361.91,364.49l12.48,22.75c1.32,2.41,4.37,3.26,6.75,1.89l22.52-13c2.32-1.34,3.14-4.29,1.84-6.63l-12.69-22.87c-1.34-2.41-4.4-3.25-6.78-1.85l-22.31,13.12c-2.29,1.34-3.09,4.26-1.81,6.59Z"/><path class="cm" d="M392.76,346.39l12.65,22.91c1.33,2.42,4.4,3.26,6.78,1.86l22.36-13.13c2.3-1.35,3.1-4.28,1.81-6.61l-12.71-22.9c-1.34-2.41-4.4-3.25-6.78-1.85l-22.3,13.12c-2.29,1.35-3.09,4.27-1.81,6.6Z"/><path class="cm" d="M423.59,328.29l12.65,22.91c1.33,2.42,4.4,3.26,6.78,1.86l22.36-13.13c2.3-1.35,3.1-4.28,1.81-6.61l-12.71-22.9c-1.34-2.41-4.4-3.25-6.78-1.85l-22.3,13.12c-2.29,1.35-3.09,4.27-1.81,6.6Z"/></g></g><line class="cm" x1="376" y1="351.13" x2="461.95" y2="508.64"/><line class="co" x1="368.28" y1="355.13" x2="454.23" y2="512.64"/><line class="co" x1="383.69" y1="346.56" x2="469.65" y2="504.06"/><line class="co" x1="399.11" y1="337.98" x2="484.82" y2="495.05"/><line class="co" x1="414.53" y1="329.41" x2="500.08" y2="486.19"/><line class="co" x1="429.94" y1="320.83" x2="515.26" y2="477.18"/><line class="co" x1="445.36" y1="312.26" x2="530.5" y2="468.27"/><line class="cm" x1="406.1" y1="333.07" x2="492.06" y2="490.58"/><line class="cm" x1="436.2" y1="315.02" x2="522.41" y2="472.98"/></g><line class="cm" x1="461.1" y1="322.76" x2="368.01" y2="376.56"/><line class="cm" x1="478.36" y1="353.52" x2="385.27" y2="407.32"/><line class="cm" x1="495.63" y1="386.23" x2="402.53" y2="440.03"/><line class="cm" x1="512.89" y1="417" x2="419.79" y2="470.8"/><line class="cm" x1="530.15" y1="448.01" x2="437.06" y2="501.81"/></g></g><polyline class="cn" points="445.94 517.62 359.94 360.48 452.3 306.69 538.63 463.98 445.94 517.62"/></g><polyline class="dg" points="445.94 517.62 359.94 360.48 452.3 306.69 538.63 463.98 445.94 517.62"/><polyline class="cn" points="445.94 517.62 359.94 360.48 452.3 306.69 538.63 463.98 445.94 517.62"/></g><g><g><g><polyline class="cp" points="428.64 527.82 424.94 538.29 331.89 591.6 245.82 434.47 249.4 424.31"/><line class="cp" x1="331.89" y1="591.6" x2="335.63" y2="581.45"/><polyline class="cq" points="335.63 581.45 249.62 424.31 341.98 370.52 428.31 527.81 335.63 581.45"/></g><g><polyline class="ci" points="428.64 527.82 424.94 538.29 331.89 591.6 245.82 434.47 249.4 424.31"/><line class="cg" x1="331.89" y1="591.6" x2="335.63" y2="581.45"/><polyline class="ch" points="335.63 581.45 249.62 424.31 341.98 370.52 428.31 527.81 335.63 581.45"/></g><polyline class="cr" points="335.63 581.45 249.62 424.31 341.98 370.52 428.31 527.81 335.63 581.45"/><g class="cw"><g><g><g><g><path class="cm" d="M320.64,554.31l12.48,22.75c1.32,2.41,4.37,3.26,6.75,1.89l22.52-13c2.32-1.34,3.14-4.29,1.84-6.63l-12.69-22.87c-1.34-2.41-4.4-3.25-6.78-1.85l-22.31,13.12c-2.29,1.34-3.09,4.26-1.81,6.59Z"/><path class="cm" d="M351.48,536.21l12.65,22.91c1.33,2.42,4.4,3.26,6.78,1.86l22.36-13.13c2.3-1.35,3.1-4.28,1.81-6.61l-12.71-22.9c-1.34-2.41-4.4-3.25-6.78-1.85l-22.3,13.12c-2.29,1.35-3.09,4.27-1.81,6.6Z"/><path class="cm" d="M382.32,518.11l12.65,22.91c1.33,2.42,4.4,3.26,6.78,1.86l22.36-13.13c2.3-1.35,3.1-4.28,1.81-6.61l-12.71-22.9c-1.34-2.41-4.4-3.25-6.78-1.85l-22.3,13.12c-2.29,1.35-3.09,4.27-1.81,6.6Z"/></g><g><path class="cm" d="M303.37,522.81l12.48,22.75c1.32,2.41,4.37,3.26,6.75,1.89l22.52-13c2.32-1.34,3.14-4.29,1.84-6.63l-12.69-22.87c-1.34-2.41-4.4-3.25-6.78-1.85l-22.31,13.12c-2.29,1.34-3.09,4.26-1.81,6.59Z"/><path class="cm" d="M334.22,504.71l12.65,22.91c1.33,2.42,4.4,3.26,6.78,1.86l22.36-13.13c2.3-1.35,3.1-4.28,1.81-6.61l-12.71-22.9c-1.34-2.41-4.4-3.25-6.78-1.85l-22.3,13.12c-2.29,1.35-3.09,4.27-1.81,6.6Z"/><path class="cm" d="M365.05,486.61l12.65,22.91c1.33,2.42,4.4,3.26,6.78,1.86l22.36-13.13c2.3-1.35,3.1-4.28,1.81-6.61l-12.71-22.9c-1.34-2.41-4.4-3.25-6.78-1.85l-22.3,13.12c-2.29,1.35-3.09,4.27-1.81,6.6Z"/></g><g><path class="cm" d="M286.11,491.31l12.48,22.75c1.32,2.41,4.37,3.26,6.75,1.89l22.52-13c2.32-1.34,3.14-4.29,1.84-6.63l-12.69-22.87c-1.34-2.41-4.4-3.25-6.78-1.85l-22.31,13.12c-2.29,1.34-3.09,4.26-1.81,6.59Z"/><path class="cm" d="M316.96,473.22l12.65,22.91c1.33,2.42,4.4,3.26,6.78,1.86l22.36-13.13c2.3-1.35,3.1-4.28,1.81-6.61l-12.71-22.9c-1.34-2.41-4.4-3.25-6.78-1.85l-22.3,13.12c-2.29,1.35-3.09,4.27-1.81,6.6Z"/><path class="cm" d="M347.79,455.12l12.65,22.91c1.33,2.42,4.4,3.26,6.78,1.86l22.36-13.13c2.3-1.35,3.1-4.28,1.81-6.61l-12.71-22.9c-1.34-2.41-4.4-3.25-6.78-1.85l-22.3,13.12c-2.29,1.35-3.09,4.27-1.81,6.6Z"/></g><g><path class="cm" d="M268.85,459.82l12.48,22.75c1.32,2.41,4.37,3.26,6.75,1.89l22.52-13c2.32-1.34,3.14-4.29,1.84-6.63l-12.69-22.87c-1.34-2.41-4.4-3.25-6.78-1.85l-22.31,13.12c-2.29,1.34-3.09,4.26-1.81,6.59Z"/><path class="cm" d="M299.7,441.72l12.65,22.91c1.33,2.42,4.4,3.26,6.78,1.86l22.36-13.13c2.3-1.35,3.1-4.28,1.81-6.61l-12.71-22.9c-1.34-2.41-4.4-3.25-6.78-1.85l-22.3,13.12c-2.29,1.35-3.09,4.27-1.81,6.6Z"/><path class="cm" d="M330.53,423.62l12.65,22.91c1.33,2.42,4.4,3.26,6.78,1.86l22.36-13.13c2.3-1.35,3.1-4.28,1.81-6.61l-12.71-22.9c-1.34-2.41-4.4-3.25-6.78-1.85l-22.3,13.12c-2.29,1.35-3.09,4.27-1.81,6.6Z"/></g><g><path class="cm" d="M251.59,428.32l12.48,22.75c1.32,2.41,4.37,3.26,6.75,1.89l22.52-13c2.32-1.34,3.14-4.29,1.84-6.63l-12.69-22.87c-1.34-2.41-4.4-3.25-6.78-1.85l-22.31,13.12c-2.29,1.34-3.09,4.26-1.81,6.59Z"/><path class="cm" d="M282.44,410.22l12.65,22.91c1.33,2.42,4.4,3.26,6.78,1.86l22.36-13.13c2.3-1.35,3.1-4.28,1.81-6.61l-12.71-22.9c-1.34-2.41-4.4-3.25-6.78-1.85l-22.3,13.12c-2.29,1.35-3.09,4.27-1.81,6.6Z"/><path class="cm" d="M313.27,392.12l12.65,22.91c1.33,2.42,4.4,3.26,6.78,1.86l22.36-13.13c2.3-1.35,3.1-4.28,1.81-6.61l-12.71-22.9c-1.34-2.41-4.4-3.25-6.78-1.85l-22.3,13.12c-2.29,1.35-3.09,4.27-1.81,6.6Z"/></g></g><line class="cm" x1="265.68" y1="414.96" x2="351.64" y2="572.47"/><line class="co" x1="257.96" y1="418.96" x2="343.91" y2="576.47"/><line class="co" x1="273.37" y1="410.39" x2="359.33" y2="567.89"/><line class="co" x1="288.79" y1="401.81" x2="374.5" y2="558.88"/><line class="co" x1="304.21" y1="393.24" x2="389.76" y2="550.02"/><line class="co" x1="319.62" y1="384.66" x2="404.94" y2="541"/><line class="co" x1="335.04" y1="376.09" x2="420.18" y2="532.1"/><line class="cm" x1="295.78" y1="396.9" x2="381.74" y2="554.41"/><line class="cm" x1="325.89" y1="378.85" x2="412.09" y2="536.81"/></g><line class="cm" x1="350.78" y1="386.59" x2="257.69" y2="440.39"/><line class="cm" x1="368.05" y1="417.35" x2="274.95" y2="471.15"/><line class="cm" x1="385.31" y1="450.06" x2="292.22" y2="503.86"/><line class="cm" x1="402.57" y1="480.83" x2="309.48" y2="534.63"/><line class="cm" x1="419.83" y1="511.84" x2="326.74" y2="565.64"/></g></g><polyline class="cn" points="335.63 581.45 249.62 424.31 341.98 370.52 428.31 527.81 335.63 581.45"/></g><polyline class="de" points="335.63 581.45 249.62 424.31 341.98 370.52 428.31 527.81 335.63 581.45"/><polyline class="cn" points="335.63 581.45 249.62 424.31 341.98 370.52 428.31 527.81 335.63 581.45"/></g></g></g></g></g></g></svg>