<?xml version="1.0" encoding="UTF-8"?>
<svg xmlns="http://www.w3.org/2000/svg" xmlns:xlink="http://www.w3.org/1999/xlink" viewBox="0 0 2000 2000">
    <defs>
        <style>.g,.h,.i{fill:none;}.h{stroke-width:2px;}.h,.i{stroke:rgb(255, 243, 237);stroke-linecap:square;stroke-linejoin:bevel;}.j{clip-path:url(#f);}.i{stroke-dasharray:0 0 0 0 0 0 10 5;stroke-width:1.5px;}</style>
        <clipPath id="f">
            <rect class="g" width="2000" height="2000" />
        </clipPath>
    </defs>
    <g id="a" />
    <g id="b">
        <g id="c">
            <g id="d">
                <g id="e">
                    <g class="j">
                        <g>
                            <path class="h" d="M546.61,2078.71l150.3,86.79c14.68,8.48,32.76,8.48,47.44,0l175.31-101.22c11.53-6.66,11.53-23.3,0-29.96l-150.19-86.79c-14.68-8.48-32.77-8.49-47.45-.01l-175.41,101.23c-11.53,6.66-11.54,23.3,0,29.96Z" />
                            <path class="h" d="M768.73,1947.2l150.3,86.79c14.68,8.48,32.76,8.48,47.44,0l175.31-101.22c11.53-6.66,11.53-23.3,0-29.96l-150.19-86.79c-14.68-8.48-32.77-8.49-47.45-.01l-175.41,101.23c-11.53,6.66-11.54,23.3,0,29.96Z" />
                            <path class="h" d="M970.27,2062.54l150.3,86.79c14.68,8.48,32.76,8.48,47.44,0l175.31-101.22c11.53-6.66,11.53-23.3,0-29.96l-150.19-86.79c-14.68-8.48-32.77-8.49-47.45-.01l-175.41,101.23c-11.53,6.66-11.54,23.3,0,29.96h0Z" />
                            <line class="h" x1="382.02" y1="2505.55" x2="1272.3" y2="1975.71" />
                            <line class="i" x1="226.89" y1="2415.35" x2="1111.99" y2="1887.67" />
                            <line class="i" x1="142.39" y1="2366.78" x2="1024.24" y2="1832.57" />
                            <line class="i" x1="339.72" y1="2480.95" x2="1224.82" y2="1953.27" />
                            <line class="h" x1="858.67" y1="1866.94" x2="1458.47" y2="2213.26" />
                            <line class="h" x1="638.18" y1="1997.35" x2="1238.87" y2="2344.19" />
                            <path class="h" d="M-299.67,2110.27l150.3,86.79c14.68,8.48,32.76,8.48,47.44,0l175.31-101.22c11.53-6.66,11.53-23.3,0-29.96l-150.19-86.79c-14.68-8.48-32.77-8.49-47.45-.01l-175.41,101.23c-11.53,6.66-11.54,23.3,0,29.96Z" />
                            <path class="h" d="M-278.24,1863.68l150.3,86.79c14.68,8.48,32.76,8.48,47.44,0l175.31-101.22c11.53-6.66,11.53-23.3,0-29.96l-150.19-86.79c-14.68-8.48-32.77-8.49-47.45-.01l-175.41,101.23c-11.53,6.66-11.54,23.3,0,29.96Z" />
                            <path class="h" d="M-77.25,1979.02l150.3,86.79c14.68,8.48,32.76,8.48,47.44,0l175.31-101.22c11.53-6.66,11.53-23.3,0-29.96l-150.19-86.79c-14.68-8.48-32.77-8.49-47.45-.01l-175.41,101.23c-11.53,6.66-11.54,23.3,0,29.96h0Z" />
                            <path class="h" d="M123.74,2094.36l150.3,86.79c14.68,8.48,32.76,8.48,47.44,0l175.31-101.22c11.53-6.66,11.53-23.3,0-29.96l-150.19-86.79c-14.68-8.48-32.77-8.49-47.45-.01l-175.41,101.23c-11.53,6.66-11.54,23.3,0,29.96Z" />
                            <path class="h" d="M-55.82,1732.43l150.3,86.79c14.68,8.48,32.76,8.48,47.44,0l175.31-101.22c11.53-6.66,11.53-23.3,0-29.96l-150.19-86.79c-14.68-8.48-32.77-8.49-47.45-.01l-175.41,101.23c-11.53,6.66-11.54,23.3,0,29.96h0Z" />
                            <path class="h" d="M145.17,1847.77l150.3,86.79c14.68,8.48,32.76,8.48,47.44,0l175.31-101.22c11.53-6.66,13.68-25.07,2.15-31.73l-150.19-86.79c-14.68-8.48-34.91-6.71-49.59,1.76l-175.41,101.23c-11.53,6.66-11.54,23.3,0,29.96h0Z" />
                            <path class="h" d="M346.16,1963.11l150.3,86.79c14.68,8.48,32.76,8.48,47.44,0l175.31-101.22c11.53-6.66,11.53-23.3,0-29.96l-150.19-86.79c-14.68-8.48-32.77-8.49-47.45-.01l-175.41,101.23c-11.53,6.66-11.54,23.3,0,29.96h0Z" />
                            <path class="h" d="M166.6,1601.18l150.3,86.79c14.68,8.48,32.76,8.48,47.44,0l175.31-101.22c11.53-6.66,14.63-24.67,3.1-31.33l-150.19-86.79c-14.68-8.48-35.86-7.12-50.54,1.36l-175.41,101.23c-11.53,6.66-11.54,23.3,0,29.96h0Z" />
                            <path class="h" d="M370.56,1714.75l150.3,86.79c14.68,8.48,32.76,8.48,47.44,0l175.31-101.22c11.53-6.66,11.53-23.3,0-29.96l-150.19-86.79c-14.68-8.48-32.77-8.49-47.45-.01l-175.41,101.23c-11.53,6.66-11.54,23.3,0,29.96h0Z" />
                            <path class="h" d="M568.58,1831.86l150.3,86.79c14.68,8.48,32.76,8.48,47.44,0l175.31-101.22c11.53-6.66,11.53-23.3,0-29.96l-150.19-86.79c-14.68-8.48-32.77-8.49-47.45-.01l-175.41,101.23c-11.53,6.66-11.54,23.3,0,29.96h0Z" />
                            <line class="h" x1="-415.24" y1="2043.51" x2="469.85" y2="1515.83" />
                            <line class="h" x1="-217.91" y1="2157.68" x2="672.37" y2="1627.85" />
                            <line class="h" x1="-18.32" y1="2269.32" x2="863.63" y2="1742.44" />
                            <line class="i" x1="-373.03" y1="2067.49" x2="508.82" y2="1533.27" />
                            <line class="i" x1="-175.7" y1="2181.66" x2="714.58" y2="1651.82" />
                            <line class="i" x1="23.89" y1="2293.29" x2="904.48" y2="1766.19" />
                            <line class="i" x1="-457.53" y1="2018.92" x2="427.56" y2="1491.24" />
                            <line class="i" x1="-260.2" y1="2133.09" x2="630.08" y2="1603.26" />
                            <line class="i" x1="-60.61" y1="2244.73" x2="821.34" y2="1717.84" />
                            <line class="h" x1="258.74" y1="1519.08" x2="858.54" y2="1865.4" />
                            <line class="h" x1="38.25" y1="1649.49" x2="638.94" y2="1996.33" />
                            <line class="h" x1="-182.46" y1="1779.77" x2="416.24" y2="2125.46" />
                            <line class="h" x1="-403.78" y1="1909.7" x2="195.26" y2="2256.85" />
                            <path class="h" d="M-253.11,1614.56l150.3,86.79c14.68,8.48,32.76,8.48,47.44,0l175.31-101.22c11.53-6.66,11.53-23.3,0-29.96l-150.19-86.79c-14.68-8.48-32.77-8.49-47.45-.01l-175.41,101.23c-11.53,6.66-11.54,23.3,0,29.96Z" />
                            <path class="h" d="M-231.68,1367.97l150.3,86.79c14.68,8.48,32.76,8.48,47.44,0l175.31-101.22c11.53-6.66,13.09-24.26,1.57-30.92L-7.25,1235.82c-14.68-8.48-34.33-7.52-49.01,.95l-175.41,101.23c-11.53,6.66-11.54,23.3,0,29.96h0Z" />
                            <path class="h" d="M-30.69,1483.31l150.3,86.79c14.68,8.48,32.76,8.48,47.44,0l175.31-101.22c11.53-6.66,11.53-23.3,0-29.96l-150.19-86.79c-14.68-8.48-32.77-8.49-47.45-.01l-175.41,101.23c-11.53,6.66-11.54,23.3,0,29.96h0Z" />
                            <line class="h" x1="-618.67" y1="1921.4" x2="263.27" y2="1394.51" />
                            <line class="i" x1="-776.06" y1="1833.73" x2="109.04" y2="1306.05" />
                            <line class="i" x1="-576.47" y1="1945.37" x2="305.48" y2="1418.48" />
                            <line class="i" x1="-860.56" y1="1785.17" x2="24.54" y2="1257.48" />
                            <line class="i" x1="-660.97" y1="1896.8" x2="220.98" y2="1369.92" />
                            <line class="h" x1="-341.61" y1="1171.15" x2="258.18" y2="1517.48" />
                            <line class="h" x1="-562.11" y1="1301.56" x2="38.59" y2="1648.4" />
                            <path class="h" d="M1391.36,2047.31l150.3,86.79c14.68,8.48,32.76,8.48,47.44,0l175.31-101.22c11.53-6.66,11.53-23.3,0-29.96l-150.19-86.79c-14.68-8.48-32.77-8.49-47.45-.01l-175.41,101.23c-11.53,6.66-11.54,23.3,0,29.96Z" />
                            <path class="h" d="M1613.79,1916.06l150.3,86.79c14.68,8.48,32.76,8.48,47.44,0l175.31-101.22c11.53-6.66,11.53-23.3,0-29.96l-150.19-86.79c-14.68-8.48-32.77-8.49-47.45-.01l-175.41,101.23c-11.53,6.66-11.54,23.3,0,29.96h0Z" />
                            <path class="h" d="M1814.78,2031.4l150.3,86.79c14.68,8.48,32.76,8.48,47.44,0l175.31-101.22c11.53-6.66,11.53-23.3,0-29.96l-150.19-86.79c-14.68-8.48-32.77-8.49-47.45-.01l-175.41,101.23c-11.53,6.66-11.54,23.3,0,29.96h0Z" />
                            <path class="h" d="M1836.21,1784.81l150.3,86.79c14.68,8.48,32.76,8.48,47.44,0l175.31-101.22c11.53-6.66,11.53-23.3,0-29.96l-150.19-86.79c-14.68-8.48-32.77-8.49-47.45-.01l-175.41,101.23c-11.53,6.66-11.54,23.3,0,29.96h0Z" />
                            <line class="h" x1="1463.76" y1="2087.88" x2="2360.8" y2="1568.85" />
                            <line class="h" x1="1666.86" y1="2203.78" x2="2558.13" y2="1683.02" />
                            <line class="h" x1="1872.63" y1="2322.33" x2="2754.57" y2="1795.45" />
                            <line class="i" x1="1505.96" y1="2111.86" x2="2403.01" y2="1592.82" />
                            <line class="i" x1="1709.07" y1="2227.75" x2="2600.34" y2="1706.99" />
                            <line class="i" x1="1914.83" y1="2346.31" x2="2796.78" y2="1819.42" />
                            <line class="i" x1="1421.46" y1="2063.29" x2="2318.51" y2="1544.25" />
                            <line class="i" x1="1624.57" y1="2179.19" x2="2515.84" y2="1658.42" />
                            <line class="i" x1="1830.33" y1="2297.74" x2="2712.28" y2="1770.86" />
                            <line class="h" x1="1929.19" y1="1702.5" x2="2529.89" y2="2049.34" />
                            <line class="h" x1="1708.48" y1="1832.78" x2="2307.18" y2="2178.47" />
                            <line class="h" x1="1487.17" y1="1962.71" x2="2086.2" y2="2309.86" />
                            <path class="h" d="M791.03,1700.69l150.3,86.79c14.68,8.48,32.76,8.48,47.44,0l175.31-101.22c11.53-6.66,11.53-23.3,0-29.96l-150.19-86.79c-14.68-8.48-32.77-8.49-47.45-.01l-175.41,101.23c-11.53,6.66-11.54,23.3,0,29.96Z" />
                            <path class="h" d="M992.02,1816.03l150.3,86.79c14.68,8.48,32.76,8.48,47.44,0l175.31-101.22c11.53-6.66,11.53-23.3,0-29.96l-150.19-86.79c-14.68-8.48-32.77-8.49-47.45-.01l-175.41,101.23c-11.53,6.66-11.54,23.3,0,29.96h0Z" />
                            <path class="h" d="M1193.01,1931.37l150.3,86.79c14.68,8.48,32.76,8.48,47.44,0l175.31-101.22c11.53-6.66,11.53-23.3,0-29.96l-150.19-86.79c-14.68-8.48-32.77-8.49-47.45-.01l-175.41,101.23c-11.53,6.66-11.54,23.3,0,29.96h0Z" />
                            <path class="h" d="M1013.45,1569.44l150.3,86.79c14.68,8.48,32.76,8.48,47.44,0l175.31-101.22c11.53-6.66,11.53-23.3,0-29.96l-150.19-86.79c-14.68-8.48-32.77-8.49-47.45-.01l-175.41,101.23c-11.53,6.66-11.54,23.3,0,29.96h0Z" />
                            <path class="h" d="M1214.44,1684.78l150.3,86.79c14.68,8.48,32.76,8.48,47.44,0l175.31-101.22c11.53-6.66,11.53-23.3,0-29.96l-150.19-86.79c-14.68-8.48-32.77-8.49-47.45-.01l-175.41,101.23c-11.53,6.66-11.54,23.3,0,29.96h0Z" />
                            <path class="h" d="M1415.44,1800.12l150.3,86.79c14.68,8.48,32.76,8.48,47.44,0l175.31-101.22c11.53-6.66,11.53-23.3,0-29.96l-150.19-86.79c-14.68-8.48-32.77-8.49-47.45-.01l-175.41,101.23c-11.53,6.66-11.54,23.3,0,29.96h0Z" />
                            <path class="h" d="M1235.88,1438.19l150.3,86.79c14.68,8.48,32.76,8.48,47.44,0l175.31-101.22c11.53-6.66,11.53-23.3,0-29.96l-150.19-86.79c-14.68-8.48-32.77-8.49-47.45-.01l-175.41,101.23c-11.53,6.66-11.54,23.3,0,29.96Z" />
                            <path class="h" d="M1436.87,1553.53l150.3,86.79c14.68,8.48,32.76,8.48,47.44,0l175.31-101.22c11.53-6.66,11.53-23.3,0-29.96l-150.19-86.79c-14.68-8.48-32.77-8.49-47.45-.01l-175.41,101.23c-11.53,6.66-11.54,23.3,0,29.96Z" />
                            <path class="h" d="M1637.86,1668.87l150.3,86.79c14.68,8.48,32.76,8.48,47.44,0l175.31-101.22c11.53-6.66,11.53-23.3,0-29.96l-150.19-86.79c-14.68-8.48-32.77-8.49-47.45-.01l-175.41,101.23c-11.53,6.66-11.54,23.3,0,29.96Z" />
                            <path class="h" d="M1458.3,1306.94l150.3,86.79c14.68,8.48,32.76,8.48,47.44,0l175.31-101.22c11.53-6.66,11.53-23.3,0-29.96l-150.19-86.79c-14.68-8.48-32.77-8.49-47.45-.01l-175.41,101.23c-11.53,6.66-11.54,23.3,0,29.96h0Z" />
                            <path class="h" d="M1659.29,1422.28l150.3,86.79c14.68,8.48,32.76,8.48,47.44,0l175.31-101.22c11.53-6.66,11.53-23.3,0-29.96l-150.19-86.79c-14.68-8.48-32.77-8.49-47.45-.01l-175.41,101.23c-11.53,6.66-11.54,23.3,0,29.96h0Z" />
                            <path class="h" d="M1860.28,1537.62l150.3,86.79c14.68,8.48,32.76,8.48,47.44,0l175.31-101.22c11.53-6.66,11.53-23.3,0-29.96l-150.19-86.79c-14.68-8.48-32.77-8.49-47.45-.01l-175.41,101.23c-11.53,6.66-11.54,23.3,0,29.96h0Z" />
                            <line class="h" x1="863.63" y1="1742.44" x2="1760.47" y2="1222.23" />
                            <polyline class="h" points="184.69 2391.38 1065.73 1859.16 1957.8 1336.4" />
                            <line class="h" x1="1272.3" y1="1975.71" x2="2154.24" y2="1448.83" />
                            <line class="i" x1="905.63" y1="1765.24" x2="1802.68" y2="1246.2" />
                            <line class="i" x1="1111.99" y1="1887.67" x2="2000.01" y2="1360.37" />
                            <line class="i" x1="1314.5" y1="1999.69" x2="2196.45" y2="1472.8" />
                            <line class="i" x1="821.13" y1="1716.67" x2="1718.18" y2="1197.63" />
                            <line class="i" x1="1024.24" y1="1832.57" x2="1915.5" y2="1311.8" />
                            <line class="i" x1="1230" y1="1951.12" x2="2111.95" y2="1424.24" />
                            <line class="h" x1="1549.36" y1="1225.47" x2="2149.15" y2="1571.79" />
                            <line class="h" x1="1328.86" y1="1355.88" x2="1929.56" y2="1702.72" />
                            <line class="h" x1="1108.15" y1="1486.16" x2="1706.85" y2="1831.85" />
                            <line class="h" x1="886.84" y1="1616.09" x2="1485.87" y2="1963.24" />
                            <path class="h" d="M192.31,1352.38l150.3,86.79c14.68,8.48,31.57,8.93,46.24,.45l175.31-101.22c11.53-6.66,11.53-23.3,0-29.96l-150.19-86.79c-14.68-8.48-32.77-8.49-47.45-.01l-175.41,101.23c-11.53,6.66-10.34,22.85,1.2,29.51h0Z" />
                            <path class="h" d="M392.1,1468.17l150.3,86.79c14.68,8.48,32.76,8.48,47.44,0l175.31-101.22c11.53-6.66,11.53-23.3,0-29.96l-150.19-86.79c-14.68-8.48-32.77-8.49-47.45-.01l-175.41,101.23c-11.53,6.66-11.54,23.3,0,29.96Z" />
                            <path class="h" d="M593.09,1583.51l150.3,86.79c14.68,8.48,32.76,8.48,47.44,0l175.31-101.22c11.53-6.66,11.53-23.3,0-29.96l-150.19-86.79c-14.68-8.48-32.77-8.49-47.45-.01l-175.41,101.23c-11.53,6.66-11.54,23.3,0,29.96h0Z" />
                            <path class="h" d="M413.53,1221.58l150.3,86.79c14.68,8.48,32.76,8.48,47.44,0l175.31-101.22c11.53-6.66,11.53-23.3,0-29.96l-150.19-86.79c-14.68-8.48-32.77-8.49-47.45-.01l-175.41,101.23c-11.53,6.66-11.54,23.3,0,29.96Z" />
                            <path class="h" d="M614.52,1336.92l150.3,86.79c14.68,8.48,32.76,8.48,47.44,0l175.31-101.22c11.53-6.66,11.53-23.3,0-29.96l-150.19-86.79c-14.68-8.48-32.77-8.49-47.45-.01l-175.41,101.23c-11.53,6.66-11.54,23.3,0,29.96Z" />
                            <path class="h" d="M815.51,1452.26l150.3,86.79c14.68,8.48,32.76,8.48,47.44,0l175.31-101.22c11.53-6.66,11.53-23.3,0-29.96l-150.19-86.79c-14.68-8.48-32.77-8.49-47.45-.01l-175.41,101.23c-11.53,6.66-11.54,23.3,0,29.96h0Z" />
                            <path class="h" d="M635.95,1090.33l150.3,86.79c14.68,8.48,32.76,8.48,47.44,0l175.31-101.22c11.53-6.66,11.53-23.3,0-29.96l-150.19-86.79c-14.68-8.48-32.77-8.49-47.45-.01l-175.41,101.23c-11.53,6.66-11.54,23.3,0,29.96h0Z" />
                            <path class="h" d="M836.94,1205.67l150.3,86.79c14.68,8.48,32.76,8.48,47.44,0l175.31-101.22c11.53-6.66,11.53-23.3,0-29.96l-150.19-86.79c-14.68-8.48-32.77-8.49-47.45-.01l-175.41,101.23c-11.53,6.66-11.54,23.3,0,29.96h0Z" />
                            <path class="h" d="M1037.93,1321.01l150.3,86.79c14.68,8.48,32.76,8.48,47.44,0l175.31-101.22c11.53-6.66,11.53-23.3,0-29.96l-150.19-86.79c-14.68-8.48-32.77-8.49-47.45-.01l-175.41,101.23c-11.53,6.66-11.54,23.3,0,29.96Z" />
                            <path class="h" d="M858.37,959.08l150.3,86.79c14.68,8.48,32.76,8.48,47.44,0l175.31-101.22c11.53-6.66,11.53-23.3,0-29.96l-150.19-86.79c-14.68-8.48-32.77-8.49-47.45-.01l-175.41,101.23c-11.53,6.66-11.54,23.3,0,29.96Z" />
                            <path class="h" d="M1059.36,1074.42l150.3,86.79c14.68,8.48,32.76,8.48,47.44,0l175.31-101.22c11.53-6.66,11.53-23.3,0-29.96l-150.19-86.79c-14.68-8.48-32.77-8.49-47.45-.01l-175.41,101.23c-11.53,6.66-11.54,23.3,0,29.96h0Z" />
                            <path class="h" d="M1260.35,1189.76l150.3,86.79c14.68,8.48,32.76,8.48,47.44,0l175.31-101.22c11.53-6.66,11.53-23.3,0-29.96l-150.19-86.79c-14.68-8.48-32.77-8.49-47.45-.01l-175.41,101.23c-11.53,6.66-11.54,23.3,0,29.96Z" />
                            <line class="h" x1="263.5" y1="1393.4" x2="1160.54" y2="874.36" />
                            <line class="h" x1="469.85" y1="1515.83" x2="1357.87" y2="988.53" />
                            <line class="h" x1="672.37" y1="1627.85" x2="1554.32" y2="1100.97" />
                            <line class="i" x1="305.71" y1="1417.37" x2="1202.75" y2="898.34" />
                            <line class="i" x1="508.82" y1="1533.27" x2="1400.08" y2="1012.51" />
                            <line class="i" x1="714.58" y1="1651.82" x2="1596.53" y2="1124.94" />
                            <line class="i" x1="221.2" y1="1368.81" x2="1118.25" y2="849.77" />
                            <line class="i" x1="424.31" y1="1484.7" x2="1315.58" y2="963.94" />
                            <line class="i" x1="630.08" y1="1603.26" x2="1512.02" y2="1076.37" />
                            <line class="h" x1="949.43" y1="877.61" x2="1549.23" y2="1223.93" />
                            <line class="h" x1="728.94" y1="1008.02" x2="1329.63" y2="1354.86" />
                            <line class="h" x1="506.57" y1="1136.07" x2="1106.93" y2="1483.99" />
                            <line class="h" x1="286.91" y1="1268.23" x2="885.94" y2="1615.38" />
                            <path class="h" d="M-208.26,1120.24l150.3,86.79c14.68,8.48,32.76,8.48,47.44,0l175.31-101.22c11.53-6.66,11.53-23.3,0-29.96L14.61,989.07c-14.68-8.48-32.77-8.49-47.45-.01l-175.41,101.23c-11.53,6.66-11.54,23.3,0,29.96h0Z" />
                            <path class="h" d="M-7.27,1235.59l150.3,86.79c14.68,8.48,32.76,8.48,47.44,0l175.31-101.22c11.53-6.66,11.53-23.3,0-29.96l-150.19-86.79c-14.68-8.48-32.77-8.49-47.45-.01L-7.27,1205.63c-11.53,6.66-11.54,23.3,0,29.96Z" />
                            <path class="h" d="M-186.83,873.65l150.3,86.79c14.68,8.48,32.76,8.48,47.44,0l175.31-101.22c11.53-6.66,11.53-23.3,0-29.96l-150.19-86.79c-14.68-8.48-32.77-8.49-47.45-.01l-175.41,101.23c-11.53,6.66-11.54,23.3,0,29.96h0Z" />
                            <path class="h" d="M14.16,989l150.3,86.79c14.68,8.48,32.76,8.48,47.44,0l175.31-101.22c11.53-6.66,11.53-23.3,0-29.96l-150.19-86.79c-14.68-8.48-32.77-8.49-47.45-.01L14.17,959.04c-11.53,6.66-11.54,23.3,0,29.96h-.01Z" />
                            <path class="h" d="M215.15,1104.34l150.3,86.79c14.68,8.48,32.76,8.48,47.44,0l175.31-101.22c11.53-6.66,11.53-23.3,0-29.96l-150.19-86.79c-14.68-8.48-32.77-8.49-47.45-.01l-175.41,101.23c-11.53,6.66-11.54,23.3,0,29.96h0Z" />
                            <path class="h" d="M35.59,742.4l150.3,86.79c14.68,8.48,32.76,8.48,47.44,0l175.31-101.22c11.53-6.66,11.53-23.3,0-29.96l-150.19-86.79c-14.68-8.48-32.77-8.49-47.45-.01l-175.41,101.23c-11.53,6.66-11.54,23.3,0,29.96h0Z" />
                            <path class="h" d="M236.58,857.75l150.3,86.79c14.68,8.48,32.76,8.48,47.44,0l175.31-101.22c11.53-6.66,11.53-23.3,0-29.96l-150.19-86.79c-14.68-8.48-32.77-8.49-47.45-.01l-175.41,101.23c-11.53,6.66-11.54,23.3,0,29.96h0Z" />
                            <path class="h" d="M437.57,973.09l150.3,86.79c14.68,8.48,32.76,8.48,47.44,0l175.31-101.22c11.53-6.66,11.53-23.3,0-29.96l-150.19-86.79c-14.68-8.48-32.77-8.49-47.45-.01l-175.41,101.23c-11.53,6.66-11.54,23.3,0,29.96h0Z" />
                            <path class="h" d="M258.01,611.16l150.3,86.79c14.68,8.48,32.76,8.48,47.44,0l175.31-101.22c11.53-6.66,11.53-23.3,0-29.96l-150.19-86.79c-14.68-8.48-32.77-8.49-47.45-.01l-175.41,101.23c-11.53,6.66-11.54,23.3,0,29.96h0Z" />
                            <path class="h" d="M459,726.5l150.3,86.79c14.68,8.48,32.76,8.48,47.44,0l175.31-101.22c11.53-6.66,11.53-23.3,0-29.96l-150.19-86.79c-14.68-8.48-32.77-8.49-47.45-.01l-175.41,101.23c-11.53,6.66-11.54,23.3,0,29.96h0Z" />
                            <path class="h" d="M660,841.84l150.3,86.79c14.68,8.48,32.76,8.48,47.44,0l175.31-101.22c11.53-6.66,11.53-23.3,0-29.96l-150.19-86.79c-14.68-8.48-32.77-8.49-47.45-.01l-175.41,101.23c-11.53,6.66-11.54,23.3,0,29.96Z" />
                            <line class="h" x1="-336.86" y1="1045.48" x2="560.19" y2="526.44" />
                            <line class="h" x1="-133.75" y1="1161.37" x2="757.52" y2="640.61" />
                            <polyline class="h" points="-818.27 1809.76 66.83 1282.08 953.96 753.04" />
                            <line class="i" x1="-294.65" y1="1069.45" x2="602.39" y2="550.41" />
                            <line class="i" x1="-91.54" y1="1185.34" x2="799.72" y2="664.58" />
                            <line class="i" x1="114.22" y1="1303.9" x2="996.17" y2="777.02" />
                            <line class="i" x1="-379.15" y1="1020.88" x2="517.89" y2="501.85" />
                            <line class="i" x1="-176.04" y1="1136.78" x2="715.22" y2="616.02" />
                            <line class="i" x1="29.72" y1="1255.33" x2="911.67" y2="728.45" />
                            <line class="h" x1="349.07" y1="529.68" x2="948.87" y2="876.01" />
                            <line class="h" x1="128.58" y1="660.09" x2="729.27" y2="1006.93" />
                            <line class="h" x1="-92.13" y1="790.38" x2="506.57" y2="1136.07" />
                            <line class="h" x1="-313.45" y1="920.31" x2="285.59" y2="1267.46" />
                            <path class="h" d="M1676.13,1173.01l150.3,86.79c14.68,8.48,32.76,8.48,47.44,0l175.31-101.22c11.53-6.66,11.53-23.3,0-29.96l-150.19-86.79c-14.68-8.48-32.77-8.49-47.45-.01l-175.41,101.23c-11.53,6.66-11.54,23.3,0,29.96Z" />
                            <path class="h" d="M1877.12,1288.35l150.3,86.79c14.68,8.48,32.76,8.48,47.44,0l175.31-101.22c11.53-6.66,11.53-23.3,0-29.96l-150.19-86.79c-14.68-8.48-32.77-8.49-47.45-.01l-175.41,101.23c-11.53,6.66-11.54,23.3,0,29.96h0Z" />
                            <path class="h" d="M1898.55,1041.76l150.3,86.79c14.68,8.48,32.76,8.48,47.44,0l175.31-101.22c11.53-6.66,11.53-23.3,0-29.96l-150.19-86.79c-14.68-8.48-32.77-8.49-47.45-.01l-175.41,101.23c-11.53,6.66-11.54,23.3,0,29.96h0Z" />
                            <line class="h" x1="1760.47" y1="1222.23" x2="2645.56" y2="694.54" />
                            <line class="h" x1="1957.8" y1="1336.4" x2="2842.89" y2="808.71" />
                            <line class="i" x1="1802.68" y1="1246.2" x2="2687.77" y2="718.52" />
                            <line class="i" x1="2000.01" y1="1360.37" x2="2885.1" y2="832.69" />
                            <line class="i" x1="1718.18" y1="1197.63" x2="2603.27" y2="669.95" />
                            <line class="i" x1="1915.5" y1="1311.8" x2="2800.6" y2="784.12" />
                            <line class="h" x1="1993.24" y1="958.48" x2="2591.95" y2="1304.17" />
                            <line class="h" x1="1771.93" y1="1088.41" x2="2370.97" y2="1435.56" />
                            <path class="h" d="M1076.2,825.15l150.3,86.79c14.68,8.48,32.76,8.48,47.44,0l175.31-101.22c11.53-6.66,11.53-23.3,0-29.96l-150.19-86.79c-14.68-8.48-32.77-8.49-47.45-.01l-175.41,101.23c-11.53,6.66-11.54,23.3,0,29.96h0Z" />
                            <path class="h" d="M1277.19,940.49l150.3,86.79c14.68,8.48,32.76,8.48,47.44,0l175.31-101.22c11.53-6.66,11.53-23.3,0-29.96l-150.19-86.79c-14.68-8.48-32.77-8.49-47.45-.01l-175.41,101.23c-11.53,6.66-11.54,23.3,0,29.96h0Z" />
                            <path class="h" d="M1478.18,1055.83l150.3,86.79c14.68,8.48,32.76,8.48,47.44,0l175.31-101.22c11.53-6.66,11.53-23.3,0-29.96l-150.19-86.79c-14.68-8.48-32.77-8.49-47.45-.01l-175.41,101.23c-11.53,6.66-11.54,23.3,0,29.96Z" />
                            <path class="h" d="M1298.62,693.9l150.3,86.79c14.68,8.48,32.76,8.48,47.44,0l175.31-101.22c11.53-6.66,11.53-23.3,0-29.96l-150.19-86.79c-14.68-8.48-32.77-8.49-47.45-.01l-175.41,101.23c-11.53,6.66-11.54,23.3,0,29.96h0Z" />
                            <path class="h" d="M1499.61,809.24l150.3,86.79c14.68,8.48,32.76,8.48,47.44,0l175.31-101.22c11.53-6.66,11.53-23.3,0-29.96l-150.19-86.79c-14.68-8.48-32.77-8.49-47.45-.01l-175.41,101.23c-11.53,6.66-11.54,23.3,0,29.96h0Z" />
                            <path class="h" d="M1700.6,924.58l150.3,86.79c14.68,8.48,32.76,8.48,47.44,0l175.31-101.22c11.53-6.66,11.53-23.3,0-29.96l-150.19-86.79c-14.68-8.48-32.77-8.49-47.45-.01l-175.41,101.23c-11.53,6.66-11.54,23.3,0,29.96Z" />
                            <path class="h" d="M1521.04,562.65l150.3,86.79c14.68,8.48,32.76,8.48,47.44,0l175.31-101.22c11.53-6.66,11.53-23.3,0-29.96l-150.19-86.79c-14.68-8.48-32.77-8.49-47.45-.01l-175.41,101.23c-11.53,6.66-11.54,23.3,0,29.96h0Z" />
                            <path class="h" d="M1722.03,677.99l150.3,86.79c14.68,8.48,32.76,8.48,47.44,0l175.31-101.22c11.53-6.66,11.53-23.3,0-29.96l-150.19-86.79c-14.68-8.48-32.77-8.49-47.45-.01l-175.41,101.23c-11.53,6.66-11.54,23.3,0,29.96h0Z" />
                            <path class="h" d="M1923.02,793.33l150.3,86.79c14.68,8.48,32.76,8.48,47.44,0l175.31-101.22c11.53-6.66,11.53-23.3,0-29.96l-150.19-86.79c-14.68-8.48-32.77-8.49-47.45-.01l-175.41,101.23c-11.53,6.66-11.54,23.3,0,29.96h0Z" />
                            <path class="h" d="M1743.47,431.4l150.3,86.79c14.68,8.48,32.76,8.48,47.44,0l175.31-101.22c11.53-6.66,11.53-23.3,0-29.96l-150.19-86.79c-14.68-8.48-32.77-8.49-47.45-.01l-175.41,101.23c-11.53,6.66-11.54,23.3,0,29.96h0Z" />
                            <path class="h" d="M1944.46,546.74l150.3,86.79c14.68,8.48,32.76,8.48,47.44,0l175.31-101.22c11.53-6.66,11.53-23.3,0-29.96l-150.19-86.79c-14.68-8.48-32.77-8.49-47.45-.01l-175.41,101.23c-11.53,6.66-11.54,23.3,0,29.96h0Z" />
                            <line class="h" x1="1160.54" y1="874.36" x2="2045.64" y2="346.68" />
                            <line class="h" x1="1357.87" y1="988.53" x2="2242.97" y2="460.85" />
                            <line class="h" x1="1557.46" y1="1100.17" x2="2439.41" y2="573.29" />
                            <line class="i" x1="1202.75" y1="898.34" x2="2087.85" y2="370.66" />
                            <line class="i" x1="1400.08" y1="1012.51" x2="2285.17" y2="484.82" />
                            <line class="i" x1="1599.67" y1="1124.14" x2="2481.62" y2="597.26" />
                            <line class="i" x1="1118.25" y1="849.77" x2="2003.34" y2="322.09" />
                            <line class="i" x1="1315.58" y1="963.94" x2="2200.67" y2="436.26" />
                            <line class="i" x1="1515.17" y1="1075.58" x2="2397.12" y2="548.69" />
                            <line class="h" x1="1834.53" y1="349.93" x2="2434.32" y2="696.25" />
                            <line class="h" x1="1614.03" y1="480.34" x2="2214.72" y2="827.18" />
                            <line class="h" x1="1393.32" y1="610.62" x2="1992.02" y2="956.31" />
                            <line class="h" x1="1172.01" y1="740.55" x2="1771.04" y2="1087.7" />
                            <path class="h" d="M475.85,477.22l150.3,86.79c14.68,8.48,32.76,8.48,47.44,0l175.31-101.22c11.53-6.66,11.53-23.3,0-29.96l-150.19-86.79c-14.68-8.48-32.77-8.49-47.45-.01l-175.41,101.23c-11.53,6.66-11.54,23.3,0,29.96Z" />
                            <path class="h" d="M676.84,592.56l150.3,86.79c14.68,8.48,32.76,8.48,47.44,0l175.31-101.22c11.53-6.66,11.53-23.3,0-29.96l-150.19-86.79c-14.68-8.48-32.77-8.49-47.45-.01l-175.41,101.23c-11.53,6.66-11.54,23.3,0,29.96h0Z" />
                            <path class="h" d="M877.83,707.9l150.3,86.79c14.68,8.48,32.76,8.48,47.44,0l175.31-101.22c11.53-6.66,11.53-23.3,0-29.96l-150.19-86.79c-14.68-8.48-32.77-8.49-47.45-.01l-175.41,101.23c-11.53,6.66-11.54,23.3,0,29.96h0Z" />
                            <path class="h" d="M698.27,345.97l150.3,86.79c14.68,8.48,32.76,8.48,47.44,0l175.31-101.22c11.53-6.66,11.53-23.3,0-29.96l-150.19-86.79c-14.68-8.48-32.77-8.49-47.45,0l-175.41,101.23c-11.53,6.66-11.54,23.3,0,29.96Z" />
                            <path class="h" d="M899.26,461.31l150.3,86.79c14.68,8.48,32.76,8.48,47.44,0l175.31-101.22c11.53-6.66,11.53-23.3,0-29.96l-150.19-86.79c-14.68-8.48-32.77-8.49-47.45-.01l-175.41,101.23c-11.53,6.66-11.54,23.3,0,29.96h0Z" />
                            <path class="h" d="M1100.25,576.65l150.3,86.79c14.68,8.48,32.76,8.48,47.44,0l175.31-101.22c11.53-6.66,11.53-23.3,0-29.96l-150.19-86.79c-14.68-8.48-32.77-8.49-47.45-.01l-175.41,101.23c-11.53,6.66-11.54,23.3,0,29.96h0Z" />
                            <path class="h" d="M920.69,214.72l150.3,86.79c14.68,8.48,32.76,8.48,47.44,0l175.31-101.22c11.53-6.66,11.53-23.3,0-29.96l-150.19-86.79c-14.68-8.48-32.77-8.49-47.45-.01l-175.41,101.23c-11.53,6.66-11.54,23.3,0,29.96h0Z" />
                            <path class="h" d="M1121.68,330.06l150.3,86.79c14.68,8.48,32.76,8.48,47.44,0l175.31-101.22c11.53-6.66,11.53-23.3,0-29.96l-150.19-86.79c-14.68-8.48-32.77-8.49-47.45,0l-175.41,101.23c-11.53,6.66-11.54,23.3,0,29.96Z" />
                            <path class="h" d="M1322.67,445.41l150.3,86.79c14.68,8.48,32.76,8.48,47.44,0l175.31-101.22c11.53-6.66,11.53-23.3,0-29.96l-150.19-86.79c-14.68-8.48-32.77-8.49-47.45-.01l-175.41,101.23c-11.53,6.66-11.54,23.3,0,29.96Z" />
                            <path class="h" d="M1143.11,83.47l150.3,86.79c14.68,8.48,32.76,8.48,47.44,0l175.31-101.22c11.53-6.66,11.53-23.3,0-29.96l-150.19-86.79c-14.68-8.48-32.77-8.49-47.45,0l-175.41,101.23c-11.53,6.66-11.54,23.3,0,29.96h0Z" />
                            <path class="h" d="M1344.1,198.81l150.3,86.79c14.68,8.48,32.76,8.48,47.44,0l175.31-101.22c11.53-6.66,11.53-23.3,0-29.96l-150.19-86.79c-14.68-8.48-32.77-8.49-47.45-.01l-175.41,101.23c-11.53,6.66-11.54,23.3,0,29.96Z" />
                            <path class="h" d="M1545.09,314.16l150.3,86.79c14.68,8.48,32.76,8.48,47.44,0l175.31-101.22c11.53-6.66,11.53-23.3,0-29.96l-150.19-86.79c-14.68-8.48-32.77-8.49-47.45,0l-175.41,101.23c-11.53,6.66-11.54,23.3,0,29.96Z" />
                            <line class="h" x1="560.19" y1="526.44" x2="1445.28" y2="-1.24" />
                            <line class="h" x1="757.52" y1="640.61" x2="1642.61" y2="112.93" />
                            <line class="h" x1="957.11" y1="752.24" x2="1839.06" y2="225.36" />
                            <line class="i" x1="602.39" y1="550.41" x2="1487.49" y2="22.73" />
                            <line class="i" x1="799.72" y1="664.58" x2="1684.82" y2="136.9" />
                            <line class="i" x1="999.32" y1="776.22" x2="1881.26" y2="249.33" />
                            <line class="i" x1="517.89" y1="501.85" x2="1402.99" y2="-25.84" />
                            <line class="i" x1="715.22" y1="616.02" x2="1600.32" y2="88.33" />
                            <line class="i" x1="914.82" y1="727.65" x2="1796.76" y2="200.77" />
                            <line class="h" x1="1234.17" y1="2" x2="1833.97" y2="348.33" />
                            <line class="h" x1="1013.67" y1="132.41" x2="1614.37" y2="479.25" />
                            <line class="h" x1="792.96" y1="262.69" x2="1391.66" y2="608.39" />
                            <line class="h" x1="571.65" y1="392.63" x2="1170.68" y2="739.77" />
                            <path class="h" d="M-363.75,511.13l150.3,86.79c14.68,8.48,32.76,8.48,47.44,0L9.31,496.69c11.53-6.66,11.53-23.3,0-29.96l-150.19-86.79c-14.68-8.48-32.77-8.49-47.45-.01l-175.41,101.23c-11.53,6.66-11.54,23.3,0,29.96h-.01Z" />
                            <path class="h" d="M-162.76,626.47L-12.45,713.25c14.68,8.48,32.76,8.48,47.44,0l175.31-101.22c11.53-6.66,11.53-23.3,0-29.96L60.11,495.29c-14.68-8.48-32.77-8.49-47.45-.01l-175.41,101.23c-11.53,6.66-11.54,23.3,0,29.96h0Z" />
                            <path class="h" d="M-342.32,264.54l150.3,86.79c14.68,8.48,32.76,8.48,47.44,0L30.74,250.1c11.53-6.66,11.53-23.3,0-29.96L-119.45,133.36c-14.68-8.48-32.77-8.49-47.45,0l-175.41,101.23c-11.53,6.66-11.54,23.3,0,29.96h-.01Z" />
                            <path class="h" d="M-141.33,379.88L8.98,466.66c14.68,8.48,32.76,8.48,47.44,0l175.31-101.22c11.53-6.66,11.53-23.3,0-29.96L81.54,248.7c-14.68-8.48-32.77-8.49-47.45,0l-175.41,101.23c-11.53,6.66-11.54,23.3,0,29.96h0Z" />
                            <path class="h" d="M59.66,495.22l150.3,86.79c14.68,8.48,32.76,8.48,47.44,0l175.31-101.22c11.53-6.66,11.53-23.3,0-29.96l-150.19-86.79c-14.68-8.48-32.77-8.49-47.45-.01L59.67,465.26c-11.53,6.66-11.54,23.3,0,29.96h0Z" />
                            <line class="h" x1="-734.08" y1="814.75" x2="157.18" y2="293.99" />
                            <line class="h" x1="-528.32" y1="933.31" x2="353.63" y2="406.42" />
                            <line class="i" x1="-894.98" y1="722.83" x2="2.06" y2="203.79" />
                            <line class="i" x1="-691.87" y1="838.72" x2="199.39" y2="317.96" />
                            <line class="i" x1="-486.11" y1="957.28" x2="395.84" y2="430.4" />
                            <line class="i" x1="-776.37" y1="790.16" x2="114.89" y2="269.4" />
                            <line class="i" x1="-570.61" y1="908.71" x2="311.34" y2="381.83" />
                            <line class="h" x1="-251.26" y1="183.07" x2="348.54" y2="529.39" />
                            <line class="h" x1="-471.75" y1="313.47" x2="128.94" y2="660.31" />
                            <path class="h" d="M-124.49,130.6L25.82,217.39c14.68,8.48,32.76,8.48,47.44,0L248.57,116.17c11.53-6.66,11.53-23.3,0-29.96L98.38-.57c-14.68-8.48-32.77-8.49-47.45,0L-124.48,100.64c-11.53,6.66-11.54,23.3,0,29.96h0Z" />
                            <path class="h" d="M76.51,245.94l150.3,86.79c14.68,8.48,32.76,8.48,47.44,0l175.31-101.22c11.53-6.66,11.53-23.3,0-29.96l-150.19-86.79c-14.68-8.48-32.77-8.49-47.45-.01L76.51,215.98c-11.53,6.66-11.54,23.3,0,29.96Z" />
                            <path class="h" d="M277.5,361.28l150.3,86.79c14.68,8.48,32.76,8.48,47.44,0l175.31-101.22c11.53-6.66,11.53-23.3,0-29.96l-150.19-86.79c-14.68-8.48-32.77-8.49-47.45,0l-175.41,101.23c-11.53,6.66-11.54,23.3,0,29.96h0Z" />
                            <path class="h" d="M97.94-.65L248.24,86.14c14.68,8.48,32.76,8.48,47.44,0L470.99-15.08c11.53-6.66,11.53-23.3,0-29.96l-150.19-86.79c-14.68-8.48-32.77-8.49-47.45,0L97.94-30.61c-11.53,6.66-11.54,23.3,0,29.96Z" />
                            <path class="h" d="M298.93,114.69l150.3,86.79c14.68,8.48,32.76,8.48,47.44,0l175.31-101.22c11.53-6.66,11.53-23.3,0-29.96L521.79-16.48c-14.68-8.48-32.77-8.49-47.45-.01l-175.41,101.23c-11.53,6.66-11.54,23.3,0,29.96h0Z" />
                            <path class="h" d="M499.92,230.03l150.3,86.79c14.68,8.48,32.76,8.48,47.44,0l175.31-101.22c11.53-6.66,11.53-23.3,0-29.96l-150.19-86.79c-14.68-8.48-32.77-8.49-47.45-.01l-175.41,101.23c-11.53,6.66-11.54,23.3,0,29.96Z" />
                            <path class="h" d="M521.35-16.56l150.3,86.79c14.68,8.48,32.76,8.48,47.44,0L894.4-30.99c11.53-6.66,11.53-23.3,0-29.96l-150.19-86.79c-14.68-8.48-32.77-8.49-47.45,0l-175.41,101.23c-11.53,6.66-11.54,23.3,0,29.96h0Z" />
                            <path class="h" d="M722.34,98.79l150.3,86.79c14.68,8.48,32.76,8.48,47.44,0l175.31-101.22c11.53-6.66,11.53-23.3,0-29.96l-150.19-86.79c-14.68-8.48-32.77-8.49-47.45,0l-175.41,101.23c-11.53,6.66-11.54,23.3,0,29.96h0Z" />
                            <path class="h" d="M944.76-32.46l150.3,86.79c14.68,8.48,32.76,8.48,47.44,0l175.31-101.22c11.53-6.66,11.53-23.3,0-29.96l-150.19-86.79c-14.68-8.48-32.77-8.49-47.45,0l-175.41,101.23c-11.53,6.66-11.54,23.3,0,29.96h0Z" />
                            <line class="h" x1="-40.15" y1="179.82" x2="844.95" y2="-347.86" />
                            <line class="h" x1="157.18" y1="293.99" x2="1042.28" y2="-233.69" />
                            <line class="h" x1="356.78" y1="405.62" x2="1238.73" y2="-121.26" />
                            <line class="i" x1="2.06" y1="203.79" x2="887.16" y2="-323.89" />
                            <line class="i" x1="199.39" y1="317.96" x2="1084.49" y2="-209.72" />
                            <line class="i" x1="398.99" y1="429.6" x2="1280.93" y2="-97.29" />
                            <line class="i" x1="-82.44" y1="155.23" x2="802.66" y2="-372.46" />
                            <line class="i" x1="114.89" y1="269.4" x2="999.99" y2="-258.29" />
                            <line class="i" x1="314.48" y1="381.03" x2="1196.43" y2="-145.85" />
                            <line class="h" x1="633.84" y1="-344.62" x2="1233.63" y2="1.71" />
                            <line class="h" x1="413.34" y1="-214.21" x2="1014.04" y2="132.63" />
                            <line class="h" x1="192.63" y1="-83.93" x2="791.33" y2="261.77" />
                            <line class="h" x1="-28.68" y1="46.01" x2="570.35" y2="393.15" />
                            <path class="h" d="M-322.43,13.42L-172.13,100.21c14.68,8.48,32.76,8.48,47.44,0L50.62-1.01c11.53-6.66,11.53-23.3,0-29.96L-99.57-117.75c-14.68-8.48-32.77-8.49-47.45-.01L-322.43-16.54c-11.53,6.66-11.54,23.3,0,29.96Z" />
                            <line class="h" x1="-243.15" y1="57.76" x2="638.8" y2="-469.12" />
                            <line class="i" x1="-200.94" y1="81.74" x2="681.01" y2="-445.15" />
                            <line class="i" x1="-285.44" y1="33.17" x2="596.51" y2="-493.71" />
                            <path class="h" d="M1769.65,184.12l150.3,86.79c14.68,8.48,32.76,8.48,47.44,0l175.31-101.22c11.53-6.66,11.53-23.3,0-29.96l-150.19-86.79c-14.68-8.48-32.77-8.49-47.45,0l-175.41,101.23c-11.53,6.66-11.54,23.3,0,29.96h0Z" />
                            <path class="h" d="M1967.6,300.52l150.3,86.79c14.68,8.48,32.76,8.48,47.44,0l175.31-101.22c11.53-6.66,11.53-23.3,0-29.96l-150.19-86.79c-14.68-8.48-32.77-8.49-47.45,0l-175.41,101.23c-11.53,6.66-11.54,23.3,0,29.96Z" />
                            <path class="h" d="M1992.04,52.74l150.3,86.79c14.68,8.48,32.76,8.48,47.44,0l175.31-101.22c11.53-6.66,11.53-23.3,0-29.96l-150.19-86.79c-14.68-8.48-32.77-8.49-47.45-.01l-175.41,101.23c-11.53,6.66-11.54,23.3,0,29.96h0Z" />
                            <line class="h" x1="1841.07" y1="223.92" x2="2738.12" y2="-295.12" />
                            <line class="i" x1="1883.28" y1="247.9" x2="2780.32" y2="-271.14" />
                            <line class="i" x1="1798.78" y1="199.33" x2="2695.82" y2="-319.71" />
                            <line class="h" x1="1861.85" y1="100.66" x2="2463.52" y2="445.9" />
                            <path class="h" d="M1368-46.55l150.3,86.79c14.68,8.48,32.76,8.48,47.44,0l175.31-101.22c11.53-6.66,11.53-23.3,0-29.96l-150.19-86.79c-14.68-8.48-32.77-8.49-47.45,0l-175.41,101.23c-11.53,6.66-11.54,23.3,0,29.96h0Z" />
                            <path class="h" d="M1568.99,68.79l150.3,86.79c14.68,8.48,32.76,8.48,47.44,0l175.31-101.22c11.53-6.66,11.53-23.3,0-29.96l-150.19-86.79c-14.68-8.48-32.77-8.49-47.45,0l-175.41,101.23c-11.53,6.66-11.54,23.3,0,29.96h0Z" />
                            <path class="h" d="M1791.41-62.46l150.3,86.79c14.68,8.48,32.76,8.48,47.44,0l175.31-101.22c11.53-6.66,11.53-23.3,0-29.96l-150.19-86.79c-14.68-8.48-32.77-8.49-47.45,0l-175.41,101.23c-11.53,6.66-11.54,23.3,0,29.96Z" />
                            <line class="h" x1="1648.27" y1="113.13" x2="2530.22" y2="-413.76" />
                            <line class="i" x1="1484.72" y1="18.54" x2="2375.98" y2="-502.22" />
                            <line class="i" x1="1690.48" y1="137.1" x2="2572.43" y2="-389.78" />
                            <line class="i" x1="1605.98" y1="88.53" x2="2487.92" y2="-438.35" />
                            <line class="h" x1="1262.81" y1="-246.49" x2="1861.85" y2="100.66" />
                        </g>
                    </g>
                </g>
            </g>
        </g>
    </g>
</svg>